<?xml version="1.0" encoding="UTF-8"?>
<svg width="80px" height="34px" viewBox="0 0 80 34" version="1.1" xmlns="http://www.w3.org/2000/svg" xmlns:xlink="http://www.w3.org/1999/xlink">
    <title>icon_Mastercard</title>
    <defs>
        <polygon id="path-1" points="0 13.149 75 13.149 75 0 0 0"></polygon>
    </defs>
    <g id="icon_Mastercard" stroke="none" stroke-width="1" fill="none" fill-rule="evenodd">
        <g id="Group-8" transform="translate(3.000000, 10.000000)">
            <path d="M34.4035,6.6032 C34.4035,5.8352 34.9065,5.2042 35.7295,5.2042 C36.5165,5.2042 37.0465,5.8072 37.0465,6.6032 C37.0465,7.3992 36.5165,8.0022 35.7295,8.0022 C34.9065,8.0022 34.4035,7.3712 34.4035,6.6032 Z M37.9435,6.6032 L37.9435,4.4172 L36.9915,4.4172 L36.9915,4.9472 C36.6625,4.5232 36.1475,4.2842 35.6105,4.3072 C34.3855,4.3072 33.4245,5.2682 33.4245,6.6032 C33.4245,7.9382 34.3855,8.8992 35.6105,8.8992 C36.1475,8.9222 36.6625,8.6832 36.9915,8.2592 L36.9915,8.7892 L37.9435,8.7892 L37.9435,6.6032 Z M70.0665,6.6032 C70.0665,5.8352 70.5695,5.2042 71.3925,5.2042 C72.1795,5.2042 72.7095,5.8072 72.7095,6.6032 C72.7095,7.3992 72.1795,8.0022 71.3925,8.0022 C70.5695,8.0022 70.0665,7.3712 70.0665,6.6032 L70.0665,6.6032 Z M74.6705,8.5822 L74.6705,8.6502 L74.7335,8.6502 C74.7455,8.6512 74.7575,8.6482 74.7685,8.6422 C74.7765,8.6362 74.7815,8.6262 74.7805,8.6152 C74.7815,8.6052 74.7765,8.5962 74.7685,8.5902 C74.7575,8.5842 74.7455,8.5812 74.7335,8.5822 L74.6705,8.5822 Z M74.7345,8.5332 C74.7615,8.5312 74.7885,8.5392 74.8105,8.5552 C74.8285,8.5702 74.8385,8.5922 74.8375,8.6152 C74.8385,8.6352 74.8305,8.6542 74.8165,8.6682 C74.7995,8.6832 74.7775,8.6922 74.7555,8.6942 L74.8395,8.7912 L74.7735,8.7912 L74.6955,8.6942 L74.6705,8.6942 L74.6705,8.7912 L74.6155,8.7912 L74.6155,8.5332 L74.7345,8.5332 Z M74.7175,8.8792 C74.7465,8.8802 74.7755,8.8742 74.8015,8.8622 C74.8265,8.8512 74.8495,8.8362 74.8695,8.8162 C74.9535,8.7312 74.9535,8.5952 74.8695,8.5102 C74.8495,8.4912 74.8265,8.4752 74.8015,8.4642 C74.7745,8.4532 74.7465,8.4472 74.7175,8.4482 C74.6885,8.4472 74.6595,8.4532 74.6325,8.4642 C74.5225,8.5112 74.4705,8.6382 74.5175,8.7482 C74.5285,8.7742 74.5445,8.7972 74.5635,8.8162 C74.5835,8.8362 74.6065,8.8522 74.6325,8.8622 C74.6595,8.8742 74.6885,8.8802 74.7175,8.8792 Z M74.7175,8.3862 C74.7555,8.3852 74.7925,8.3932 74.8275,8.4072 C74.8615,8.4212 74.8915,8.4422 74.9175,8.4672 C74.9435,8.4922 74.9635,8.5222 74.9775,8.5552 C75.0075,8.6242 75.0075,8.7022 74.9775,8.7712 C74.9635,8.8042 74.9425,8.8332 74.9175,8.8592 C74.8915,8.8842 74.8605,8.9042 74.8275,8.9182 C74.7925,8.9332 74.7555,8.9412 74.7175,8.9412 C74.6045,8.9422 74.5005,8.8752 74.4555,8.7712 C74.4265,8.7022 74.4265,8.6242 74.4555,8.5552 C74.4845,8.4882 74.5385,8.4352 74.6055,8.4072 C74.6415,8.3932 74.6795,8.3852 74.7175,8.3862 Z M73.6065,6.6032 L73.6065,2.6612 L72.6545,2.6612 L72.6545,4.9472 C72.3255,4.5232 71.8105,4.2842 71.2735,4.3072 C70.0475,4.3072 69.0875,5.2682 69.0875,6.6032 C69.0875,7.9382 70.0475,8.8992 71.2735,8.8992 C71.8105,8.9222 72.3255,8.6832 72.6545,8.2592 L72.6545,8.7892 L73.6065,8.7892 L73.6065,6.6032 Z M49.7425,5.1582 C50.3555,5.1582 50.7485,5.5422 50.8495,6.2192 L48.5805,6.2192 C48.6815,5.5882 49.0655,5.1582 49.7425,5.1582 L49.7425,5.1582 Z M49.7605,4.3072 C48.4805,4.3072 47.5835,5.2402 47.5835,6.6032 C47.5835,7.9932 48.5165,8.8992 49.8245,8.8992 C50.4775,8.9222 51.1155,8.7042 51.6175,8.2862 L51.1505,7.5822 C50.7895,7.8712 50.3425,8.0322 49.8795,8.0392 C49.2665,8.0392 48.7085,7.7562 48.5715,6.9692 L51.8185,6.9692 C51.8275,6.8502 51.8365,6.7312 51.8365,6.6032 C51.8275,5.2402 50.9865,4.3072 49.7605,4.3072 Z M61.2395,6.6032 C61.2395,5.8352 61.7425,5.2042 62.5665,5.2042 C63.3525,5.2042 63.8835,5.8072 63.8835,6.6032 C63.8835,7.3992 63.3525,8.0022 62.5665,8.0022 C61.7425,8.0022 61.2395,7.3712 61.2395,6.6032 L61.2395,6.6032 Z M64.7795,6.6032 L64.7795,4.4172 L63.8285,4.4172 L63.8285,4.9472 C63.4985,4.5232 62.9835,4.2842 62.4475,4.3072 C61.2215,4.3072 60.2615,5.2682 60.2615,6.6032 C60.2615,7.9382 61.2215,8.8992 62.4475,8.8992 C62.9835,8.9222 63.4985,8.6832 63.8285,8.2592 L63.8285,8.7892 L64.7795,8.7892 L64.7795,6.6032 Z M55.8705,6.6032 C55.8705,7.9292 56.7945,8.8992 58.2035,8.8992 C58.7745,8.9282 59.3355,8.7422 59.7765,8.3772 L59.3185,7.6092 C58.9905,7.8602 58.5895,7.9982 58.1755,8.0022 C57.4165,7.9932 56.8585,7.4452 56.8585,6.6032 C56.8585,5.7622 57.4165,5.2132 58.1755,5.2042 C58.5895,5.2082 58.9905,5.3462 59.3185,5.5972 L59.7765,4.8292 C59.3355,4.4652 58.7745,4.2792 58.2035,4.3072 C56.7945,4.3072 55.8705,5.2772 55.8705,6.6032 Z M68.1275,4.3072 C67.6545,4.2932 67.2125,4.5392 66.9745,4.9472 L66.9745,4.4172 L66.0325,4.4172 L66.0325,8.7892 L66.9835,8.7892 L66.9835,6.3382 C66.9835,5.6152 67.2945,5.2132 67.9165,5.2132 C68.1205,5.2102 68.3225,5.2472 68.5115,5.3232 L68.8045,4.4262 C68.5865,4.3482 68.3575,4.3082 68.1275,4.3072 Z M42.6445,4.7652 C42.1065,4.4442 41.4875,4.2862 40.8605,4.3072 C39.7545,4.3072 39.0405,4.8382 39.0405,5.7072 C39.0405,6.4202 39.5715,6.8592 40.5495,6.9962 L40.9985,7.0602 C41.5195,7.1342 41.7665,7.2712 41.7665,7.5182 C41.7665,7.8562 41.4185,8.0482 40.7695,8.0482 C40.2475,8.0632 39.7345,7.9022 39.3155,7.5912 L38.8665,8.3322 C39.4215,8.7192 40.0845,8.9182 40.7605,8.8992 C42.0225,8.8992 42.7545,8.3042 42.7545,7.4722 C42.7545,6.7042 42.1785,6.3012 41.2265,6.1642 L40.7785,6.1002 C40.3675,6.0452 40.0375,5.9632 40.0375,5.6702 C40.0375,5.3502 40.3485,5.1582 40.8705,5.1582 C41.3485,5.1652 41.8175,5.2942 42.2325,5.5332 L42.6445,4.7652 Z M54.9105,4.3072 C54.4375,4.2932 53.9955,4.5392 53.7575,4.9472 L53.7575,4.4172 L52.8155,4.4172 L52.8155,8.7892 L53.7665,8.7892 L53.7665,6.3382 C53.7665,5.6152 54.0775,5.2132 54.6995,5.2132 C54.9035,5.2102 55.1055,5.2472 55.2945,5.3232 L55.5875,4.4262 C55.3695,4.3482 55.1405,4.3082 54.9105,4.3072 Z M46.7975,4.4172 L45.2425,4.4172 L45.2425,3.0912 L44.2815,3.0912 L44.2815,4.4172 L43.3945,4.4172 L43.3945,5.2862 L44.2815,5.2862 L44.2815,7.2802 C44.2815,8.2952 44.6755,8.89920636 45.8005,8.89920636 C46.2205,8.9002 46.6325,8.7832 46.9895,8.5602 L46.7145,7.7462 C46.4595,7.8992 46.1705,7.9842 45.8735,7.9932 C45.3975,7.9932 45.2425,7.7012 45.2425,7.2622 L45.2425,5.2862 L46.7975,5.2862 L46.7975,4.4172 Z M32.5835,8.7892 L32.5835,6.0452 C32.5835,5.0122 31.9245,4.3162 30.8635,4.3072 C30.2485,4.2672 29.6595,4.5652 29.3275,5.0852 C29.0245,4.5802 28.4695,4.2822 27.8815,4.3072 C27.3705,4.2812 26.8825,4.5292 26.6015,4.9572 L26.6015,4.4172 L25.6505,4.4172 L25.6505,8.7892 L26.6105,8.7892 L26.6105,6.3652 C26.6105,5.6062 27.0315,5.2042 27.6805,5.2042 C28.3115,5.2042 28.6315,5.6152 28.6315,6.3562 L28.6315,8.7892 L29.5925,8.7892 L29.5925,6.3652 C29.5925,5.6062 30.0315,5.2042 30.6625,5.2042 C31.3115,5.2042 31.6225,5.6152 31.6225,6.3562 L31.6225,8.7892 L32.5835,8.7892 Z" id="Fill-1" fill="#231F20"></path>
            <mask id="mask-2" fill="white">
                <use xlink:href="#path-1"></use>
            </mask>
            <g id="Clip-4"></g>
            <polygon id="Fill-3" fill="#FF5F00" mask="url(#mask-2)" points="7.761 11.743 13.513 11.743 13.513 1.406 7.761 1.406"></polygon>
            <path d="M8.1262,6.5748 C8.1242,4.5578 9.0502,2.6518 10.6372,1.4058 C7.7822,-0.8372 3.6492,-0.3422 1.4062,2.5118 C-0.8378,5.3668 -0.3428,9.4998 2.5122,11.7438 C4.8962,13.6178 8.2532,13.6178 10.6372,11.7438 C9.0502,10.4978 8.1242,8.5918 8.1262,6.5748" id="Fill-5" fill="#EB001B" mask="url(#mask-2)"></path>
            <path d="M21.2736,6.5748 C21.2736,10.2058 18.3306,13.1488 14.6996,13.1488 C13.2266,13.1488 11.7956,12.6538 10.6366,11.7438 C13.4916,9.4988 13.9866,5.3648 11.7416,2.5108 C11.4186,2.0998 11.0476,1.7288 10.6366,1.4058 C13.4916,-0.8372 17.6246,-0.3422 19.8676,2.5118 C20.7786,3.6708 21.2736,5.1008 21.2736,6.5748" id="Fill-6" fill="#F79E1B" mask="url(#mask-2)"></path>
            <path d="M21.0683,10.6486 L21.0683,10.3936 L21.0013,10.3936 L20.9253,10.5686 L20.8483,10.3936 L20.7813,10.3936 L20.7813,10.6486 L20.8283,10.6486 L20.8283,10.4566 L20.9003,10.6216 L20.9493,10.6216 L21.0213,10.4556 L21.0213,10.6486 L21.0683,10.6486 Z M20.6463,10.6486 L20.6463,10.4366 L20.7313,10.4366 L20.7313,10.3936 L20.5143,10.3936 L20.5143,10.4366 L20.5993,10.4366 L20.5993,10.6486 L20.6463,10.6486 Z" id="Fill-7" fill="#F79E1B" mask="url(#mask-2)"></path>
        </g>
    </g>
</svg>