<svg width="1166" height="655" viewBox="0 0 1166 655" fill="none" xmlns="http://www.w3.org/2000/svg">
<path d="M83 27L1040 26.9999" stroke="#5B2B04" stroke-width="0.5" stroke-miterlimit="10" stroke-dasharray="2 2"/>
<path d="M1032.99 27C1105.9 27 1165 90.5649 1165 169C1165 247.435 1105.9 311 1032.99 311H129" stroke="#5B2B04" stroke-width="0.5" stroke-miterlimit="10" stroke-dasharray="2 2"/>
<path d="M132.662 311C59.9468 311 1 387.776 1 482.5C1 577.224 59.9468 654 132.662 654H316" stroke="#5B2B04" stroke-width="0.5" stroke-miterlimit="10" stroke-dasharray="2 2"/>
<path d="M31.961 31.9835C26.6105 24.7463 16.1289 25.8359 9.19215 30.164C3.1123 33.9651 -2.5442 43.787 3.75497 49.8839C6.48376 52.5244 10.5897 54.6682 14.4355 54.7391C18.669 54.8202 22.7188 52.7373 25.9525 50.1829C29.0996 47.6996 31.7468 44.4408 32.9454 40.584C33.8635 37.6243 34.0063 33.362 30.3135 32.3078C26.1158 31.1118 21.3927 34.4618 18.3272 36.8843C16.2819 38.501 14.4049 40.3762 12.2525 41.8612C10.6917 42.9407 9.05443 43.6907 7.11622 43.3664C5.81558 43.1485 4.67816 42.7278 3.34182 42.6873C3.64275 43.4069 3.94369 44.1317 4.24462 44.8513C6.01451 42.9609 8.73311 43.0876 11.0029 42.1653C13.0584 41.329 14.716 39.7579 16.3584 38.3084C18.3221 36.5752 27.7122 27.706 29.7983 32.5866C30.4359 34.0817 32.6343 32.7944 32.0018 31.3094C29.5688 25.623 21.816 30.4935 18.7914 32.8704C16.1034 34.9838 13.6602 38.0398 10.5744 39.5603C7.8048 40.9286 4.68837 40.6651 2.43903 43.0572C1.67905 43.8681 2.2197 45.1909 3.34182 45.2213C5.44835 45.277 7.26414 46.2653 9.40127 45.8953C11.1967 45.5811 12.7727 44.6283 14.206 43.5539C17.251 41.2834 19.8829 38.4909 23.1727 36.5498C24.7386 35.6274 27.7275 34.0056 29.63 34.7405C32.4047 35.8149 30.4257 40.4522 29.5739 42.1044C27.6612 45.8193 24.2031 48.8399 20.4746 50.6745C15.6494 53.0515 11.3038 52.2355 7.02442 49.2504C2.86237 46.3515 2.95928 41.5723 5.36674 37.457C9.6818 30.0982 23.8001 25.1973 29.7524 33.2454C30.7215 34.5631 32.9352 33.3012 31.961 31.9835Z" fill="#5E301A"/>
<path d="M42.698 0.379473C39.1837 -0.79632 35.7714 0.926826 33.1651 3.26321C30.5026 5.65027 30.982 9.16752 31.2269 12.4415C31.793 19.9777 35.3685 26.0898 43.1621 27.8789C46.6764 28.6847 50.1244 28.7202 53.0929 26.4902C55.8574 24.4072 57.8109 21.8377 57.8313 18.2647C57.8568 14.3674 55.7146 10.8907 53.4398 7.87009C50.9507 4.56063 47.8444 2.7412 44.0649 1.10421C43.1825 0.724106 41.734 1.38295 42.193 2.5334C43.5447 5.93915 44.7841 9.39051 45.8756 12.8926C46.3755 14.4991 46.8754 16.1108 47.263 17.7528C47.4925 18.7107 47.8292 19.9321 47.819 20.9001C47.7985 22.6942 47.8292 21.3562 47.8496 20.8545C48.0026 17.7883 47.773 15.4013 46.6152 12.4922C45.2432 9.04589 43.3203 5.81752 43.152 2.0266C43.0805 0.404813 40.5252 0.394677 40.6017 2.0266C40.8312 7.02372 43.7538 10.9768 45.029 15.6851C45.4523 17.241 45.5849 18.7107 45.3554 20.2919C45.2279 21.1687 44.9677 22.0506 45.1208 22.9375C45.335 24.2096 46.3398 25.4107 47.7169 25.4208C54.7557 25.4766 45.7685 4.662 44.6566 1.85935C44.0343 2.33575 43.407 2.81215 42.7847 3.28855C45.2993 4.37819 47.8699 5.48303 49.8184 7.46465C51.6954 9.37531 53.3632 11.8435 54.4089 14.3065C55.735 17.4285 55.6279 20.6214 53.1388 23.125C50.6702 25.6033 48.023 26.2064 44.6362 25.5982C39.0154 24.5897 35.2053 20.9305 34.1495 15.3455C33.7108 13.0193 33.4252 10.3129 33.6598 7.94104C34.0067 4.41873 38.7349 1.72759 42.0298 2.83243C43.5804 3.3443 44.2486 0.901485 42.698 0.379473Z" fill="#5E301A"/>
<path d="M54.4552 22.258C49.018 22.9523 43.4686 23.1905 39.2199 19.1107C35.7872 15.8114 35.2873 9.87667 34.2366 5.49279C33.8541 3.90648 31.3956 4.58052 31.7782 6.16683C33.0125 11.316 33.6603 17.8234 38.0314 21.437C39.8778 22.9625 42.4893 24.4423 44.8407 25.0049C47.8755 25.7246 51.4102 25.1823 54.4552 24.7971C56.0568 24.5893 56.0823 22.0502 54.4552 22.258Z" fill="#5E301A"/>
<path d="M78.1567 32.7792C76.5551 31.1727 75.6676 31.2436 73.6835 31.72C72.5053 32.0038 71.4138 31.1879 70.1947 31.3247C68.7258 31.492 67.2313 32.3991 65.8899 32.9262C63.2631 33.955 60.9678 34.6747 58.1574 34.8369C55.4286 34.9991 52.4652 35.5414 50.017 36.8033C48.1349 37.7713 47.7574 39.0485 48.0787 41.0858C48.4664 43.5388 49.614 44.8767 51.8073 46.0019C56.6477 48.4852 62.549 48.5055 67.721 46.833C71.9289 45.4748 76.8662 41.8156 78.4117 37.5787C79.9674 33.3165 77.4987 28.1622 73.4999 26.1401C68.8074 23.7682 63.0081 25.5167 58.2288 26.7026C53.9393 27.7669 48.7214 29.8043 47.9767 34.7761C47.7013 36.5955 48.5633 38.0399 50.5831 37.8169C53.8883 37.452 56.1784 34.4872 59.6264 34.1882C62.7071 33.9196 65.6756 34.5936 68.6289 33.3671C70.2661 32.688 71.4597 32.0748 73.3111 32.0545C74.5863 32.0444 75.5452 32.019 76.6571 31.3247C78.0445 30.4581 76.7642 28.2687 75.3718 29.1353C74.0558 29.9563 72.2094 29.3127 70.7456 29.6979C68.7309 30.2351 67.1497 31.4818 64.9973 31.6491C61.3912 31.9278 58.1982 31.2994 54.8217 32.9972C54.3575 33.2303 50.6341 35.6478 50.4352 35.4805C49.9711 35.0802 51.5318 32.8502 51.797 32.5461C52.5621 31.6744 53.5516 31.0358 54.5922 30.5341C57.8565 28.963 62.0338 28.2484 65.6042 27.7264C70.0774 27.0726 74.3262 28.2788 76.0042 32.8147C77.6874 37.3659 73.3163 40.7564 69.9346 42.9103C66.5325 45.0744 61.7992 45.7687 57.8004 45.3531C55.8775 45.1555 53.4445 44.4003 51.9195 43.1637C51.2309 42.6062 50.2465 41.0301 50.5168 40.0266C50.8382 38.8305 52.9957 38.3339 54.0209 38.05C56.2294 37.4469 58.4176 37.5128 60.6567 37.224C62.396 37.001 64.0792 36.3066 65.7113 35.6934C67.8434 34.8876 69.7051 33.7118 71.9952 34.1932C72.6991 34.3402 73.3265 34.5379 74.0507 34.3402C75.2392 34.0209 75.2341 33.433 76.3613 34.5632C77.514 35.7289 79.3145 33.9398 78.1567 32.7792Z" fill="#5E301A"/>
<path d="M48.2521 36.4385C48.1705 37.1886 48.3949 38.0147 48.8336 38.6279C49.2161 39.1651 49.9659 39.4743 50.578 39.084C51.1186 38.7394 51.4502 37.9285 51.037 37.3507C50.9554 37.2392 50.8891 37.1227 50.8228 37.001C50.9197 37.1936 50.8381 37.0314 50.8075 36.9199C50.7922 36.8693 50.782 36.8186 50.7718 36.7679C50.7565 36.6716 50.7565 36.702 50.782 36.849C50.731 36.773 50.7871 36.5246 50.7973 36.4385C50.8687 35.7796 50.1597 35.141 49.5222 35.1715C48.7775 35.2069 48.3286 35.734 48.2521 36.4385Z" fill="#5E301A"/>
</svg>
