<?xml version="1.0" encoding="UTF-8"?>
<svg width="80px" height="34px" viewBox="0 0 80 34" version="1.1" xmlns="http://www.w3.org/2000/svg" xmlns:xlink="http://www.w3.org/1999/xlink">
    <title>icon_UPS</title>
    <defs>
        <polygon id="path-1" points="1.85358975e-15 6.17863248e-16 35.4782609 6.17863248e-16 35.4782609 40 0 40"></polygon>
        <path d="M-5.40630342e-16,2.77913043 L-5.40630342e-16,17.52 C-5.40630342e-16,20.6212174 1.16417391,23.2156522 3.36695652,25.0208696 C5.38191304,26.6730435 11.786087,29.4834783 12.5217391,29.8027826 C13.2570435,29.4834783 19.6615652,26.6730435 21.6765217,25.0212174 C23.8793043,23.216 25.0434783,20.6212174 25.0434783,17.5203478 L25.0434783,2.77913043 C21.5652174,0.934608696 17.352,0 12.5217391,0 C7.69147826,0 3.47895652,0.934956522 -5.40630342e-16,2.77982609" id="path-3"></path>
        <radialGradient cx="15.2850222%" cy="17.2813072%" fx="15.2850222%" fy="17.2813072%" r="166.122222%" gradientTransform="translate(0.152850,0.172813),scale(1.000000,0.840336),rotate(90.000000),translate(-0.152850,-0.172813)" id="radialGradient-5">
            <stop stop-color="#FFDC00" offset="0%"></stop>
            <stop stop-color="#FFBE00" offset="35%"></stop>
            <stop stop-color="#C86E14" offset="100%"></stop>
        </radialGradient>
        <polygon id="path-6" points="1.85358975e-15 6.17863248e-16 35.4782609 6.17863248e-16 35.4782609 40 0 40"></polygon>
        <path d="M10.9405217,8.63513043 L10.9405217,15.3286957 C11.0963478,15.3867826 11.352,15.4601739 11.6473043,15.4601739 C12.9015652,15.4601739 13.4998261,14.3095652 13.4998261,11.928 C13.4998261,9.48730435 12.9763478,8.47826087 11.712,8.47826087 C11.4163478,8.47826087 11.1172174,8.54782609 10.9405217,8.63478261 M5.46817391,15.1554783 L5.46817391,6.94469565 L7.64278261,6.94469565 L7.64278261,16.3951304 C6.81043478,16.9606957 5.69356522,17.2702609 4.36034783,17.2702609 C2.20452174,17.2702609 1.11165217,16.1008696 1.11165217,13.792 L1.11165217,6.94469565 L3.28904348,6.94469565 L3.28904348,13.8890435 C3.28904348,14.5071304 3.4386087,15.421913 4.43686957,15.421913 C4.87965217,15.421913 5.23095652,15.3186087 5.46782609,15.1554783 M8.76034783,7.49878261 C9.5506087,6.98886957 10.5088696,6.72382609 11.6970435,6.72382609 C14.2973913,6.72382609 15.7262609,8.69669565 15.7262609,11.8726957 C15.7262609,15.0546087 14.3384348,17.2326957 11.9203478,17.2326957 C11.4733913,17.2326957 11.1575652,17.1735652 10.9401739,17.1092174 L10.9401739,21.696 L8.76034783,21.696 L8.76034783,7.49913043 L8.76034783,7.49878261 Z M19.7029565,14.2605217 C19.6869565,13.5763478 19.3005217,13.2055652 18.3429565,12.6431304 C16.546087,11.5885217 16.2233043,10.721732 16.22013,9.56278261 C16.2107826,7.80278261 17.7095652,6.76556522 19.1429565,6.72382609 C20.3394783,6.68730435 21.149913,7.13669565 21.5332174,7.43130435 L21.5332174,9.32556522 C21.0793043,8.85947826 20.3429565,8.43721739 19.581913,8.43026087 C18.9648696,8.42469565 18.322087,8.69634783 18.3005217,9.47130435 C18.2796522,10.2636522 18.9206957,10.5773913 19.7335652,11.0532174 C21.5533913,12.1231304 21.9053913,13.0845217 21.8636522,14.3554783 C21.821913,15.7481739 20.861913,17.2702609 18.7095652,17.2702609 C17.8483478,17.2702609 16.9968696,17.0010435 16.3147826,16.5937391 L16.3147826,14.5878261 C16.8713043,15.0834783 17.7026087,15.4692174 18.3975652,15.474087 L18.4062609,15.474087 C19.2006957,15.474087 19.7224348,15.0173913 19.7036522,14.2601739 M0.000347826087,6.2386087 L0.000347826087,14.669913 C0.000347826087,17.4163478 1.016,19.709913 2.94573913,21.282087 C4.64904348,22.669913 9.89252174,25.042087 11.3711304,25.696 C12.8306087,25.0525217 18.0608696,22.7095652 19.7944348,21.282087 C21.7370435,19.682087 22.7422609,17.442087 22.7422609,14.669913 L22.7422609,0.238608696 C21.1958261,0.0946086957 19.5895652,6.17863248e-16 17.9526957,6.17863248e-16 C11.8841739,6.17863248e-16 5.37878261,1.30434783 0,6.23791304" id="path-8"></path>
        <radialGradient cx="11.8271547%" cy="9.03939358%" fx="11.8271547%" fy="9.03939358%" r="181.517344%" gradientTransform="translate(0.118272,0.090394),scale(1.000000,0.885051),rotate(90.000000),translate(-0.118272,-0.090394)" id="radialGradient-10">
            <stop stop-color="#4B3333" offset="0%"></stop>
            <stop stop-color="#351A1A" offset="35%"></stop>
            <stop stop-color="#1E0000" offset="85%"></stop>
            <stop stop-color="#1E0000" offset="100%"></stop>
        </radialGradient>
        <path d="M0.000347826087,0 C0.000347826087,2.74643478 1.016,5.04 2.94573913,6.61217391 C4.6493913,8 9.89286957,10.3721739 11.3714783,11.026087 L11.3714783,10.8546087 C10.1436522,10.3113043 4.76904348,7.89634783 3.04452174,6.49078261 C1.15547826,4.95165217 0.156521739,2.70713043 0.156521739,0 L0,0 L0.000347826087,0 Z" id="path-11"></path>
        <linearGradient x1="9994.04599%" y1="-10196.2058%" x2="9943.16051%" y2="-10245.3446%" id="linearGradient-13">
            <stop stop-color="#E49F15" offset="0%"></stop>
            <stop stop-color="#E39C15" offset="2.4%"></stop>
            <stop stop-color="#DC9116" offset="17.8%"></stop>
            <stop stop-color="#D88A17" offset="39.6%"></stop>
            <stop stop-color="#D78817" offset="100%"></stop>
        </linearGradient>
        <path d="M11.2146087,0 C11.2146087,2.72695652 10.242087,4.91130435 8.32347826,6.49113043 C6.65530435,7.86504348 1.61252174,10.1433043 2.47145299e-15,10.8546087 L2.47145299e-15,11.0257391 C1.45913043,10.3822609 6.6893913,8.03930435 8.42295652,6.61182609 C10.365913,5.01217391 11.3711304,2.77217391 11.3711304,0 L11.2146087,0 Z" id="path-14"></path>
        <linearGradient x1="9959.15807%" y1="10362.052%" x2="10010.0435%" y2="10312.9132%" id="linearGradient-16">
            <stop stop-color="#FFC20E" offset="0%"></stop>
            <stop stop-color="#D89016" offset="100%"></stop>
        </linearGradient>
        <path d="M-6.17863248e-16,6.23791304 L0.156521739,6.30678261 C4.69565217,2.16904348 10.5172174,0.156521739 17.9526957,0.156521739 C19.4045217,0.156521739 20.9217391,0.23026087 22.5857391,0.381217391 L22.7422609,0.238608696 C21.1958261,0.0946086957 19.5895652,-6.17863248e-16 17.9526957,-6.17863248e-16 C11.8841739,-6.17863248e-16 5.37878261,1.30434783 -6.17863248e-16,6.23791304" id="path-17"></path>
        <linearGradient x1="5850.05673%" y1="12918.4064%" x2="5933.12661%" y2="12896.2343%" id="linearGradient-19">
            <stop stop-color="#E49F15" offset="0%"></stop>
            <stop stop-color="#8F4A02" offset="97.5%"></stop>
            <stop stop-color="#8F4A02" offset="100%"></stop>
        </linearGradient>
        <path d="M1.696,2.47145299e-15 C1.696,1.92521739 1.31686957,3.376 0,3.376 L0,3.53252174 C1.25426087,3.53252174 1.85252174,2.38121739 1.85252174,2.47145299e-15 L1.696,2.47145299e-15 Z" id="path-20"></path>
        <linearGradient x1="13437.7%" y1="7303.30108%" x2="13471.0434%" y2="7232.32232%" id="linearGradient-22">
            <stop stop-color="#FFC20E" offset="0%"></stop>
            <stop stop-color="#FFC20E" offset="5%"></stop>
            <stop stop-color="#BF7312" offset="95%"></stop>
            <stop stop-color="#BF7312" offset="100%"></stop>
        </linearGradient>
        <path d="M2.47145299e-15,0.236 C0.155826087,0.3195 0.411478261,0.425 0.706782609,0.425 L0.706782609,0.2 C0.492521739,0.2 0.300521739,0.14 0.156521739,0.075 L2.47145299e-15,0.236 Z" id="path-23"></path>
        <linearGradient x1="2405.1721%" y1="-20966.5911%" x2="2312.1378%" y2="-20979.3691%" id="linearGradient-25">
            <stop stop-color="#FFC20E" offset="0%"></stop>
            <stop stop-color="#FFC20E" offset="5%"></stop>
            <stop stop-color="#F0AF13" offset="95%"></stop>
            <stop stop-color="#F0AF13" offset="100%"></stop>
        </linearGradient>
        <path d="M-2.47145299e-15,0.2885 L0.156521739,0.437 C0.308173913,0.357 0.53426087,0.288 0.772173913,0.288 L0.772173913,0.063 C0.476521739,0.063 0.176695652,0.163 -2.47145299e-15,0.288" id="path-26"></path>
        <linearGradient x1="4315.51566%" y1="24134.682%" x2="4396.72909%" y2="24103.429%" id="linearGradient-28">
            <stop stop-color="#A65E0C" offset="0%"></stop>
            <stop stop-color="#A65E0C" offset="5%"></stop>
            <stop stop-color="#8F4A02" offset="95%"></stop>
            <stop stop-color="#8F4A02" offset="100%"></stop>
        </linearGradient>
        <path d="M0,0.156869565 C1.28417391,0.156869565 1.63130435,1.35686957 1.63130435,3.44973913 L1.78782609,3.44973913 C1.78782609,1.00904348 1.264,0 0,0 L0,0.156521739 L0,0.156869565 Z" id="path-29"></path>
        <linearGradient x1="13449.2186%" y1="-7180.15475%" x2="13415.6399%" y2="-7250.98497%" id="linearGradient-31">
            <stop stop-color="#BF7312" offset="0%"></stop>
            <stop stop-color="#BF7312" offset="5%"></stop>
            <stop stop-color="#8F4A02" offset="95%"></stop>
            <stop stop-color="#8F4A02" offset="100%"></stop>
        </linearGradient>
        <path d="M0.000391687967,2.99652174 L0.156913427,2.99547826 C0.147522123,1.23547826 1.64630473,0.19826087 3.07969604,0.156521739 L3.07482647,0 C1.49082647,0.0462608696 -0.00934744247,1.20521739 4.38618802e-05,2.99617391" id="path-32"></path>
        <linearGradient x1="-9502.81812%" y1="-10574.0308%" x2="-9555.25641%" y2="-10526.6546%" id="linearGradient-34">
            <stop stop-color="#FFC20E" offset="0%"></stop>
            <stop stop-color="#FFC20E" offset="5%"></stop>
            <stop stop-color="#D89016" offset="95%"></stop>
            <stop stop-color="#D89016" offset="100%"></stop>
        </linearGradient>
        <path d="M0,1.04069565 L0.156521739,1.04417391 C0.162086957,0.835478261 0.258782609,0.155826087 1.25982609,0.155826087 L1.2813913,2.47145299e-15 L1.26226087,2.47145299e-15 C0.651478261,2.47145299e-15 0.0212173913,0.274086957 0.000347826087,1.04104348" id="path-35"></path>
        <linearGradient x1="9458.00106%" y1="10917.125%" x2="9511.7693%" y2="10870.4271%" id="linearGradient-37">
            <stop stop-color="#D78817" offset="0%"></stop>
            <stop stop-color="#D78817" offset="5%"></stop>
            <stop stop-color="#8F4A02" offset="95%"></stop>
            <stop stop-color="#8F4A02" offset="100%"></stop>
        </linearGradient>
        <path d="M0,0.155826087 C0.900869565,0.155826087 1.67026087,0.741913043 2.1293913,1.28034783 L1.97286957,0.895304348 C1.51895652,0.429217391 0.782608696,0.00695652174 0.0215652174,0 L0,0.156521739 L0,0.155826087 Z" id="path-38"></path>
        <linearGradient x1="7311.09303%" y1="-13141.7052%" x2="7242.41133%" y2="-13175.7253%" id="linearGradient-40">
            <stop stop-color="#BF7312" offset="0%"></stop>
            <stop stop-color="#8F4A02" offset="95%"></stop>
            <stop stop-color="#8F4A02" offset="100%"></stop>
        </linearGradient>
        <path d="M0,0.0027826087 L0.00486956522,0.159304348 C1.2013913,0.122782609 2.01182609,0.572173913 2.39513043,0.866782609 L2.55165217,0.789565217 C2.22330435,0.523478261 1.38817391,0 0.13773913,0 C0.0925217391,0 0.0462608696,0.00104347826 0,0.00243478261" id="path-41"></path>
        <linearGradient x1="-5411.53165%" y1="12978.8348%" x2="-5328.44897%" y2="12999.5287%" id="linearGradient-43">
            <stop stop-color="#FFC20E" offset="0%"></stop>
            <stop stop-color="#FFC20E" offset="5%"></stop>
            <stop stop-color="#E49F15" offset="95%"></stop>
            <stop stop-color="#E49F15" offset="100%"></stop>
        </linearGradient>
        <path d="M2.47145299e-15,2.91443478 L2.47145299e-15,3.07095652 C1.9746087,3.07095652 3.25808696,1.75617391 3.31130435,0.00556521739 L3.15478261,2.47145299e-15 C3.11304348,1.39269565 2.152,2.91478261 2.47145299e-15,2.91478261" id="path-44"></path>
        <linearGradient x1="75.2269704%" y1="25.1651458%" x2="24.6749973%" y2="74.6722213%" id="linearGradient-46">
            <stop stop-color="#D78817" offset="0%"></stop>
            <stop stop-color="#D78817" offset="5%"></stop>
            <stop stop-color="#8F4A02" offset="95%"></stop>
            <stop stop-color="#8F4A02" offset="100%"></stop>
        </linearGradient>
        <path d="M2.47145299e-15,0.0886956522 C0.779130435,0.55373913 1.616,0.833043478 2.55130435,0.833043478 L2.55130435,0.676521739 C1.69008696,0.676521739 0.838608696,0.407304348 0.156521739,0 L2.47145299e-15,0.0886956522 Z" id="path-47"></path>
        <linearGradient x1="7.87717404%" y1="41.1148963%" x2="93.1088007%" y2="59.1217679%" id="linearGradient-49">
            <stop stop-color="#BF7312" offset="0%"></stop>
            <stop stop-color="#8F4A02" offset="95%"></stop>
            <stop stop-color="#8F4A02" offset="100%"></stop>
        </linearGradient>
        <path d="M0.156869565,0.349217391 C0.712695652,0.844869565 1.54469565,1.2306087 2.23930435,1.23547826 L2.24,1.07895652 C1.46434783,1.0733913 0.568347826,0.574608696 0,-2.47145299e-15 L0.156521739,0.349565217 L0.156869565,0.349217391 Z" id="path-50"></path>
        <linearGradient x1="7098.85078%" y1="-13408.3909%" x2="7027.32069%" y2="-13440.7954%" id="linearGradient-52">
            <stop stop-color="#FFC20E" offset="0%"></stop>
            <stop stop-color="#FFC20E" offset="5%"></stop>
            <stop stop-color="#F0AF13" offset="100%"></stop>
        </linearGradient>
        <path d="M1.14956522,0.00417391304 C1.16695652,0.699130435 0.680695652,1.06226087 0.00104347826,1.0573913 L0,1.21391304 C0.798608696,1.2173913 1.32452174,0.759652174 1.30573913,0 L1.14921739,0.00417391304 L1.14956522,0.00417391304 Z" id="path-53"></path>
        <linearGradient x1="9639.96073%" y1="10528.5109%" x2="9691.68631%" y2="10480.9598%" id="linearGradient-55">
            <stop stop-color="#FFC20E" offset="0%"></stop>
            <stop stop-color="#FFC20E" offset="5%"></stop>
            <stop stop-color="#D89016" offset="95%"></stop>
            <stop stop-color="#D89016" offset="100%"></stop>
        </linearGradient>
        <path d="M0,0.00104347826 C0.00347826087,1.22121739 0.364521739,2.13808696 2.19965217,3.21495652 C3.18121739,3.79165217 3.46921739,4.12521739 3.48313043,4.70191304 L3.63965217,4.69843478 C3.62295652,4.01321739 3.23617391,3.64278261 2.2786087,3.08 C0.482434783,2.02608696 0.159652174,1.15895652 0.156869565,0 L0.000347826087,0.000695652174 L0,0.00104347826 Z" id="path-56"></path>
        <linearGradient x1="-12008.4421%" y1="8455.0672%" x2="-11966.9561%" y2="8515.24791%" id="linearGradient-58">
            <stop stop-color="#D89016" offset="0%"></stop>
            <stop stop-color="#BF7312" offset="40%"></stop>
            <stop stop-color="#BF7312" offset="60%"></stop>
            <stop stop-color="#D89016" offset="100%"></stop>
        </linearGradient>
        <path d="M1.43391956,1.58156522 C3.25304999,2.65147826 3.60539782,3.61286957 3.56365869,4.88382609 L3.72018043,4.8893913 C3.76296303,3.5906087 3.40852825,2.5613913 1.51287608,1.44695652 C0.742789121,0.980173913 0.13757173,0.725913043 0.15704999,0.00347826087 L0.000528251288,-2.47145299e-15 C-0.0210369661,0.792 0.620354338,1.1053913 1.43357173,1.58156522" id="path-59"></path>
        <linearGradient x1="-11680.0043%" y1="8642.89381%" x2="-11637.565%" y2="8701.23573%" id="linearGradient-61">
            <stop stop-color="#D78817" offset="0%"></stop>
            <stop stop-color="#E49F15" offset="40%"></stop>
            <stop stop-color="#E49F15" offset="60%"></stop>
            <stop stop-color="#D78817" offset="100%"></stop>
        </linearGradient>
        <polygon id="path-62" points="1.85358975e-15 6.17863248e-16 35.4782609 6.17863248e-16 35.4782609 40 0 40"></polygon>
        <path d="M0.156521739,0.3365 C0.402434783,0.4125 0.67826087,0.4515 0.980173913,0.4515 L0.980173913,0.2265 C0.533217391,0.2265 0.217391304,0.1405 0,0.0485 L0.156521739,0.337 L0.156521739,0.3365 Z" id="path-64"></path>
        <linearGradient x1="3.3112998%" y1="42.3618881%" x2="97.2653821%" y2="58.6392474%" id="linearGradient-66">
            <stop stop-color="#A65E0C" offset="0%"></stop>
            <stop stop-color="#A65E0C" offset="5%"></stop>
            <stop stop-color="#8F4A02" offset="95%"></stop>
            <stop stop-color="#8F4A02" offset="100%"></stop>
        </linearGradient>
        <path d="M3.80591304,0 C3.80591304,3.18191304 2.41808696,5.36 -2.47145299e-15,5.36 L-2.47145299e-15,5.51652174 C2.80695652,5.51652174 3.96243478,2.83478261 3.96243478,0 L3.80591304,0 Z" id="path-67"></path>
        <linearGradient x1="-11848.2512%" y1="-8590.03711%" x2="-11890.5365%" y2="-8530.44125%" id="linearGradient-69">
            <stop stop-color="#A65E0C" offset="0%"></stop>
            <stop stop-color="#A65E0C" offset="5%"></stop>
            <stop stop-color="#8F4A02" offset="95%"></stop>
            <stop stop-color="#8F4A02" offset="100%"></stop>
        </linearGradient>
        <path d="M0,0.845913043 L0.156521739,0.931478261 C0.946782609,0.421565217 1.90504348,0.156521739 3.09321739,0.156521739 L3.09321739,0 C1.88626087,0 0.835826087,0.276521739 0,0.845913043" id="path-70"></path>
        <linearGradient x1="-4482.2261%" y1="-12096.661%" x2="-4569.79734%" y2="-12081.1249%" id="linearGradient-72">
            <stop stop-color="#FFC20E" offset="0%"></stop>
            <stop stop-color="#FFC20E" offset="5%"></stop>
            <stop stop-color="#F0AF13" offset="95%"></stop>
            <stop stop-color="#F0AF13" offset="100%"></stop>
        </linearGradient>
        <path d="M0,0.156521739 C2.60034783,0.156521739 4.02921739,2.1293913 4.02921739,5.3053913 L4.18573913,5.3053913 C4.18573913,2.49565217 3.01008696,0 0.000347826087,0 L0.000347826087,0.156521739 L0,0.156521739 Z" id="path-73"></path>
        <linearGradient x1="-11385.4472%" y1="9001.84191%" x2="-11341.0995%" y2="9058.59658%" id="linearGradient-75">
            <stop stop-color="#FFC20E" offset="0%"></stop>
            <stop stop-color="#FFC20E" offset="5%"></stop>
            <stop stop-color="#A65E0C" offset="95%"></stop>
            <stop stop-color="#A65E0C" offset="100%"></stop>
        </linearGradient>
        <polygon id="path-76" points="1.85358975e-15 6.17863248e-16 35.4782609 6.17863248e-16 35.4782609 40 0 40"></polygon>
        <polygon id="path-78" points="1.85358975e-15 6.17863248e-16 35.4782609 6.17863248e-16 35.4782609 40 0 40"></polygon>
        <polygon id="path-80" points="1.85358975e-15 6.17863248e-16 35.4782609 6.17863248e-16 35.4782609 40 0 40"></polygon>
        <path d="M-3.08931624e-16,0 C-3.08931624e-16,2.30608696 1.08104348,3.63478261 3.40521739,3.63478261 L3.40521739,3.47826087 C1.2493913,3.47826087 0.156521739,2.30886957 0.156521739,0 L-3.08931624e-16,0 Z" id="path-82"></path>
        <linearGradient x1="-10467.6033%" y1="9775.58381%" x2="-10419.3372%" y2="9827.52688%" id="linearGradient-84">
            <stop stop-color="#D89016" offset="0%"></stop>
            <stop stop-color="#D89016" offset="5%"></stop>
            <stop stop-color="#8F4A02" offset="95%"></stop>
            <stop stop-color="#8F4A02" offset="100%"></stop>
        </linearGradient>
        <path d="M0.000347826087,0.875478261 L0.000347826087,1.032 C1.39165217,1.032 2.51582609,0.710608696 3.43895652,0.0834782609 L3.28243478,0 C2.45008696,0.565565217 1.33321739,0.875130435 0,0.875130435" id="path-85"></path>
        <linearGradient x1="93.6685316%" y1="42.3171574%" x2="6.00407241%" y2="57.8482039%" id="linearGradient-87">
            <stop stop-color="#A65E0C" offset="0%"></stop>
            <stop stop-color="#A65E0C" offset="5%"></stop>
            <stop stop-color="#8F4A02" offset="95%"></stop>
            <stop stop-color="#8F4A02" offset="100%"></stop>
        </linearGradient>
        <path d="M0,0.278543307 L0,0.5 C0.442434783,0.5 0.79373913,0.353838583 1.0306087,0.123031496 L0.874086957,-3.49676543e-15 C0.652869565,0.180610236 0.346434783,0.278543307 0,0.278543307" id="path-88"></path>
        <linearGradient x1="5.42017774%" y1="65.1981604%" x2="92.0023456%" y2="35.5833462%" id="linearGradient-90">
            <stop stop-color="#FFC20E" offset="0%"></stop>
            <stop stop-color="#FFC20E" offset="5%"></stop>
            <stop stop-color="#F0AF13" offset="95%"></stop>
            <stop stop-color="#F0AF13" offset="100%"></stop>
        </linearGradient>
        <path d="M-6.17863248e-16,2.47145299e-15 C-6.17863248e-16,0.618086957 0.149565217,1.53286957 1.14782609,1.53286957 L1.14782609,1.37634783 C0.380173913,1.37634783 0.156521739,0.757217391 0.156521739,2.47145299e-15 L-6.17863248e-16,2.47145299e-15 Z" id="path-91"></path>
        <linearGradient x1="11864.2247%" y1="-8610.3063%" x2="11821.4613%" y2="-8669.13224%" id="linearGradient-93">
            <stop stop-color="#FFC20E" offset="0%"></stop>
            <stop stop-color="#FFC20E" offset="5%"></stop>
            <stop stop-color="#D78817" offset="95%"></stop>
            <stop stop-color="#D78817" offset="100%"></stop>
        </linearGradient>
        <polygon id="path-94" points="1.85358975e-15 6.17863248e-16 35.4782609 6.17863248e-16 35.4782609 40 0 40"></polygon>
        <polygon id="path-96" points="1.85358975e-15 6.17863248e-16 35.4782609 6.17863248e-16 35.4782609 40 0 40"></polygon>
    </defs>
    <g id="icon_UPS" stroke="none" stroke-width="1" fill="none" fill-rule="evenodd">
        <g id="logo-ups" transform="translate(22.000000, -3.000000)">
            <g id="Clipped">
                <mask id="mask-2" fill="white">
                    <use xlink:href="#path-1"></use>
                </mask>
                <g id="a"></g>
                <path d="M17.7391304,4.82573913 C12.7283478,4.82573913 8.59721739,5.77878261 4.95652174,7.70852174 L4.95652174,22.6066087 C4.95652174,25.7892174 6.15373913,28.4528696 8.41878261,30.3095652 C10.4612174,31.9833043 16.997913,34.8514783 17.7391304,35.1735652 C18.48,34.8511304 25.0170435,31.9833043 27.0594783,30.3095652 C29.3245217,28.4521739 30.5217391,25.7888696 30.5217391,22.6066087 L30.5217391,7.70921739 C26.8810435,5.77878261 22.749913,4.82573913 17.7391304,4.82573913" id="Path" fill="#1E0000" fill-rule="nonzero" mask="url(#mask-2)"></path>
            </g>
            <g id="Clipped" transform="translate(5.217391, 5.086609)">
                <mask id="mask-4" fill="white">
                    <use xlink:href="#path-3"></use>
                </mask>
                <g id="c"></g>
                <polygon id="Path" fill="url(#radialGradient-5)" fill-rule="nonzero" mask="url(#mask-4)" points="-5.40630342e-16 0.000695652174 25.0434783 0.000695652174 25.0434783 29.8024348 -2.47145299e-15 29.8024348"></polygon>
            </g>
            <g id="Clipped">
                <mask id="mask-7" fill="white">
                    <use xlink:href="#path-6"></use>
                </mask>
                <g id="f"></g>
                <path d="M25.7321739,33.1975652 L25.7321739,34.4765217 L25.9631304,34.4765217 L25.9631304,33.9429565 L25.9961739,33.9429565 C26.0135652,33.9686957 26.344,34.4765217 26.344,34.4765217 L26.6233043,34.4765217 L26.2382609,33.9130435 C26.4073043,33.8733913 26.5213913,33.7506087 26.5213913,33.5732174 C26.5213913,33.3916522 26.4093913,33.1975652 26.0953043,33.1975652 L25.7321739,33.1975652 Z M26.0685217,33.3843478 C26.2643478,33.3843478 26.2904348,33.4803478 26.2904348,33.5638261 C26.2904348,33.6845217 26.2389565,33.7645217 25.9913043,33.7645217 L25.9634783,33.7645217 L25.9634783,33.3843478 L26.0685217,33.3843478 Z M26.9718261,33.8406957 C26.9718261,34.3165217 26.5843478,34.7046957 26.1046957,34.7046957 C25.6271304,34.7046957 25.2386087,34.3165217 25.2386087,33.8406957 C25.2386087,33.3634783 25.6271304,32.9728696 26.1046957,32.9728696 C26.584,32.9728696 26.9714783,33.3638261 26.9714783,33.8410435 M26.1036522,32.7878261 C25.5245217,32.7878261 25.0532174,33.261913 25.0532174,33.8410435 C25.0532174,34.4201739 25.5245217,34.8914783 26.1036522,34.8914783 C26.6862609,34.8914783 27.1561739,34.4201739 27.1561739,33.8410435 C27.1561739,33.261913 26.6866087,32.7878261 26.1036522,32.7878261" id="Shape" fill="#C86E14" fill-rule="nonzero" mask="url(#mask-7)"></path>
            </g>
            <g id="Clipped" transform="translate(6.368000, 7.937391)">
                <mask id="mask-9" fill="white">
                    <use xlink:href="#path-8"></use>
                </mask>
                <g id="h"></g>
                <polygon id="Path" fill="url(#radialGradient-10)" fill-rule="nonzero" mask="url(#mask-9)" points="-3.08931624e-15 6.17863248e-16 22.7422609 6.17863248e-16 22.7422609 25.696 -3.08931624e-15 25.696"></polygon>
            </g>
            <g id="Clipped" transform="translate(6.367652, 22.607304)">
                <mask id="mask-12" fill="white">
                    <use xlink:href="#path-11"></use>
                </mask>
                <g id="k"></g>
                <polyline id="Path" fill="url(#linearGradient-13)" fill-rule="nonzero" mask="url(#mask-12)" points="5.88452174 16.7078261 -5.50921739 5.70504348 5.48765217 -5.68208696 16.8810435 5.32034783"></polyline>
            </g>
            <g id="Clipped" transform="translate(17.739130, 22.607304)">
                <mask id="mask-15" fill="white">
                    <use xlink:href="#path-14"></use>
                </mask>
                <g id="n"></g>
                <polyline id="Path" fill="url(#linearGradient-16)" fill-rule="nonzero" mask="url(#mask-15)" points="-5.50956522 5.32034783 5.88382609 -5.68208696 16.8806957 5.70504348 5.48695652 16.7078261"></polyline>
            </g>
            <g id="Clipped" transform="translate(6.368000, 7.937391)">
                <mask id="mask-18" fill="white">
                    <use xlink:href="#path-17"></use>
                </mask>
                <g id="q"></g>
                <polyline id="Path" fill="url(#linearGradient-19)" fill-rule="nonzero" mask="url(#mask-18)" points="-1.9586087 0.682086957 20.2824348 -7.06295652 24.7005217 5.62469565 2.45982609 13.370087"></polyline>
            </g>
            <g id="Clipped" transform="translate(18.015304, 19.865391)">
                <mask id="mask-21" fill="white">
                    <use xlink:href="#path-20"></use>
                </mask>
                <g id="t"></g>
                <polyline id="Path" fill="url(#linearGradient-22)" fill-rule="nonzero" mask="url(#mask-21)" points="-1.41773913 2.81913043 0.373565217 -0.743652174 3.27026087 0.712695652 1.47895652 4.27547826"></polyline>
            </g>
            <g id="Clipped" transform="translate(17.308522, 23.101913)">
                <mask id="mask-24" fill="white">
                    <use xlink:href="#path-23"></use>
                </mask>
                <g id="w"></g>
                <polyline id="Path" fill="url(#linearGradient-25)" fill-rule="nonzero" mask="url(#mask-24)" points="0.696347826 0.548 -0.0295652174 0.42 0.0104347826 -0.048 0.736347826 0.08"></polyline>
            </g>
            <g id="Clipped" transform="translate(17.308522, 16.371826)">
                <mask id="mask-27" fill="white">
                    <use xlink:href="#path-26"></use>
                </mask>
                <g id="z"></g>
                <polyline id="Path" fill="url(#linearGradient-28)" fill-rule="nonzero" mask="url(#mask-27)" points="-0.0636521739 0.087 0.72173913 -0.2095 0.835478261 0.413 0.0493913043 0.708"></polyline>
            </g>
            <g id="Clipped" transform="translate(18.080000, 16.415652)">
                <mask id="mask-30" fill="white">
                    <use xlink:href="#path-29"></use>
                </mask>
                <g id="C"></g>
                <polyline id="Path" fill="url(#linearGradient-31)" fill-rule="nonzero" mask="url(#mask-30)" points="0.365913043 4.17078261 -1.39165217 0.706434783 1.42156522 -0.721391304 3.17982609 2.74365217"></polyline>
            </g>
            <g id="Clipped" transform="translate(22.431608, 14.504696)">
                <mask id="mask-33" fill="white">
                    <use xlink:href="#path-32"></use>
                </mask>
                <g id="F"></g>
                <polyline id="Path" fill="url(#linearGradient-34)" fill-rule="nonzero" mask="url(#mask-33)" points="4.57082647 1.6493913 1.37952212 4.53286957 -1.4994344 1.34678261 1.69186995 -1.53669565"></polyline>
            </g>
            <g id="Clipped" transform="translate(24.669217, 16.368348)">
                <mask id="mask-36" fill="white">
                    <use xlink:href="#path-35"></use>
                </mask>
                <g id="I"></g>
                <polyline id="Path" fill="url(#linearGradient-37)" fill-rule="nonzero" mask="url(#mask-36)" points="-0.517217391 0.449391304 0.72973913 -0.634782609 1.7986087 0.594782609 0.551304348 1.67895652"></polyline>
            </g>
            <g id="Clipped" transform="translate(25.929043, 16.368000)">
                <mask id="mask-39" fill="white">
                    <use xlink:href="#path-38"></use>
                </mask>
                <g id="L"></g>
                <polyline id="Path" fill="url(#linearGradient-40)" fill-rule="nonzero" mask="url(#mask-39)" points="1.67513043 2.15234783 -0.524521739 1.00730435 0.45426087 -0.872 2.65391304 0.273043478"></polyline>
            </g>
            <g id="Clipped" transform="translate(25.506783, 14.501913)">
                <mask id="mask-42" fill="white">
                    <use xlink:href="#path-41"></use>
                </mask>
                <g id="O"></g>
                <polyline id="Path" fill="url(#linearGradient-43)" fill-rule="nonzero" mask="url(#mask-42)" points="0.241043478 -0.74573913 2.80521739 0.0820869565 2.3106087 1.61252174 -0.252869565 0.784695652"></polyline>
            </g>
            <g id="Clipped" transform="translate(25.077913, 22.293217)">
                <mask id="mask-45" fill="white">
                    <use xlink:href="#path-44"></use>
                </mask>
                <g id="R"></g>
                <polyline id="Path" fill="url(#linearGradient-46)" fill-rule="nonzero" mask="url(#mask-45)" points="4.84556522 1.56765217 1.62121739 4.72591304 -1.53495652 1.50330435 1.69008696 -1.65495652"></polyline>
            </g>
            <g id="Clipped" transform="translate(22.526609, 24.531478)">
                <mask id="mask-48" fill="white">
                    <use xlink:href="#path-47"></use>
                </mask>
                <g id="U"></g>
                <polyline id="Path" fill="url(#linearGradient-49)" fill-rule="nonzero" mask="url(#mask-48)" points="0.196173913 -0.680347826 2.77356522 0.064 2.35513043 1.51234783 -0.22226087 0.768695652"></polyline>
            </g>
            <g id="Clipped" transform="translate(22.526261, 22.176348)">
                <mask id="mask-51" fill="white">
                    <use xlink:href="#path-50"></use>
                </mask>
                <g id="X"></g>
                <polyline id="Path" fill="url(#linearGradient-52)" fill-rule="nonzero" mask="url(#mask-51)" points="1.81321739 2.11582609 -0.485217391 0.999304348 0.427826087 -0.880347826 2.72626087 0.235478261"></polyline>
            </g>
            <g id="Clipped" transform="translate(24.765565, 22.197913)">
                <mask id="mask-54" fill="white">
                    <use xlink:href="#path-53"></use>
                </mask>
                <g id="aa"></g>
                <polyline id="Path" fill="url(#linearGradient-55)" fill-rule="nonzero" mask="url(#mask-54)" points="-0.60626087 0.557913043 0.717913043 -0.659478261 1.93113043 0.659826087 0.607304348 1.87721739"></polyline>
            </g>
            <g id="Clipped" transform="translate(22.432000, 17.500174)">
                <mask id="mask-57" fill="white">
                    <use xlink:href="#path-56"></use>
                </mask>
                <g id="ad"></g>
                <polyline id="Path" fill="url(#linearGradient-58)" fill-rule="nonzero" mask="url(#mask-57)" points="2.45426087 -1.70573913 5.84313043 3.17078261 1.18504348 6.40730435 -2.20382609 1.53147826"></polyline>
            </g>
            <g id="Clipped" transform="translate(24.668341, 17.409391)">
                <mask id="mask-60" fill="white">
                    <use xlink:href="#path-59"></use>
                </mask>
                <g id="ag"></g>
                <polyline id="Path" fill="url(#linearGradient-61)" fill-rule="nonzero" mask="url(#mask-60)" points="2.44296303 -1.80382609 6.09304999 3.184 1.29896303 6.69217391 -2.35112392 1.70504348"></polyline>
            </g>
            <g id="Clipped">
                <mask id="mask-63" fill="white">
                    <use xlink:href="#path-62"></use>
                </mask>
                <g id="aj"></g>
                <polyline id="Path" fill="#8F4A02" fill-rule="nonzero" mask="url(#mask-63)" points="17.3085217 29.6333913 15.1290435 29.6333913 14.9725217 29.789913 17.4646957 29.789913"></polyline>
            </g>
            <g id="Clipped" transform="translate(17.308522, 25.013217)">
                <mask id="mask-65" fill="white">
                    <use xlink:href="#path-64"></use>
                </mask>
                <g id="al"></g>
                <polyline id="Path" fill="url(#linearGradient-66)" fill-rule="nonzero" mask="url(#mask-65)" points="0.0229565217 -0.165 1.0226087 0.0575 0.957217391 0.664 -0.0424347826 0.4415"></polyline>
            </g>
            <g id="Clipped" transform="translate(18.288696, 19.810087)">
                <mask id="mask-68" fill="white">
                    <use xlink:href="#path-67"></use>
                </mask>
                <g id="ao"></g>
                <polyline id="Path" fill="url(#linearGradient-69)" fill-rule="nonzero" mask="url(#mask-68)" points="6.57391304 1.86956522 2.61913043 7.392 -2.61078261 3.64765217 1.34330435 -1.87547826"></polyline>
            </g>
            <g id="Clipped" transform="translate(14.972174, 14.504696)">
                <mask id="mask-71" fill="white">
                    <use xlink:href="#path-70"></use>
                </mask>
                <g id="ar"></g>
                <polyline id="Path" fill="url(#linearGradient-72)" fill-rule="nonzero" mask="url(#mask-71)" points="3.31895652 0.873043478 0.19373913 1.68173913 -0.22573913 0.0584347826 2.89947826 -0.749913043"></polyline>
            </g>
            <g id="Clipped" transform="translate(18.065739, 14.504696)">
                <mask id="mask-74" fill="white">
                    <use xlink:href="#path-73"></use>
                </mask>
                <g id="au"></g>
                <polyline id="Path" fill="url(#linearGradient-75)" fill-rule="nonzero" mask="url(#mask-74)" points="2.59234783 -2.03234783 6.76104348 3.28521739 1.5933913 7.3373913 -2.57634783 2.02017391"></polyline>
            </g>
            <g id="Group">
                <g id="Clipped">
                    <mask id="mask-77" fill="white">
                        <use xlink:href="#path-76"></use>
                    </mask>
                    <g id="ax"></g>
                    <path d="M9.65773913,15.254977 L7.47965217,15.254977 L7.32313043,14.7255652 L9.81356522,14.7255652 L9.65773913,15.254977 Z M14.0111304,15.254977 L11.8365217,15.254977 L11.68,14.7255652 L14.1676522,14.7255652 L14.0111304,15.254977 L14.0111304,15.254977 Z" id="Shape" fill="#FFC20E" fill-rule="nonzero" mask="url(#mask-77)"></path>
                </g>
                <g id="Clipped">
                    <mask id="mask-79" fill="white">
                        <use xlink:href="#path-78"></use>
                    </mask>
                    <g id="ax"></g>
                    <path d="M6.36834783,22.6073043 L6.36834783,14.1746087 L6.52486957,14.2434783 L6.52486957,22.6062609 L6.36834783,22.6062609 L6.36834783,22.6073043 Z M28.0587826,17.6483478 L28.0587826,15.2914783 L27.9022609,15.3686957 L27.9022609,17.2626087 L28.0587826,17.648 L28.0587826,17.6483478 Z M9.81356522,21.8264348 L9.81356522,14.7255652 L9.65704348,14.882087 L9.65704348,21.826087 L9.81356522,21.826087 L9.81356522,21.8264348 Z" id="Shape" fill="#D78817" fill-rule="nonzero" mask="url(#mask-79)"></path>
                </g>
                <g id="Clipped">
                    <mask id="mask-81" fill="white">
                        <use xlink:href="#path-80"></use>
                    </mask>
                    <g id="ax"></g>
                    <path d="M28.9537391,22.6073043 L28.9537391,8.3186087 L29.1102609,8.176 L29.1102609,22.6073043 L28.9537391,22.6073043 Z M22.5266087,22.176 L22.5266087,24.6198261 L22.6831304,24.5311304 L22.6831304,22.5255652 L22.5266087,22.1766957 L22.5266087,22.176 Z M11.8361739,23.0928696 L11.8361739,14.882087 L11.6796522,14.7255652 L11.6796522,23.0073043 L11.8361739,23.0928696 Z M7.48,21.7293913 L7.48,14.882087 L7.32347826,14.7255652 L7.32347826,21.7297391 L7.48,21.7297391 L7.48,21.7293913 Z" id="Shape" fill="#D89016" fill-rule="nonzero" mask="url(#mask-81)"></path>
                </g>
            </g>
            <g id="Clipped" transform="translate(7.323478, 21.729391)">
                <mask id="mask-83" fill="white">
                    <use xlink:href="#path-82"></use>
                </mask>
                <g id="az"></g>
                <polyline id="Path" fill="url(#linearGradient-84)" fill-rule="nonzero" mask="url(#mask-83)" points="1.82747826 -1.69808696 5.21773913 1.9506087 1.57773913 5.33286957 -1.81286957 1.68417391"></polyline>
            </g>
            <g id="Clipped" transform="translate(10.728348, 24.332174)">
                <mask id="mask-86" fill="white">
                    <use xlink:href="#path-85"></use>
                </mask>
                <g id="aC"></g>
                <polyline id="Path" fill="url(#linearGradient-87)" fill-rule="nonzero" mask="url(#mask-86)" points="3.68904348 0.967304348 0.216 1.8653913 -0.250086957 0.0650434783 3.22330435 -0.833043478"></polyline>
            </g>
            <g id="Clipped" transform="translate(10.805565, 23.005913)">
                <mask id="mask-89" fill="white">
                    <use xlink:href="#path-88"></use>
                </mask>
                <g id="aF"></g>
                <polyline id="Path" fill="url(#linearGradient-90)" fill-rule="nonzero" mask="url(#mask-89)" points="-0.0813913043 0.0295275591 0.971826087 -0.336614173 1.11234783 0.471456693 0.0584347826 0.838090551"></polyline>
            </g>
            <g id="Clipped" transform="translate(9.657391, 21.826435)">
                <mask id="mask-92" fill="white">
                    <use xlink:href="#path-91"></use>
                </mask>
                <g id="aI"></g>
                <polyline id="Path" fill="url(#linearGradient-93)" fill-rule="nonzero" mask="url(#mask-92)" points="0.400695652 2.08 -0.730434783 0.534608696 0.747826087 -0.547130435 1.87895652 0.99826087"></polyline>
            </g>
            <g id="Group">
                <g id="Clipped">
                    <mask id="mask-95" fill="white">
                        <use xlink:href="#path-94"></use>
                    </mask>
                    <g id="aL"></g>
                    <polyline id="Path" fill="#D78817" fill-rule="nonzero" mask="url(#mask-95)" points="14.9721739 15.3506087 14.9721739 29.789913 15.1286957 29.6333913 15.1286957 15.4361739"></polyline>
                </g>
                <g id="Clipped">
                    <mask id="mask-97" fill="white">
                        <use xlink:href="#path-96"></use>
                    </mask>
                    <g id="aL"></g>
                    <path d="M17.4650435,23.154087 L17.4650435,16.6754783 L17.3085217,16.5721739 L17.3085217,23.2653913 L17.4650435,23.154087 L17.4650435,23.154087 Z M17.4650435,25.248 L17.4650435,29.7906087 L17.3085217,29.634087 L17.3085217,25.0462609 L17.4650435,25.248 Z M14.1676522,24.416 L14.1676522,14.7255652 L14.0111304,14.882087 L14.0111304,24.3325217" id="Shape" fill="#BF7312" fill-rule="nonzero" mask="url(#mask-97)"></path>
                </g>
            </g>
        </g>
    </g>
</svg>