<?xml version="1.0" standalone="no"?>
<!DOCTYPE svg PUBLIC "-//W3C//DTD SVG 1.1//EN" "http://www.w3.org/Graphics/SVG/1.1/DTD/svg11.dtd" >
<svg xmlns="http://www.w3.org/2000/svg" xmlns:xlink="http://www.w3.org/1999/xlink" version="1.1">
<metadata>
Created by FontForge 20190801 at Sun Nov  5 12:15:40 2017
 By Jimmy Wärting
2009 published by Monotype GmbH
</metadata>
<defs>
<font id="GMVDINPro-BoldItalic" horiz-adv-x="544" >
  <font-face 
    font-family="GMV DIN Pro"
    font-weight="700"
    font-style="italic"
    font-stretch="normal"
    units-per-em="1000"
    panose-1="2 11 8 4 2 1 1 1 1 2"
    ascent="764"
    descent="-236"
    x-height="521"
    cap-height="712"
    bbox="-218 -292 1113 1137"
    underline-thickness="82"
    underline-position="-132"
    slope="-11"
    unicode-range="U+0020-FEFF"
  />
<missing-glyph horiz-adv-x="535" 
d="M495 0h-417v712h417v-712zM160 636v-560h253v560h-253z" />
    <glyph glyph-name=".notdef" horiz-adv-x="535" 
d="M495 0h-417v712h417v-712zM160 636v-560h253v560h-253z" />
    <glyph glyph-name=".null" horiz-adv-x="0" 
 />
    <glyph glyph-name="nonmarkingreturn" horiz-adv-x="220" 
 />
    <glyph glyph-name="space" unicode=" " horiz-adv-x="220" 
 />
    <glyph glyph-name="exclam" unicode="!" horiz-adv-x="330" 
d="M222 222h-93l66 490h153zM199 0h-131l26 133h131z" />
    <glyph glyph-name="quotedbl" unicode="&#x22;" horiz-adv-x="441" 
d="M426 501h-117l42 211h117zM231 501h-117l42 211h117z" />
    <glyph glyph-name="numbersign" unicode="#" horiz-adv-x="666" 
d="M609 538h66l-23 -114h-82l-41 -116h70l-23 -114h-87l-68 -194h-132l68 194h-114l-68 -194h-132l68 194h-67l23 114h84l41 116h-71l23 114h87l63 180h132l-63 -180h114l63 180h132zM323 424l-41 -116h114l41 116h-114z" />
    <glyph glyph-name="dollar" unicode="$" horiz-adv-x="594" 
d="M203 -4q-69 4 -117.5 27t-88.5 70l96 85q53 -63 145 -66l37 192l-29 8q-46 12 -75.5 30.5t-46.5 40.5t-23.5 46.5t-6.5 48.5q0 47 16.5 89t47.5 74t76.5 52.5t104.5 24.5l18 88h96l-17 -91q54 -5 97.5 -26t74.5 -59l-93 -81q-23 28 -51.5 39t-62.5 13l-35 -185l26 -7
q88 -22 124.5 -65t36.5 -114q0 -63 -23.5 -106.5t-60 -71t-81.5 -41.5t-88 -17l-21 -108h-96zM309 111q49 8 80.5 35t31.5 67t-21 55.5t-57 23.5zM331 602q-45 -6 -75 -36t-30 -71q0 -31 21.5 -45.5t50.5 -21.5z" />
    <glyph glyph-name="percent" unicode="%" horiz-adv-x="817" 
d="M611 712h99l-462 -712h-100zM215 345q-24 0 -45.5 6.5t-38.5 20t-27 34t-10 49.5q0 7 0.5 15.5t2.5 16.5l18 95q14 71 53.5 103.5t102.5 32.5q24 0 45.5 -6.5t38.5 -20t27 -34t10 -49.5q0 -7 -0.5 -15.5t-2.5 -16.5l-18 -95q-14 -71 -53.5 -103.5t-102.5 -32.5zM225 425
q26 0 39 17t18 41l18 93q2 10 2 21q0 15 -8.5 28t-32.5 13q-26 0 -39 -17t-18 -41l-18 -93q-2 -10 -2 -21q0 -15 8.5 -28t32.5 -13zM586 -6q-24 0 -45.5 6.5t-38.5 20t-27 34t-10 49.5q0 7 0.5 15.5t2.5 16.5l18 95q14 71 53.5 103.5t102.5 32.5q24 0 45.5 -6.5t38.5 -20
t27 -34t10 -49.5q0 -7 -0.5 -15.5t-2.5 -16.5l-18 -95q-14 -71 -53.5 -103.5t-102.5 -32.5zM596 74q26 0 39 17t18 41l18 93q2 10 2 21q0 15 -8.5 28t-32.5 13q-26 0 -39 -17t-18 -41l-18 -93q-2 -10 -2 -21q0 -15 8.5 -28t32.5 -13z" />
    <glyph glyph-name="ampersand" unicode="&#x26;" horiz-adv-x="671" 
d="M364 718q52 0 84 -16t48.5 -39.5t22 -49t5.5 -44.5q0 -45 -27 -82t-72 -66l-57 -37l87 -141q23 23 37.5 54t22.5 68h118q-14 -69 -42 -121.5t-74 -98.5l95 -145h-151l-39 61q-33 -26 -81 -46.5t-110 -20.5q-36 0 -70.5 9t-61.5 30t-44 55t-17 83q0 46 13 81.5t36 63
t53 50.5t65 44q-22 35 -33 62.5t-11 61.5q0 27 9.5 59.5t32.5 60t62 46t99 18.5zM258 322q-44 -26 -70 -57t-26 -76q0 -37 23 -60.5t61 -23.5q30 0 60.5 13.5t56.5 35.5zM358 613q-19 0 -32.5 -7t-22 -18.5t-12.5 -25.5t-4 -27q0 -17 8 -34t19 -34l32 20q26 17 42.5 34
t16.5 43q0 23 -13 36t-34 13z" />
    <glyph glyph-name="quotesingle" unicode="'" horiz-adv-x="246" 
d="M231 501h-117l42 211h117z" />
    <glyph glyph-name="parenleft" unicode="(" horiz-adv-x="311" 
d="M350 714q-16 -14 -34 -30.5t-29 -31.5q-10 -14 -18.5 -33t-13.5 -46l-85 -424q-8 -40 -8 -60q0 -18 9.5 -41.5t38.5 -58.5l-94 -83q-24 29 -39 51.5t-23.5 42.5t-12 38t-3.5 38q0 12 2.5 33t7.5 44l85 426q7 32 16 64t30 62q19 26 45 51t56 50z" />
    <glyph glyph-name="parenright" unicode=")" horiz-adv-x="311" 
d="M234 806q24 -29 39 -51.5t23.5 -42.5t12 -38t3.5 -38q0 -12 -2.5 -33t-7.5 -44l-85 -426q-7 -32 -16 -64t-30 -62q-19 -26 -45 -51t-56 -50l-70 92q16 14 34 30.5t29 31.5q10 14 18.5 33t13.5 46l85 424q3 16 5.5 32t2.5 28q0 18 -9.5 41.5t-38.5 58.5z" />
    <glyph glyph-name="asterisk" unicode="*" horiz-adv-x="470" 
d="M366 696l-27 -118l111 43l29 -80l-116 -35l93 -76l-57 -64l-86 83l-20 -119l-84 16l28 118l-112 -43l-28 80l116 35l-94 76l57 64l87 -82l19 118z" />
    <glyph glyph-name="plus" unicode="+" horiz-adv-x="516" 
d="M332 343h153l-23 -115h-153l-32 -164h-116l33 164h-152l23 115h152l33 164h115z" />
    <glyph glyph-name="comma" unicode="," horiz-adv-x="260" 
d="M134 -55l-157 -110l62 307h134z" />
    <glyph glyph-name="hyphen" unicode="-" horiz-adv-x="408" 
d="M344 228h-293l23 115h293z" />
    <glyph glyph-name="period" unicode="." horiz-adv-x="267" 
d="M152 0h-141l30 148h140z" />
    <glyph glyph-name="slash" unicode="/" horiz-adv-x="390" 
d="M53 -74h-120l443 860h119z" />
    <glyph glyph-name="zero" unicode="0" horiz-adv-x="520" 
d="M344 718q40 0 73 -12.5t56 -35.5t35.5 -54.5t12.5 -68.5q0 -10 -1.5 -24t-3.5 -25l-57 -290q-12 -62 -37 -103t-57.5 -65.5t-69.5 -35t-73 -10.5q-41 0 -73.5 12.5t-56 35.5t-36 54t-12.5 69q0 10 1.5 24t3.5 25l58 290q12 61 37 102.5t57.5 66t69.5 35t73 10.5zM333 607
q-15 0 -31 -4.5t-30 -15.5t-25 -30t-17 -49l-58 -299q-2 -8 -3.5 -17.5t-1.5 -17.5q0 -19 6 -32t15 -21.5t20.5 -12t23.5 -3.5q15 0 31 4.5t30 15.5t25 30t17 49l59 299q2 8 3 17.5t1 17.5q0 19 -6 32t-15 21.5t-20.5 12t-23.5 3.5z" />
    <glyph glyph-name="one" unicode="1" horiz-adv-x="520" 
d="M309 0h-124l114 570l-162 -117l28 143l162 116h124z" />
    <glyph glyph-name="two" unicode="2" horiz-adv-x="520" 
d="M339 718q84 0 132 -46t48 -131q0 -33 -9 -60.5t-23.5 -50t-31.5 -41.5t-33 -35l-238 -243h262l-23 -111h-420l23 111l308 313q31 31 45.5 55t14.5 56q0 35 -18 53.5t-50 18.5q-34 0 -62.5 -20.5t-40.5 -72.5h-125q18 103 80.5 153.5t160.5 50.5z" />
    <glyph glyph-name="three" unicode="3" horiz-adv-x="520" 
d="M337 718q40 0 72 -13t54.5 -36t35 -53.5t12.5 -66.5q0 -57 -25.5 -106.5t-83.5 -78.5q33 -19 48.5 -48t15.5 -79q0 -51 -18.5 -95.5t-50.5 -77t-75 -51.5t-93 -19q-94 0 -148 46t-54 123q0 10 0.5 18t2.5 18h122q-2 -6 -2 -10v-12q0 -30 19.5 -51t60.5 -21
q23 0 43.5 10.5t35.5 28t23.5 40.5t8.5 48q0 35 -19 56.5t-61 21.5h-19l21 108h20q22 0 41.5 10t33 26.5t21.5 37.5t8 43q0 35 -18 53.5t-49 18.5q-33 0 -62 -22t-40 -65h-125q23 101 86.5 149.5t157.5 48.5z" />
    <glyph glyph-name="four" unicode="4" horiz-adv-x="520" 
d="M159 221h141l27 132h118l-26 -132h65l-24 -117h-63l-21 -104h-118l20 104h-281l23 117l329 491h138z" />
    <glyph glyph-name="five" unicode="5" horiz-adv-x="520" 
d="M520 601h-273l-31 -158q23 19 47.5 26t54.5 7q41 0 71 -13.5t49.5 -36t29 -52t9.5 -60.5q0 -17 -2 -37t-5 -37q-10 -51 -28.5 -99.5t-54.5 -84.5q-28 -28 -67.5 -45t-95.5 -17q-43 0 -76 12.5t-56 35t-35 53t-12 65.5v14q0 11 2 22h119q-1 -5 -1 -10v-10q0 -30 15 -50.5
t51 -20.5q25 0 44 10t32 28t21.5 43t14.5 54q3 17 5 31.5t2 26.5q0 31 -13 52t-51 21q-36 0 -59 -17.5t-37 -41.5h-112l80 400h384z" />
    <glyph glyph-name="six" unicode="6" horiz-adv-x="520" 
d="M269 412q11 3 20 4.5t22 1.5q35 0 64.5 -13t50.5 -37t32.5 -58t11.5 -76q0 -51 -16.5 -95t-47 -76.5t-72.5 -50.5t-93 -18q-54 0 -92 17t-62.5 44.5t-35.5 61t-11 66.5q0 27 5 51t15 48t25.5 50t36.5 58l213 322h137zM267 318q-26 0 -45.5 -11t-32 -29t-19 -40t-6.5 -44
q0 -42 21 -65.5t57 -23.5q25 0 44 10.5t32.5 28t20.5 40t7 46.5q0 42 -21.5 65t-57.5 23z" />
    <glyph glyph-name="seven" unicode="7" horiz-adv-x="520" 
d="M549 601l-334 -601h-137l333 601h-180l-22 -109h-118l43 220h437z" />
    <glyph glyph-name="eight" unicode="8" horiz-adv-x="520" 
d="M334 718q41 0 76 -13t60.5 -37t39.5 -58t14 -76q0 -58 -31 -105.5t-78 -70.5q10 -8 21 -19.5t19 -27.5t13.5 -36.5t5.5 -47.5q0 -48 -16 -90t-47 -74t-76.5 -50.5t-104.5 -18.5q-40 0 -76 11t-63 34t-42.5 58t-15.5 83q0 62 30.5 113t91.5 82q-20 17 -36 46t-16 77
q0 45 16.5 85t47 70t73 47.5t94.5 17.5zM269 311q-24 0 -44.5 -9t-35 -25.5t-23 -38.5t-8.5 -48q0 -35 21 -60t59 -25q24 0 44 9t35 25t23 38.5t8 48.5q0 35 -20.5 60t-58.5 25zM328 607q-23 0 -41.5 -9t-31.5 -25t-20.5 -36.5t-7.5 -42.5q0 -31 18 -53t53 -22q22 0 41 9
t32 24.5t20.5 35.5t7.5 43q0 31 -18 53.5t-53 22.5z" />
    <glyph glyph-name="nine" unicode="9" horiz-adv-x="520" 
d="M325 718q54 0 92 -17t62.5 -44.5t35.5 -61t11 -66.5q0 -27 -5 -51t-15 -48t-25.5 -50t-36.5 -58l-213 -322h-137l203 300q-11 -3 -20 -4.5t-22 -1.5q-35 0 -64.5 13t-50.5 37t-32.5 58t-11.5 76q0 51 16.5 95t47 76.5t72.5 50.5t93 18zM324 607q-25 0 -44 -10.5
t-32.5 -28t-20.5 -40t-7 -46.5q0 -42 21.5 -65t57.5 -23q26 0 45.5 11t32 29t19 40t6.5 44q0 42 -21 65.5t-57 23.5z" />
    <glyph glyph-name="colon" unicode=":" horiz-adv-x="294" 
d="M179 0h-141l30 148h141zM232 271h-141l30 148h140z" />
    <glyph glyph-name="semicolon" unicode=";" horiz-adv-x="294" 
d="M166 -55l-158 -110l62 307h135zM232 271h-141l30 148h141z" />
    <glyph glyph-name="less" unicode="&#x3c;" horiz-adv-x="516" 
d="M465 394l-264 -109l222 -117l-25 -127l-354 199l22 106l426 186z" />
    <glyph glyph-name="equal" unicode="=" horiz-adv-x="516" 
d="M485 333h-422l24 115h421zM443 123h-421l24 115h421z" />
    <glyph glyph-name="greater" unicode="&#x3e;" horiz-adv-x="516" 
d="M61 176l264 109l-222 117l25 127l354 -199l-22 -106l-426 -186z" />
    <glyph glyph-name="question" unicode="?" horiz-adv-x="497" 
d="M353 718q32 0 62 -11t53 -31t36.5 -50t13.5 -67q0 -51 -19.5 -89.5t-54.5 -76.5l-89 -99q-8 -9 -16.5 -23t-11.5 -28l-5 -21h-124l7 31q6 29 18 54t37 51l88 94q19 20 32 42.5t13 51.5q0 25 -15 43t-44 18q-40 0 -63.5 -22.5t-31.5 -60.5h-125q9 51 30.5 87.5t53 60.5
t71 35t84.5 11zM286 0h-131l26 133h131z" />
    <glyph glyph-name="at" unicode="@" horiz-adv-x="722" 
d="M523 716q57 0 94 -15.5t60 -40.5q24 -26 32.5 -58t8.5 -61q0 -15 -3 -37t-6 -39l-93 -465h-113l9 46q-28 -29 -56 -40.5t-62 -11.5q-35 0 -61.5 11t-44 29.5t-26 43t-8.5 50.5q0 20 3.5 44t10.5 58q7 33 13.5 60.5t15 51t20.5 42.5t30 36q27 26 59 36.5t66 10.5
q38 0 65 -13.5t44 -37.5l10 53q5 25 5 43q0 40 -21 64q-27 30 -85 30h-118q-35 0 -59.5 -7.5t-44.5 -25.5q-25 -21 -35.5 -46.5t-16.5 -57.5l-59 -295q-2 -10 -3.5 -20.5t-1.5 -23.5q0 -27 26 -57l-97 -84q-29 32 -39 62t-10 56q0 17 2 34.5t4 28.5l59 300q13 66 33 109.5
t50 73.5q63 63 196 63h147zM493 364q-46 0 -69.5 -32.5t-37.5 -101.5q-8 -37 -8 -66q0 -26 13.5 -46.5t45.5 -20.5q46 0 69.5 32t37.5 101q8 37 8 67q0 26 -13.5 46.5t-45.5 20.5z" />
    <glyph glyph-name="A" unicode="A" horiz-adv-x="607" 
d="M552 0h-134l-15 130h-241l-67 -130h-141l388 712h105zM216 238h177l-34 274z" />
    <glyph glyph-name="B" unicode="B" horiz-adv-x="626" 
d="M429 712q49 0 84 -13.5t57.5 -36.5t33 -53t10.5 -62q0 -24 -5.5 -50t-19 -50.5t-35.5 -46.5t-56 -39q31 -20 49.5 -47.5t18.5 -77.5q0 -54 -18.5 -97.5t-50.5 -74t-76 -47.5t-95 -17h-298l143 712h258zM221 303l-37 -186h138q52 0 81.5 32.5t29.5 80.5q0 32 -18.5 52.5
t-56.5 20.5h-137zM280 595l-36 -175h127q29 0 50 10t34 25.5t19 34t6 35.5q0 12 -3 24.5t-11.5 22.5t-23 16.5t-36.5 6.5h-126z" />
    <glyph glyph-name="C" unicode="C" horiz-adv-x="590" 
d="M380 718q55 0 95.5 -17t67.5 -47t40 -70t13 -86h-132q-1 44 -22 74t-70 30q-33 0 -55 -11t-41 -30q-11 -11 -20 -26.5t-17 -39t-16.5 -57.5t-17.5 -82q-8 -45 -14 -84.5t-6 -65.5q0 -46 27 -71t68 -25q26 0 47.5 9t38 23.5t28 33t18.5 38.5h132q-36 -111 -107.5 -165.5
t-166.5 -54.5q-51 0 -91.5 15.5t-68.5 43t-43 64.5t-15 79q0 23 4 61.5t17 98.5q10 52 19.5 93t21 74.5t27 61t38.5 52.5q41 43 94 62t107 19z" />
    <glyph glyph-name="D" unicode="D" horiz-adv-x="625" 
d="M404 712q44 0 82.5 -11.5t67 -36t44.5 -62t16 -89.5q0 -12 -1 -24.5t-3.5 -30t-7 -41.5t-11.5 -58q-13 -65 -23.5 -110t-23 -77.5t-28.5 -56t-39 -45.5q-73 -70 -196 -70h-253l143 712h233zM280 596l-96 -480h100q64 0 104 39q11 10 19.5 24.5t17 37.5t16.5 57t18 85
q12 62 17 94t5 49q0 48 -27 71t-73 23h-101z" />
    <glyph glyph-name="E" unicode="E" horiz-adv-x="578" 
d="M592 596h-312l-36 -179h269l-23 -116h-269l-37 -185h318l-23 -116h-451l143 712h444z" />
    <glyph glyph-name="F" unicode="F" horiz-adv-x="560" 
d="M592 596h-312l-37 -186h267l-23 -116h-268l-59 -294h-132l143 712h444z" />
    <glyph glyph-name="G" unicode="G" horiz-adv-x="615" 
d="M382 718q55 0 96 -17t68.5 -47t41 -70.5t13.5 -88.5h-132q-2 49 -25.5 78t-69.5 29q-31 0 -53.5 -10.5t-42.5 -30.5q-13 -13 -22.5 -30t-17.5 -41t-16 -56.5t-17 -77.5q-10 -45 -15 -84.5t-5 -65.5q0 -46 27.5 -71t68.5 -25q48 0 90 35.5t56 107.5l6 31h-124l22 110h254
l-19 -102q-14 -72 -36 -123.5t-62 -94.5q-38 -39 -88 -59.5t-109 -20.5q-55 0 -96 16.5t-68.5 44.5t-41 64.5t-13.5 76.5q0 61 21 160q13 63 23 105.5t21.5 74t26.5 54.5t37 47q39 42 93 61.5t108 19.5z" />
    <glyph glyph-name="H" unicode="H" horiz-adv-x="655" 
d="M522 0h-132l61 302h-230l-61 -302h-132l143 712h132l-58 -294h230l58 294h132z" />
    <glyph glyph-name="I" unicode="I" horiz-adv-x="293" 
d="M160 0h-132l143 712h132z" />
    <glyph glyph-name="J" unicode="J" horiz-adv-x="487" 
d="M409 225q-15 -72 -45.5 -117.5t-67.5 -70.5t-76.5 -34t-70.5 -9q-66 0 -107.5 19.5t-71.5 57.5l95 81q16 -20 36.5 -31t50.5 -11q17 0 36.5 5.5t37 19.5t32 38t21.5 60l96 479h132z" />
    <glyph glyph-name="K" unicode="K" horiz-adv-x="644" 
d="M421 415l163 -415h-144l-125 329l-111 -110l-44 -219h-132l143 712h132l-62 -310l297 310h164z" />
    <glyph glyph-name="L" unicode="L" horiz-adv-x="550" 
d="M184 116h310l-23 -116h-443l143 712h132z" />
    <glyph glyph-name="M" unicode="M" horiz-adv-x="773" 
d="M640 0h-132l85 421l-179 -263h-89l-80 265l-85 -423h-132l143 712h124l101 -380l258 380h129z" />
    <glyph glyph-name="N" unicode="N" horiz-adv-x="680" 
d="M547 0h-112l-185 445l-90 -445h-132l143 712h112l186 -446l89 446h132z" />
    <glyph glyph-name="O" unicode="O" horiz-adv-x="611" 
d="M379 718q51 0 91 -16t67.5 -43.5t42 -64t14.5 -78.5q0 -24 -4 -62t-16 -98q-10 -52 -19.5 -93t-21 -74.5t-27 -61t-38.5 -51.5q-42 -45 -94.5 -63.5t-106.5 -18.5q-51 0 -91 16t-67.5 43.5t-42 64t-14.5 78.5q0 24 4 62t16 98q10 52 19.5 93t21 74.5t27 61t38.5 51.5
q42 45 94.5 63.5t106.5 18.5zM370 602q-56 0 -95 -43q-10 -11 -18.5 -25.5t-17 -38t-17 -57t-18.5 -82.5q-9 -45 -14.5 -84t-5.5 -65q0 -48 27.5 -72.5t64.5 -24.5q56 0 95 43q10 11 18.5 25.5t17 37.5t17 57t18.5 83q9 45 14.5 84t5.5 65q0 48 -27 72.5t-65 24.5z" />
    <glyph glyph-name="P" unicode="P" horiz-adv-x="597" 
d="M424 712q45 0 80.5 -14t60 -38.5t37.5 -59t13 -76.5q0 -48 -17 -92.5t-50.5 -79t-82.5 -55.5t-113 -21h-137l-55 -276h-132l143 712h253zM280 595l-41 -202h118q32 0 55.5 11t39 28.5t23 39t7.5 41.5q0 34 -18 58t-62 24h-122z" />
    <glyph glyph-name="Q" unicode="Q" horiz-adv-x="610" 
d="M380 718q51 0 91 -16t67.5 -43.5t42 -64t14.5 -78.5q0 -24 -4 -62t-16 -98q-9 -47 -17.5 -85.5t-19 -70.5t-23.5 -58t-31 -49l48 -63l-79 -70l-50 66q-32 -17 -66 -24.5t-69 -7.5q-51 0 -91 16t-67.5 43.5t-42 64t-14.5 78.5q0 24 4 62t16 98q10 52 19.5 93t21 74.5
t27 61t38.5 51.5q42 45 94.5 63.5t106.5 18.5zM371 602q-56 0 -95 -43q-10 -11 -18.5 -25.5t-17 -38t-17 -57t-18.5 -82.5q-9 -45 -14.5 -84t-5.5 -65q0 -48 27.5 -72.5t64.5 -24.5q28 0 53 11l-53 70l79 70l46 -60q10 23 20 60t21 95q9 45 14.5 84t5.5 65q0 48 -27 72.5
t-65 24.5z" />
    <glyph glyph-name="R" unicode="R" horiz-adv-x="625" 
d="M421 712q54 0 91 -16t60 -42t33 -61t10 -72q0 -33 -10.5 -66t-31 -62t-51.5 -52.5t-73 -37.5l98 -303h-145l-83 288h-100l-59 -288h-132l143 712h250zM280 595l-40 -197h120q34 0 57.5 11.5t38 29t21 37.5t6.5 38q0 38 -21 59.5t-62 21.5h-120z" />
    <glyph glyph-name="S" unicode="S" horiz-adv-x="563" 
d="M373 718q63 0 116 -21t88 -65l-93 -81q-23 28 -53.5 40t-72.5 12q-31 0 -55.5 -9.5t-41.5 -25t-26 -35t-9 -38.5q0 -17 6 -28.5t16.5 -19.5t24.5 -13t29 -9l59 -14q88 -22 124.5 -65.5t36.5 -119.5q0 -60 -23.5 -104t-63 -72.5t-91 -42t-107.5 -13.5q-84 0 -139.5 22.5
t-100.5 75.5l96 84q29 -34 67 -49.5t89 -15.5q30 0 55.5 8t44.5 22t30 32.5t11 40.5q0 38 -20.5 54.5t-54.5 24.5l-59 15q-88 22 -125 68t-37 101q0 51 19 95t55 76.5t88 51t117 18.5z" />
    <glyph glyph-name="T" unicode="T" 
d="M582 595h-175l-119 -595h-132l119 595h-179l23 117h486z" />
    <glyph glyph-name="U" unicode="U" horiz-adv-x="638" 
d="M564 244q-13 -66 -40.5 -113t-65.5 -77.5t-84 -45t-95 -14.5q-45 0 -85 14t-69 40t-46 64t-17 85q0 14 2.5 32t4.5 29l91 454h132l-93 -462q-2 -8 -3.5 -21t-1.5 -23q0 -18 5.5 -35.5t16.5 -30.5t29 -21t43 -8q57 0 95 37.5t52 108.5l91 455h132z" />
    <glyph glyph-name="V" unicode="V" horiz-adv-x="556" 
d="M279 0h-104l-81 712h130l48 -472l228 472h142z" />
    <glyph glyph-name="W" unicode="W" horiz-adv-x="844" 
d="M611 0h-111l-37 438l-216 -438h-110l-42 712h136l16 -455l216 455h99l35 -455l192 455h140z" />
    <glyph glyph-name="X" unicode="X" horiz-adv-x="586" 
d="M383 360l143 -360h-148l-88 253l-180 -253h-154l280 370l-132 342h147l79 -234l163 234h154z" />
    <glyph glyph-name="Y" unicode="Y" 
d="M349 287l-58 -287h-132l59 292l-129 420h140l76 -295l184 295h146z" />
    <glyph glyph-name="Z" unicode="Z" horiz-adv-x="531" 
d="M554 609l-380 -492h288l-24 -117h-450l21 103l380 492h-275l23 117h438z" />
    <glyph glyph-name="bracketleft" unicode="[" horiz-adv-x="352" 
d="M392 675h-116l-128 -638h126l-22 -111h-249l171 860h240z" />
    <glyph glyph-name="backslash" unicode="\" horiz-adv-x="378" 
d="M313 -74h-112l-98 847h113z" />
    <glyph glyph-name="bracketright" unicode="]" horiz-adv-x="352" 
d="M215 -74h-240l22 110h117l128 640h-126l22 110h248z" />
    <glyph glyph-name="asciicircum" unicode="^" horiz-adv-x="582" 
d="M548 389h-124l-62 198l-141 -198h-135l236 330h122z" />
    <glyph glyph-name="underscore" unicode="_" horiz-adv-x="516" 
d="M429 -173h-516l17 82h516z" />
    <glyph glyph-name="grave" unicode="`" horiz-adv-x="515" 
d="M378 601h-91l-72 167h118z" />
    <glyph glyph-name="a" unicode="a" horiz-adv-x="509" 
d="M160 -6q-34 0 -61.5 10.5t-47 29t-30 43.5t-10.5 55q0 38 12 69t35 54q29 29 68 41.5t84 12.5h124l7 31q2 8 2.5 13.5t0.5 13.5q0 26 -19 41t-58 15q-38 0 -65 -13.5t-47 -35.5l-64 83q32 32 76 51t117 19q33 0 66 -7t59.5 -24t43 -44.5t16.5 -69.5q0 -23 -5 -46
l-68 -336h-119l9 45q-22 -22 -52.5 -36.5t-73.5 -14.5zM199 94q26 0 46.5 9t34.5 23q12 12 19.5 29.5t11.5 37.5l6 31h-95q-42 0 -65.5 -22.5t-23.5 -57.5q0 -22 16 -36t50 -14z" />
    <glyph glyph-name="b" unicode="b" horiz-adv-x="533" 
d="M236 476q18 21 48.5 36t72.5 15q29 0 55 -8.5t45.5 -27t31 -47t11.5 -68.5q0 -17 -3.5 -46.5t-11.5 -68.5q-14 -74 -31 -127.5t-53 -89.5q-26 -26 -60.5 -38t-72.5 -12q-45 0 -74.5 15t-46.5 44l-10 -53h-120l142 712h124zM309 416q-28 0 -47 -11t-32 -31t-21.5 -48.5
t-15.5 -64.5q-4 -20 -7.5 -43.5t-3.5 -40.5q0 -12 2 -24.5t9 -23t19.5 -17.5t32.5 -7q28 0 47 11t32 31.5t21.5 49t15.5 64.5q4 20 7.5 43t3.5 40q0 12 -2.5 24.5t-9 23t-19 17.5t-32.5 7z" />
    <glyph glyph-name="c" unicode="c" horiz-adv-x="461" 
d="M313 527q57 0 93.5 -21t59.5 -51l-93 -82q-15 20 -32 31.5t-40 11.5q-42 0 -74 -33q-20 -21 -34 -53t-21 -69q-3 -17 -5 -33t-2 -34q0 -42 19 -65.5t55 -23.5q26 0 47.5 11t43.5 33l69 -89q-33 -31 -77 -48.5t-95 -17.5q-37 0 -71 12t-59.5 35t-41 58t-15.5 81q0 38 8 81
q15 79 43 130.5t64 81.5t77 42t81 12z" />
    <glyph glyph-name="d" unicode="d" horiz-adv-x="533" 
d="M414 0h-120l11 50q-26 -30 -59 -43t-70 -13q-41 0 -68.5 13.5t-43.5 34.5t-22.5 46.5t-6.5 49.5q0 9 0.5 19.5t2 25t5 33t8.5 44.5q16 81 34.5 133.5t48.5 82.5t63.5 40.5t68.5 10.5t66.5 -13t51.5 -43l48 241h124zM291 416q-28 0 -47 -11t-32 -31.5t-21.5 -49
t-15.5 -64.5q-4 -20 -7.5 -43.5t-3.5 -40.5q0 -12 2 -24.5t8.5 -23t19 -17t32.5 -6.5q28 0 47 11t32 31t21.5 48.5t15.5 64.5q4 20 7.5 43.5t3.5 40.5q0 12 -2 24.5t-8.5 23t-19 17.5t-32.5 7z" />
    <glyph glyph-name="e" unicode="e" horiz-adv-x="523" 
d="M301 527q41 0 75 -13t58.5 -37.5t38 -59t13.5 -76.5q0 -26 -4.5 -57t-11.5 -61h-312q-2 -9 -3 -18.5t-1 -18.5q0 -38 22 -62.5t67 -24.5q38 0 67.5 13.5t56.5 39.5l65 -82q-41 -38 -92.5 -57t-110.5 -19q-34 0 -68.5 9.5t-62 31t-45 56.5t-17.5 86q0 66 16 128.5t49 112
t82.5 79.5t117.5 30zM294 425q-40 0 -71.5 -27.5t-48.5 -91.5h191q3 16 3 35q0 42 -20.5 63t-53.5 21z" />
    <glyph glyph-name="f" unicode="f" horiz-adv-x="325" 
d="M371 615h-44q-47 0 -57 -51l-12 -59h91l-19 -95h-91l-82 -410h-124l82 410h-51l19 95h51l15 72q14 69 56 106t114 37h73z" />
    <glyph glyph-name="g" unicode="g" horiz-adv-x="527" 
d="M262 527q82 0 118 -59l10 53h120l-100 -501q-11 -57 -34.5 -98t-56.5 -67.5t-73.5 -39t-85.5 -12.5q-57 0 -98.5 16.5t-74.5 54.5l86 75q12 -14 31 -27.5t56 -13.5q52 0 84 31t43 82l11 53q-20 -24 -48.5 -38t-67.5 -14q-29 0 -55 9t-46 27.5t-31.5 46t-11.5 64.5
q0 19 3.5 46t9.5 60q14 75 31 122.5t47 77.5q29 29 63.5 40.5t69.5 11.5zM285 416q-48 0 -72 -35.5t-38 -106.5q-9 -48 -9 -72q0 -29 13.5 -49t48.5 -20q48 0 72 35.5t38 106.5q9 48 9 72q0 32 -15 50.5t-47 18.5z" />
    <glyph glyph-name="h" unicode="h" 
d="M236 480q25 23 57.5 35t70.5 12q24 0 48.5 -8t44 -25.5t32 -44.5t12.5 -66q0 -14 -2 -29t-5 -29l-65 -325h-124l64 317q2 8 3 17t1 17q0 34 -19.5 49.5t-43.5 15.5q-13 0 -29 -4t-31 -15t-27 -30.5t-18 -50.5l-64 -316h-124l142 712h124z" />
    <glyph glyph-name="i" unicode="i" horiz-adv-x="262" 
d="M142 0h-124l101 505h124zM264 607h-127l20 103h128z" />
    <glyph glyph-name="j" unicode="j" horiz-adv-x="262" 
d="M133 -48q-14 -69 -56.5 -108t-111.5 -39h-77l21 105h45q23 0 37 14.5t19 38.5l109 542h124zM264 607h-127l20 103h128z" />
    <glyph glyph-name="k" unicode="k" horiz-adv-x="536" 
d="M203 309l206 212h147l-218 -217l138 -304h-142l-90 227l-71 -66l-32 -161h-124l142 712h124z" />
    <glyph glyph-name="l" unicode="l" horiz-adv-x="311" 
d="M170 166q-2 -6 -2.5 -14t-0.5 -13q0 -34 44 -34h41l-21 -105h-55q-37 0 -63 9t-43 26q-30 30 -30 78q0 14 2.5 29.5t4.5 26.5l108 543h124z" />
    <glyph glyph-name="m" unicode="m" horiz-adv-x="832" 
d="M643 527q26 0 52 -8.5t46.5 -26.5t33.5 -45t13 -64q0 -17 -2 -31.5t-4 -26.5l-65 -325h-124l63 317q2 8 3 17t1 17q0 34 -19.5 49.5t-42.5 15.5q-13 0 -29 -4t-31 -15t-27.5 -30.5t-18.5 -50.5l-63 -316h-124l63 317q2 8 3 17t1 17q0 34 -19 49.5t-42 15.5q-13 0 -29 -4
t-31.5 -15t-28 -30.5t-18.5 -50.5l-63 -316h-124l104 521h119l-10 -50q26 26 61 41t76 15q28 0 60 -14.5t53 -52.5q13 14 28.5 26.5t35 21.5t44 14t55.5 5z" />
    <glyph glyph-name="n" unicode="n" 
d="M368 527q23 0 46.5 -8t43 -25.5t31.5 -44.5t12 -66q0 -14 -2 -29.5t-5 -28.5l-65 -325h-124l64 317q2 9 3 17.5t1 16.5q0 34 -19 49.5t-43 15.5q-14 0 -30 -4t-31 -15t-27 -30.5t-18 -50.5l-64 -316h-124l104 521h119l-9 -50q25 27 60.5 41.5t76.5 14.5z" />
    <glyph glyph-name="o" unicode="o" horiz-adv-x="516" 
d="M302 527q33 0 64.5 -10t56 -31t40 -53.5t15.5 -77.5q0 -24 -3.5 -50.5t-6.5 -43.5q-8 -41 -17.5 -72.5t-20.5 -56t-24.5 -43.5t-30.5 -35q-30 -29 -70 -44.5t-90 -15.5q-33 0 -65 10t-56.5 31t-40 53.5t-15.5 77.5q0 24 3.5 50.5t7.5 44.5q8 41 17 72t20.5 55.5t25 43
t30.5 35.5q29 29 69.5 44.5t90.5 15.5zM289 416q-38 0 -64 -26q-19 -18 -31 -49.5t-22 -79.5q-7 -34 -9 -53t-2 -28q0 -38 18.5 -56.5t47.5 -18.5q20 0 36 7t28 19q19 18 31.5 49.5t21.5 80.5q7 33 9 52.5t2 27.5q0 38 -18.5 56.5t-47.5 18.5z" />
    <glyph glyph-name="p" unicode="p" horiz-adv-x="532" 
d="M359 527q41 0 68.5 -13.5t43.5 -34.5t22.5 -46.5t6.5 -49.5q0 -19 -3 -44.5t-13 -77.5q-16 -81 -34.5 -133.5t-48.5 -82.5t-63.5 -40.5t-68.5 -10.5t-66.5 13t-51.5 43l-48 -241h-124l142 712h120l-11 -50q26 30 59 43t70 13zM309 416q-28 0 -47 -11t-32 -31t-21.5 -48.5
t-15.5 -64.5q-4 -20 -7.5 -43.5t-3.5 -40.5q0 -12 2 -24.5t8.5 -23t19 -17.5t32.5 -7q28 0 47 11t32 31.5t21.5 49t15.5 64.5q4 20 7.5 43.5t3.5 40.5q0 12 -2 24.5t-8.5 23t-19 17t-32.5 6.5z" />
    <glyph glyph-name="q" unicode="q" horiz-adv-x="533" 
d="M265 527q45 0 74.5 -15t46.5 -44l10 53h120l-142 -712h-124l47 236q-18 -21 -48.5 -36t-72.5 -15q-29 0 -55 8.5t-45.5 27t-31 47t-11.5 68.5q0 17 3.5 46.5t11.5 68.5q14 74 31 127.5t53 89.5q26 26 60.5 38t72.5 12zM288 416q-28 0 -47 -11t-32 -31.5t-21.5 -49
t-15.5 -64.5q-4 -20 -7.5 -43t-3.5 -40q0 -12 2 -24.5t9 -23t19.5 -17.5t32.5 -7q28 0 47 11t32 31t21.5 48.5t15.5 64.5q4 20 7.5 43.5t3.5 40.5q0 12 -2.5 24.5t-9 23t-19 17.5t-32.5 7z" />
    <glyph glyph-name="r" unicode="r" horiz-adv-x="429" 
d="M362 527q38 0 64 -12t47 -37l-107 -95q-10 13 -23.5 22.5t-33.5 9.5q-37 0 -66.5 -27.5t-38.5 -72.5l-63 -315h-124l104 521h120l-11 -51q22 26 56.5 41.5t75.5 15.5z" />
    <glyph glyph-name="s" unicode="s" horiz-adv-x="475" 
d="M286 527q56 0 97.5 -14.5t75.5 -49.5l-85 -75q-18 19 -44.5 28t-54.5 9q-48 0 -69.5 -19.5t-21.5 -43.5q0 -32 48 -39l67 -11q70 -11 98 -46t28 -89q0 -39 -15 -70t-41 -56q-32 -31 -81 -44t-100 -13q-70 0 -118 20t-83 58l89 78q20 -23 47.5 -36.5t72.5 -13.5
q54 0 80 21t26 44q0 21 -13 30t-36 13l-68 11q-36 6 -60 18.5t-38.5 28.5t-20.5 34.5t-6 36.5q0 36 13.5 70t39.5 60q60 60 173 60z" />
    <glyph glyph-name="t" unicode="t" horiz-adv-x="336" 
d="M254 505h86l-19 -95h-86l-49 -244q-2 -6 -2.5 -14t-0.5 -13q0 -34 44 -34h41l-21 -105h-55q-73 0 -106 35q-30 32 -30 78q0 14 2.5 29.5t4.5 26.5l48 241h-52l19 95h52l31 156h124z" />
    <glyph glyph-name="u" unicode="u" 
d="M423 0h-119l9 50q-25 -27 -60.5 -41.5t-76.5 -14.5q-23 0 -46.5 8t-43 25.5t-31.5 44.5t-12 66q0 14 2 29.5t5 28.5l65 325h124l-64 -317q-2 -9 -3 -17.5t-1 -16.5q0 -34 19 -49.5t43 -15.5q13 0 29 4t31 15t27.5 30.5t18.5 50.5l64 316h124z" />
    <glyph glyph-name="v" unicode="v" horiz-adv-x="469" 
d="M56 521h123l37 -336l168 336h133l-285 -521h-98z" />
    <glyph glyph-name="w" unicode="w" horiz-adv-x="718" 
d="M516 0h-98l-41 331l-171 -331h-100l-49 521h124l18 -325l165 325h90l38 -325l142 325h131z" />
    <glyph glyph-name="x" unicode="x" horiz-adv-x="509" 
d="M321 262l123 -262h-143l-65 163l-121 -163h-153l221 269l-118 252h143l61 -155l111 155h151z" />
    <glyph glyph-name="y" unicode="y" horiz-adv-x="464" 
d="M190 -84q-9 -17 -20 -33t-23 -28q-25 -25 -55 -35.5t-69 -10.5h-48l23 112h28q27 0 42 13t29 41l33 62l-74 484h123l38 -336l167 336h131z" />
    <glyph glyph-name="z" unicode="z" horiz-adv-x="461" 
d="M451 426l-279 -315h223l-22 -111h-386l19 95l277 315h-208l22 111h373z" />
    <glyph glyph-name="braceleft" unicode="{" horiz-adv-x="435" 
d="M234 -74q-35 0 -59 11t-38.5 28t-21 38.5t-6.5 41.5q0 12 1 20.5t3 16.5l30 147q3 15 3 27q0 19 -12.5 35.5t-43.5 16.5h-42l23 110h43q32 0 54 19q11 9 17 24t11 36l28 141q7 34 19.5 63t38.5 52q39 33 112 33h98l-22 -111h-46q-23 0 -37 -3.5t-23 -12.5t-14.5 -23.5
t-9.5 -36.5l-29 -143q-10 -50 -33.5 -70.5t-52.5 -27.5q22 -11 35 -29.5t13 -48.5q0 -14 -3 -29l-27 -136q-2 -12 -3.5 -21.5t-1.5 -18.5q0 -23 14 -30.5t43 -7.5h57l-22 -111h-96z" />
    <glyph glyph-name="bar" unicode="|" horiz-adv-x="333" 
d="M162 -74h-123l171 860h124z" />
    <glyph glyph-name="braceright" unicode="}" horiz-adv-x="435" 
d="M239 786q35 0 59 -11t38.5 -28.5t21 -38.5t6.5 -41q0 -12 -1 -20.5t-3 -16.5l-30 -147q-3 -15 -3 -27q0 -19 12.5 -35.5t43.5 -16.5h42l-23 -110h-43q-32 0 -54 -19q-19 -16 -28 -60l-28 -141q-7 -34 -19.5 -63t-38.5 -52q-39 -33 -112 -33h-98l22 111h46q23 0 37 3.5
t23 12.5t14 23.5t10 36.5l29 143q10 50 33.5 70.5t52.5 27.5q-22 11 -35 29.5t-13 48.5q0 14 3 29l27 136q2 12 3.5 21.5t1.5 18.5q0 23 -14 30.5t-43 7.5h-57l22 111h96z" />
    <glyph glyph-name="asciitilde" unicode="~" horiz-adv-x="577" 
d="M208 374q31 0 55.5 -8t51.5 -24q22 -13 39 -18.5t36 -5.5q20 0 43 7.5t52 34.5l64 -83q-29 -27 -53.5 -42t-45.5 -23t-38.5 -10t-31.5 -2q-31 0 -55.5 8t-51.5 24q-22 13 -39.5 18.5t-36.5 5.5q-20 0 -42.5 -8t-51.5 -35l-65 84q29 27 54 42t46 23t38.5 10t31.5 2z" />
    <glyph glyph-name="uni00A0" unicode="&#xa0;" horiz-adv-x="220" 
 />
    <glyph glyph-name="exclamdown" unicode="&#xa1;" horiz-adv-x="330" 
d="M108 299h93l-66 -490h-153zM131 521h131l-26 -133h-131z" />
    <glyph glyph-name="cent" unicode="&#xa2;" horiz-adv-x="484" 
d="M392 626q42 -10 70 -31t45 -48l-91 -75q-20 34 -59 42l-59 -299q41 6 77 42l68 -83q-17 -16 -33.5 -28t-34.5 -20.5t-39 -14.5t-47 -10l-20 -101h-96l21 105q-26 6 -50 22t-43 41t-30 58t-11 73q0 55 14.5 110.5t43.5 101.5t73.5 77.5t104.5 38.5l17 85h96zM287 514
q-15 -5 -31 -18t-28 -32q-20 -32 -32 -74t-12 -83q0 -27 10 -53.5t36 -35.5z" />
    <glyph glyph-name="sterling" unicode="&#xa3;" horiz-adv-x="551" 
d="M401 718q66 0 107.5 -19.5t71.5 -57.5l-94 -81q-17 20 -37 31t-50 11q-18 0 -37 -5.5t-36.5 -19.5t-32 -38t-21.5 -60l-18 -86h109l-19 -95h-109l-36 -181h284l-23 -117h-416l59 298h-57l18 95h58l19 94q15 72 45.5 117t67.5 70.5t76 34.5t71 9z" />
    <glyph glyph-name="currency" unicode="&#xa4;" horiz-adv-x="659" 
d="M595 475l-69 -68q21 -29 30.5 -59t9.5 -63q0 -32 -9.5 -62t-30.5 -59l69 -69l-75 -75l-69 68q-21 -14 -54.5 -22t-66.5 -8q-34 0 -67.5 8t-54.5 22l-68 -68l-76 75l69 69q-20 29 -29.5 59t-9.5 62q0 33 9.5 63t29.5 59l-69 68l76 76l68 -69q21 14 54.5 22.5t67.5 8.5
q33 0 66.5 -8.5t54.5 -22.5l69 69zM330 410q-26 0 -48.5 -10t-39.5 -27t-27 -40t-10 -48t10 -47.5t27 -39.5t39.5 -27t48.5 -10q25 0 47.5 10t39.5 27t27 39.5t10 47.5t-10 48t-27 40t-39.5 27t-47.5 10z" />
    <glyph glyph-name="yen" unicode="&#xa5;" 
d="M52 174l15 78h143l8 40l-11 35h-125l16 78h85l-94 307h141l75 -295l184 295h146l-207 -307h90l-16 -78h-126l-27 -40l-7 -35h144l-15 -78h-145l-34 -174h-132l34 174h-142z" />
    <glyph glyph-name="brokenbar" unicode="&#xa6;" horiz-adv-x="333" 
d="M264 436h-124l70 350h124zM162 -74h-123l69 350h124z" />
    <glyph glyph-name="section" unicode="&#xa7;" horiz-adv-x="504" 
d="M326 718q39 0 68.5 -11t49.5 -30.5t30 -45.5t10 -56q0 -6 -0.5 -12.5t-1.5 -11.5h-111q3 34 -14 47.5t-43 13.5q-38 0 -57 -21.5t-19 -51.5q0 -21 12.5 -34.5t38.5 -24.5l53 -21q19 -8 37.5 -21.5t32.5 -32t22.5 -42.5t8.5 -52q0 -61 -27 -112.5t-89 -84.5
q24 -17 39 -43.5t15 -73.5q0 -35 -12 -70t-37.5 -62.5t-66.5 -44.5t-99 -17q-34 0 -63 10t-50.5 28.5t-34 45t-12.5 59.5v14q0 7 1 15h115q-3 -27 12 -45t48 -18q30 0 55 18.5t25 61.5q0 20 -12 37.5t-41 29.5l-52 21q-43 17 -72 54t-29 94q0 61 29.5 114.5t88.5 82.5
q-26 22 -38.5 48.5t-12.5 65.5q0 33 12.5 65t37.5 57.5t63.5 41t89.5 15.5zM267 362q-19 0 -31.5 -6t-23.5 -15q-13 -11 -23 -28.5t-15 -43.5q-2 -8 -2.5 -13.5t-0.5 -13.5q0 -19 6 -31.5t15 -20t19.5 -10.5t19.5 -3q19 0 32 5.5t24 14.5q13 11 23 28.5t15 43.5q3 15 3 28
q0 37 -20 51t-41 14z" />
    <glyph glyph-name="dieresis" unicode="&#xa8;" horiz-adv-x="515" 
d="M484 603h-106l24 122h106zM275 603h-106l24 122h106z" />
    <glyph glyph-name="copyright" unicode="&#xa9;" horiz-adv-x="835" 
d="M438 -5q-75 0 -141 28.5t-115 77.5t-77.5 114.5t-28.5 140.5t28.5 140.5t77.5 114.5t115 77.5t141 28.5t140.5 -28.5t114 -77.5t77 -114.5t28.5 -140.5t-28.5 -140.5t-77 -114.5t-114 -77.5t-140.5 -28.5zM445 164q-36 0 -68 11.5t-56 35.5t-38 60t-14 85t14 85t38 60
t56 35.5t68 11.5q38 0 68.5 -12.5t57.5 -35.5l-50 -51q-20 17 -37 23.5t-39 6.5q-48 0 -73 -32t-25 -91t25 -91t73 -32q22 0 39 6.5t37 23.5l50 -51q-27 -23 -57.5 -35.5t-68.5 -12.5zM437 71q60 0 111.5 21.5t89 60t59 90.5t21.5 113t-21.5 113t-59 90.5t-89 60
t-111.5 21.5t-111.5 -21.5t-89 -60t-58.5 -90.5t-21 -113t21 -113t58.5 -90.5t89 -60t111.5 -21.5z" />
    <glyph glyph-name="ordfeminine" unicode="&#xaa;" horiz-adv-x="431" 
d="M291 717q26 0 52.5 -6t47.5 -19.5t34.5 -35.5t13.5 -55q0 -8 -1 -18.5t-3 -18.5l-54 -268h-96l7 36q-17 -18 -41.5 -29t-59.5 -11q-54 0 -86 31.5t-32 80.5q0 60 40 98q42 41 119 41h99l4 24q2 8 2.5 12.5t0.5 9.5q0 20 -14.5 32t-46.5 12q-31 0 -52 -10.5t-37 -27.5
l-52 67q26 26 61.5 40.5t93.5 14.5zM241 475q-34 0 -52.5 -18t-18.5 -44q0 -40 54 -40q39 0 64 25q9 9 15 22.5t9 29.5l5 25h-76z" />
    <glyph glyph-name="guillemotleft" unicode="&#xab;" horiz-adv-x="598" 
d="M555 361l-111 -96l73 -96l-27 -142l-189 249l287 245zM290 361l-111 -96l73 -96l-27 -142l-189 249l287 245z" />
    <glyph glyph-name="logicalnot" unicode="&#xac;" horiz-adv-x="516" 
d="M440 95h-115l30 149h-313l23 115h428z" />
    <glyph glyph-name="uni00AD" unicode="&#xad;" horiz-adv-x="408" 
d="M344 228h-293l23 115h293z" />
    <glyph glyph-name="registered" unicode="&#xae;" horiz-adv-x="835" 
d="M438 -5q-75 0 -141 28.5t-115 77.5t-77.5 114.5t-28.5 140.5t28.5 140.5t77.5 114.5t115 77.5t141 28.5t140.5 -28.5t114 -77.5t77 -114.5t28.5 -140.5t-28.5 -140.5t-77 -114.5t-114 -77.5t-140.5 -28.5zM437 71q60 0 111.5 21.5t89 60t59 90.5t21.5 113t-21.5 113
t-59 90.5t-89 60t-111.5 21.5t-111.5 -21.5t-89 -60t-58.5 -90.5t-21 -113t21 -113t58.5 -90.5t89 -60t111.5 -21.5zM300 545h167q56 0 89 -32t33 -84q0 -38 -19.5 -62.5t-51.5 -35.5l78 -164h-88l-68 152h-62v-152h-78v378zM455 377q26 0 41 14t15 38q0 25 -15 39t-41 14
h-77v-105h77z" />
    <glyph glyph-name="macron" unicode="&#xaf;" horiz-adv-x="515" 
d="M481 619h-302l17 82h301z" />
    <glyph glyph-name="degree" unicode="&#xb0;" horiz-adv-x="460" 
d="M287 718q38 0 70.5 -13.5t56.5 -37.5t37.5 -57t13.5 -71t-13.5 -70.5t-37.5 -56.5t-56.5 -37.5t-70.5 -13.5t-70.5 13.5t-56.5 37.5t-37.5 56.5t-13.5 70.5t13.5 71t37.5 57t56.5 37.5t70.5 13.5zM287 619q-33 0 -56 -23t-23 -57t23 -57t56 -23t56 23t23 57t-23 57
t-56 23z" />
    <glyph glyph-name="plusminus" unicode="&#xb1;" horiz-adv-x="516" 
d="M353 451h153l-23 -114h-153l-33 -165h-116l33 165h-152l23 114h152l33 164h116zM417 0h-421l23 115h421z" />
    <glyph glyph-name="twosuperior" unicode="&#xb2;" horiz-adv-x="237" 
d="M69 491l129 113q13 11 18 19t5 17q0 22 -24 22q-12 0 -21 -7t-14 -24h-69q9 43 38.5 65.5t75.5 22.5q37 0 60.5 -20.5t23.5 -52.5q0 -23 -11 -40t-36 -38l-87 -77h108l-12 -57h-196z" />
    <glyph glyph-name="threesuperior" unicode="&#xb3;" horiz-adv-x="236" 
d="M157 431q-40 0 -65 18t-25 54v10q0 5 2 13h69q-1 -4 -1 -8q0 -25 28 -25q20 0 29 12t9 28q0 25 -28 25h-10l8 43h10q17 0 26.5 10t9.5 23q0 23 -24 23q-11 0 -20.5 -8t-13.5 -22h-70q11 42 38 67t75 25q42 0 64 -22t22 -49q0 -24 -12.5 -42t-34.5 -26q27 -13 27 -50
q0 -43 -30.5 -71t-82.5 -28z" />
    <glyph glyph-name="acute" unicode="&#xb4;" horiz-adv-x="515" 
d="M372 601h-100l111 167h119z" />
    <glyph glyph-name="mu" unicode="&#xb5;" horiz-adv-x="548" 
d="M119 521h124l-63 -317q-2 -8 -3 -17t-1 -17q0 -34 19 -49.5t42 -15.5q13 0 29.5 4t31.5 15t27.5 30.5t18.5 50.5l63 316h124l-104 -521h-119l10 50q-22 -23 -54 -36.5t-70 -13.5q-26 0 -53 9l-40 -200h-124z" />
    <glyph glyph-name="paragraph" unicode="&#xb6;" horiz-adv-x="636" 
d="M467 -191h-123l157 787h-95l-158 -787h-123l103 518q-24 2 -49.5 14t-47 34t-35 54t-13.5 74q0 39 14 76.5t44.5 67t78.5 47.5t116 18h312z" />
    <glyph glyph-name="periodcentered" unicode="&#xb7;" horiz-adv-x="271" 
d="M198 215h-141l28 141h141z" />
    <glyph glyph-name="cedilla" unicode="&#xb8;" horiz-adv-x="515" 
d="M147 -57h98l-70 -144h-114z" />
    <glyph glyph-name="onesuperior" unicode="&#xb9;" horiz-adv-x="233" 
d="M204 434h-69l40 204l-70 -52l15 78l71 52h69z" />
    <glyph glyph-name="ordmasculine" unicode="&#xba;" horiz-adv-x="439" 
d="M300 717q24 0 49 -7t45.5 -23.5t33.5 -42.5t13 -64q0 -19 -2.5 -40.5t-5.5 -35.5q-11 -60 -28.5 -98.5t-46.5 -66.5q-24 -23 -56 -35.5t-71 -12.5q-24 0 -49 7.5t-45.5 24t-33.5 43t-13 64.5q0 19 2.5 39.5t5.5 34.5q11 60 28 98.5t46 66.5q24 23 56.5 35.5t71.5 12.5z
M290 627q-18 0 -31 -6t-21 -15q-16 -16 -25 -41.5t-16 -60.5q-5 -26 -6.5 -40.5t-1.5 -23.5q0 -31 14 -45t37 -14q18 0 31.5 6.5t21.5 15.5q16 16 24.5 41t15.5 60q5 26 7 40.5t2 23.5q0 31 -14.5 45t-37.5 14z" />
    <glyph glyph-name="guillemotright" unicode="&#xbb;" horiz-adv-x="597" 
d="M570 273l-287 -246l32 160l111 96l-73 97l28 141zM305 273l-287 -246l32 160l112 96l-74 97l28 141z" />
    <glyph glyph-name="onequarter" unicode="&#xbc;" horiz-adv-x="853" 
d="M269 0h-100l463 712h99zM678 60h-170l14 77l195 290h96l-195 -287h75l13 67h84l-13 -67h34l-15 -80h-35l-12 -60h-84zM240 285h-90l64 321l-101 -73l22 107l101 72h89z" />
    <glyph glyph-name="onehalf" unicode="&#xbd;" horiz-adv-x="851" 
d="M269 0h-100l463 712h99zM527 80l177 169q19 18 27.5 32.5t8.5 32.5q0 15 -7.5 26t-26.5 11q-26 0 -36 -14.5t-13 -31.5h-90q5 26 15.5 49t28.5 40t43.5 27t60.5 10q56 0 86 -29.5t30 -80.5q0 -38 -18 -66.5t-50 -57.5l-125 -117h151l-16 -80h-263zM240 285h-90l64 321
l-101 -73l22 107l101 72h89z" />
    <glyph glyph-name="threequarters" unicode="&#xbe;" horiz-adv-x="846" 
d="M262 0h-100l463 712h99zM671 60h-170l14 77l195 290h96l-195 -287h75l13 67h84l-13 -67h34l-15 -80h-35l-12 -60h-84zM243 716q51 0 82 -30t31 -81q0 -29 -14 -57t-49 -47q18 -12 26 -30t8 -47q0 -31 -11 -57.5t-31 -45.5t-47.5 -29.5t-60.5 -10.5q-64 0 -94 30t-30 70
q0 10 0.5 17t1.5 13h88q-1 -5 -1 -7v-4q0 -18 9 -28t30 -10q26 0 41 18t15 44q0 22 -11 32t-28 10h-13l15 77h12q29 0 41.5 19t12.5 38t-9 27.5t-24 8.5q-18 0 -31.5 -11.5t-18.5 -33.5h-91q13 65 53 95t98 30z" />
    <glyph glyph-name="questiondown" unicode="&#xbf;" horiz-adv-x="497" 
d="M144 -197q-32 0 -62 11t-53 31t-36.5 49.5t-13.5 67.5q0 51 19.5 89.5t54.5 76.5l89 99q8 9 16.5 23t11.5 28l5 21h124l-7 -31q-6 -29 -18 -54t-37 -51l-88 -94q-19 -20 -32 -42.5t-13 -51.5q0 -25 15 -43t44 -18q40 0 63.5 22.5t31.5 60.5h125q-9 -51 -30.5 -87.5
t-53 -60.5t-71 -35t-84.5 -11zM211 521h131l-26 -133h-131z" />
    <glyph glyph-name="Agrave" unicode="&#xc0;" horiz-adv-x="607" 
d="M552 0h-134l-15 130h-241l-67 -130h-141l388 712h105zM216 238h177l-34 274zM451 778h-92l-71 168h118z" />
    <glyph glyph-name="Aacute" unicode="&#xc1;" horiz-adv-x="607" 
d="M552 0h-134l-15 130h-241l-67 -130h-141l388 712h105zM216 238h177l-34 274zM442 778h-99l110 168h120z" />
    <glyph glyph-name="Acircumflex" unicode="&#xc2;" horiz-adv-x="607" 
d="M552 0h-134l-15 130h-241l-67 -130h-141l388 712h105zM216 238h177l-34 274zM575 778h-91l-60 94l-98 -94h-101l159 169h99z" />
    <glyph glyph-name="Atilde" unicode="&#xc3;" horiz-adv-x="607" 
d="M552 0h-134l-15 130h-241l-67 -130h-141l388 712h105zM216 238h177l-34 274zM347 910q26 0 44 -6.5t33 -15.5t26.5 -13t26.5 -4q19 0 33.5 8t28.5 22l45 -59q-28 -26 -53.5 -39t-57.5 -13q-26 0 -44 6.5t-33 15.5t-26.5 13t-26.5 4q-19 0 -33.5 -8.5t-28.5 -22.5l-45 60
q28 26 53.5 39t57.5 13z" />
    <glyph glyph-name="Adieresis" unicode="&#xc4;" horiz-adv-x="607" 
d="M552 0h-134l-15 130h-241l-67 -130h-141l388 712h105zM216 238h177l-34 274zM557 780h-106l24 122h106zM348 780h-106l24 122h106z" />
    <glyph glyph-name="Aring" unicode="&#xc5;" horiz-adv-x="607" 
d="M552 0h-134l-15 130h-241l-67 -130h-141l388 712h105zM216 238h177l-34 274zM410 1005q26 0 49 -9.5t40 -26.5t27 -40.5t10 -50.5t-10 -50t-27 -40.5t-40 -27t-49 -9.5t-49.5 9.5t-40.5 27t-27 40.5t-10 50t10 50t27 40.5t40.5 27t49.5 9.5zM410 936q-23 0 -40.5 -17
t-17.5 -41t17.5 -41t40.5 -17t40.5 17t17.5 41t-17.5 41t-40.5 17z" />
    <glyph glyph-name="AE" unicode="&#xc6;" horiz-adv-x="942" 
d="M956 596h-312l-36 -179h269l-23 -116h-269l-37 -185h318l-23 -116h-451l33 163h-213l-112 -163h-146l496 712h529zM288 273h159l64 323z" />
    <glyph glyph-name="Ccedilla" unicode="&#xc7;" horiz-adv-x="590" 
d="M380 718q55 0 95.5 -17t67.5 -47t40 -70t13 -86h-132q-1 44 -22 74t-70 30q-33 0 -55 -11t-41 -30q-11 -11 -20 -26.5t-17 -39t-16.5 -57.5t-17.5 -82q-8 -45 -14 -84.5t-6 -65.5q0 -46 27 -71t68 -25q26 0 47.5 9t38 23.5t28 33t18.5 38.5h132q-36 -111 -107.5 -165.5
t-166.5 -54.5q-51 0 -91.5 15.5t-68.5 43t-43 64.5t-15 79q0 23 4 61.5t17 98.5q10 52 19.5 93t21 74.5t27 61t38.5 52.5q41 43 94 62t107 19zM225 -201h-114l86 144h98z" />
    <glyph glyph-name="Egrave" unicode="&#xc8;" horiz-adv-x="578" 
d="M592 596h-312l-36 -179h269l-23 -116h-269l-37 -185h318l-23 -116h-451l143 712h444zM448 778h-92l-71 168h118z" />
    <glyph glyph-name="Eacute" unicode="&#xc9;" horiz-adv-x="578" 
d="M592 596h-312l-36 -179h269l-23 -116h-269l-37 -185h318l-23 -116h-451l143 712h444zM439 778h-99l110 168h120z" />
    <glyph glyph-name="Ecircumflex" unicode="&#xca;" horiz-adv-x="578" 
d="M592 596h-312l-36 -179h269l-23 -116h-269l-37 -185h318l-23 -116h-451l143 712h444zM572 778h-91l-60 94l-98 -94h-101l159 169h99z" />
    <glyph glyph-name="Edieresis" unicode="&#xcb;" horiz-adv-x="578" 
d="M592 596h-312l-36 -179h269l-23 -116h-269l-37 -185h318l-23 -116h-451l143 712h444zM554 780h-106l24 122h106zM345 780h-106l24 122h106z" />
    <glyph glyph-name="Igrave" unicode="&#xcc;" horiz-adv-x="293" 
d="M160 0h-132l143 712h132zM301 778h-92l-71 168h118z" />
    <glyph glyph-name="Iacute" unicode="&#xcd;" horiz-adv-x="293" 
d="M160 0h-132l143 712h132zM292 778h-99l110 168h120z" />
    <glyph glyph-name="Icircumflex" unicode="&#xce;" horiz-adv-x="293" 
d="M160 0h-132l143 712h132zM425 778h-91l-60 94l-98 -94h-101l159 169h99z" />
    <glyph glyph-name="Idieresis" unicode="&#xcf;" horiz-adv-x="293" 
d="M160 0h-132l143 712h132zM407 780h-106l24 122h106zM198 780h-106l24 122h106z" />
    <glyph glyph-name="Eth" unicode="&#xd0;" horiz-adv-x="647" 
d="M426 712q44 0 82.5 -11.5t67 -36t44.5 -62t16 -89.5q0 -12 -1 -24.5t-3.5 -30t-7 -41.5t-11.5 -58q-13 -65 -23.5 -110t-23 -77.5t-28.5 -56t-39 -45.5q-73 -70 -196 -70h-253l62 309h-66l20 100h66l61 303h233zM302 596l-38 -187h110l-20 -100h-110l-39 -193h100
q32 0 58.5 9.5t47.5 29.5q11 10 19.5 24.5t16.5 37.5t16 57t18 85q12 62 17 94t5 49q0 48 -27 71t-73 23h-101z" />
    <glyph glyph-name="Ntilde" unicode="&#xd1;" horiz-adv-x="680" 
d="M547 0h-112l-185 445l-90 -445h-132l143 712h112l186 -446l89 446h132zM374 910q26 0 44 -6.5t33 -15.5t26.5 -13t26.5 -4q19 0 33.5 8t28.5 22l45 -59q-28 -26 -53.5 -39t-57.5 -13q-26 0 -44 6.5t-33 15.5t-26.5 13t-26.5 4q-19 0 -33.5 -8.5t-28.5 -22.5l-45 60
q28 26 53.5 39t57.5 13z" />
    <glyph glyph-name="Ograve" unicode="&#xd2;" horiz-adv-x="611" 
d="M379 718q51 0 91 -16t67.5 -43.5t42 -64t14.5 -78.5q0 -24 -4 -62t-16 -98q-10 -52 -19.5 -93t-21 -74.5t-27 -61t-38.5 -51.5q-42 -45 -94.5 -63.5t-106.5 -18.5q-51 0 -91 16t-67.5 43.5t-42 64t-14.5 78.5q0 24 4 62t16 98q10 52 19.5 93t21 74.5t27 61t38.5 51.5
q42 45 94.5 63.5t106.5 18.5zM370 602q-56 0 -95 -43q-10 -11 -18.5 -25.5t-17 -38t-17 -57t-18.5 -82.5q-9 -45 -14.5 -84t-5.5 -65q0 -48 27.5 -72.5t64.5 -24.5q56 0 95 43q10 11 18.5 25.5t17 37.5t17 57t18.5 83q9 45 14.5 84t5.5 65q0 48 -27 72.5t-65 24.5zM460 778
h-92l-71 168h118z" />
    <glyph glyph-name="Oacute" unicode="&#xd3;" horiz-adv-x="611" 
d="M379 718q51 0 91 -16t67.5 -43.5t42 -64t14.5 -78.5q0 -24 -4 -62t-16 -98q-10 -52 -19.5 -93t-21 -74.5t-27 -61t-38.5 -51.5q-42 -45 -94.5 -63.5t-106.5 -18.5q-51 0 -91 16t-67.5 43.5t-42 64t-14.5 78.5q0 24 4 62t16 98q10 52 19.5 93t21 74.5t27 61t38.5 51.5
q42 45 94.5 63.5t106.5 18.5zM370 602q-56 0 -95 -43q-10 -11 -18.5 -25.5t-17 -38t-17 -57t-18.5 -82.5q-9 -45 -14.5 -84t-5.5 -65q0 -48 27.5 -72.5t64.5 -24.5q56 0 95 43q10 11 18.5 25.5t17 37.5t17 57t18.5 83q9 45 14.5 84t5.5 65q0 48 -27 72.5t-65 24.5zM451 778
h-99l110 168h120z" />
    <glyph glyph-name="Ocircumflex" unicode="&#xd4;" horiz-adv-x="611" 
d="M379 718q51 0 91 -16t67.5 -43.5t42 -64t14.5 -78.5q0 -24 -4 -62t-16 -98q-10 -52 -19.5 -93t-21 -74.5t-27 -61t-38.5 -51.5q-42 -45 -94.5 -63.5t-106.5 -18.5q-51 0 -91 16t-67.5 43.5t-42 64t-14.5 78.5q0 24 4 62t16 98q10 52 19.5 93t21 74.5t27 61t38.5 51.5
q42 45 94.5 63.5t106.5 18.5zM370 602q-56 0 -95 -43q-10 -11 -18.5 -25.5t-17 -38t-17 -57t-18.5 -82.5q-9 -45 -14.5 -84t-5.5 -65q0 -48 27.5 -72.5t64.5 -24.5q56 0 95 43q10 11 18.5 25.5t17 37.5t17 57t18.5 83q9 45 14.5 84t5.5 65q0 48 -27 72.5t-65 24.5zM584 778
h-91l-60 94l-98 -94h-101l159 169h99z" />
    <glyph glyph-name="Otilde" unicode="&#xd5;" horiz-adv-x="611" 
d="M379 718q51 0 91 -16t67.5 -43.5t42 -64t14.5 -78.5q0 -24 -4 -62t-16 -98q-10 -52 -19.5 -93t-21 -74.5t-27 -61t-38.5 -51.5q-42 -45 -94.5 -63.5t-106.5 -18.5q-51 0 -91 16t-67.5 43.5t-42 64t-14.5 78.5q0 24 4 62t16 98q10 52 19.5 93t21 74.5t27 61t38.5 51.5
q42 45 94.5 63.5t106.5 18.5zM370 602q-56 0 -95 -43q-10 -11 -18.5 -25.5t-17 -38t-17 -57t-18.5 -82.5q-9 -45 -14.5 -84t-5.5 -65q0 -48 27.5 -72.5t64.5 -24.5q56 0 95 43q10 11 18.5 25.5t17 37.5t17 57t18.5 83q9 45 14.5 84t5.5 65q0 48 -27 72.5t-65 24.5zM356 910
q26 0 44 -6.5t33 -15.5t26.5 -13t26.5 -4q19 0 33.5 8t28.5 22l45 -59q-28 -26 -53.5 -39t-57.5 -13q-26 0 -44 6.5t-33 15.5t-26.5 13t-26.5 4q-19 0 -33.5 -8.5t-28.5 -22.5l-45 60q28 26 53.5 39t57.5 13z" />
    <glyph glyph-name="Odieresis" unicode="&#xd6;" horiz-adv-x="611" 
d="M379 718q51 0 91 -16t67.5 -43.5t42 -64t14.5 -78.5q0 -24 -4 -62t-16 -98q-10 -52 -19.5 -93t-21 -74.5t-27 -61t-38.5 -51.5q-42 -45 -94.5 -63.5t-106.5 -18.5q-51 0 -91 16t-67.5 43.5t-42 64t-14.5 78.5q0 24 4 62t16 98q10 52 19.5 93t21 74.5t27 61t38.5 51.5
q42 45 94.5 63.5t106.5 18.5zM370 602q-56 0 -95 -43q-10 -11 -18.5 -25.5t-17 -38t-17 -57t-18.5 -82.5q-9 -45 -14.5 -84t-5.5 -65q0 -48 27.5 -72.5t64.5 -24.5q56 0 95 43q10 11 18.5 25.5t17 37.5t17 57t18.5 83q9 45 14.5 84t5.5 65q0 48 -27 72.5t-65 24.5zM566 780
h-106l24 122h106zM357 780h-106l24 122h106z" />
    <glyph glyph-name="multiply" unicode="&#xd7;" horiz-adv-x="516" 
d="M276 368l161 140l66 -86l-162 -141l107 -140l-90 -78l-106 142l-162 -141l-66 86l162 140l-107 141l91 78z" />
    <glyph glyph-name="Oslash" unicode="&#xd8;" horiz-adv-x="610" 
d="M595 516q0 -24 -4 -62t-16 -98q-10 -52 -19.5 -93t-21 -74.5t-27 -61t-38.5 -51.5q-42 -45 -94.5 -63.5t-106.5 -18.5q-64 0 -112 25l-41 -63h-96l75 114q-41 53 -41 126q0 24 4 62t16 98q10 52 19.5 93t21 74.5t27 61t38.5 51.5q42 45 94.5 63.5t106.5 18.5
q33 0 61.5 -7t52.5 -20l42 65h96l-76 -117q39 -53 39 -123zM185 202l244 381q-25 19 -58 19q-56 0 -95 -43q-10 -11 -18.5 -25.5t-17 -38t-17 -57t-18.5 -82.5q-9 -45 -14.5 -84t-5.5 -65v-5zM463 508l-244 -380q24 -18 58 -18q56 0 95 43q10 11 18.5 25.5t17 37.5t17 57
t18.5 83q9 45 14.5 84t5.5 65v3z" />
    <glyph glyph-name="Ugrave" unicode="&#xd9;" horiz-adv-x="638" 
d="M564 244q-13 -66 -40.5 -113t-65.5 -77.5t-84 -45t-95 -14.5q-45 0 -85 14t-69 40t-46 64t-17 85q0 14 2.5 32t4.5 29l91 454h132l-93 -462q-2 -8 -3.5 -21t-1.5 -23q0 -18 5.5 -35.5t16.5 -30.5t29 -21t43 -8q57 0 95 37.5t52 108.5l91 455h132zM470 778h-92l-71 168
h118z" />
    <glyph glyph-name="Uacute" unicode="&#xda;" horiz-adv-x="638" 
d="M564 244q-13 -66 -40.5 -113t-65.5 -77.5t-84 -45t-95 -14.5q-45 0 -85 14t-69 40t-46 64t-17 85q0 14 2.5 32t4.5 29l91 454h132l-93 -462q-2 -8 -3.5 -21t-1.5 -23q0 -18 5.5 -35.5t16.5 -30.5t29 -21t43 -8q57 0 95 37.5t52 108.5l91 455h132zM461 778h-99l110 168
h120z" />
    <glyph glyph-name="Ucircumflex" unicode="&#xdb;" horiz-adv-x="638" 
d="M564 244q-13 -66 -40.5 -113t-65.5 -77.5t-84 -45t-95 -14.5q-45 0 -85 14t-69 40t-46 64t-17 85q0 14 2.5 32t4.5 29l91 454h132l-93 -462q-2 -8 -3.5 -21t-1.5 -23q0 -18 5.5 -35.5t16.5 -30.5t29 -21t43 -8q57 0 95 37.5t52 108.5l91 455h132zM594 778h-91l-60 94
l-98 -94h-101l159 169h99z" />
    <glyph glyph-name="Udieresis" unicode="&#xdc;" horiz-adv-x="638" 
d="M564 244q-13 -66 -40.5 -113t-65.5 -77.5t-84 -45t-95 -14.5q-45 0 -85 14t-69 40t-46 64t-17 85q0 14 2.5 32t4.5 29l91 454h132l-93 -462q-2 -8 -3.5 -21t-1.5 -23q0 -18 5.5 -35.5t16.5 -30.5t29 -21t43 -8q57 0 95 37.5t52 108.5l91 455h132zM576 780h-106l24 122
h106zM367 780h-106l24 122h106z" />
    <glyph glyph-name="Yacute" unicode="&#xdd;" 
d="M349 287l-58 -287h-132l59 292l-129 420h140l76 -295l184 295h146zM406 778h-99l110 168h120z" />
    <glyph glyph-name="Thorn" unicode="&#xde;" horiz-adv-x="601" 
d="M276 578h120q45 0 81 -14t60.5 -38.5t37.5 -59t13 -76.5q0 -48 -17 -92.5t-50.5 -79t-83 -55.5t-113.5 -21h-136l-28 -142h-132l143 712h132zM253 461l-41 -202h118q32 0 55.5 11t39 28.5t23 39t7.5 41.5q0 34 -18 58t-62 24h-122z" />
    <glyph glyph-name="germandbls" unicode="&#xdf;" horiz-adv-x="547" 
d="M370 718q40 0 73 -10t57 -29t37.5 -48t13.5 -66q0 -19 -5 -38.5t-15 -38.5t-26 -35t-38 -28q22 -14 31.5 -32.5t9.5 -43.5q0 -13 -3 -28l-30 -160q-16 -85 -60.5 -123t-123.5 -38h-59l21 104h27q14 0 24.5 4t20.5 12q20 16 27 50l29 148q1 6 1.5 11t0.5 9q0 23 -12.5 32
t-33.5 9h-31l20 97h29q35 0 53 24t18 53q0 11 -2.5 20t-9.5 17q-8 9 -22 15t-36 6q-53 0 -77 -26t-33 -71l-103 -514h-125l105 524q11 56 33.5 93t54 59.5t71.5 32t88 9.5z" />
    <glyph glyph-name="agrave" unicode="&#xe0;" horiz-adv-x="509" 
d="M160 -6q-34 0 -61.5 10.5t-47 29t-30 43.5t-10.5 55q0 38 12 69t35 54q29 29 68 41.5t84 12.5h124l7 31q2 8 2.5 13.5t0.5 13.5q0 26 -19 41t-58 15q-38 0 -65 -13.5t-47 -35.5l-64 83q32 32 76 51t117 19q33 0 66 -7t59.5 -24t43 -44.5t16.5 -69.5q0 -23 -5 -46
l-68 -336h-119l9 45q-22 -22 -52.5 -36.5t-73.5 -14.5zM199 94q26 0 46.5 9t34.5 23q12 12 19.5 29.5t11.5 37.5l6 31h-95q-42 0 -65.5 -22.5t-23.5 -57.5q0 -22 16 -36t50 -14zM365 601h-91l-72 167h118z" />
    <glyph glyph-name="aacute" unicode="&#xe1;" horiz-adv-x="509" 
d="M160 -6q-34 0 -61.5 10.5t-47 29t-30 43.5t-10.5 55q0 38 12 69t35 54q29 29 68 41.5t84 12.5h124l7 31q2 8 2.5 13.5t0.5 13.5q0 26 -19 41t-58 15q-38 0 -65 -13.5t-47 -35.5l-64 83q32 32 76 51t117 19q33 0 66 -7t59.5 -24t43 -44.5t16.5 -69.5q0 -23 -5 -46
l-68 -336h-119l9 45q-22 -22 -52.5 -36.5t-73.5 -14.5zM199 94q26 0 46.5 9t34.5 23q12 12 19.5 29.5t11.5 37.5l6 31h-95q-42 0 -65.5 -22.5t-23.5 -57.5q0 -22 16 -36t50 -14zM359 601h-100l111 167h119z" />
    <glyph glyph-name="acircumflex" unicode="&#xe2;" horiz-adv-x="509" 
d="M160 -6q-34 0 -61.5 10.5t-47 29t-30 43.5t-10.5 55q0 38 12 69t35 54q29 29 68 41.5t84 12.5h124l7 31q2 8 2.5 13.5t0.5 13.5q0 26 -19 41t-58 15q-38 0 -65 -13.5t-47 -35.5l-64 83q32 32 76 51t117 19q33 0 66 -7t59.5 -24t43 -44.5t16.5 -69.5q0 -23 -5 -46
l-68 -336h-119l9 45q-22 -22 -52.5 -36.5t-73.5 -14.5zM199 94q26 0 46.5 9t34.5 23q12 12 19.5 29.5t11.5 37.5l6 31h-95q-42 0 -65.5 -22.5t-23.5 -57.5q0 -22 16 -36t50 -14zM487 601h-91l-60 94l-98 -94h-101l159 169h99z" />
    <glyph glyph-name="atilde" unicode="&#xe3;" horiz-adv-x="509" 
d="M160 -6q-34 0 -61.5 10.5t-47 29t-30 43.5t-10.5 55q0 38 12 69t35 54q29 29 68 41.5t84 12.5h124l7 31q2 8 2.5 13.5t0.5 13.5q0 26 -19 41t-58 15q-38 0 -65 -13.5t-47 -35.5l-64 83q32 32 76 51t117 19q33 0 66 -7t59.5 -24t43 -44.5t16.5 -69.5q0 -23 -5 -46
l-68 -336h-119l9 45q-22 -22 -52.5 -36.5t-73.5 -14.5zM199 94q26 0 46.5 9t34.5 23q12 12 19.5 29.5t11.5 37.5l6 31h-95q-42 0 -65.5 -22.5t-23.5 -57.5q0 -22 16 -36t50 -14zM262 727q26 0 44 -6.5t33 -15.5t26.5 -13t26.5 -4q19 0 33.5 8t28.5 22l45 -59
q-28 -26 -53.5 -39t-57.5 -13q-26 0 -44 6.5t-33 15.5t-26.5 13t-25.5 4q-20 0 -34 -8.5t-28 -22.5l-45 60q27 26 52.5 39t57.5 13z" />
    <glyph glyph-name="adieresis" unicode="&#xe4;" horiz-adv-x="509" 
d="M160 -6q-34 0 -61.5 10.5t-47 29t-30 43.5t-10.5 55q0 38 12 69t35 54q29 29 68 41.5t84 12.5h124l7 31q2 8 2.5 13.5t0.5 13.5q0 26 -19 41t-58 15q-38 0 -65 -13.5t-47 -35.5l-64 83q32 32 76 51t117 19q33 0 66 -7t59.5 -24t43 -44.5t16.5 -69.5q0 -23 -5 -46
l-68 -336h-119l9 45q-22 -22 -52.5 -36.5t-73.5 -14.5zM199 94q26 0 46.5 9t34.5 23q12 12 19.5 29.5t11.5 37.5l6 31h-95q-42 0 -65.5 -22.5t-23.5 -57.5q0 -22 16 -36t50 -14zM471 603h-106l24 122h106zM262 603h-106l24 122h106z" />
    <glyph glyph-name="aring" unicode="&#xe5;" horiz-adv-x="509" 
d="M160 -6q-34 0 -61.5 10.5t-47 29t-30 43.5t-10.5 55q0 38 12 69t35 54q29 29 68 41.5t84 12.5h124l7 31q2 8 2.5 13.5t0.5 13.5q0 26 -19 41t-58 15q-38 0 -65 -13.5t-47 -35.5l-64 83q32 32 76 51t117 19q33 0 66 -7t59.5 -24t43 -44.5t16.5 -69.5q0 -23 -5 -46
l-68 -336h-119l9 45q-22 -22 -52.5 -36.5t-73.5 -14.5zM199 94q26 0 46.5 9t34.5 23q12 12 19.5 29.5t11.5 37.5l6 31h-95q-42 0 -65.5 -22.5t-23.5 -57.5q0 -22 16 -36t50 -14zM334 837q26 0 49 -9.5t40.5 -26.5t27.5 -40t10 -50t-10 -50.5t-27.5 -40.5t-40.5 -26.5
t-49 -9.5t-49 9.5t-40 26.5t-27 40.5t-10 50.5t10 50t27 40t40 26.5t49 9.5zM334 768q-23 0 -40.5 -17t-17.5 -40q0 -24 17.5 -41.5t40.5 -17.5t41 17.5t18 41.5q0 23 -18 40t-41 17z" />
    <glyph glyph-name="ae" unicode="&#xe6;" horiz-adv-x="802" 
d="M579 527q42 0 76 -13t58.5 -37t38 -58.5t13.5 -76.5q0 -26 -4.5 -57t-11.5 -62h-312q-2 -11 -3 -19t-1 -18q0 -38 22 -62.5t67 -24.5q38 0 67.5 13.5t56.5 39.5l65 -82q-41 -38 -92.5 -57t-110.5 -19q-45 0 -88 17t-70 56q-38 -42 -80.5 -57.5t-91.5 -15.5
q-78 0 -122.5 36t-44.5 102q0 75 46 121q29 29 67.5 42.5t85.5 13.5h125l6 29q3 13 3 29q0 26 -18.5 41t-58.5 15q-38 0 -65 -13t-47 -36l-64 83q32 32 76.5 51t117.5 19q41 0 80 -12t66 -44q29 26 66 41t82 15zM222 224q-42 0 -65.5 -22.5t-23.5 -57.5q0 -22 16 -35.5
t50 -13.5q26 0 46.5 9t34.5 23q13 12 20.5 28.5t11.5 36.5l6 32h-96zM573 425q-40 0 -71.5 -28t-48.5 -91h191q3 16 3 36q0 41 -20.5 62t-53.5 21z" />
    <glyph glyph-name="ccedilla" unicode="&#xe7;" horiz-adv-x="461" 
d="M313 527q57 0 93.5 -21t59.5 -51l-93 -82q-15 20 -32 31.5t-40 11.5q-42 0 -74 -33q-20 -21 -34 -53t-21 -69q-3 -17 -5 -33t-2 -34q0 -42 19 -65.5t55 -23.5q26 0 47.5 11t43.5 33l69 -89q-33 -31 -77 -48.5t-95 -17.5q-37 0 -71 12t-59.5 35t-41 58t-15.5 81q0 38 8 81
q15 79 43 130.5t64 81.5t77 42t81 12zM147 -57h98l-70 -144h-114z" />
    <glyph glyph-name="egrave" unicode="&#xe8;" horiz-adv-x="523" 
d="M301 527q41 0 75 -13t58.5 -37.5t38 -59t13.5 -76.5q0 -26 -4.5 -57t-11.5 -61h-312q-2 -9 -3 -18.5t-1 -18.5q0 -38 22 -62.5t67 -24.5q38 0 67.5 13.5t56.5 39.5l65 -82q-41 -38 -92.5 -57t-110.5 -19q-34 0 -68.5 9.5t-62 31t-45 56.5t-17.5 86q0 66 16 128.5t49 112
t82.5 79.5t117.5 30zM294 425q-40 0 -71.5 -27.5t-48.5 -91.5h191q3 16 3 35q0 42 -20.5 63t-53.5 21zM378 601h-91l-72 167h118z" />
    <glyph glyph-name="eacute" unicode="&#xe9;" horiz-adv-x="523" 
d="M301 527q41 0 75 -13t58.5 -37.5t38 -59t13.5 -76.5q0 -26 -4.5 -57t-11.5 -61h-312q-2 -9 -3 -18.5t-1 -18.5q0 -38 22 -62.5t67 -24.5q38 0 67.5 13.5t56.5 39.5l65 -82q-41 -38 -92.5 -57t-110.5 -19q-34 0 -68.5 9.5t-62 31t-45 56.5t-17.5 86q0 66 16 128.5t49 112
t82.5 79.5t117.5 30zM294 425q-40 0 -71.5 -27.5t-48.5 -91.5h191q3 16 3 35q0 42 -20.5 63t-53.5 21zM372 601h-100l111 167h119z" />
    <glyph glyph-name="ecircumflex" unicode="&#xea;" horiz-adv-x="523" 
d="M301 527q41 0 75 -13t58.5 -37.5t38 -59t13.5 -76.5q0 -26 -4.5 -57t-11.5 -61h-312q-2 -9 -3 -18.5t-1 -18.5q0 -38 22 -62.5t67 -24.5q38 0 67.5 13.5t56.5 39.5l65 -82q-41 -38 -92.5 -57t-110.5 -19q-34 0 -68.5 9.5t-62 31t-45 56.5t-17.5 86q0 66 16 128.5t49 112
t82.5 79.5t117.5 30zM294 425q-40 0 -71.5 -27.5t-48.5 -91.5h191q3 16 3 35q0 42 -20.5 63t-53.5 21zM500 601h-91l-60 94l-98 -94h-101l159 169h99z" />
    <glyph glyph-name="edieresis" unicode="&#xeb;" horiz-adv-x="523" 
d="M301 527q41 0 75 -13t58.5 -37.5t38 -59t13.5 -76.5q0 -26 -4.5 -57t-11.5 -61h-312q-2 -9 -3 -18.5t-1 -18.5q0 -38 22 -62.5t67 -24.5q38 0 67.5 13.5t56.5 39.5l65 -82q-41 -38 -92.5 -57t-110.5 -19q-34 0 -68.5 9.5t-62 31t-45 56.5t-17.5 86q0 66 16 128.5t49 112
t82.5 79.5t117.5 30zM294 425q-40 0 -71.5 -27.5t-48.5 -91.5h191q3 16 3 35q0 42 -20.5 63t-53.5 21zM484 603h-106l24 122h106zM275 603h-106l24 122h106z" />
    <glyph glyph-name="igrave" unicode="&#xec;" horiz-adv-x="262" 
d="M142 0h-124l101 505h124zM252 601h-91l-72 167h118z" />
    <glyph glyph-name="iacute" unicode="&#xed;" horiz-adv-x="262" 
d="M142 0h-124l101 505h124zM246 601h-100l111 167h119z" />
    <glyph glyph-name="icircumflex" unicode="&#xee;" horiz-adv-x="262" 
d="M142 0h-124l101 505h124zM374 601h-91l-60 94l-98 -94h-101l159 169h99z" />
    <glyph glyph-name="idieresis" unicode="&#xef;" horiz-adv-x="262" 
d="M142 0h-124l101 505h124zM358 603h-106l24 122h106zM149 603h-106l24 122h106z" />
    <glyph glyph-name="eth" unicode="&#xf0;" horiz-adv-x="514" 
d="M397 658h86l-17 -86h-45l24 -79q8 -27 13 -48t8 -38t4.5 -31.5t1.5 -29.5q0 -19 -3 -44t-8 -48q-6 -28 -13 -56.5t-17.5 -55t-26 -50.5t-36.5 -43q-28 -26 -67 -40.5t-87 -14.5q-32 0 -63 9.5t-55 30t-39 53t-15 78.5q0 14 3 38.5t8 50.5q7 39 15.5 68.5t19 53.5t24 43
t31.5 36q39 38 98 50q20 4 39 3.5t36 -3.5l-22 67h-112l18 86h70l-19 62h128zM288 403q-19 0 -34.5 -6t-26.5 -17q-19 -17 -30 -49t-21 -77q-5 -23 -7.5 -44t-2.5 -38q0 -21 5.5 -34.5t14.5 -21t19.5 -10t20.5 -2.5q19 0 34.5 6.5t26.5 17.5q19 17 30 48.5t21 77.5
q5 23 7.5 44t2.5 38q0 21 -5.5 34t-14.5 20.5t-19.5 10t-20.5 2.5z" />
    <glyph glyph-name="ntilde" unicode="&#xf1;" 
d="M368 527q23 0 46.5 -8t43 -25.5t31.5 -44.5t12 -66q0 -14 -2 -29.5t-5 -28.5l-65 -325h-124l64 317q2 9 3 17.5t1 16.5q0 34 -19 49.5t-43 15.5q-14 0 -30 -4t-31 -15t-27 -30.5t-18 -50.5l-64 -316h-124l104 521h119l-9 -50q25 27 60.5 41.5t76.5 14.5zM292 727
q26 0 44 -6.5t33 -15.5t26.5 -13t26.5 -4q19 0 33.5 8t28.5 22l45 -59q-28 -26 -53.5 -39t-57.5 -13q-26 0 -44 6.5t-33 15.5t-26.5 13t-25.5 4q-20 0 -34 -8.5t-28 -22.5l-45 60q27 26 52.5 39t57.5 13z" />
    <glyph glyph-name="ograve" unicode="&#xf2;" horiz-adv-x="516" 
d="M302 527q33 0 64.5 -10t56 -31t40 -53.5t15.5 -77.5q0 -24 -3.5 -50.5t-6.5 -43.5q-8 -41 -17.5 -72.5t-20.5 -56t-24.5 -43.5t-30.5 -35q-30 -29 -70 -44.5t-90 -15.5q-33 0 -65 10t-56.5 31t-40 53.5t-15.5 77.5q0 24 3.5 50.5t7.5 44.5q8 41 17 72t20.5 55.5t25 43
t30.5 35.5q29 29 69.5 44.5t90.5 15.5zM289 416q-38 0 -64 -26q-19 -18 -31 -49.5t-22 -79.5q-7 -34 -9 -53t-2 -28q0 -38 18.5 -56.5t47.5 -18.5q20 0 36 7t28 19q19 18 31.5 49.5t21.5 80.5q7 33 9 52.5t2 27.5q0 38 -18.5 56.5t-47.5 18.5zM378 601h-91l-72 167h118z" />
    <glyph glyph-name="oacute" unicode="&#xf3;" horiz-adv-x="516" 
d="M302 527q33 0 64.5 -10t56 -31t40 -53.5t15.5 -77.5q0 -24 -3.5 -50.5t-6.5 -43.5q-8 -41 -17.5 -72.5t-20.5 -56t-24.5 -43.5t-30.5 -35q-30 -29 -70 -44.5t-90 -15.5q-33 0 -65 10t-56.5 31t-40 53.5t-15.5 77.5q0 24 3.5 50.5t7.5 44.5q8 41 17 72t20.5 55.5t25 43
t30.5 35.5q29 29 69.5 44.5t90.5 15.5zM289 416q-38 0 -64 -26q-19 -18 -31 -49.5t-22 -79.5q-7 -34 -9 -53t-2 -28q0 -38 18.5 -56.5t47.5 -18.5q20 0 36 7t28 19q19 18 31.5 49.5t21.5 80.5q7 33 9 52.5t2 27.5q0 38 -18.5 56.5t-47.5 18.5zM372 601h-100l111 167h119z
" />
    <glyph glyph-name="ocircumflex" unicode="&#xf4;" horiz-adv-x="516" 
d="M302 527q33 0 64.5 -10t56 -31t40 -53.5t15.5 -77.5q0 -24 -3.5 -50.5t-6.5 -43.5q-8 -41 -17.5 -72.5t-20.5 -56t-24.5 -43.5t-30.5 -35q-30 -29 -70 -44.5t-90 -15.5q-33 0 -65 10t-56.5 31t-40 53.5t-15.5 77.5q0 24 3.5 50.5t7.5 44.5q8 41 17 72t20.5 55.5t25 43
t30.5 35.5q29 29 69.5 44.5t90.5 15.5zM289 416q-38 0 -64 -26q-19 -18 -31 -49.5t-22 -79.5q-7 -34 -9 -53t-2 -28q0 -38 18.5 -56.5t47.5 -18.5q20 0 36 7t28 19q19 18 31.5 49.5t21.5 80.5q7 33 9 52.5t2 27.5q0 38 -18.5 56.5t-47.5 18.5zM500 601h-91l-60 94l-98 -94
h-101l159 169h99z" />
    <glyph glyph-name="otilde" unicode="&#xf5;" horiz-adv-x="516" 
d="M302 527q33 0 64.5 -10t56 -31t40 -53.5t15.5 -77.5q0 -24 -3.5 -50.5t-6.5 -43.5q-8 -41 -17.5 -72.5t-20.5 -56t-24.5 -43.5t-30.5 -35q-30 -29 -70 -44.5t-90 -15.5q-33 0 -65 10t-56.5 31t-40 53.5t-15.5 77.5q0 24 3.5 50.5t7.5 44.5q8 41 17 72t20.5 55.5t25 43
t30.5 35.5q29 29 69.5 44.5t90.5 15.5zM289 416q-38 0 -64 -26q-19 -18 -31 -49.5t-22 -79.5q-7 -34 -9 -53t-2 -28q0 -38 18.5 -56.5t47.5 -18.5q20 0 36 7t28 19q19 18 31.5 49.5t21.5 80.5q7 33 9 52.5t2 27.5q0 38 -18.5 56.5t-47.5 18.5zM275 727q26 0 44 -6.5
t33 -15.5t26.5 -13t26.5 -4q19 0 33.5 8t28.5 22l45 -59q-28 -26 -53.5 -39t-57.5 -13q-26 0 -44 6.5t-33 15.5t-26.5 13t-25.5 4q-20 0 -34 -8.5t-28 -22.5l-45 60q27 26 52.5 39t57.5 13z" />
    <glyph glyph-name="odieresis" unicode="&#xf6;" horiz-adv-x="516" 
d="M302 527q33 0 64.5 -10t56 -31t40 -53.5t15.5 -77.5q0 -24 -3.5 -50.5t-6.5 -43.5q-8 -41 -17.5 -72.5t-20.5 -56t-24.5 -43.5t-30.5 -35q-30 -29 -70 -44.5t-90 -15.5q-33 0 -65 10t-56.5 31t-40 53.5t-15.5 77.5q0 24 3.5 50.5t7.5 44.5q8 41 17 72t20.5 55.5t25 43
t30.5 35.5q29 29 69.5 44.5t90.5 15.5zM289 416q-38 0 -64 -26q-19 -18 -31 -49.5t-22 -79.5q-7 -34 -9 -53t-2 -28q0 -38 18.5 -56.5t47.5 -18.5q20 0 36 7t28 19q19 18 31.5 49.5t21.5 80.5q7 33 9 52.5t2 27.5q0 38 -18.5 56.5t-47.5 18.5zM484 603h-106l24 122h106z
M275 603h-106l24 122h106z" />
    <glyph glyph-name="divide" unicode="&#xf7;" horiz-adv-x="516" 
d="M467 228h-429l23 115h429zM277 29h-124l25 124h123zM351 419h-124l25 124h124z" />
    <glyph glyph-name="oslash" unicode="&#xf8;" horiz-adv-x="516" 
d="M446 460q14 -20 22.5 -46t8.5 -59q0 -24 -3.5 -50.5t-6.5 -43.5q-8 -41 -17.5 -72.5t-20.5 -56t-24.5 -43.5t-30.5 -35q-30 -29 -70 -44.5t-90 -15.5q-26 0 -51.5 6t-48.5 20l-46 -64h-76l77 104q-15 20 -23.5 46t-8.5 60q0 24 3.5 50.5t7.5 44.5q8 41 17 72t20.5 55.5
t25 43t30.5 35.5q29 29 69.5 44.5t90.5 15.5q26 0 51.5 -6t48.5 -20l48 62h76zM184 118q16 -13 42 -13q20 0 36 7t28 19q19 18 31.5 49.5t21.5 80.5q7 33 9 52.5t2 27.5v6zM288 416q-38 0 -64 -26q-19 -18 -31 -49.5t-22 -79.5q-7 -34 -8.5 -55t-1.5 -38l172 232
q-16 16 -45 16z" />
    <glyph glyph-name="ugrave" unicode="&#xf9;" 
d="M423 0h-119l9 50q-25 -27 -60.5 -41.5t-76.5 -14.5q-23 0 -46.5 8t-43 25.5t-31.5 44.5t-12 66q0 14 2 29.5t5 28.5l65 325h124l-64 -317q-2 -9 -3 -17.5t-1 -16.5q0 -34 19 -49.5t43 -15.5q13 0 29 4t31 15t27.5 30.5t18.5 50.5l64 316h124zM386 601h-91l-72 167h118z
" />
    <glyph glyph-name="uacute" unicode="&#xfa;" 
d="M423 0h-119l9 50q-25 -27 -60.5 -41.5t-76.5 -14.5q-23 0 -46.5 8t-43 25.5t-31.5 44.5t-12 66q0 14 2 29.5t5 28.5l65 325h124l-64 -317q-2 -9 -3 -17.5t-1 -16.5q0 -34 19 -49.5t43 -15.5q13 0 29 4t31 15t27.5 30.5t18.5 50.5l64 316h124zM380 601h-100l111 167h119z
" />
    <glyph glyph-name="ucircumflex" unicode="&#xfb;" 
d="M423 0h-119l9 50q-25 -27 -60.5 -41.5t-76.5 -14.5q-23 0 -46.5 8t-43 25.5t-31.5 44.5t-12 66q0 14 2 29.5t5 28.5l65 325h124l-64 -317q-2 -9 -3 -17.5t-1 -16.5q0 -34 19 -49.5t43 -15.5q13 0 29 4t31 15t27.5 30.5t18.5 50.5l64 316h124zM508 601h-91l-60 94l-98 -94
h-101l159 169h99z" />
    <glyph glyph-name="udieresis" unicode="&#xfc;" 
d="M423 0h-119l9 50q-25 -27 -60.5 -41.5t-76.5 -14.5q-23 0 -46.5 8t-43 25.5t-31.5 44.5t-12 66q0 14 2 29.5t5 28.5l65 325h124l-64 -317q-2 -9 -3 -17.5t-1 -16.5q0 -34 19 -49.5t43 -15.5q13 0 29 4t31 15t27.5 30.5t18.5 50.5l64 316h124zM492 603h-106l24 122h106z
M283 603h-106l24 122h106z" />
    <glyph glyph-name="yacute" unicode="&#xfd;" horiz-adv-x="464" 
d="M190 -84q-9 -17 -20 -33t-23 -28q-25 -25 -55 -35.5t-69 -10.5h-48l23 112h28q27 0 42 13t29 41l33 62l-74 484h123l38 -336l167 336h131zM340 601h-100l111 167h119z" />
    <glyph glyph-name="thorn" unicode="&#xfe;" horiz-adv-x="532" 
d="M236 478q16 17 46 33t78 16q40 0 67 -13.5t43.5 -34.5t23 -46.5t6.5 -49.5q0 -8 -0.5 -18t-2 -24.5t-5 -33.5t-8.5 -46q-17 -82 -35 -134t-48 -82t-63.5 -40.5t-67.5 -10.5q-42 0 -72 14t-46 40l-49 -239h-124l180 903h124zM309 416q-28 0 -47 -11t-32 -31t-21.5 -48.5
t-15.5 -64.5q-4 -20 -7.5 -43.5t-3.5 -40.5q0 -12 2 -24.5t8.5 -23t19 -17.5t32.5 -7q28 0 47 11t32 31.5t21.5 49t15.5 64.5q4 20 7.5 43t3.5 40q0 12 -2 24.5t-8.5 23t-19 17.5t-32.5 7z" />
    <glyph glyph-name="ydieresis" unicode="&#xff;" horiz-adv-x="464" 
d="M190 -84q-9 -17 -20 -33t-23 -28q-25 -25 -55 -35.5t-69 -10.5h-48l23 112h28q27 0 42 13t29 41l33 62l-74 484h123l38 -336l167 336h131zM452 603h-106l24 122h106zM243 603h-106l24 122h106z" />
    <glyph glyph-name="Amacron" unicode="&#x100;" horiz-adv-x="607" 
d="M552 0h-134l-15 130h-241l-67 -130h-141l388 712h105zM216 238h177l-34 274zM553 792h-302l17 82h301z" />
    <glyph glyph-name="amacron" unicode="&#x101;" horiz-adv-x="509" 
d="M160 -6q-34 0 -61.5 10.5t-47 29t-30 43.5t-10.5 55q0 38 12 69t35 54q29 29 68 41.5t84 12.5h124l7 31q2 8 2.5 13.5t0.5 13.5q0 26 -19 41t-58 15q-38 0 -65 -13.5t-47 -35.5l-64 83q32 32 76 51t117 19q33 0 66 -7t59.5 -24t43 -44.5t16.5 -69.5q0 -23 -5 -46
l-68 -336h-119l9 45q-22 -22 -52.5 -36.5t-73.5 -14.5zM199 94q26 0 46.5 9t34.5 23q12 12 19.5 29.5t11.5 37.5l6 31h-95q-42 0 -65.5 -22.5t-23.5 -57.5q0 -22 16 -36t50 -14zM467 619h-302l17 82h301z" />
    <glyph glyph-name="Abreve" unicode="&#x102;" horiz-adv-x="607" 
d="M552 0h-134l-15 130h-241l-67 -130h-141l388 712h105zM216 238h177l-34 274zM576 915q-16 -78 -58 -111t-109 -33q-66 0 -100 32t-34 81q0 14 3 31h82q-1 -8 -1 -11v-5q0 -23 17.5 -33.5t41.5 -10.5q27 0 46.5 13.5t27.5 46.5h84z" />
    <glyph glyph-name="abreve" unicode="&#x103;" horiz-adv-x="509" 
d="M160 -6q-34 0 -61.5 10.5t-47 29t-30 43.5t-10.5 55q0 38 12 69t35 54q29 29 68 41.5t84 12.5h124l7 31q2 8 2.5 13.5t0.5 13.5q0 26 -19 41t-58 15q-38 0 -65 -13.5t-47 -35.5l-64 83q32 32 76 51t117 19q33 0 66 -7t59.5 -24t43 -44.5t16.5 -69.5q0 -23 -5 -46
l-68 -336h-119l9 45q-22 -22 -52.5 -36.5t-73.5 -14.5zM199 94q26 0 46.5 9t34.5 23q12 12 19.5 29.5t11.5 37.5l6 31h-95q-42 0 -65.5 -22.5t-23.5 -57.5q0 -22 16 -36t50 -14zM489 736q-16 -78 -58 -111t-109 -33q-66 0 -100 32t-34 81q0 14 3 31h82q-1 -8 -1 -11v-5
q0 -23 17.5 -33.5t41.5 -10.5q27 0 46.5 13.5t27.5 46.5h84z" />
    <glyph glyph-name="Aogonek" unicode="&#x104;" horiz-adv-x="607" 
d="M552 0h-134l-15 130h-241l-67 -130h-141l388 712h105zM216 238h177l-34 274zM461 -201h-114l86 144h98z" />
    <glyph glyph-name="aogonek" unicode="&#x105;" horiz-adv-x="509" 
d="M160 -6q-34 0 -61.5 10.5t-47 29t-30 43.5t-10.5 55q0 38 12 69t35 54q29 29 68 41.5t84 12.5h124l7 31q2 8 2.5 13.5t0.5 13.5q0 26 -19 41t-58 15q-38 0 -65 -13.5t-47 -35.5l-64 83q32 32 76 51t117 19q33 0 66 -7t59.5 -24t43 -44.5t16.5 -69.5q0 -23 -5 -46
l-68 -336h-119l9 45q-22 -22 -52.5 -36.5t-73.5 -14.5zM199 94q26 0 46.5 9t34.5 23q12 12 19.5 29.5t11.5 37.5l6 31h-95q-42 0 -65.5 -22.5t-23.5 -57.5q0 -22 16 -36t50 -14zM293 -201h-114l86 144h98z" />
    <glyph glyph-name="Cacute" unicode="&#x106;" horiz-adv-x="590" 
d="M380 718q55 0 95.5 -17t67.5 -47t40 -70t13 -86h-132q-1 44 -22 74t-70 30q-33 0 -55 -11t-41 -30q-11 -11 -20 -26.5t-17 -39t-16.5 -57.5t-17.5 -82q-8 -45 -14 -84.5t-6 -65.5q0 -46 27 -71t68 -25q26 0 47.5 9t38 23.5t28 33t18.5 38.5h132q-36 -111 -107.5 -165.5
t-166.5 -54.5q-51 0 -91.5 15.5t-68.5 43t-43 64.5t-15 79q0 23 4 61.5t17 98.5q10 52 19.5 93t21 74.5t27 61t38.5 52.5q41 43 94 62t107 19zM451 778h-99l110 168h120z" />
    <glyph glyph-name="cacute" unicode="&#x107;" horiz-adv-x="461" 
d="M313 527q57 0 93.5 -21t59.5 -51l-93 -82q-15 20 -32 31.5t-40 11.5q-42 0 -74 -33q-20 -21 -34 -53t-21 -69q-3 -17 -5 -33t-2 -34q0 -42 19 -65.5t55 -23.5q26 0 47.5 11t43.5 33l69 -89q-33 -31 -77 -48.5t-95 -17.5q-37 0 -71 12t-59.5 35t-41 58t-15.5 81q0 38 8 81
q15 79 43 130.5t64 81.5t77 42t81 12zM372 601h-100l111 167h119z" />
    <glyph glyph-name="Ccircumflex" unicode="&#x108;" horiz-adv-x="590" 
d="M380 718q55 0 95.5 -17t67.5 -47t40 -70t13 -86h-132q-1 44 -22 74t-70 30q-33 0 -55 -11t-41 -30q-11 -11 -20 -26.5t-17 -39t-16.5 -57.5t-17.5 -82q-8 -45 -14 -84.5t-6 -65.5q0 -46 27 -71t68 -25q26 0 47.5 9t38 23.5t28 33t18.5 38.5h132q-36 -111 -107.5 -165.5
t-166.5 -54.5q-51 0 -91.5 15.5t-68.5 43t-43 64.5t-15 79q0 23 4 61.5t17 98.5q10 52 19.5 93t21 74.5t27 61t38.5 52.5q41 43 94 62t107 19zM584 778h-91l-60 94l-98 -94h-101l159 169h99z" />
    <glyph glyph-name="ccircumflex" unicode="&#x109;" horiz-adv-x="461" 
d="M313 527q57 0 93.5 -21t59.5 -51l-93 -82q-15 20 -32 31.5t-40 11.5q-42 0 -74 -33q-20 -21 -34 -53t-21 -69q-3 -17 -5 -33t-2 -34q0 -42 19 -65.5t55 -23.5q26 0 47.5 11t43.5 33l69 -89q-33 -31 -77 -48.5t-95 -17.5q-37 0 -71 12t-59.5 35t-41 58t-15.5 81q0 38 8 81
q15 79 43 130.5t64 81.5t77 42t81 12zM500 601h-91l-60 94l-98 -94h-101l159 169h99z" />
    <glyph glyph-name="Cdotaccent" unicode="&#x10a;" horiz-adv-x="590" 
d="M380 718q55 0 95.5 -17t67.5 -47t40 -70t13 -86h-132q-1 44 -22 74t-70 30q-33 0 -55 -11t-41 -30q-11 -11 -20 -26.5t-17 -39t-16.5 -57.5t-17.5 -82q-8 -45 -14 -84.5t-6 -65.5q0 -46 27 -71t68 -25q26 0 47.5 9t38 23.5t28 33t18.5 38.5h132q-36 -111 -107.5 -165.5
t-166.5 -54.5q-51 0 -91.5 15.5t-68.5 43t-43 64.5t-15 79q0 23 4 61.5t17 98.5q10 52 19.5 93t21 74.5t27 61t38.5 52.5q41 43 94 62t107 19zM462 780h-106l24 122h106z" />
    <glyph glyph-name="cdotaccent" unicode="&#x10b;" horiz-adv-x="461" 
d="M313 527q57 0 93.5 -21t59.5 -51l-93 -82q-15 20 -32 31.5t-40 11.5q-42 0 -74 -33q-20 -21 -34 -53t-21 -69q-3 -17 -5 -33t-2 -34q0 -42 19 -65.5t55 -23.5q26 0 47.5 11t43.5 33l69 -89q-33 -31 -77 -48.5t-95 -17.5q-37 0 -71 12t-59.5 35t-41 58t-15.5 81q0 38 8 81
q15 79 43 130.5t64 81.5t77 42t81 12zM379 603h-106l24 122h106z" />
    <glyph glyph-name="Ccaron" unicode="&#x10c;" horiz-adv-x="590" 
d="M380 718q55 0 95.5 -17t67.5 -47t40 -70t13 -86h-132q-1 44 -22 74t-70 30q-33 0 -55 -11t-41 -30q-11 -11 -20 -26.5t-17 -39t-16.5 -57.5t-17.5 -82q-8 -45 -14 -84.5t-6 -65.5q0 -46 27 -71t68 -25q26 0 47.5 9t38 23.5t28 33t18.5 38.5h132q-36 -111 -107.5 -165.5
t-166.5 -54.5q-51 0 -91.5 15.5t-68.5 43t-43 64.5t-15 79q0 23 4 61.5t17 98.5q10 52 19.5 93t21 74.5t27 61t38.5 52.5q41 43 94 62t107 19zM459 778h-99l-93 169h93l59 -94l99 94h101z" />
    <glyph glyph-name="ccaron" unicode="&#x10d;" horiz-adv-x="461" 
d="M313 527q57 0 93.5 -21t59.5 -51l-93 -82q-15 20 -32 31.5t-40 11.5q-42 0 -74 -33q-20 -21 -34 -53t-21 -69q-3 -17 -5 -33t-2 -34q0 -42 19 -65.5t55 -23.5q26 0 47.5 11t43.5 33l69 -89q-33 -31 -77 -48.5t-95 -17.5q-37 0 -71 12t-59.5 35t-41 58t-15.5 81q0 38 8 81
q15 79 43 130.5t64 81.5t77 42t81 12zM376 601h-99l-93 169h93l59 -94l99 94h101z" />
    <glyph glyph-name="Dcaron" unicode="&#x10e;" horiz-adv-x="625" 
d="M404 712q44 0 82.5 -11.5t67 -36t44.5 -62t16 -89.5q0 -12 -1 -24.5t-3.5 -30t-7 -41.5t-11.5 -58q-13 -65 -23.5 -110t-23 -77.5t-28.5 -56t-39 -45.5q-73 -70 -196 -70h-253l143 712h233zM280 596l-96 -480h100q64 0 104 39q11 10 19.5 24.5t17 37.5t16.5 57t18 85
q12 62 17 94t5 49q0 48 -27 71t-73 23h-101zM459 778h-99l-93 169h93l59 -94l99 94h101z" />
    <glyph glyph-name="dcaron" unicode="&#x10f;" horiz-adv-x="533" 
d="M414 0h-120l11 50q-26 -30 -59 -43t-70 -13q-41 0 -68.5 13.5t-43.5 34.5t-22.5 46.5t-6.5 49.5q0 9 0.5 19.5t2 25t5 33t8.5 44.5q16 81 34.5 133.5t48.5 82.5t63.5 40.5t68.5 10.5t66.5 -13t51.5 -43l48 241h124zM291 416q-28 0 -47 -11t-32 -31.5t-21.5 -49
t-15.5 -64.5q-4 -20 -7.5 -43.5t-3.5 -40.5q0 -12 2 -24.5t8.5 -23t19 -17t32.5 -6.5q28 0 47 11t32 31t21.5 48.5t15.5 64.5q4 20 7.5 43.5t3.5 40.5q0 12 -2 24.5t-8.5 23t-19 17.5t-32.5 7zM676 575h-91l67 165h115z" />
    <glyph glyph-name="Dcroat" unicode="&#x110;" horiz-adv-x="647" 
d="M426 712q44 0 82.5 -11.5t67 -36t44.5 -62t16 -89.5q0 -12 -1 -24.5t-3.5 -30t-7 -41.5t-11.5 -58q-13 -65 -23.5 -110t-23 -77.5t-28.5 -56t-39 -45.5q-73 -70 -196 -70h-253l62 309h-66l20 100h66l61 303h233zM302 596l-38 -187h110l-20 -100h-110l-39 -193h100
q32 0 58.5 9.5t47.5 29.5q11 10 19.5 24.5t16.5 37.5t16 57t18 85q12 62 17 94t5 49q0 48 -27 71t-73 23h-101z" />
    <glyph glyph-name="dcroat" unicode="&#x111;" horiz-adv-x="535" 
d="M543 648h51l-16 -78h-50l-114 -570h-120l11 50q-26 -30 -59 -43t-70 -13q-41 0 -68.5 13.5t-43.5 34.5t-22.5 47t-6.5 51q0 26 4.5 56t11.5 65q16 81 34.5 133t48.5 82t63.5 40.5t68.5 10.5t66.5 -13t51.5 -43l19 99h-87l16 78h87l13 64h124zM291 416q-28 0 -47 -11
t-32 -31t-21.5 -48.5t-15.5 -64.5q-4 -20 -7.5 -43.5t-3.5 -40.5q0 -12 2 -24.5t8.5 -23t19 -17.5t32.5 -7q28 0 47 11t32 31.5t21.5 49t15.5 64.5q4 20 7.5 43.5t3.5 40.5q0 12 -2 24.5t-8.5 23t-19 17t-32.5 6.5z" />
    <glyph glyph-name="Emacron" unicode="&#x112;" horiz-adv-x="578" 
d="M592 596h-312l-36 -179h269l-23 -116h-269l-37 -185h318l-23 -116h-451l143 712h444zM550 792h-302l17 82h301z" />
    <glyph glyph-name="emacron" unicode="&#x113;" horiz-adv-x="523" 
d="M301 527q41 0 75 -13t58.5 -37.5t38 -59t13.5 -76.5q0 -26 -4.5 -57t-11.5 -61h-312q-2 -9 -3 -18.5t-1 -18.5q0 -38 22 -62.5t67 -24.5q38 0 67.5 13.5t56.5 39.5l65 -82q-41 -38 -92.5 -57t-110.5 -19q-34 0 -68.5 9.5t-62 31t-45 56.5t-17.5 86q0 66 16 128.5t49 112
t82.5 79.5t117.5 30zM294 425q-40 0 -71.5 -27.5t-48.5 -91.5h191q3 16 3 35q0 42 -20.5 63t-53.5 21zM480 619h-302l17 82h301z" />
    <glyph glyph-name="Ebreve" unicode="&#x114;" horiz-adv-x="578" 
d="M592 596h-312l-36 -179h269l-23 -116h-269l-37 -185h318l-23 -116h-451l143 712h444zM573 915q-16 -78 -58 -111t-109 -33q-66 0 -100 32t-34 81q0 14 3 31h82q-1 -8 -1 -11v-5q0 -23 17.5 -33.5t41.5 -10.5q27 0 46.5 13.5t27.5 46.5h84z" />
    <glyph glyph-name="ebreve" unicode="&#x115;" horiz-adv-x="523" 
d="M301 527q41 0 75 -13t58.5 -37.5t38 -59t13.5 -76.5q0 -26 -4.5 -57t-11.5 -61h-312q-2 -9 -3 -18.5t-1 -18.5q0 -38 22 -62.5t67 -24.5q38 0 67.5 13.5t56.5 39.5l65 -82q-41 -38 -92.5 -57t-110.5 -19q-34 0 -68.5 9.5t-62 31t-45 56.5t-17.5 86q0 66 16 128.5t49 112
t82.5 79.5t117.5 30zM294 425q-40 0 -71.5 -27.5t-48.5 -91.5h191q3 16 3 35q0 42 -20.5 63t-53.5 21zM502 736q-16 -78 -58 -111t-109 -33q-66 0 -100 32t-34 81q0 14 3 31h82q-1 -8 -1 -11v-5q0 -23 17.5 -33.5t41.5 -10.5q27 0 46.5 13.5t27.5 46.5h84z" />
    <glyph glyph-name="Edotaccent" unicode="&#x116;" horiz-adv-x="578" 
d="M592 596h-312l-36 -179h269l-23 -116h-269l-37 -185h318l-23 -116h-451l143 712h444zM450 780h-106l24 122h106z" />
    <glyph glyph-name="edotaccent" unicode="&#x117;" horiz-adv-x="523" 
d="M301 527q41 0 75 -13t58.5 -37.5t38 -59t13.5 -76.5q0 -26 -4.5 -57t-11.5 -61h-312q-2 -9 -3 -18.5t-1 -18.5q0 -38 22 -62.5t67 -24.5q38 0 67.5 13.5t56.5 39.5l65 -82q-41 -38 -92.5 -57t-110.5 -19q-34 0 -68.5 9.5t-62 31t-45 56.5t-17.5 86q0 66 16 128.5t49 112
t82.5 79.5t117.5 30zM294 425q-40 0 -71.5 -27.5t-48.5 -91.5h191q3 16 3 35q0 42 -20.5 63t-53.5 21zM379 603h-106l24 122h106z" />
    <glyph glyph-name="Eogonek" unicode="&#x118;" horiz-adv-x="578" 
d="M592 596h-312l-36 -179h269l-23 -116h-269l-37 -185h318l-23 -116h-451l143 712h444zM383 -201h-114l86 144h98z" />
    <glyph glyph-name="eogonek" unicode="&#x119;" horiz-adv-x="523" 
d="M301 527q41 0 75 -13t58.5 -37.5t38 -59t13.5 -76.5q0 -26 -4.5 -57t-11.5 -61h-312q-2 -9 -3 -18.5t-1 -18.5q0 -38 22 -62.5t67 -24.5q38 0 67.5 13.5t56.5 39.5l65 -82q-41 -38 -92.5 -57t-110.5 -19q-34 0 -68.5 9.5t-62 31t-45 56.5t-17.5 86q0 66 16 128.5t49 112
t82.5 79.5t117.5 30zM294 425q-40 0 -71.5 -27.5t-48.5 -91.5h191q3 16 3 35q0 42 -20.5 63t-53.5 21zM282 -201h-114l86 144h98z" />
    <glyph glyph-name="Ecaron" unicode="&#x11a;" horiz-adv-x="578" 
d="M592 596h-312l-36 -179h269l-23 -116h-269l-37 -185h318l-23 -116h-451l143 712h444zM447 778h-99l-93 169h93l59 -94l99 94h101z" />
    <glyph glyph-name="ecaron" unicode="&#x11b;" horiz-adv-x="523" 
d="M301 527q41 0 75 -13t58.5 -37.5t38 -59t13.5 -76.5q0 -26 -4.5 -57t-11.5 -61h-312q-2 -9 -3 -18.5t-1 -18.5q0 -38 22 -62.5t67 -24.5q38 0 67.5 13.5t56.5 39.5l65 -82q-41 -38 -92.5 -57t-110.5 -19q-34 0 -68.5 9.5t-62 31t-45 56.5t-17.5 86q0 66 16 128.5t49 112
t82.5 79.5t117.5 30zM294 425q-40 0 -71.5 -27.5t-48.5 -91.5h191q3 16 3 35q0 42 -20.5 63t-53.5 21zM376 601h-99l-93 169h93l59 -94l99 94h101z" />
    <glyph glyph-name="Gcircumflex" unicode="&#x11c;" horiz-adv-x="615" 
d="M382 718q55 0 96 -17t68.5 -47t41 -70.5t13.5 -88.5h-132q-2 49 -25.5 78t-69.5 29q-31 0 -53.5 -10.5t-42.5 -30.5q-13 -13 -22.5 -30t-17.5 -41t-16 -56.5t-17 -77.5q-10 -45 -15 -84.5t-5 -65.5q0 -46 27.5 -71t68.5 -25q48 0 90 35.5t56 107.5l6 31h-124l22 110h254
l-19 -102q-14 -72 -36 -123.5t-62 -94.5q-38 -39 -88 -59.5t-109 -20.5q-55 0 -96 16.5t-68.5 44.5t-41 64.5t-13.5 76.5q0 61 21 160q13 63 23 105.5t21.5 74t26.5 54.5t37 47q39 42 93 61.5t108 19.5zM584 778h-91l-60 94l-98 -94h-101l159 169h99z" />
    <glyph glyph-name="gcircumflex" unicode="&#x11d;" horiz-adv-x="527" 
d="M262 527q82 0 118 -59l10 53h120l-100 -501q-11 -57 -34.5 -98t-56.5 -67.5t-73.5 -39t-85.5 -12.5q-57 0 -98.5 16.5t-74.5 54.5l86 75q12 -14 31 -27.5t56 -13.5q52 0 84 31t43 82l11 53q-20 -24 -48.5 -38t-67.5 -14q-29 0 -55 9t-46 27.5t-31.5 46t-11.5 64.5
q0 19 3.5 46t9.5 60q14 75 31 122.5t47 77.5q29 29 63.5 40.5t69.5 11.5zM285 416q-48 0 -72 -35.5t-38 -106.5q-9 -48 -9 -72q0 -29 13.5 -49t48.5 -20q48 0 72 35.5t38 106.5q9 48 9 72q0 32 -15 50.5t-47 18.5zM493 601h-91l-60 94l-98 -94h-101l159 169h99z" />
    <glyph glyph-name="Gbreve" unicode="&#x11e;" horiz-adv-x="615" 
d="M382 718q55 0 96 -17t68.5 -47t41 -70.5t13.5 -88.5h-132q-2 49 -25.5 78t-69.5 29q-31 0 -53.5 -10.5t-42.5 -30.5q-13 -13 -22.5 -30t-17.5 -41t-16 -56.5t-17 -77.5q-10 -45 -15 -84.5t-5 -65.5q0 -46 27.5 -71t68.5 -25q48 0 90 35.5t56 107.5l6 31h-124l22 110h254
l-19 -102q-14 -72 -36 -123.5t-62 -94.5q-38 -39 -88 -59.5t-109 -20.5q-55 0 -96 16.5t-68.5 44.5t-41 64.5t-13.5 76.5q0 61 21 160q13 63 23 105.5t21.5 74t26.5 54.5t37 47q39 42 93 61.5t108 19.5zM585 915q-16 -78 -58 -111t-109 -33q-66 0 -100 32t-34 81q0 14 3 31
h82q-1 -8 -1 -11v-5q0 -23 17.5 -33.5t41.5 -10.5q27 0 46.5 13.5t27.5 46.5h84z" />
    <glyph glyph-name="gbreve" unicode="&#x11f;" horiz-adv-x="527" 
d="M262 527q82 0 118 -59l10 53h120l-100 -501q-11 -57 -34.5 -98t-56.5 -67.5t-73.5 -39t-85.5 -12.5q-57 0 -98.5 16.5t-74.5 54.5l86 75q12 -14 31 -27.5t56 -13.5q52 0 84 31t43 82l11 53q-20 -24 -48.5 -38t-67.5 -14q-29 0 -55 9t-46 27.5t-31.5 46t-11.5 64.5
q0 19 3.5 46t9.5 60q14 75 31 122.5t47 77.5q29 29 63.5 40.5t69.5 11.5zM285 416q-48 0 -72 -35.5t-38 -106.5q-9 -48 -9 -72q0 -29 13.5 -49t48.5 -20q48 0 72 35.5t38 106.5q9 48 9 72q0 32 -15 50.5t-47 18.5zM495 736q-16 -78 -58 -111t-109 -33q-66 0 -100 32t-34 81
q0 14 3 31h82q-1 -8 -1 -11v-5q0 -23 17.5 -33.5t41.5 -10.5q27 0 46.5 13.5t27.5 46.5h84z" />
    <glyph glyph-name="Gdotaccent" unicode="&#x120;" horiz-adv-x="615" 
d="M382 718q55 0 96 -17t68.5 -47t41 -70.5t13.5 -88.5h-132q-2 49 -25.5 78t-69.5 29q-31 0 -53.5 -10.5t-42.5 -30.5q-13 -13 -22.5 -30t-17.5 -41t-16 -56.5t-17 -77.5q-10 -45 -15 -84.5t-5 -65.5q0 -46 27.5 -71t68.5 -25q48 0 90 35.5t56 107.5l6 31h-124l22 110h254
l-19 -102q-14 -72 -36 -123.5t-62 -94.5q-38 -39 -88 -59.5t-109 -20.5q-55 0 -96 16.5t-68.5 44.5t-41 64.5t-13.5 76.5q0 61 21 160q13 63 23 105.5t21.5 74t26.5 54.5t37 47q39 42 93 61.5t108 19.5zM462 780h-106l24 122h106z" />
    <glyph glyph-name="gdotaccent" unicode="&#x121;" horiz-adv-x="527" 
d="M262 527q82 0 118 -59l10 53h120l-100 -501q-11 -57 -34.5 -98t-56.5 -67.5t-73.5 -39t-85.5 -12.5q-57 0 -98.5 16.5t-74.5 54.5l86 75q12 -14 31 -27.5t56 -13.5q52 0 84 31t43 82l11 53q-20 -24 -48.5 -38t-67.5 -14q-29 0 -55 9t-46 27.5t-31.5 46t-11.5 64.5
q0 19 3.5 46t9.5 60q14 75 31 122.5t47 77.5q29 29 63.5 40.5t69.5 11.5zM285 416q-48 0 -72 -35.5t-38 -106.5q-9 -48 -9 -72q0 -29 13.5 -49t48.5 -20q48 0 72 35.5t38 106.5q9 48 9 72q0 32 -15 50.5t-47 18.5zM372 603h-106l24 122h106z" />
    <glyph glyph-name="uni0122" unicode="&#x122;" horiz-adv-x="615" 
d="M382 718q55 0 96 -17t68.5 -47t41 -70.5t13.5 -88.5h-132q-2 49 -25.5 78t-69.5 29q-31 0 -53.5 -10.5t-42.5 -30.5q-13 -13 -22.5 -30t-17.5 -41t-16 -56.5t-17 -77.5q-10 -45 -15 -84.5t-5 -65.5q0 -46 27.5 -71t68.5 -25q48 0 90 35.5t56 107.5l6 31h-124l22 110h254
l-19 -102q-14 -72 -36 -123.5t-62 -94.5q-38 -39 -88 -59.5t-109 -20.5q-55 0 -96 16.5t-68.5 44.5t-41 64.5t-13.5 76.5q0 61 21 160q13 63 23 105.5t21.5 74t26.5 54.5t37 47q39 42 93 61.5t108 19.5zM225 -201h-114l86 144h98z" />
    <glyph glyph-name="uni0123" unicode="&#x123;" horiz-adv-x="527" 
d="M262 527q82 0 118 -59l10 53h120l-100 -501q-11 -57 -34.5 -98t-56.5 -67.5t-73.5 -39t-85.5 -12.5q-57 0 -98.5 16.5t-74.5 54.5l86 75q12 -14 31 -27.5t56 -13.5q52 0 84 31t43 82l11 53q-20 -24 -48.5 -38t-67.5 -14q-29 0 -55 9t-46 27.5t-31.5 46t-11.5 64.5
q0 19 3.5 46t9.5 60q14 75 31 122.5t47 77.5q29 29 63.5 40.5t69.5 11.5zM285 416q-48 0 -72 -35.5t-38 -106.5q-9 -48 -9 -72q0 -29 13.5 -49t48.5 -20q48 0 72 35.5t38 106.5q9 48 9 72q0 32 -15 50.5t-47 18.5zM318 601h-99l110 167h120z" />
    <glyph glyph-name="Hcircumflex" unicode="&#x124;" horiz-adv-x="655" 
d="M522 0h-132l61 302h-230l-61 -302h-132l143 712h132l-58 -294h230l58 294h132zM605 778h-91l-60 94l-98 -94h-101l159 169h99z" />
    <glyph glyph-name="hcircumflex" unicode="&#x125;" 
d="M236 480q25 23 57.5 35t70.5 12q24 0 48.5 -8t44 -25.5t32 -44.5t12.5 -66q0 -14 -2 -29t-5 -29l-65 -325h-124l64 317q2 8 3 17t1 17q0 34 -19.5 49.5t-43.5 15.5q-13 0 -29 -4t-31 -15t-27 -30.5t-18 -50.5l-64 -316h-124l142 712h124zM408 778h-91l-60 94l-98 -94
h-101l159 169h99z" />
    <glyph glyph-name="Hbar" unicode="&#x126;" horiz-adv-x="700" 
d="M668 611h66l-21 -101h-66l-102 -510h-132l61 302h-230l-61 -302h-132l102 510h-67l21 101h67l20 101h132l-20 -101h230l20 101h132zM286 510l-18 -92h230l18 92h-230z" />
    <glyph glyph-name="hbar" unicode="&#x127;" horiz-adv-x="561" 
d="M287 648h88l-16 -78h-88l-18 -90q25 23 57.5 35t70.5 12q24 0 48.5 -8t44 -25.5t32 -44.5t12.5 -66q0 -14 -2 -29t-5 -29l-65 -325h-124l64 317q2 8 3 17t1 17q0 34 -19.5 49.5t-43.5 15.5q-13 0 -29 -4t-31 -15t-27 -30.5t-18 -50.5l-64 -316h-124l114 570h-51l16 78h50
l13 64h124z" />
    <glyph glyph-name="Itilde" unicode="&#x128;" horiz-adv-x="293" 
d="M160 0h-132l143 712h132zM197 910q26 0 44 -6.5t33 -15.5t26.5 -13t26.5 -4q19 0 33.5 8t28.5 22l45 -59q-28 -26 -53.5 -39t-57.5 -13q-26 0 -44 6.5t-33 15.5t-26.5 13t-26.5 4q-19 0 -33.5 -8.5t-28.5 -22.5l-45 60q28 26 53.5 39t57.5 13z" />
    <glyph glyph-name="itilde" unicode="&#x129;" horiz-adv-x="262" 
d="M142 0h-124l101 505h124zM149 727q26 0 44 -6.5t33 -15.5t26.5 -13t26.5 -4q19 0 33.5 8t28.5 22l45 -59q-28 -26 -53.5 -39t-57.5 -13q-26 0 -44 6.5t-33 15.5t-26.5 13t-25.5 4q-20 0 -34 -8.5t-28 -22.5l-45 60q27 26 52.5 39t57.5 13z" />
    <glyph glyph-name="Imacron" unicode="&#x12a;" horiz-adv-x="293" 
d="M160 0h-132l143 712h132zM403 792h-302l17 82h301z" />
    <glyph glyph-name="imacron" unicode="&#x12b;" horiz-adv-x="262" 
d="M142 0h-124l101 505h124zM354 619h-302l17 82h301z" />
    <glyph glyph-name="Ibreve" unicode="&#x12c;" horiz-adv-x="293" 
d="M160 0h-132l143 712h132zM426 915q-16 -78 -58 -111t-109 -33q-66 0 -100 32t-34 81q0 14 3 31h82q-1 -8 -1 -11v-5q0 -23 17.5 -33.5t41.5 -10.5q27 0 46.5 13.5t27.5 46.5h84z" />
    <glyph glyph-name="ibreve" unicode="&#x12d;" horiz-adv-x="262" 
d="M142 0h-124l101 505h124zM376 736q-16 -78 -58 -111t-109 -33q-66 0 -100 32t-34 81q0 14 3 31h82q-1 -8 -1 -11v-5q0 -23 17.5 -33.5t41.5 -10.5q27 0 46.5 13.5t27.5 46.5h84z" />
    <glyph glyph-name="Iogonek" unicode="&#x12e;" horiz-adv-x="293" 
d="M160 0h-132l143 712h132zM66 -201h-114l86 144h98z" />
    <glyph glyph-name="iogonek" unicode="&#x12f;" horiz-adv-x="262" 
d="M142 0h-124l101 505h124zM264 607h-127l20 103h128zM49 -201h-114l86 144h98z" />
    <glyph glyph-name="Idotaccent" unicode="&#x130;" horiz-adv-x="293" 
d="M160 0h-132l143 712h132zM303 780h-106l24 122h106z" />
    <glyph glyph-name="dotlessi" unicode="&#x131;" horiz-adv-x="262" 
d="M142 0h-124l101 505h124z" />
    <glyph glyph-name="IJ" unicode="&#x132;" horiz-adv-x="778" 
d="M160 0h-132l143 712h132zM700 225q-15 -72 -45.5 -117.5t-67.5 -70.5t-76.5 -34t-70.5 -9q-66 0 -107.5 19.5t-71.5 57.5l95 81q16 -20 36.5 -31t50.5 -11q17 0 36.5 5.5t37 19.5t32 38t21.5 60l96 479h132z" />
    <glyph glyph-name="ij" unicode="&#x133;" horiz-adv-x="524" 
d="M142 0h-124l101 505h124zM264 607h-127l20 103h128zM395 -48q-14 -69 -56.5 -108t-111.5 -39h-77l21 105h45q23 0 37 14.5t19 38.5l109 542h124zM526 607h-127l20 103h128z" />
    <glyph glyph-name="Jcircumflex" unicode="&#x134;" horiz-adv-x="487" 
d="M409 225q-15 -72 -45.5 -117.5t-67.5 -70.5t-76.5 -34t-70.5 -9q-66 0 -107.5 19.5t-71.5 57.5l95 81q16 -20 36.5 -31t50.5 -11q17 0 36.5 5.5t37 19.5t32 38t21.5 60l96 479h132zM624 778h-91l-60 94l-98 -94h-101l159 169h99z" />
    <glyph glyph-name="jcircumflex" unicode="&#x135;" horiz-adv-x="262" 
d="M133 -48q-14 -69 -56.5 -108t-111.5 -39h-77l21 105h45q23 0 37 14.5t19 38.5l109 542h124zM369 601h-91l-60 94l-98 -94h-101l159 169h99z" />
    <glyph glyph-name="uni0136" unicode="&#x136;" horiz-adv-x="644" 
d="M421 415l163 -415h-144l-125 329l-111 -110l-44 -219h-132l143 712h132l-62 -310l297 310h164zM253 -201h-114l86 144h98z" />
    <glyph glyph-name="uni0137" unicode="&#x137;" horiz-adv-x="536" 
d="M203 309l206 212h147l-218 -217l138 -304h-142l-90 227l-71 -66l-32 -161h-124l142 712h124zM206 -201h-114l86 144h98z" />
    <glyph glyph-name="kgreenlandic" unicode="&#x138;" horiz-adv-x="536" 
d="M338 304l138 -304h-142l-90 227l-71 -66l-32 -161h-124l104 521h124l-42 -212l206 212h147z" />
    <glyph glyph-name="Lacute" unicode="&#x139;" horiz-adv-x="550" 
d="M184 116h310l-23 -116h-443l143 712h132zM292 778h-99l110 168h120z" />
    <glyph glyph-name="lacute" unicode="&#x13a;" horiz-adv-x="311" 
d="M170 166q-2 -6 -2.5 -14t-0.5 -13q0 -34 44 -34h41l-21 -105h-55q-37 0 -63 9t-43 26q-30 30 -30 78q0 14 2.5 29.5t4.5 26.5l108 543h124zM274 781h-100l111 167h119z" />
    <glyph glyph-name="uni013B" unicode="&#x13b;" horiz-adv-x="550" 
d="M184 116h310l-23 -116h-443l143 712h132zM227 -201h-114l86 144h98z" />
    <glyph glyph-name="uni013C" unicode="&#x13c;" horiz-adv-x="311" 
d="M170 166q-2 -6 -2.5 -14t-0.5 -13q0 -34 44 -34h41l-21 -105h-55q-37 0 -63 9t-43 26q-30 30 -30 78q0 14 2.5 29.5t4.5 26.5l108 543h124zM93 -201h-114l86 144h98z" />
    <glyph glyph-name="Lcaron" unicode="&#x13d;" horiz-adv-x="550" 
d="M184 116h310l-23 -116h-443l143 712h132zM443 548h-91l67 165h115z" />
    <glyph glyph-name="lcaron" unicode="&#x13e;" horiz-adv-x="311" 
d="M170 166q-2 -6 -2.5 -14t-0.5 -13q0 -34 44 -34h41l-21 -105h-55q-37 0 -63 9t-43 26q-30 30 -30 78q0 14 2.5 29.5t4.5 26.5l108 543h124zM400 575h-91l67 165h115z" />
    <glyph glyph-name="Ldot" unicode="&#x13f;" horiz-adv-x="550" 
d="M184 116h310l-23 -116h-443l143 712h132zM481 297h-106l24 122h106z" />
    <glyph glyph-name="ldot" unicode="&#x140;" horiz-adv-x="381" 
d="M170 166q-2 -6 -2.5 -14t-0.5 -13q0 -34 44 -34h41l-21 -105h-55q-37 0 -63 9t-43 26q-30 30 -30 78q0 14 2.5 29.5t4.5 26.5l108 543h124zM365 225h-106l24 122h106z" />
    <glyph glyph-name="Lslash" unicode="&#x141;" horiz-adv-x="568" 
d="M267 446l138 81l-24 -118l-137 -80l-43 -213h310l-22 -116h-444l49 244l-69 -40l23 117l70 41l70 350h132z" />
    <glyph glyph-name="lslash" unicode="&#x142;" horiz-adv-x="347" 
d="M250 490l65 36l-23 -111l-64 -36l-43 -213q-2 -6 -2.5 -14t-0.5 -13q0 -34 44 -34h41l-21 -105h-55q-37 0 -63 9t-43 26q-30 30 -30 78q0 14 2.5 29.5t4.5 26.5l26 133l-57 -32l22 111l57 32l60 299h124z" />
    <glyph glyph-name="Nacute" unicode="&#x143;" horiz-adv-x="680" 
d="M547 0h-112l-185 445l-90 -445h-132l143 712h112l186 -446l89 446h132zM469 778h-99l110 168h120z" />
    <glyph glyph-name="nacute" unicode="&#x144;" 
d="M368 527q23 0 46.5 -8t43 -25.5t31.5 -44.5t12 -66q0 -14 -2 -29.5t-5 -28.5l-65 -325h-124l64 317q2 9 3 17.5t1 16.5q0 34 -19 49.5t-43 15.5q-14 0 -30 -4t-31 -15t-27 -30.5t-18 -50.5l-64 -316h-124l104 521h119l-9 -50q25 27 60.5 41.5t76.5 14.5zM389 601h-100
l111 167h119z" />
    <glyph glyph-name="uni0145" unicode="&#x145;" horiz-adv-x="680" 
d="M547 0h-112l-185 445l-90 -445h-132l143 712h112l186 -446l89 446h132zM263 -201h-114l86 144h98z" />
    <glyph glyph-name="uni0146" unicode="&#x146;" 
d="M368 527q23 0 46.5 -8t43 -25.5t31.5 -44.5t12 -66q0 -14 -2 -29.5t-5 -28.5l-65 -325h-124l64 317q2 9 3 17.5t1 16.5q0 34 -19 49.5t-43 15.5q-14 0 -30 -4t-31 -15t-27 -30.5t-18 -50.5l-64 -316h-124l104 521h119l-9 -50q25 27 60.5 41.5t76.5 14.5zM192 -201h-114
l86 144h98z" />
    <glyph glyph-name="Ncaron" unicode="&#x147;" horiz-adv-x="680" 
d="M547 0h-112l-185 445l-90 -445h-132l143 712h112l186 -446l89 446h132zM477 778h-99l-93 169h93l59 -94l99 94h101z" />
    <glyph glyph-name="ncaron" unicode="&#x148;" 
d="M368 527q23 0 46.5 -8t43 -25.5t31.5 -44.5t12 -66q0 -14 -2 -29.5t-5 -28.5l-65 -325h-124l64 317q2 9 3 17.5t1 16.5q0 34 -19 49.5t-43 15.5q-14 0 -30 -4t-31 -15t-27 -30.5t-18 -50.5l-64 -316h-124l104 521h119l-9 -50q25 27 60.5 41.5t76.5 14.5zM393 601h-99
l-93 169h93l59 -94l99 94h101z" />
    <glyph glyph-name="napostrophe" unicode="&#x149;" horiz-adv-x="799" 
d="M257 584l-150 -103l46 231h129zM623 527q23 0 46.5 -8t43 -25.5t31.5 -44.5t12 -66q0 -14 -2 -29.5t-5 -28.5l-65 -325h-124l64 317q2 9 3 17.5t1 16.5q0 34 -19 49.5t-43 15.5q-14 0 -30 -4t-31 -15t-27 -30.5t-18 -50.5l-64 -316h-124l104 521h119l-9 -50
q25 27 60.5 41.5t76.5 14.5z" />
    <glyph glyph-name="Eng" unicode="&#x14a;" horiz-adv-x="680" 
d="M536 -54q-14 -69 -56.5 -108t-111.5 -39h-77l22 106h37q48 0 58 55l13 71l-171 414l-90 -445h-132l143 712h112l186 -446l89 446h132z" />
    <glyph glyph-name="eng" unicode="&#x14b;" 
d="M368 527q23 0 46.5 -8t43 -25.5t31.5 -44.5t12 -66q0 -14 -2 -29.5t-5 -28.5l-75 -375q-14 -69 -56.5 -108t-111.5 -39h-77l21 105h46q23 0 37 14.5t19 38.5l72 356q2 9 3 17.5t1 16.5q0 34 -19 49.5t-43 15.5q-14 0 -30 -4t-31 -15t-27 -30.5t-18 -50.5l-64 -316h-124
l104 521h119l-9 -50q25 27 60.5 41.5t76.5 14.5z" />
    <glyph glyph-name="Omacron" unicode="&#x14c;" horiz-adv-x="611" 
d="M379 718q51 0 91 -16t67.5 -43.5t42 -64t14.5 -78.5q0 -24 -4 -62t-16 -98q-10 -52 -19.5 -93t-21 -74.5t-27 -61t-38.5 -51.5q-42 -45 -94.5 -63.5t-106.5 -18.5q-51 0 -91 16t-67.5 43.5t-42 64t-14.5 78.5q0 24 4 62t16 98q10 52 19.5 93t21 74.5t27 61t38.5 51.5
q42 45 94.5 63.5t106.5 18.5zM370 602q-56 0 -95 -43q-10 -11 -18.5 -25.5t-17 -38t-17 -57t-18.5 -82.5q-9 -45 -14.5 -84t-5.5 -65q0 -48 27.5 -72.5t64.5 -24.5q56 0 95 43q10 11 18.5 25.5t17 37.5t17 57t18.5 83q9 45 14.5 84t5.5 65q0 48 -27 72.5t-65 24.5zM562 792
h-302l17 82h301z" />
    <glyph glyph-name="omacron" unicode="&#x14d;" horiz-adv-x="516" 
d="M302 527q33 0 64.5 -10t56 -31t40 -53.5t15.5 -77.5q0 -24 -3.5 -50.5t-6.5 -43.5q-8 -41 -17.5 -72.5t-20.5 -56t-24.5 -43.5t-30.5 -35q-30 -29 -70 -44.5t-90 -15.5q-33 0 -65 10t-56.5 31t-40 53.5t-15.5 77.5q0 24 3.5 50.5t7.5 44.5q8 41 17 72t20.5 55.5t25 43
t30.5 35.5q29 29 69.5 44.5t90.5 15.5zM289 416q-38 0 -64 -26q-19 -18 -31 -49.5t-22 -79.5q-7 -34 -9 -53t-2 -28q0 -38 18.5 -56.5t47.5 -18.5q20 0 36 7t28 19q19 18 31.5 49.5t21.5 80.5q7 33 9 52.5t2 27.5q0 38 -18.5 56.5t-47.5 18.5zM480 619h-302l17 82h301z" />
    <glyph glyph-name="Obreve" unicode="&#x14e;" horiz-adv-x="611" 
d="M379 718q51 0 91 -16t67.5 -43.5t42 -64t14.5 -78.5q0 -24 -4 -62t-16 -98q-10 -52 -19.5 -93t-21 -74.5t-27 -61t-38.5 -51.5q-42 -45 -94.5 -63.5t-106.5 -18.5q-51 0 -91 16t-67.5 43.5t-42 64t-14.5 78.5q0 24 4 62t16 98q10 52 19.5 93t21 74.5t27 61t38.5 51.5
q42 45 94.5 63.5t106.5 18.5zM370 602q-56 0 -95 -43q-10 -11 -18.5 -25.5t-17 -38t-17 -57t-18.5 -82.5q-9 -45 -14.5 -84t-5.5 -65q0 -48 27.5 -72.5t64.5 -24.5q56 0 95 43q10 11 18.5 25.5t17 37.5t17 57t18.5 83q9 45 14.5 84t5.5 65q0 48 -27 72.5t-65 24.5zM585 915
q-16 -78 -58 -111t-109 -33q-66 0 -100 32t-34 81q0 14 3 31h82q-1 -8 -1 -11v-5q0 -23 17.5 -33.5t41.5 -10.5q27 0 46.5 13.5t27.5 46.5h84z" />
    <glyph glyph-name="obreve" unicode="&#x14f;" horiz-adv-x="516" 
d="M302 527q33 0 64.5 -10t56 -31t40 -53.5t15.5 -77.5q0 -24 -3.5 -50.5t-6.5 -43.5q-8 -41 -17.5 -72.5t-20.5 -56t-24.5 -43.5t-30.5 -35q-30 -29 -70 -44.5t-90 -15.5q-33 0 -65 10t-56.5 31t-40 53.5t-15.5 77.5q0 24 3.5 50.5t7.5 44.5q8 41 17 72t20.5 55.5t25 43
t30.5 35.5q29 29 69.5 44.5t90.5 15.5zM289 416q-38 0 -64 -26q-19 -18 -31 -49.5t-22 -79.5q-7 -34 -9 -53t-2 -28q0 -38 18.5 -56.5t47.5 -18.5q20 0 36 7t28 19q19 18 31.5 49.5t21.5 80.5q7 33 9 52.5t2 27.5q0 38 -18.5 56.5t-47.5 18.5zM502 736q-16 -78 -58 -111
t-109 -33q-66 0 -100 32t-34 81q0 14 3 31h82q-1 -8 -1 -11v-5q0 -23 17.5 -33.5t41.5 -10.5q27 0 46.5 13.5t27.5 46.5h84z" />
    <glyph glyph-name="Ohungarumlaut" unicode="&#x150;" horiz-adv-x="611" 
d="M379 718q51 0 91 -16t67.5 -43.5t42 -64t14.5 -78.5q0 -24 -4 -62t-16 -98q-10 -52 -19.5 -93t-21 -74.5t-27 -61t-38.5 -51.5q-42 -45 -94.5 -63.5t-106.5 -18.5q-51 0 -91 16t-67.5 43.5t-42 64t-14.5 78.5q0 24 4 62t16 98q10 52 19.5 93t21 74.5t27 61t38.5 51.5
q42 45 94.5 63.5t106.5 18.5zM370 602q-56 0 -95 -43q-10 -11 -18.5 -25.5t-17 -38t-17 -57t-18.5 -82.5q-9 -45 -14.5 -84t-5.5 -65q0 -48 27.5 -72.5t64.5 -24.5q56 0 95 43q10 11 18.5 25.5t17 37.5t17 57t18.5 83q9 45 14.5 84t5.5 65q0 48 -27 72.5t-65 24.5zM472 946
l-130 -168h-100l111 168h119zM682 946l-131 -168h-99l110 168h120z" />
    <glyph glyph-name="ohungarumlaut" unicode="&#x151;" horiz-adv-x="516" 
d="M302 527q33 0 64.5 -10t56 -31t40 -53.5t15.5 -77.5q0 -24 -3.5 -50.5t-6.5 -43.5q-8 -41 -17.5 -72.5t-20.5 -56t-24.5 -43.5t-30.5 -35q-30 -29 -70 -44.5t-90 -15.5q-33 0 -65 10t-56.5 31t-40 53.5t-15.5 77.5q0 24 3.5 50.5t7.5 44.5q8 41 17 72t20.5 55.5t25 43
t30.5 35.5q29 29 69.5 44.5t90.5 15.5zM289 416q-38 0 -64 -26q-19 -18 -31 -49.5t-22 -79.5q-7 -34 -9 -53t-2 -28q0 -38 18.5 -56.5t47.5 -18.5q20 0 36 7t28 19q19 18 31.5 49.5t21.5 80.5q7 33 9 52.5t2 27.5q0 38 -18.5 56.5t-47.5 18.5zM397 768l-131 -167h-99
l110 167h120zM606 768l-131 -167h-99l110 167h120z" />
    <glyph glyph-name="OE" unicode="&#x152;" horiz-adv-x="922" 
d="M380 718q43 0 77 -15.5t53 -44.5l10 54h439l-23 -116h-312l-36 -179h269l-23 -116h-269l-37 -185h318l-23 -116h-439l9 48q-27 -29 -61.5 -41.5t-66.5 -12.5q-50 0 -89.5 16t-66.5 43.5t-41.5 64t-14.5 78.5q0 24 4 62t16 98q10 52 19.5 93t21 74.5t27 61t38.5 51.5
q42 45 94.5 63.5t106.5 18.5zM371 602q-56 0 -95 -43q-10 -11 -18.5 -25.5t-17 -38t-17 -57t-18.5 -82.5q-9 -45 -14.5 -84t-5.5 -65q0 -48 27.5 -72.5t64.5 -24.5q56 0 95 43q10 11 18.5 25.5t17 37.5t17 57t18.5 83q9 45 14.5 84t5.5 65q0 48 -27 72.5t-65 24.5z" />
    <glyph glyph-name="oe" unicode="&#x153;" horiz-adv-x="823" 
d="M601 527q41 0 75 -13t58.5 -37.5t38 -59t13.5 -76.5q0 -26 -4.5 -57t-11.5 -61h-312q-2 -9 -3 -20.5t-1 -16.5q0 -38 22 -62.5t67 -24.5q38 0 67.5 13.5t56.5 39.5l65 -82q-41 -38 -92.5 -57t-110.5 -19q-44 0 -84.5 16t-66.5 53q-34 -37 -76.5 -53t-86.5 -16
q-33 0 -65 10t-56.5 31t-40 53.5t-15.5 77.5q0 24 3.5 50.5t7.5 44.5q8 41 17 72t20.5 55.5t25 43t30.5 35.5q29 29 69.5 44.5t90.5 15.5q40 0 77 -16.5t60 -51.5q63 68 162 68zM289 417q-38 0 -64 -26q-19 -18 -31.5 -49.5t-21.5 -80.5q-7 -34 -9 -53t-2 -28
q0 -38 18.5 -56.5t47.5 -18.5q20 0 36 7t28 19q19 18 31.5 49.5t21.5 80.5q7 34 9 53t2 28q0 38 -18.5 56.5t-47.5 18.5zM594 425q-40 0 -71.5 -27.5t-48.5 -91.5h191q3 16 3 35q0 42 -20.5 63t-53.5 21z" />
    <glyph glyph-name="Racute" unicode="&#x154;" horiz-adv-x="625" 
d="M421 712q54 0 91 -16t60 -42t33 -61t10 -72q0 -33 -10.5 -66t-31 -62t-51.5 -52.5t-73 -37.5l98 -303h-145l-83 288h-100l-59 -288h-132l143 712h250zM280 595l-40 -197h120q34 0 57.5 11.5t38 29t21 37.5t6.5 38q0 38 -21 59.5t-62 21.5h-120zM447 778h-99l110 168h120z
" />
    <glyph glyph-name="racute" unicode="&#x155;" horiz-adv-x="429" 
d="M362 527q38 0 64 -12t47 -37l-107 -95q-10 13 -23.5 22.5t-33.5 9.5q-37 0 -66.5 -27.5t-38.5 -72.5l-63 -315h-124l104 521h120l-11 -51q22 26 56.5 41.5t75.5 15.5zM318 601h-100l111 167h119z" />
    <glyph glyph-name="uni0156" unicode="&#x156;" horiz-adv-x="625" 
d="M421 712q54 0 91 -16t60 -42t33 -61t10 -72q0 -33 -10.5 -66t-31 -62t-51.5 -52.5t-73 -37.5l98 -303h-145l-83 288h-100l-59 -288h-132l143 712h250zM280 595l-40 -197h120q34 0 57.5 11.5t38 29t21 37.5t6.5 38q0 38 -21 59.5t-62 21.5h-120zM243 -201h-114l86 144h98z
" />
    <glyph glyph-name="uni0157" unicode="&#x157;" horiz-adv-x="429" 
d="M362 527q38 0 64 -12t47 -37l-107 -95q-10 13 -23.5 22.5t-33.5 9.5q-37 0 -66.5 -27.5t-38.5 -72.5l-63 -315h-124l104 521h120l-11 -51q22 26 56.5 41.5t75.5 15.5zM49 -201h-114l86 144h98z" />
    <glyph glyph-name="Rcaron" unicode="&#x158;" horiz-adv-x="625" 
d="M421 712q54 0 91 -16t60 -42t33 -61t10 -72q0 -33 -10.5 -66t-31 -62t-51.5 -52.5t-73 -37.5l98 -303h-145l-83 288h-100l-59 -288h-132l143 712h250zM280 595l-40 -197h120q34 0 57.5 11.5t38 29t21 37.5t6.5 38q0 38 -21 59.5t-62 21.5h-120zM455 778h-99l-93 169h93
l59 -94l99 94h101z" />
    <glyph glyph-name="rcaron" unicode="&#x159;" horiz-adv-x="429" 
d="M362 527q38 0 64 -12t47 -37l-107 -95q-10 13 -23.5 22.5t-33.5 9.5q-37 0 -66.5 -27.5t-38.5 -72.5l-63 -315h-124l104 521h120l-11 -51q22 26 56.5 41.5t75.5 15.5zM322 601h-99l-93 169h93l59 -94l99 94h101z" />
    <glyph glyph-name="Sacute" unicode="&#x15a;" horiz-adv-x="563" 
d="M373 718q63 0 116 -21t88 -65l-93 -81q-23 28 -53.5 40t-72.5 12q-31 0 -55.5 -9.5t-41.5 -25t-26 -35t-9 -38.5q0 -17 6 -28.5t16.5 -19.5t24.5 -13t29 -9l59 -14q88 -22 124.5 -65.5t36.5 -119.5q0 -60 -23.5 -104t-63 -72.5t-91 -42t-107.5 -13.5q-84 0 -139.5 22.5
t-100.5 75.5l96 84q29 -34 67 -49.5t89 -15.5q30 0 55.5 8t44.5 22t30 32.5t11 40.5q0 38 -20.5 54.5t-54.5 24.5l-59 15q-88 22 -125 68t-37 101q0 51 19 95t55 76.5t88 51t117 18.5zM436 778h-99l110 168h120z" />
    <glyph glyph-name="sacute" unicode="&#x15b;" horiz-adv-x="475" 
d="M286 527q56 0 97.5 -14.5t75.5 -49.5l-85 -75q-18 19 -44.5 28t-54.5 9q-48 0 -69.5 -19.5t-21.5 -43.5q0 -32 48 -39l67 -11q70 -11 98 -46t28 -89q0 -39 -15 -70t-41 -56q-32 -31 -81 -44t-100 -13q-70 0 -118 20t-83 58l89 78q20 -23 47.5 -36.5t72.5 -13.5
q54 0 80 21t26 44q0 21 -13 30t-36 13l-68 11q-36 6 -60 18.5t-38.5 28.5t-20.5 34.5t-6 36.5q0 36 13.5 70t39.5 60q60 60 173 60zM353 601h-100l111 167h119z" />
    <glyph glyph-name="Scircumflex" unicode="&#x15c;" horiz-adv-x="563" 
d="M373 718q63 0 116 -21t88 -65l-93 -81q-23 28 -53.5 40t-72.5 12q-31 0 -55.5 -9.5t-41.5 -25t-26 -35t-9 -38.5q0 -17 6 -28.5t16.5 -19.5t24.5 -13t29 -9l59 -14q88 -22 124.5 -65.5t36.5 -119.5q0 -60 -23.5 -104t-63 -72.5t-91 -42t-107.5 -13.5q-84 0 -139.5 22.5
t-100.5 75.5l96 84q29 -34 67 -49.5t89 -15.5q30 0 55.5 8t44.5 22t30 32.5t11 40.5q0 38 -20.5 54.5t-54.5 24.5l-59 15q-88 22 -125 68t-37 101q0 51 19 95t55 76.5t88 51t117 18.5zM569 778h-91l-60 94l-98 -94h-101l159 169h99z" />
    <glyph glyph-name="scircumflex" unicode="&#x15d;" horiz-adv-x="475" 
d="M286 527q56 0 97.5 -14.5t75.5 -49.5l-85 -75q-18 19 -44.5 28t-54.5 9q-48 0 -69.5 -19.5t-21.5 -43.5q0 -32 48 -39l67 -11q70 -11 98 -46t28 -89q0 -39 -15 -70t-41 -56q-32 -31 -81 -44t-100 -13q-70 0 -118 20t-83 58l89 78q20 -23 47.5 -36.5t72.5 -13.5
q54 0 80 21t26 44q0 21 -13 30t-36 13l-68 11q-36 6 -60 18.5t-38.5 28.5t-20.5 34.5t-6 36.5q0 36 13.5 70t39.5 60q60 60 173 60zM481 601h-91l-60 94l-98 -94h-101l159 169h99z" />
    <glyph glyph-name="Scedilla" unicode="&#x15e;" horiz-adv-x="563" 
d="M373 718q63 0 116 -21t88 -65l-93 -81q-23 28 -53.5 40t-72.5 12q-31 0 -55.5 -9.5t-41.5 -25t-26 -35t-9 -38.5q0 -17 6 -28.5t16.5 -19.5t24.5 -13t29 -9l59 -14q88 -22 124.5 -65.5t36.5 -119.5q0 -60 -23.5 -104t-63 -72.5t-91 -42t-107.5 -13.5q-84 0 -139.5 22.5
t-100.5 75.5l96 84q29 -34 67 -49.5t89 -15.5q30 0 55.5 8t44.5 22t30 32.5t11 40.5q0 38 -20.5 54.5t-54.5 24.5l-59 15q-88 22 -125 68t-37 101q0 51 19 95t55 76.5t88 51t117 18.5zM210 -201h-114l86 144h98z" />
    <glyph glyph-name="scedilla" unicode="&#x15f;" horiz-adv-x="475" 
d="M286 527q56 0 97.5 -14.5t75.5 -49.5l-85 -75q-18 19 -44.5 28t-54.5 9q-48 0 -69.5 -19.5t-21.5 -43.5q0 -32 48 -39l67 -11q70 -11 98 -46t28 -89q0 -39 -15 -70t-41 -56q-32 -31 -81 -44t-100 -13q-70 0 -118 20t-83 58l89 78q20 -23 47.5 -36.5t72.5 -13.5
q54 0 80 21t26 44q0 21 -13 30t-36 13l-68 11q-36 6 -60 18.5t-38.5 28.5t-20.5 34.5t-6 36.5q0 36 13.5 70t39.5 60q60 60 173 60zM136 -57h98l-70 -144h-114z" />
    <glyph glyph-name="Scaron" unicode="&#x160;" horiz-adv-x="563" 
d="M373 718q63 0 116 -21t88 -65l-93 -81q-23 28 -53.5 40t-72.5 12q-31 0 -55.5 -9.5t-41.5 -25t-26 -35t-9 -38.5q0 -17 6 -28.5t16.5 -19.5t24.5 -13t29 -9l59 -14q88 -22 124.5 -65.5t36.5 -119.5q0 -60 -23.5 -104t-63 -72.5t-91 -42t-107.5 -13.5q-84 0 -139.5 22.5
t-100.5 75.5l96 84q29 -34 67 -49.5t89 -15.5q30 0 55.5 8t44.5 22t30 32.5t11 40.5q0 38 -20.5 54.5t-54.5 24.5l-59 15q-88 22 -125 68t-37 101q0 51 19 95t55 76.5t88 51t117 18.5zM444 778h-99l-93 169h93l59 -94l99 94h101z" />
    <glyph glyph-name="scaron" unicode="&#x161;" horiz-adv-x="475" 
d="M286 527q56 0 97.5 -14.5t75.5 -49.5l-85 -75q-18 19 -44.5 28t-54.5 9q-48 0 -69.5 -19.5t-21.5 -43.5q0 -32 48 -39l67 -11q70 -11 98 -46t28 -89q0 -39 -15 -70t-41 -56q-32 -31 -81 -44t-100 -13q-70 0 -118 20t-83 58l89 78q20 -23 47.5 -36.5t72.5 -13.5
q54 0 80 21t26 44q0 21 -13 30t-36 13l-68 11q-36 6 -60 18.5t-38.5 28.5t-20.5 34.5t-6 36.5q0 36 13.5 70t39.5 60q60 60 173 60zM357 601h-99l-93 169h93l59 -94l99 94h101z" />
    <glyph glyph-name="uni0162" unicode="&#x162;" 
d="M582 595h-175l-119 -595h-132l119 595h-179l23 117h486zM195 -201h-114l86 144h98z" />
    <glyph glyph-name="uni0163" unicode="&#x163;" horiz-adv-x="336" 
d="M254 505h86l-19 -95h-86l-49 -244q-2 -6 -2.5 -14t-0.5 -13q0 -34 44 -34h41l-21 -105h-55q-73 0 -106 35q-30 32 -30 78q0 14 2.5 29.5t4.5 26.5l48 241h-52l19 95h52l31 156h124zM92 -201h-114l86 144h98z" />
    <glyph glyph-name="Tcaron" unicode="&#x164;" 
d="M582 595h-175l-119 -595h-132l119 595h-179l23 117h486zM429 778h-99l-93 169h93l59 -94l99 94h101z" />
    <glyph glyph-name="tcaron" unicode="&#x165;" horiz-adv-x="336" 
d="M254 505h86l-19 -95h-86l-49 -244q-2 -6 -2.5 -14t-0.5 -13q0 -34 44 -34h41l-21 -105h-55q-73 0 -106 35q-30 32 -30 78q0 14 2.5 29.5t4.5 26.5l48 241h-52l19 95h52l31 156h124zM417 575h-91l67 165h115z" />
    <glyph glyph-name="Tbar" unicode="&#x166;" 
d="M582 595h-175l-37 -186h88l-20 -100h-88l-62 -309h-132l62 309h-88l20 100h88l37 186h-179l23 117h486z" />
    <glyph glyph-name="tbar" unicode="&#x167;" horiz-adv-x="336" 
d="M254 505h86l-19 -95h-86l-17 -83h76l-18 -89h-76l-14 -72q-2 -6 -2.5 -14t-0.5 -13q0 -34 44 -34h41l-21 -105h-55q-73 0 -106 35q-30 32 -30 78q0 14 2.5 29.5t4.5 26.5l13 69h-49l18 89h49l17 83h-52l19 95h52l31 156h124z" />
    <glyph glyph-name="Utilde" unicode="&#x168;" horiz-adv-x="638" 
d="M564 244q-13 -66 -40.5 -113t-65.5 -77.5t-84 -45t-95 -14.5q-45 0 -85 14t-69 40t-46 64t-17 85q0 14 2.5 32t4.5 29l91 454h132l-93 -462q-2 -8 -3.5 -21t-1.5 -23q0 -18 5.5 -35.5t16.5 -30.5t29 -21t43 -8q57 0 95 37.5t52 108.5l91 455h132zM366 910q26 0 44 -6.5
t33 -15.5t26.5 -13t26.5 -4q19 0 33.5 8t28.5 22l45 -59q-28 -26 -53.5 -39t-57.5 -13q-26 0 -44 6.5t-33 15.5t-26.5 13t-26.5 4q-19 0 -33.5 -8.5t-28.5 -22.5l-45 60q28 26 53.5 39t57.5 13z" />
    <glyph glyph-name="utilde" unicode="&#x169;" 
d="M423 0h-119l9 50q-25 -27 -60.5 -41.5t-76.5 -14.5q-23 0 -46.5 8t-43 25.5t-31.5 44.5t-12 66q0 14 2 29.5t5 28.5l65 325h124l-64 -317q-2 -9 -3 -17.5t-1 -16.5q0 -34 19 -49.5t43 -15.5q13 0 29 4t31 15t27.5 30.5t18.5 50.5l64 316h124zM283 727q26 0 44 -6.5
t33 -15.5t26.5 -13t26.5 -4q19 0 33.5 8t28.5 22l45 -59q-28 -26 -53.5 -39t-57.5 -13q-26 0 -44 6.5t-33 15.5t-26.5 13t-25.5 4q-20 0 -34 -8.5t-28 -22.5l-45 60q27 26 52.5 39t57.5 13z" />
    <glyph glyph-name="Umacron" unicode="&#x16a;" horiz-adv-x="638" 
d="M564 244q-13 -66 -40.5 -113t-65.5 -77.5t-84 -45t-95 -14.5q-45 0 -85 14t-69 40t-46 64t-17 85q0 14 2.5 32t4.5 29l91 454h132l-93 -462q-2 -8 -3.5 -21t-1.5 -23q0 -18 5.5 -35.5t16.5 -30.5t29 -21t43 -8q57 0 95 37.5t52 108.5l91 455h132zM572 792h-302l17 82h301
z" />
    <glyph glyph-name="umacron" unicode="&#x16b;" 
d="M423 0h-119l9 50q-25 -27 -60.5 -41.5t-76.5 -14.5q-23 0 -46.5 8t-43 25.5t-31.5 44.5t-12 66q0 14 2 29.5t5 28.5l65 325h124l-64 -317q-2 -9 -3 -17.5t-1 -16.5q0 -34 19 -49.5t43 -15.5q13 0 29 4t31 15t27.5 30.5t18.5 50.5l64 316h124zM488 619h-302l17 82h301z
" />
    <glyph glyph-name="Ubreve" unicode="&#x16c;" horiz-adv-x="638" 
d="M564 244q-13 -66 -40.5 -113t-65.5 -77.5t-84 -45t-95 -14.5q-45 0 -85 14t-69 40t-46 64t-17 85q0 14 2.5 32t4.5 29l91 454h132l-93 -462q-2 -8 -3.5 -21t-1.5 -23q0 -18 5.5 -35.5t16.5 -30.5t29 -21t43 -8q57 0 95 37.5t52 108.5l91 455h132zM595 915
q-16 -78 -58 -111t-109 -33q-66 0 -100 32t-34 81q0 14 3 31h82q-1 -8 -1 -11v-5q0 -23 17.5 -33.5t41.5 -10.5q27 0 46.5 13.5t27.5 46.5h84z" />
    <glyph glyph-name="ubreve" unicode="&#x16d;" 
d="M423 0h-119l9 50q-25 -27 -60.5 -41.5t-76.5 -14.5q-23 0 -46.5 8t-43 25.5t-31.5 44.5t-12 66q0 14 2 29.5t5 28.5l65 325h124l-64 -317q-2 -9 -3 -17.5t-1 -16.5q0 -34 19 -49.5t43 -15.5q13 0 29 4t31 15t27.5 30.5t18.5 50.5l64 316h124zM510 736q-16 -78 -58 -111
t-109 -33q-66 0 -100 32t-34 81q0 14 3 31h82q-1 -8 -1 -11v-5q0 -23 17.5 -33.5t41.5 -10.5q27 0 46.5 13.5t27.5 46.5h84z" />
    <glyph glyph-name="Uring" unicode="&#x16e;" horiz-adv-x="638" 
d="M564 244q-13 -66 -40.5 -113t-65.5 -77.5t-84 -45t-95 -14.5q-45 0 -85 14t-69 40t-46 64t-17 85q0 14 2.5 32t4.5 29l91 454h132l-93 -462q-2 -8 -3.5 -21t-1.5 -23q0 -18 5.5 -35.5t16.5 -30.5t29 -21t43 -8q57 0 95 37.5t52 108.5l91 455h132zM429 1005q26 0 49 -9.5
t40 -26.5t27 -40.5t10 -50.5t-10 -50t-27 -40.5t-40 -27t-49 -9.5t-49.5 9.5t-40.5 27t-27 40.5t-10 50t10 50t27 40.5t40.5 27t49.5 9.5zM429 936q-23 0 -40.5 -17t-17.5 -41t17.5 -41t40.5 -17t40.5 17t17.5 41t-17.5 41t-40.5 17z" />
    <glyph glyph-name="uring" unicode="&#x16f;" 
d="M423 0h-119l9 50q-25 -27 -60.5 -41.5t-76.5 -14.5q-23 0 -46.5 8t-43 25.5t-31.5 44.5t-12 66q0 14 2 29.5t5 28.5l65 325h124l-64 -317q-2 -9 -3 -17.5t-1 -16.5q0 -34 19 -49.5t43 -15.5q13 0 29 4t31 15t27.5 30.5t18.5 50.5l64 316h124zM355 837q26 0 49 -9.5
t40.5 -26.5t27.5 -40t10 -50t-10 -50.5t-27.5 -40.5t-40.5 -26.5t-49 -9.5t-49 9.5t-40 26.5t-27 40.5t-10 50.5t10 50t27 40t40 26.5t49 9.5zM355 768q-23 0 -40.5 -17t-17.5 -40q0 -24 17.5 -41.5t40.5 -17.5t41 17.5t18 41.5q0 23 -18 40t-41 17z" />
    <glyph glyph-name="Uhungarumlaut" unicode="&#x170;" horiz-adv-x="638" 
d="M564 244q-13 -66 -40.5 -113t-65.5 -77.5t-84 -45t-95 -14.5q-45 0 -85 14t-69 40t-46 64t-17 85q0 14 2.5 32t4.5 29l91 454h132l-93 -462q-2 -8 -3.5 -21t-1.5 -23q0 -18 5.5 -35.5t16.5 -30.5t29 -21t43 -8q57 0 95 37.5t52 108.5l91 455h132zM482 946l-130 -168h-100
l111 168h119zM692 946l-131 -168h-99l110 168h120z" />
    <glyph glyph-name="uhungarumlaut" unicode="&#x171;" 
d="M423 0h-119l9 50q-25 -27 -60.5 -41.5t-76.5 -14.5q-23 0 -46.5 8t-43 25.5t-31.5 44.5t-12 66q0 14 2 29.5t5 28.5l65 325h124l-64 -317q-2 -9 -3 -17.5t-1 -16.5q0 -34 19 -49.5t43 -15.5q13 0 29 4t31 15t27.5 30.5t18.5 50.5l64 316h124zM405 768l-131 -167h-99
l110 167h120zM614 768l-131 -167h-99l110 167h120z" />
    <glyph glyph-name="Uogonek" unicode="&#x172;" horiz-adv-x="638" 
d="M564 244q-13 -66 -40.5 -113t-65.5 -77.5t-84 -45t-95 -14.5q-45 0 -85 14t-69 40t-46 64t-17 85q0 14 2.5 32t4.5 29l91 454h132l-93 -462q-2 -8 -3.5 -21t-1.5 -23q0 -18 5.5 -35.5t16.5 -30.5t29 -21t43 -8q57 0 95 37.5t52 108.5l91 455h132zM349 -201h-114l86 144
h98z" />
    <glyph glyph-name="uogonek" unicode="&#x173;" 
d="M423 0h-119l9 50q-25 -27 -60.5 -41.5t-76.5 -14.5q-23 0 -46.5 8t-43 25.5t-31.5 44.5t-12 66q0 14 2 29.5t5 28.5l65 325h124l-64 -317q-2 -9 -3 -17.5t-1 -16.5q0 -34 19 -49.5t43 -15.5q13 0 29 4t31 15t27.5 30.5t18.5 50.5l64 316h124zM340 -201h-114l86 144h98z
" />
    <glyph glyph-name="Wcircumflex" unicode="&#x174;" horiz-adv-x="844" 
d="M611 0h-111l-37 438l-216 -438h-110l-42 712h136l16 -455l216 455h99l35 -455l192 455h140zM699 778h-91l-60 94l-98 -94h-101l159 169h99z" />
    <glyph glyph-name="wcircumflex" unicode="&#x175;" horiz-adv-x="718" 
d="M516 0h-98l-41 331l-171 -331h-100l-49 521h124l18 -325l165 325h90l38 -325l142 325h131zM606 601h-91l-60 94l-98 -94h-101l159 169h99z" />
    <glyph glyph-name="Ycircumflex" unicode="&#x176;" 
d="M349 287l-58 -287h-132l59 292l-129 420h140l76 -295l184 295h146zM539 778h-91l-60 94l-98 -94h-101l159 169h99z" />
    <glyph glyph-name="ycircumflex" unicode="&#x177;" horiz-adv-x="464" 
d="M190 -84q-9 -17 -20 -33t-23 -28q-25 -25 -55 -35.5t-69 -10.5h-48l23 112h28q27 0 42 13t29 41l33 62l-74 484h123l38 -336l167 336h131zM468 601h-91l-60 94l-98 -94h-101l159 169h99z" />
    <glyph glyph-name="Ydieresis" unicode="&#x178;" 
d="M349 287l-58 -287h-132l59 292l-129 420h140l76 -295l184 295h146zM521 780h-106l24 122h106zM312 780h-106l24 122h106z" />
    <glyph glyph-name="Zacute" unicode="&#x179;" horiz-adv-x="531" 
d="M554 609l-380 -492h288l-24 -117h-450l21 103l380 492h-275l23 117h438zM414 778h-99l110 168h120z" />
    <glyph glyph-name="zacute" unicode="&#x17a;" horiz-adv-x="461" 
d="M451 426l-279 -315h223l-22 -111h-386l19 95l277 315h-208l22 111h373zM343 601h-100l111 167h119z" />
    <glyph glyph-name="Zdotaccent" unicode="&#x17b;" horiz-adv-x="531" 
d="M554 609l-380 -492h288l-24 -117h-450l21 103l380 492h-275l23 117h438zM425 780h-106l24 122h106z" />
    <glyph glyph-name="zdotaccent" unicode="&#x17c;" horiz-adv-x="461" 
d="M451 426l-279 -315h223l-22 -111h-386l19 95l277 315h-208l22 111h373zM350 603h-106l24 122h106z" />
    <glyph glyph-name="Zcaron" unicode="&#x17d;" horiz-adv-x="531" 
d="M554 609l-380 -492h288l-24 -117h-450l21 103l380 492h-275l23 117h438zM422 778h-99l-93 169h93l59 -94l99 94h101z" />
    <glyph glyph-name="zcaron" unicode="&#x17e;" horiz-adv-x="461" 
d="M451 426l-279 -315h223l-22 -111h-386l19 95l277 315h-208l22 111h373zM347 601h-99l-93 169h93l59 -94l99 94h101z" />
    <glyph glyph-name="longs" unicode="&#x17f;" horiz-adv-x="262" 
d="M356 615h-44q-47 0 -57 -51l-113 -564h-124l116 577q14 69 56 106t114 37h73z" />
    <glyph glyph-name="uni018E" unicode="&#x18e;" horiz-adv-x="578" 
d="M24 116h312l37 184h-269l23 116h269l36 180h-318l23 116h451l-143 -712h-444z" />
    <glyph glyph-name="uni018F" unicode="&#x18f;" horiz-adv-x="614" 
d="M385 718q51 0 91 -16t67.5 -43.5t42 -64t14.5 -78.5q0 -24 -4.5 -62t-16.5 -98q-10 -52 -19.5 -93.5t-21 -75t-27 -60.5t-38.5 -51q-42 -45 -94.5 -63.5t-106.5 -18.5q-51 0 -92 16t-69 43.5t-43 64t-15 78.5q0 38 7.5 88t25.5 128h371q5 32 7.5 54.5t2.5 38.5
q0 48 -26.5 72.5t-64.5 24.5q-60 0 -100 -43q-10 -10 -18.5 -24t-16.5 -40h-136q14 45 31 78.5t44 62.5q42 45 96.5 63.5t108.5 18.5zM197 302q-5 -27 -8 -53t-3 -42q0 -24 8 -42t21.5 -30.5t30.5 -18.5t36 -6q57 0 95 43q9 9 16 20.5t14 29t13.5 42t14.5 57.5h-238z" />
    <glyph glyph-name="florin" unicode="&#x192;" horiz-adv-x="406" 
d="M449 616h-63q-45 0 -62 -48l-62 -171h86l-19 -95h-102l-181 -493h-124l182 493h-53l19 95h68l64 174q30 82 77.5 115t123.5 33h67z" />
    <glyph glyph-name="Ohorn" unicode="&#x1a0;" horiz-adv-x="617" 
d="M267 -6q-51 0 -91 16t-67.5 43.5t-42 64t-14.5 78.5q0 24 4 62t16 98q10 52 19.5 93t21 74.5t27 61t38.5 51.5q42 45 94.5 63.5t106.5 18.5q72 0 121 -30t73 -78h8q22 0 36 14t22 52l16 80h82l-20 -97q-7 -32 -15.5 -54.5t-22.5 -36.5t-35 -21t-51 -9q1 -5 1 -11v-11
q0 -24 -4 -62t-16 -98q-10 -52 -19.5 -93t-21 -74.5t-27 -61t-38.5 -51.5q-42 -45 -94.5 -63.5t-106.5 -18.5zM276 110q56 0 95 43q10 11 18.5 25.5t17 37.5t17 57t18.5 83q9 45 14.5 84t5.5 65q0 48 -27 72.5t-65 24.5q-56 0 -95 -43q-10 -11 -18.5 -25.5t-17 -38t-17 -57
t-18.5 -82.5q-9 -45 -14.5 -84t-5.5 -65q0 -48 27.5 -72.5t64.5 -24.5z" />
    <glyph glyph-name="ohorn" unicode="&#x1a1;" horiz-adv-x="551" 
d="M215 -6q-33 0 -65 10t-56.5 31t-40 53.5t-15.5 77.5q0 24 3.5 50.5t7.5 44.5q8 41 17 72t20.5 55.5t25 43t30.5 35.5q29 29 69.5 44.5t90.5 15.5q48 0 92 -21.5t67 -69.5h4q23 0 37 13.5t22 54.5l10 53h80l-14 -70q-7 -32 -15.5 -54t-22 -36t-34 -21t-50.5 -9v-12
q0 -24 -3.5 -50.5t-6.5 -43.5q-8 -41 -17.5 -72.5t-20.5 -56t-24.5 -43.5t-30.5 -35q-30 -29 -70 -44.5t-90 -15.5zM227 105q20 0 36 7t28 19q19 18 31.5 49.5t21.5 80.5q7 33 9 52.5t2 27.5q0 38 -18.5 56.5t-47.5 18.5q-38 0 -64 -26q-19 -18 -31 -49.5t-22 -79.5
q-7 -34 -9 -53t-2 -28q0 -38 18.5 -56.5t47.5 -18.5z" />
    <glyph glyph-name="Uhorn" unicode="&#x1af;" horiz-adv-x="678" 
d="M792 659q-7 -36 -17 -59.5t-27 -37.5t-42.5 -19.5t-64.5 -5.5h-18l-59 -293q-13 -66 -40.5 -113t-65.5 -77.5t-84 -45t-95 -14.5q-45 0 -85 14t-69 40t-46 64t-17 85q0 14 2.5 32t4.5 29l91 454h132l-93 -462q-2 -8 -3.5 -21t-1.5 -23q0 -18 5.5 -35.5t16.5 -30.5t29 -21
t43 -8q57 0 95 37.5t52 108.5l91 455h132l-20 -102h18q22 0 36 14t22 52l16 80h82z" />
    <glyph glyph-name="uhorn" unicode="&#x1b0;" horiz-adv-x="600" 
d="M176 -6q-23 0 -46.5 8t-43 25.5t-31.5 45t-12 66.5q0 31 6 57l65 325h124l-63 -317q-2 -8 -3 -17t-1 -17q0 -34 19 -49.5t42 -15.5q13 0 29.5 4t31.5 15t27.5 30.5t18.5 50.5l63 316h124l-17 -86h12q23 0 37 14t22 55l11 53h78l-14 -70q-7 -36 -17 -59t-26.5 -37
t-41.5 -19.5t-64 -5.5h-11l-73 -366h-119l10 50q-26 -27 -61 -41.5t-76 -14.5z" />
    <glyph glyph-name="uni01B5" unicode="&#x1b5;" horiz-adv-x="531" 
d="M554 609l-154 -199h47l-20 -100h-104l-149 -193h288l-24 -117h-450l21 103l160 207h-50l19 100h108l143 185h-275l23 117h438z" />
    <glyph glyph-name="uni01B6" unicode="&#x1b6;" horiz-adv-x="461" 
d="M451 426l-112 -127h38l-16 -78h-92l-97 -110h223l-22 -111h-386l19 95l111 126h-41l16 78h93l98 111h-208l22 111h373z" />
    <glyph glyph-name="uni01CD" unicode="&#x1cd;" horiz-adv-x="607" 
d="M552 0h-134l-15 130h-241l-67 -130h-141l388 712h105zM216 238h177l-34 274zM450 778h-99l-93 169h93l59 -94l99 94h101z" />
    <glyph glyph-name="uni01CE" unicode="&#x1ce;" horiz-adv-x="509" 
d="M160 -6q-34 0 -61.5 10.5t-47 29t-30 43.5t-10.5 55q0 38 12 69t35 54q29 29 68 41.5t84 12.5h124l7 31q2 8 2.5 13.5t0.5 13.5q0 26 -19 41t-58 15q-38 0 -65 -13.5t-47 -35.5l-64 83q32 32 76 51t117 19q33 0 66 -7t59.5 -24t43 -44.5t16.5 -69.5q0 -23 -5 -46
l-68 -336h-119l9 45q-22 -22 -52.5 -36.5t-73.5 -14.5zM199 94q26 0 46.5 9t34.5 23q12 12 19.5 29.5t11.5 37.5l6 31h-95q-42 0 -65.5 -22.5t-23.5 -57.5q0 -22 16 -36t50 -14zM363 601h-99l-93 169h93l59 -94l99 94h101z" />
    <glyph glyph-name="uni01CF" unicode="&#x1cf;" horiz-adv-x="293" 
d="M160 0h-132l143 712h132zM300 778h-99l-93 169h93l59 -94l99 94h101z" />
    <glyph glyph-name="uni01D0" unicode="&#x1d0;" horiz-adv-x="262" 
d="M142 0h-124l101 505h124zM250 601h-99l-93 169h93l59 -94l99 94h101z" />
    <glyph glyph-name="uni01D1" unicode="&#x1d1;" horiz-adv-x="611" 
d="M379 718q51 0 91 -16t67.5 -43.5t42 -64t14.5 -78.5q0 -24 -4 -62t-16 -98q-10 -52 -19.5 -93t-21 -74.5t-27 -61t-38.5 -51.5q-42 -45 -94.5 -63.5t-106.5 -18.5q-51 0 -91 16t-67.5 43.5t-42 64t-14.5 78.5q0 24 4 62t16 98q10 52 19.5 93t21 74.5t27 61t38.5 51.5
q42 45 94.5 63.5t106.5 18.5zM370 602q-56 0 -95 -43q-10 -11 -18.5 -25.5t-17 -38t-17 -57t-18.5 -82.5q-9 -45 -14.5 -84t-5.5 -65q0 -48 27.5 -72.5t64.5 -24.5q56 0 95 43q10 11 18.5 25.5t17 37.5t17 57t18.5 83q9 45 14.5 84t5.5 65q0 48 -27 72.5t-65 24.5zM459 778
h-99l-93 169h93l59 -94l99 94h101z" />
    <glyph glyph-name="uni01D2" unicode="&#x1d2;" horiz-adv-x="516" 
d="M302 527q33 0 64.5 -10t56 -31t40 -53.5t15.5 -77.5q0 -24 -3.5 -50.5t-6.5 -43.5q-8 -41 -17.5 -72.5t-20.5 -56t-24.5 -43.5t-30.5 -35q-30 -29 -70 -44.5t-90 -15.5q-33 0 -65 10t-56.5 31t-40 53.5t-15.5 77.5q0 24 3.5 50.5t7.5 44.5q8 41 17 72t20.5 55.5t25 43
t30.5 35.5q29 29 69.5 44.5t90.5 15.5zM289 416q-38 0 -64 -26q-19 -18 -31 -49.5t-22 -79.5q-7 -34 -9 -53t-2 -28q0 -38 18.5 -56.5t47.5 -18.5q20 0 36 7t28 19q19 18 31.5 49.5t21.5 80.5q7 33 9 52.5t2 27.5q0 38 -18.5 56.5t-47.5 18.5zM376 601h-99l-93 169h93
l59 -94l99 94h101z" />
    <glyph glyph-name="uni01D3" unicode="&#x1d3;" horiz-adv-x="638" 
d="M564 244q-13 -66 -40.5 -113t-65.5 -77.5t-84 -45t-95 -14.5q-45 0 -85 14t-69 40t-46 64t-17 85q0 14 2.5 32t4.5 29l91 454h132l-93 -462q-2 -8 -3.5 -21t-1.5 -23q0 -18 5.5 -35.5t16.5 -30.5t29 -21t43 -8q57 0 95 37.5t52 108.5l91 455h132zM469 778h-99l-93 169h93
l59 -94l99 94h101z" />
    <glyph glyph-name="uni01D4" unicode="&#x1d4;" 
d="M423 0h-119l9 50q-25 -27 -60.5 -41.5t-76.5 -14.5q-23 0 -46.5 8t-43 25.5t-31.5 44.5t-12 66q0 14 2 29.5t5 28.5l65 325h124l-64 -317q-2 -9 -3 -17.5t-1 -16.5q0 -34 19 -49.5t43 -15.5q13 0 29 4t31 15t27.5 30.5t18.5 50.5l64 316h124zM384 601h-99l-93 169h93
l59 -94l99 94h101z" />
    <glyph glyph-name="uni01D5" unicode="&#x1d5;" horiz-adv-x="638" 
d="M606 976h-302l17 82h301zM564 244q-13 -66 -40.5 -113t-65.5 -77.5t-84 -45t-95 -14.5q-45 0 -85 14t-69 40t-46 64t-17 85q0 14 2.5 32t4.5 29l91 454h132l-93 -462q-2 -8 -3.5 -21t-1.5 -23q0 -18 5.5 -35.5t16.5 -30.5t29 -21t43 -8q57 0 95 37.5t52 108.5l91 455h132
zM576 780h-106l24 122h106zM367 780h-106l24 122h106z" />
    <glyph glyph-name="uni01D6" unicode="&#x1d6;" 
d="M522 803h-302l17 82h301zM423 0h-119l9 50q-25 -27 -60.5 -41.5t-76.5 -14.5q-23 0 -46.5 8t-43 25.5t-31.5 44.5t-12 66q0 14 2 29.5t5 28.5l65 325h124l-64 -317q-2 -9 -3 -17.5t-1 -16.5q0 -34 19 -49.5t43 -15.5q13 0 29 4t31 15t27.5 30.5t18.5 50.5l64 316h124z
M492 603h-106l24 122h106zM283 603h-106l24 122h106z" />
    <glyph glyph-name="uni01D7" unicode="&#x1d7;" horiz-adv-x="638" 
d="M495 962h-99l110 168h120zM564 244q-13 -66 -40.5 -113t-65.5 -77.5t-84 -45t-95 -14.5q-45 0 -85 14t-69 40t-46 64t-17 85q0 14 2.5 32t4.5 29l91 454h132l-93 -462q-2 -8 -3.5 -21t-1.5 -23q0 -18 5.5 -35.5t16.5 -30.5t29 -21t43 -8q57 0 95 37.5t52 108.5l91 455
h132zM576 780h-106l24 122h106zM367 780h-106l24 122h106z" />
    <glyph glyph-name="uni01D8" unicode="&#x1d8;" 
d="M415 785h-100l111 167h119zM423 0h-119l9 50q-25 -27 -60.5 -41.5t-76.5 -14.5q-23 0 -46.5 8t-43 25.5t-31.5 44.5t-12 66q0 14 2 29.5t5 28.5l65 325h124l-64 -317q-2 -9 -3 -17.5t-1 -16.5q0 -34 19 -49.5t43 -15.5q13 0 29 4t31 15t27.5 30.5t18.5 50.5l64 316h124z
M492 603h-106l24 122h106zM283 603h-106l24 122h106z" />
    <glyph glyph-name="uni01D9" unicode="&#x1d9;" horiz-adv-x="638" 
d="M503 962h-99l-93 169h93l59 -94l99 94h101zM564 244q-13 -66 -40.5 -113t-65.5 -77.5t-84 -45t-95 -14.5q-45 0 -85 14t-69 40t-46 64t-17 85q0 14 2.5 32t4.5 29l91 454h132l-93 -462q-2 -8 -3.5 -21t-1.5 -23q0 -18 5.5 -35.5t16.5 -30.5t29 -21t43 -8q57 0 95 37.5
t52 108.5l91 455h132zM576 780h-106l24 122h106zM367 780h-106l24 122h106z" />
    <glyph glyph-name="uni01DA" unicode="&#x1da;" 
d="M418 785h-99l-93 169h93l59 -94l99 94h101zM423 0h-119l9 50q-25 -27 -60.5 -41.5t-76.5 -14.5q-23 0 -46.5 8t-43 25.5t-31.5 44.5t-12 66q0 14 2 29.5t5 28.5l65 325h124l-64 -317q-2 -9 -3 -17.5t-1 -16.5q0 -34 19 -49.5t43 -15.5q13 0 29 4t31 15t27.5 30.5
t18.5 50.5l64 316h124zM492 603h-106l24 122h106zM283 603h-106l24 122h106z" />
    <glyph glyph-name="uni01DB" unicode="&#x1db;" horiz-adv-x="638" 
d="M504 962h-92l-71 168h118zM564 244q-13 -66 -40.5 -113t-65.5 -77.5t-84 -45t-95 -14.5q-45 0 -85 14t-69 40t-46 64t-17 85q0 14 2.5 32t4.5 29l91 454h132l-93 -462q-2 -8 -3.5 -21t-1.5 -23q0 -18 5.5 -35.5t16.5 -30.5t29 -21t43 -8q57 0 95 37.5t52 108.5l91 455
h132zM576 780h-106l24 122h106zM367 780h-106l24 122h106z" />
    <glyph glyph-name="uni01DC" unicode="&#x1dc;" 
d="M420 785h-91l-72 167h118zM423 0h-119l9 50q-25 -27 -60.5 -41.5t-76.5 -14.5q-23 0 -46.5 8t-43 25.5t-31.5 44.5t-12 66q0 14 2 29.5t5 28.5l65 325h124l-64 -317q-2 -9 -3 -17.5t-1 -16.5q0 -34 19 -49.5t43 -15.5q13 0 29 4t31 15t27.5 30.5t18.5 50.5l64 316h124z
M492 603h-106l24 122h106zM283 603h-106l24 122h106z" />
    <glyph glyph-name="uni01DD" unicode="&#x1dd;" horiz-adv-x="523" 
d="M231 -6q-41 0 -75 13t-58.5 37.5t-38 59t-13.5 76.5q0 26 4.5 57t11.5 61h312q2 9 3 18.5t1 18.5q0 38 -22 62.5t-67 24.5q-38 0 -67.5 -13.5t-56.5 -39.5l-65 82q41 38 92.5 57t110.5 19q34 0 68 -9.5t62 -31t45.5 -56.5t17.5 -86q0 -66 -16 -128.5t-49 -112t-83 -79.5
t-117 -30zM238 96q40 0 71.5 27.5t48.5 91.5h-191q-3 -17 -3 -35q0 -42 20.5 -63t53.5 -21z" />
    <glyph glyph-name="uni01DE" unicode="&#x1de;" horiz-adv-x="607" 
d="M552 0h-134l-15 130h-241l-67 -130h-141l388 712h105zM216 238h177l-34 274zM590 976h-302l17 82h301zM557 780h-106l24 122h106zM348 780h-106l24 122h106z" />
    <glyph glyph-name="uni01DF" unicode="&#x1df;" horiz-adv-x="509" 
d="M504 804h-302l17 82h301zM160 -6q-34 0 -61.5 10.5t-47 29t-30 43.5t-10.5 55q0 38 12 69t35 54q29 29 68 41.5t84 12.5h124l7 31q2 8 2.5 13.5t0.5 13.5q0 26 -19 41t-58 15q-38 0 -65 -13.5t-47 -35.5l-64 83q32 32 76 51t117 19q33 0 66 -7t59.5 -24t43 -44.5
t16.5 -69.5q0 -23 -5 -46l-68 -336h-119l9 45q-22 -22 -52.5 -36.5t-73.5 -14.5zM199 94q26 0 46.5 9t34.5 23q12 12 19.5 29.5t11.5 37.5l6 31h-95q-42 0 -65.5 -22.5t-23.5 -57.5q0 -22 16 -36t50 -14zM471 603h-106l24 122h106zM262 603h-106l24 122h106z" />
    <glyph glyph-name="uni01E0" unicode="&#x1e0;" horiz-adv-x="607" 
d="M552 0h-134l-15 130h-241l-67 -130h-141l388 712h105zM216 238h177l-34 274zM589 976h-302l17 82h301zM453 780h-106l24 122h106z" />
    <glyph glyph-name="uni01E1" unicode="&#x1e1;" horiz-adv-x="509" 
d="M504 803h-302l17 82h301zM160 -6q-34 0 -61.5 10.5t-47 29t-30 43.5t-10.5 55q0 38 12 69t35 54q29 29 68 41.5t84 12.5h124l7 31q2 8 2.5 13.5t0.5 13.5q0 26 -19 41t-58 15q-38 0 -65 -13.5t-47 -35.5l-64 83q32 32 76 51t117 19q33 0 66 -7t59.5 -24t43 -44.5
t16.5 -69.5q0 -23 -5 -46l-68 -336h-119l9 45q-22 -22 -52.5 -36.5t-73.5 -14.5zM199 94q26 0 46.5 9t34.5 23q12 12 19.5 29.5t11.5 37.5l6 31h-95q-42 0 -65.5 -22.5t-23.5 -57.5q0 -22 16 -36t50 -14zM366 603h-106l24 122h106z" />
    <glyph glyph-name="uni01E2" unicode="&#x1e2;" horiz-adv-x="942" 
d="M956 596h-312l-36 -179h269l-23 -116h-269l-37 -185h318l-23 -116h-451l33 163h-213l-112 -163h-146l496 712h529zM288 273h159l64 323zM910 792h-302l17 82h301z" />
    <glyph glyph-name="uni01E3" unicode="&#x1e3;" horiz-adv-x="802" 
d="M579 527q42 0 76 -13t58.5 -37t38 -58.5t13.5 -76.5q0 -26 -4.5 -57t-11.5 -62h-312q-2 -11 -3 -19t-1 -18q0 -38 22 -62.5t67 -24.5q38 0 67.5 13.5t56.5 39.5l65 -82q-41 -38 -92.5 -57t-110.5 -19q-45 0 -88 17t-70 56q-38 -42 -80.5 -57.5t-91.5 -15.5
q-78 0 -122.5 36t-44.5 102q0 75 46 121q29 29 67.5 42.5t85.5 13.5h125l6 29q3 13 3 29q0 26 -18.5 41t-58.5 15q-38 0 -65 -13t-47 -36l-64 83q32 32 76.5 51t117.5 19q41 0 80 -12t66 -44q29 26 66 41t82 15zM222 224q-42 0 -65.5 -22.5t-23.5 -57.5q0 -22 16 -35.5
t50 -13.5q26 0 46.5 9t34.5 23q13 12 20.5 28.5t11.5 36.5l6 32h-96zM573 425q-40 0 -71.5 -28t-48.5 -91h191q3 16 3 36q0 41 -20.5 62t-53.5 21zM615 619h-302l17 82h301z" />
    <glyph glyph-name="Gcaron" unicode="&#x1e6;" horiz-adv-x="615" 
d="M382 718q55 0 96 -17t68.5 -47t41 -70.5t13.5 -88.5h-132q-2 49 -25.5 78t-69.5 29q-31 0 -53.5 -10.5t-42.5 -30.5q-13 -13 -22.5 -30t-17.5 -41t-16 -56.5t-17 -77.5q-10 -45 -15 -84.5t-5 -65.5q0 -46 27.5 -71t68.5 -25q48 0 90 35.5t56 107.5l6 31h-124l22 110h254
l-19 -102q-14 -72 -36 -123.5t-62 -94.5q-38 -39 -88 -59.5t-109 -20.5q-55 0 -96 16.5t-68.5 44.5t-41 64.5t-13.5 76.5q0 61 21 160q13 63 23 105.5t21.5 74t26.5 54.5t37 47q39 42 93 61.5t108 19.5zM459 778h-99l-93 169h93l59 -94l99 94h101z" />
    <glyph glyph-name="gcaron" unicode="&#x1e7;" horiz-adv-x="527" 
d="M262 527q82 0 118 -59l10 53h120l-100 -501q-11 -57 -34.5 -98t-56.5 -67.5t-73.5 -39t-85.5 -12.5q-57 0 -98.5 16.5t-74.5 54.5l86 75q12 -14 31 -27.5t56 -13.5q52 0 84 31t43 82l11 53q-20 -24 -48.5 -38t-67.5 -14q-29 0 -55 9t-46 27.5t-31.5 46t-11.5 64.5
q0 19 3.5 46t9.5 60q14 75 31 122.5t47 77.5q29 29 63.5 40.5t69.5 11.5zM285 416q-48 0 -72 -35.5t-38 -106.5q-9 -48 -9 -72q0 -29 13.5 -49t48.5 -20q48 0 72 35.5t38 106.5q9 48 9 72q0 32 -15 50.5t-47 18.5zM369 601h-99l-93 169h93l59 -94l99 94h101z" />
    <glyph glyph-name="uni01E8" unicode="&#x1e8;" horiz-adv-x="644" 
d="M421 415l163 -415h-144l-125 329l-111 -110l-44 -219h-132l143 712h132l-62 -310l297 310h164zM483 778h-99l-93 169h93l59 -94l99 94h101z" />
    <glyph glyph-name="uni01E9" unicode="&#x1e9;" horiz-adv-x="536" 
d="M203 309l206 212h147l-218 -217l138 -304h-142l-90 227l-71 -66l-32 -161h-124l142 712h124zM285 784h-99l-93 169h93l59 -94l99 94h101z" />
    <glyph glyph-name="uni01EA" unicode="&#x1ea;" horiz-adv-x="611" 
d="M379 718q51 0 91 -16t67.5 -43.5t42 -64t14.5 -78.5q0 -24 -4 -62t-16 -98q-10 -52 -19.5 -93t-21 -74.5t-27 -61t-38.5 -51.5q-42 -45 -94.5 -63.5t-106.5 -18.5q-51 0 -91 16t-67.5 43.5t-42 64t-14.5 78.5q0 24 4 62t16 98q10 52 19.5 93t21 74.5t27 61t38.5 51.5
q42 45 94.5 63.5t106.5 18.5zM370 602q-56 0 -95 -43q-10 -11 -18.5 -25.5t-17 -38t-17 -57t-18.5 -82.5q-9 -45 -14.5 -84t-5.5 -65q0 -48 27.5 -72.5t64.5 -24.5q56 0 95 43q10 11 18.5 25.5t17 37.5t17 57t18.5 83q9 45 14.5 84t5.5 65q0 48 -27 72.5t-65 24.5zM225 -201
h-114l86 144h98z" />
    <glyph glyph-name="uni01EB" unicode="&#x1eb;" horiz-adv-x="516" 
d="M302 527q33 0 64.5 -10t56 -31t40 -53.5t15.5 -77.5q0 -24 -3.5 -50.5t-6.5 -43.5q-8 -41 -17.5 -72.5t-20.5 -56t-24.5 -43.5t-30.5 -35q-30 -29 -70 -44.5t-90 -15.5q-33 0 -65 10t-56.5 31t-40 53.5t-15.5 77.5q0 24 3.5 50.5t7.5 44.5q8 41 17 72t20.5 55.5t25 43
t30.5 35.5q29 29 69.5 44.5t90.5 15.5zM289 416q-38 0 -64 -26q-19 -18 -31 -49.5t-22 -79.5q-7 -34 -9 -53t-2 -28q0 -38 18.5 -56.5t47.5 -18.5q20 0 36 7t28 19q19 18 31.5 49.5t21.5 80.5q7 33 9 52.5t2 27.5q0 38 -18.5 56.5t-47.5 18.5zM175 -201h-114l86 144h98z" />
    <glyph glyph-name="uni01EC" unicode="&#x1ec;" horiz-adv-x="611" 
d="M379 718q51 0 91 -16t67.5 -43.5t42 -64t14.5 -78.5q0 -24 -4 -62t-16 -98q-10 -52 -19.5 -93t-21 -74.5t-27 -61t-38.5 -51.5q-42 -45 -94.5 -63.5t-106.5 -18.5q-51 0 -91 16t-67.5 43.5t-42 64t-14.5 78.5q0 24 4 62t16 98q10 52 19.5 93t21 74.5t27 61t38.5 51.5
q42 45 94.5 63.5t106.5 18.5zM370 602q-56 0 -95 -43q-10 -11 -18.5 -25.5t-17 -38t-17 -57t-18.5 -82.5q-9 -45 -14.5 -84t-5.5 -65q0 -48 27.5 -72.5t64.5 -24.5q56 0 95 43q10 11 18.5 25.5t17 37.5t17 57t18.5 83q9 45 14.5 84t5.5 65q0 48 -27 72.5t-65 24.5zM562 792
h-302l17 82h301zM225 -201h-114l86 144h98z" />
    <glyph glyph-name="uni01ED" unicode="&#x1ed;" horiz-adv-x="516" 
d="M480 619h-302l17 82h301zM302 527q33 0 64.5 -10t56 -31t40 -53.5t15.5 -77.5q0 -24 -3.5 -50.5t-6.5 -43.5q-8 -41 -17.5 -72.5t-20.5 -56t-24.5 -43.5t-30.5 -35q-30 -29 -70 -44.5t-90 -15.5q-33 0 -65 10t-56.5 31t-40 53.5t-15.5 77.5q0 24 3.5 50.5t7.5 44.5
q8 41 17 72t20.5 55.5t25 43t30.5 35.5q29 29 69.5 44.5t90.5 15.5zM289 416q-38 0 -64 -26q-19 -18 -31 -49.5t-22 -79.5q-7 -34 -9 -53t-2 -28q0 -38 18.5 -56.5t47.5 -18.5q20 0 36 7t28 19q19 18 31.5 49.5t21.5 80.5q7 33 9 52.5t2 27.5q0 38 -18.5 56.5t-47.5 18.5z
M175 -201h-114l86 144h98z" />
    <glyph glyph-name="uni01F0" unicode="&#x1f0;" horiz-adv-x="262" 
d="M133 -48q-14 -69 -56.5 -108t-111.5 -39h-77l21 105h45q23 0 37 14.5t19 38.5l109 542h124zM245 601h-99l-93 169h93l59 -94l99 94h101z" />
    <glyph glyph-name="uni01F4" unicode="&#x1f4;" horiz-adv-x="615" 
d="M382 718q55 0 96 -17t68.5 -47t41 -70.5t13.5 -88.5h-132q-2 49 -25.5 78t-69.5 29q-31 0 -53.5 -10.5t-42.5 -30.5q-13 -13 -22.5 -30t-17.5 -41t-16 -56.5t-17 -77.5q-10 -45 -15 -84.5t-5 -65.5q0 -46 27.5 -71t68.5 -25q48 0 90 35.5t56 107.5l6 31h-124l22 110h254
l-19 -102q-14 -72 -36 -123.5t-62 -94.5q-38 -39 -88 -59.5t-109 -20.5q-55 0 -96 16.5t-68.5 44.5t-41 64.5t-13.5 76.5q0 61 21 160q13 63 23 105.5t21.5 74t26.5 54.5t37 47q39 42 93 61.5t108 19.5zM451 778h-99l110 168h120z" />
    <glyph glyph-name="uni01F5" unicode="&#x1f5;" horiz-adv-x="527" 
d="M262 527q82 0 118 -59l10 53h120l-100 -501q-11 -57 -34.5 -98t-56.5 -67.5t-73.5 -39t-85.5 -12.5q-57 0 -98.5 16.5t-74.5 54.5l86 75q12 -14 31 -27.5t56 -13.5q52 0 84 31t43 82l11 53q-20 -24 -48.5 -38t-67.5 -14q-29 0 -55 9t-46 27.5t-31.5 46t-11.5 64.5
q0 19 3.5 46t9.5 60q14 75 31 122.5t47 77.5q29 29 63.5 40.5t69.5 11.5zM285 416q-48 0 -72 -35.5t-38 -106.5q-9 -48 -9 -72q0 -29 13.5 -49t48.5 -20q48 0 72 35.5t38 106.5q9 48 9 72q0 32 -15 50.5t-47 18.5zM365 601h-100l111 167h119z" />
    <glyph glyph-name="uni01F8" unicode="&#x1f8;" horiz-adv-x="680" 
d="M547 0h-112l-185 445l-90 -445h-132l143 712h112l186 -446l89 446h132zM478 778h-92l-71 168h118z" />
    <glyph glyph-name="uni01F9" unicode="&#x1f9;" 
d="M368 527q23 0 46.5 -8t43 -25.5t31.5 -44.5t12 -66q0 -14 -2 -29.5t-5 -28.5l-65 -325h-124l64 317q2 9 3 17.5t1 16.5q0 34 -19 49.5t-43 15.5q-14 0 -30 -4t-31 -15t-27 -30.5t-18 -50.5l-64 -316h-124l104 521h119l-9 -50q25 27 60.5 41.5t76.5 14.5zM395 601h-91
l-72 167h118z" />
    <glyph glyph-name="Aringacute" unicode="&#x1fa;" horiz-adv-x="607" 
d="M302 640q-17 17 -26.5 40t-9.5 49t10 49t27 40.5t40 27.5t49 10t49 -10t40.5 -27.5t27.5 -40.5t10 -49q0 -34 -16 -62t-43 -45l92 -622h-134l-15 130h-241l-67 -130h-141zM393 238l-34 274l-143 -274h177zM392 671q24 0 41 17t17 41t-17 41t-41 17t-41 -17t-17 -41
t17 -41t41 -17zM476 1057h120l-130 -168h-100z" />
    <glyph glyph-name="aringacute" unicode="&#x1fb;" horiz-adv-x="509" 
d="M411 867h-100l111 167h119zM160 -6q-34 0 -61.5 10.5t-47 29t-30 43.5t-10.5 55q0 38 12 69t35 54q29 29 68 41.5t84 12.5h124l7 31q2 8 2.5 13.5t0.5 13.5q0 26 -19 41t-58 15q-38 0 -65 -13.5t-47 -35.5l-64 83q32 32 76 51t117 19q33 0 66 -7t59.5 -24t43 -44.5
t16.5 -69.5q0 -23 -5 -46l-68 -336h-119l9 45q-22 -22 -52.5 -36.5t-73.5 -14.5zM199 94q26 0 46.5 9t34.5 23q12 12 19.5 29.5t11.5 37.5l6 31h-95q-42 0 -65.5 -22.5t-23.5 -57.5q0 -22 16 -36t50 -14zM334 837q26 0 49 -9.5t40.5 -26.5t27.5 -40t10 -50t-10 -50.5
t-27.5 -40.5t-40.5 -26.5t-49 -9.5t-49 9.5t-40 26.5t-27 40.5t-10 50.5t10 50t27 40t40 26.5t49 9.5zM334 768q-23 0 -40.5 -17t-17.5 -40q0 -24 17.5 -41.5t40.5 -17.5t41 17.5t18 41.5q0 23 -18 40t-41 17z" />
    <glyph glyph-name="AEacute" unicode="&#x1fc;" horiz-adv-x="942" 
d="M956 596h-312l-36 -179h269l-23 -116h-269l-37 -185h318l-23 -116h-451l33 163h-213l-112 -163h-146l496 712h529zM288 273h159l64 323zM799 778h-99l110 168h120z" />
    <glyph glyph-name="aeacute" unicode="&#x1fd;" horiz-adv-x="802" 
d="M579 527q42 0 76 -13t58.5 -37t38 -58.5t13.5 -76.5q0 -26 -4.5 -57t-11.5 -62h-312q-2 -11 -3 -19t-1 -18q0 -38 22 -62.5t67 -24.5q38 0 67.5 13.5t56.5 39.5l65 -82q-41 -38 -92.5 -57t-110.5 -19q-45 0 -88 17t-70 56q-38 -42 -80.5 -57.5t-91.5 -15.5
q-78 0 -122.5 36t-44.5 102q0 75 46 121q29 29 67.5 42.5t85.5 13.5h125l6 29q3 13 3 29q0 26 -18.5 41t-58.5 15q-38 0 -65 -13t-47 -36l-64 83q32 32 76.5 51t117.5 19q41 0 80 -12t66 -44q29 26 66 41t82 15zM222 224q-42 0 -65.5 -22.5t-23.5 -57.5q0 -22 16 -35.5
t50 -13.5q26 0 46.5 9t34.5 23q13 12 20.5 28.5t11.5 36.5l6 32h-96zM573 425q-40 0 -71.5 -28t-48.5 -91h191q3 16 3 36q0 41 -20.5 62t-53.5 21zM507 601h-100l111 167h119z" />
    <glyph glyph-name="Oslashacute" unicode="&#x1fe;" horiz-adv-x="610" 
d="M595 516q0 -24 -4 -62t-16 -98q-10 -52 -19.5 -93t-21 -74.5t-27 -61t-38.5 -51.5q-42 -45 -94.5 -63.5t-106.5 -18.5q-64 0 -112 25l-41 -63h-96l75 114q-41 53 -41 126q0 24 4 62t16 98q10 52 19.5 93t21 74.5t27 61t38.5 51.5q42 45 94.5 63.5t106.5 18.5
q33 0 61.5 -7t52.5 -20l42 65h96l-76 -117q39 -53 39 -123zM185 202l244 381q-25 19 -58 19q-56 0 -95 -43q-10 -11 -18.5 -25.5t-17 -38t-17 -57t-18.5 -82.5q-9 -45 -14.5 -84t-5.5 -65v-5zM463 508l-244 -380q24 -18 58 -18q56 0 95 43q10 11 18.5 25.5t17 37.5t17 57
t18.5 83q9 45 14.5 84t5.5 65v3zM451 778h-99l110 168h120z" />
    <glyph glyph-name="oslashacute" unicode="&#x1ff;" horiz-adv-x="516" 
d="M446 460q14 -20 22.5 -46t8.5 -59q0 -24 -3.5 -50.5t-6.5 -43.5q-8 -41 -17.5 -72.5t-20.5 -56t-24.5 -43.5t-30.5 -35q-30 -29 -70 -44.5t-90 -15.5q-26 0 -51.5 6t-48.5 20l-46 -64h-76l77 104q-15 20 -23.5 46t-8.5 60q0 24 3.5 50.5t7.5 44.5q8 41 17 72t20.5 55.5
t25 43t30.5 35.5q29 29 69.5 44.5t90.5 15.5q26 0 51.5 -6t48.5 -20l48 62h76zM184 118q16 -13 42 -13q20 0 36 7t28 19q19 18 31.5 49.5t21.5 80.5q7 33 9 52.5t2 27.5v6zM288 416q-38 0 -64 -26q-19 -18 -31 -49.5t-22 -79.5q-7 -34 -8.5 -55t-1.5 -38l172 232
q-16 16 -45 16zM372 601h-100l111 167h119z" />
    <glyph glyph-name="uni0200" unicode="&#x200;" horiz-adv-x="607" 
d="M552 0h-134l-15 130h-241l-67 -130h-141l388 712h105zM216 238h177l-34 274zM541 778h-91l-72 167h118zM340 778h-91l-72 167h118z" />
    <glyph glyph-name="uni0201" unicode="&#x201;" horiz-adv-x="509" 
d="M160 -6q-34 0 -61.5 10.5t-47 29t-30 43.5t-10.5 55q0 38 12 69t35 54q29 29 68 41.5t84 12.5h124l7 31q2 8 2.5 13.5t0.5 13.5q0 26 -19 41t-58 15q-38 0 -65 -13.5t-47 -35.5l-64 83q32 32 76 51t117 19q33 0 66 -7t59.5 -24t43 -44.5t16.5 -69.5q0 -23 -5 -46
l-68 -336h-119l9 45q-22 -22 -52.5 -36.5t-73.5 -14.5zM199 94q26 0 46.5 9t34.5 23q12 12 19.5 29.5t11.5 37.5l6 31h-95q-42 0 -65.5 -22.5t-23.5 -57.5q0 -22 16 -36t50 -14zM456 601h-91l-72 167h118zM255 601h-91l-72 167h118z" />
    <glyph glyph-name="uni0202" unicode="&#x202;" horiz-adv-x="607" 
d="M552 0h-134l-15 130h-241l-67 -130h-141l388 712h105zM216 238h177l-34 274zM417 922q66 0 100 -32t34 -81q0 -15 -3 -31h-82q1 8 1 11v5q0 23 -17.5 33.5t-41.5 10.5q-27 0 -46.5 -13.5t-27.5 -46.5h-84q16 78 58 111t109 33z" />
    <glyph glyph-name="uni0203" unicode="&#x203;" horiz-adv-x="509" 
d="M160 -6q-34 0 -61.5 10.5t-47 29t-30 43.5t-10.5 55q0 38 12 69t35 54q29 29 68 41.5t84 12.5h124l7 31q2 8 2.5 13.5t0.5 13.5q0 26 -19 41t-58 15q-38 0 -65 -13.5t-47 -35.5l-64 83q32 32 76 51t117 19q33 0 66 -7t59.5 -24t43 -44.5t16.5 -69.5q0 -23 -5 -46
l-68 -336h-119l9 45q-22 -22 -52.5 -36.5t-73.5 -14.5zM199 94q26 0 46.5 9t34.5 23q12 12 19.5 29.5t11.5 37.5l6 31h-95q-42 0 -65.5 -22.5t-23.5 -57.5q0 -22 16 -36t50 -14zM329 745q66 0 100 -32t34 -81q0 -15 -3 -31h-82q1 8 1 11v5q0 23 -17.5 33.5t-41.5 10.5
q-27 0 -46.5 -13.5t-27.5 -46.5h-84q16 78 58 111t109 33z" />
    <glyph glyph-name="uni0204" unicode="&#x204;" horiz-adv-x="578" 
d="M592 596h-312l-36 -179h269l-23 -116h-269l-37 -185h318l-23 -116h-451l143 712h444zM538 778h-91l-72 167h118zM337 778h-91l-72 167h118z" />
    <glyph glyph-name="uni0205" unicode="&#x205;" horiz-adv-x="523" 
d="M301 527q41 0 75 -13t58.5 -37.5t38 -59t13.5 -76.5q0 -26 -4.5 -57t-11.5 -61h-312q-2 -9 -3 -18.5t-1 -18.5q0 -38 22 -62.5t67 -24.5q38 0 67.5 13.5t56.5 39.5l65 -82q-41 -38 -92.5 -57t-110.5 -19q-34 0 -68.5 9.5t-62 31t-45 56.5t-17.5 86q0 66 16 128.5t49 112
t82.5 79.5t117.5 30zM294 425q-40 0 -71.5 -27.5t-48.5 -91.5h191q3 16 3 35q0 42 -20.5 63t-53.5 21zM469 601h-91l-72 167h118zM268 601h-91l-72 167h118z" />
    <glyph glyph-name="uni0206" unicode="&#x206;" horiz-adv-x="578" 
d="M592 596h-312l-36 -179h269l-23 -116h-269l-37 -185h318l-23 -116h-451l143 712h444zM414 922q66 0 100 -32t34 -81q0 -15 -3 -31h-82q1 8 1 11v5q0 23 -17.5 33.5t-41.5 10.5q-27 0 -46.5 -13.5t-27.5 -46.5h-84q16 78 58 111t109 33z" />
    <glyph glyph-name="uni0207" unicode="&#x207;" horiz-adv-x="523" 
d="M301 527q41 0 75 -13t58.5 -37.5t38 -59t13.5 -76.5q0 -26 -4.5 -57t-11.5 -61h-312q-2 -9 -3 -18.5t-1 -18.5q0 -38 22 -62.5t67 -24.5q38 0 67.5 13.5t56.5 39.5l65 -82q-41 -38 -92.5 -57t-110.5 -19q-34 0 -68.5 9.5t-62 31t-45 56.5t-17.5 86q0 66 16 128.5t49 112
t82.5 79.5t117.5 30zM294 425q-40 0 -71.5 -27.5t-48.5 -91.5h191q3 16 3 35q0 42 -20.5 63t-53.5 21zM342 745q66 0 100 -32t34 -81q0 -15 -3 -31h-82q1 8 1 11v5q0 23 -17.5 33.5t-41.5 10.5q-27 0 -46.5 -13.5t-27.5 -46.5h-84q16 78 58 111t109 33z" />
    <glyph glyph-name="uni0208" unicode="&#x208;" horiz-adv-x="293" 
d="M160 0h-132l143 712h132zM391 778h-91l-72 167h118zM190 778h-91l-72 167h118z" />
    <glyph glyph-name="uni0209" unicode="&#x209;" horiz-adv-x="262" 
d="M142 0h-124l101 505h124zM343 601h-91l-72 167h118zM142 601h-91l-72 167h118z" />
    <glyph glyph-name="uni020A" unicode="&#x20a;" horiz-adv-x="293" 
d="M160 0h-132l143 712h132zM267 922q66 0 100 -32t34 -81q0 -15 -3 -31h-82q1 8 1 11v5q0 23 -17.5 33.5t-41.5 10.5q-27 0 -46.5 -13.5t-27.5 -46.5h-84q16 78 58 111t109 33z" />
    <glyph glyph-name="uni020B" unicode="&#x20b;" horiz-adv-x="262" 
d="M142 0h-124l101 505h124zM216 745q66 0 100 -32t34 -81q0 -15 -3 -31h-82q1 8 1 11v5q0 23 -17.5 33.5t-41.5 10.5q-27 0 -46.5 -13.5t-27.5 -46.5h-84q16 78 58 111t109 33z" />
    <glyph glyph-name="uni020C" unicode="&#x20c;" horiz-adv-x="611" 
d="M379 718q51 0 91 -16t67.5 -43.5t42 -64t14.5 -78.5q0 -24 -4 -62t-16 -98q-10 -52 -19.5 -93t-21 -74.5t-27 -61t-38.5 -51.5q-42 -45 -94.5 -63.5t-106.5 -18.5q-51 0 -91 16t-67.5 43.5t-42 64t-14.5 78.5q0 24 4 62t16 98q10 52 19.5 93t21 74.5t27 61t38.5 51.5
q42 45 94.5 63.5t106.5 18.5zM370 602q-56 0 -95 -43q-10 -11 -18.5 -25.5t-17 -38t-17 -57t-18.5 -82.5q-9 -45 -14.5 -84t-5.5 -65q0 -48 27.5 -72.5t64.5 -24.5q56 0 95 43q10 11 18.5 25.5t17 37.5t17 57t18.5 83q9 45 14.5 84t5.5 65q0 48 -27 72.5t-65 24.5zM550 778
h-91l-72 167h118zM349 778h-91l-72 167h118z" />
    <glyph glyph-name="uni020D" unicode="&#x20d;" horiz-adv-x="516" 
d="M302 527q33 0 64.5 -10t56 -31t40 -53.5t15.5 -77.5q0 -24 -3.5 -50.5t-6.5 -43.5q-8 -41 -17.5 -72.5t-20.5 -56t-24.5 -43.5t-30.5 -35q-30 -29 -70 -44.5t-90 -15.5q-33 0 -65 10t-56.5 31t-40 53.5t-15.5 77.5q0 24 3.5 50.5t7.5 44.5q8 41 17 72t20.5 55.5t25 43
t30.5 35.5q29 29 69.5 44.5t90.5 15.5zM289 416q-38 0 -64 -26q-19 -18 -31 -49.5t-22 -79.5q-7 -34 -9 -53t-2 -28q0 -38 18.5 -56.5t47.5 -18.5q20 0 36 7t28 19q19 18 31.5 49.5t21.5 80.5q7 33 9 52.5t2 27.5q0 38 -18.5 56.5t-47.5 18.5zM469 601h-91l-72 167h118z
M268 601h-91l-72 167h118z" />
    <glyph glyph-name="uni020E" unicode="&#x20e;" horiz-adv-x="611" 
d="M379 718q51 0 91 -16t67.5 -43.5t42 -64t14.5 -78.5q0 -24 -4 -62t-16 -98q-10 -52 -19.5 -93t-21 -74.5t-27 -61t-38.5 -51.5q-42 -45 -94.5 -63.5t-106.5 -18.5q-51 0 -91 16t-67.5 43.5t-42 64t-14.5 78.5q0 24 4 62t16 98q10 52 19.5 93t21 74.5t27 61t38.5 51.5
q42 45 94.5 63.5t106.5 18.5zM370 602q-56 0 -95 -43q-10 -11 -18.5 -25.5t-17 -38t-17 -57t-18.5 -82.5q-9 -45 -14.5 -84t-5.5 -65q0 -48 27.5 -72.5t64.5 -24.5q56 0 95 43q10 11 18.5 25.5t17 37.5t17 57t18.5 83q9 45 14.5 84t5.5 65q0 48 -27 72.5t-65 24.5zM426 922
q66 0 100 -32t34 -81q0 -15 -3 -31h-82q1 8 1 11v5q0 23 -17.5 33.5t-41.5 10.5q-27 0 -46.5 -13.5t-27.5 -46.5h-84q16 78 58 111t109 33z" />
    <glyph glyph-name="uni020F" unicode="&#x20f;" horiz-adv-x="516" 
d="M302 527q33 0 64.5 -10t56 -31t40 -53.5t15.5 -77.5q0 -24 -3.5 -50.5t-6.5 -43.5q-8 -41 -17.5 -72.5t-20.5 -56t-24.5 -43.5t-30.5 -35q-30 -29 -70 -44.5t-90 -15.5q-33 0 -65 10t-56.5 31t-40 53.5t-15.5 77.5q0 24 3.5 50.5t7.5 44.5q8 41 17 72t20.5 55.5t25 43
t30.5 35.5q29 29 69.5 44.5t90.5 15.5zM289 416q-38 0 -64 -26q-19 -18 -31 -49.5t-22 -79.5q-7 -34 -9 -53t-2 -28q0 -38 18.5 -56.5t47.5 -18.5q20 0 36 7t28 19q19 18 31.5 49.5t21.5 80.5q7 33 9 52.5t2 27.5q0 38 -18.5 56.5t-47.5 18.5zM342 745q66 0 100 -32t34 -81
q0 -15 -3 -31h-82q1 8 1 11v5q0 23 -17.5 33.5t-41.5 10.5q-27 0 -46.5 -13.5t-27.5 -46.5h-84q16 78 58 111t109 33z" />
    <glyph glyph-name="uni0210" unicode="&#x210;" horiz-adv-x="625" 
d="M421 712q54 0 91 -16t60 -42t33 -61t10 -72q0 -33 -10.5 -66t-31 -62t-51.5 -52.5t-73 -37.5l98 -303h-145l-83 288h-100l-59 -288h-132l143 712h250zM280 595l-40 -197h120q34 0 57.5 11.5t38 29t21 37.5t6.5 38q0 38 -21 59.5t-62 21.5h-120zM546 778h-91l-72 167h118z
M345 778h-91l-72 167h118z" />
    <glyph glyph-name="uni0211" unicode="&#x211;" horiz-adv-x="429" 
d="M362 527q38 0 64 -12t47 -37l-107 -95q-10 13 -23.5 22.5t-33.5 9.5q-37 0 -66.5 -27.5t-38.5 -72.5l-63 -315h-124l104 521h120l-11 -51q22 26 56.5 41.5t75.5 15.5zM415 601h-91l-72 167h118zM214 601h-91l-72 167h118z" />
    <glyph glyph-name="uni0212" unicode="&#x212;" horiz-adv-x="625" 
d="M421 712q54 0 91 -16t60 -42t33 -61t10 -72q0 -33 -10.5 -66t-31 -62t-51.5 -52.5t-73 -37.5l98 -303h-145l-83 288h-100l-59 -288h-132l143 712h250zM280 595l-40 -197h120q34 0 57.5 11.5t38 29t21 37.5t6.5 38q0 38 -21 59.5t-62 21.5h-120zM422 922q66 0 100 -32
t34 -81q0 -15 -3 -31h-82q1 8 1 11v5q0 23 -17.5 33.5t-41.5 10.5q-27 0 -46.5 -13.5t-27.5 -46.5h-84q16 78 58 111t109 33z" />
    <glyph glyph-name="uni0213" unicode="&#x213;" horiz-adv-x="429" 
d="M362 527q38 0 64 -12t47 -37l-107 -95q-10 13 -23.5 22.5t-33.5 9.5q-37 0 -66.5 -27.5t-38.5 -72.5l-63 -315h-124l104 521h120l-11 -51q22 26 56.5 41.5t75.5 15.5zM288 745q66 0 100 -32t34 -81q0 -15 -3 -31h-82q1 8 1 11v5q0 23 -17.5 33.5t-41.5 10.5
q-27 0 -46.5 -13.5t-27.5 -46.5h-84q16 78 58 111t109 33z" />
    <glyph glyph-name="uni0214" unicode="&#x214;" horiz-adv-x="638" 
d="M564 244q-13 -66 -40.5 -113t-65.5 -77.5t-84 -45t-95 -14.5q-45 0 -85 14t-69 40t-46 64t-17 85q0 14 2.5 32t4.5 29l91 454h132l-93 -462q-2 -8 -3.5 -21t-1.5 -23q0 -18 5.5 -35.5t16.5 -30.5t29 -21t43 -8q57 0 95 37.5t52 108.5l91 455h132zM560 778h-91l-72 167
h118zM359 778h-91l-72 167h118z" />
    <glyph glyph-name="uni0215" unicode="&#x215;" 
d="M423 0h-119l9 50q-25 -27 -60.5 -41.5t-76.5 -14.5q-23 0 -46.5 8t-43 25.5t-31.5 44.5t-12 66q0 14 2 29.5t5 28.5l65 325h124l-64 -317q-2 -9 -3 -17.5t-1 -16.5q0 -34 19 -49.5t43 -15.5q13 0 29 4t31 15t27.5 30.5t18.5 50.5l64 316h124zM477 601h-91l-72 167h118z
M276 601h-91l-72 167h118z" />
    <glyph glyph-name="uni0216" unicode="&#x216;" horiz-adv-x="638" 
d="M564 244q-13 -66 -40.5 -113t-65.5 -77.5t-84 -45t-95 -14.5q-45 0 -85 14t-69 40t-46 64t-17 85q0 14 2.5 32t4.5 29l91 454h132l-93 -462q-2 -8 -3.5 -21t-1.5 -23q0 -18 5.5 -35.5t16.5 -30.5t29 -21t43 -8q57 0 95 37.5t52 108.5l91 455h132zM436 922q66 0 100 -32
t34 -81q0 -15 -3 -31h-82q1 8 1 11v5q0 23 -17.5 33.5t-41.5 10.5q-27 0 -46.5 -13.5t-27.5 -46.5h-84q16 78 58 111t109 33z" />
    <glyph glyph-name="uni0217" unicode="&#x217;" 
d="M423 0h-119l9 50q-25 -27 -60.5 -41.5t-76.5 -14.5q-23 0 -46.5 8t-43 25.5t-31.5 44.5t-12 66q0 14 2 29.5t5 28.5l65 325h124l-64 -317q-2 -9 -3 -17.5t-1 -16.5q0 -34 19 -49.5t43 -15.5q13 0 29 4t31 15t27.5 30.5t18.5 50.5l64 316h124zM350 745q66 0 100 -32
t34 -81q0 -15 -3 -31h-82q1 8 1 11v5q0 23 -17.5 33.5t-41.5 10.5q-27 0 -46.5 -13.5t-27.5 -46.5h-84q16 78 58 111t109 33z" />
    <glyph glyph-name="uni0218" unicode="&#x218;" horiz-adv-x="563" 
d="M373 718q63 0 116 -21t88 -65l-93 -81q-23 28 -53.5 40t-72.5 12q-31 0 -55.5 -9.5t-41.5 -25t-26 -35t-9 -38.5q0 -17 6 -28.5t16.5 -19.5t24.5 -13t29 -9l59 -14q88 -22 124.5 -65.5t36.5 -119.5q0 -60 -23.5 -104t-63 -72.5t-91 -42t-107.5 -13.5q-84 0 -139.5 22.5
t-100.5 75.5l96 84q29 -34 67 -49.5t89 -15.5q30 0 55.5 8t44.5 22t30 32.5t11 40.5q0 38 -20.5 54.5t-54.5 24.5l-59 15q-88 22 -125 68t-37 101q0 51 19 95t55 76.5t88 51t117 18.5zM210 -201h-114l86 144h98z" />
    <glyph glyph-name="uni0219" unicode="&#x219;" horiz-adv-x="475" 
d="M286 527q56 0 97.5 -14.5t75.5 -49.5l-85 -75q-18 19 -44.5 28t-54.5 9q-48 0 -69.5 -19.5t-21.5 -43.5q0 -32 48 -39l67 -11q70 -11 98 -46t28 -89q0 -39 -15 -70t-41 -56q-32 -31 -81 -44t-100 -13q-70 0 -118 20t-83 58l89 78q20 -23 47.5 -36.5t72.5 -13.5
q54 0 80 21t26 44q0 21 -13 30t-36 13l-68 11q-36 6 -60 18.5t-38.5 28.5t-20.5 34.5t-6 36.5q0 36 13.5 70t39.5 60q60 60 173 60zM164 -201h-114l86 144h98z" />
    <glyph glyph-name="uni021A" unicode="&#x21a;" 
d="M582 595h-175l-119 -595h-132l119 595h-179l23 117h486zM195 -201h-114l86 144h98z" />
    <glyph glyph-name="uni021B" unicode="&#x21b;" horiz-adv-x="336" 
d="M254 505h86l-19 -95h-86l-49 -244q-2 -6 -2.5 -14t-0.5 -13q0 -34 44 -34h41l-21 -105h-55q-73 0 -106 35q-30 32 -30 78q0 14 2.5 29.5t4.5 26.5l48 241h-52l19 95h52l31 156h124zM64 -57h98l-70 -144h-114z" />
    <glyph glyph-name="uni0226" unicode="&#x226;" horiz-adv-x="607" 
d="M552 0h-134l-15 130h-241l-67 -130h-141l388 712h105zM216 238h177l-34 274zM453 780h-106l24 122h106z" />
    <glyph glyph-name="uni0227" unicode="&#x227;" horiz-adv-x="509" 
d="M160 -6q-34 0 -61.5 10.5t-47 29t-30 43.5t-10.5 55q0 38 12 69t35 54q29 29 68 41.5t84 12.5h124l7 31q2 8 2.5 13.5t0.5 13.5q0 26 -19 41t-58 15q-38 0 -65 -13.5t-47 -35.5l-64 83q32 32 76 51t117 19q33 0 66 -7t59.5 -24t43 -44.5t16.5 -69.5q0 -23 -5 -46
l-68 -336h-119l9 45q-22 -22 -52.5 -36.5t-73.5 -14.5zM199 94q26 0 46.5 9t34.5 23q12 12 19.5 29.5t11.5 37.5l6 31h-95q-42 0 -65.5 -22.5t-23.5 -57.5q0 -22 16 -36t50 -14zM366 603h-106l24 122h106z" />
    <glyph glyph-name="uni0228" unicode="&#x228;" horiz-adv-x="578" 
d="M592 596h-312l-36 -179h269l-23 -116h-269l-37 -185h318l-23 -116h-451l143 712h444zM213 -201h-114l86 144h98z" />
    <glyph glyph-name="uni0229" unicode="&#x229;" horiz-adv-x="523" 
d="M301 527q41 0 75 -13t58.5 -37.5t38 -59t13.5 -76.5q0 -26 -4.5 -57t-11.5 -61h-312q-2 -9 -3 -18.5t-1 -18.5q0 -38 22 -62.5t67 -24.5q38 0 67.5 13.5t56.5 39.5l65 -82q-41 -38 -92.5 -57t-110.5 -19q-34 0 -68.5 9.5t-62 31t-45 56.5t-17.5 86q0 66 16 128.5t49 112
t82.5 79.5t117.5 30zM294 425q-40 0 -71.5 -27.5t-48.5 -91.5h191q3 16 3 35q0 42 -20.5 63t-53.5 21zM147 -57h98l-70 -144h-114z" />
    <glyph glyph-name="uni022A" unicode="&#x22a;" horiz-adv-x="611" 
d="M596 976h-302l17 82h301zM379 718q51 0 91 -16t67.5 -43.5t42 -64t14.5 -78.5q0 -24 -4 -62t-16 -98q-10 -52 -19.5 -93t-21 -74.5t-27 -61t-38.5 -51.5q-42 -45 -94.5 -63.5t-106.5 -18.5q-51 0 -91 16t-67.5 43.5t-42 64t-14.5 78.5q0 24 4 62t16 98q10 52 19.5 93
t21 74.5t27 61t38.5 51.5q42 45 94.5 63.5t106.5 18.5zM370 602q-56 0 -95 -43q-10 -11 -18.5 -25.5t-17 -38t-17 -57t-18.5 -82.5q-9 -45 -14.5 -84t-5.5 -65q0 -48 27.5 -72.5t64.5 -24.5q56 0 95 43q10 11 18.5 25.5t17 37.5t17 57t18.5 83q9 45 14.5 84t5.5 65
q0 48 -27 72.5t-65 24.5zM566 780h-106l24 122h106zM357 780h-106l24 122h106z" />
    <glyph glyph-name="uni022B" unicode="&#x22b;" horiz-adv-x="516" 
d="M514 803h-302l17 82h301zM302 527q33 0 64.5 -10t56 -31t40 -53.5t15.5 -77.5q0 -24 -3.5 -50.5t-6.5 -43.5q-8 -41 -17.5 -72.5t-20.5 -56t-24.5 -43.5t-30.5 -35q-30 -29 -70 -44.5t-90 -15.5q-33 0 -65 10t-56.5 31t-40 53.5t-15.5 77.5q0 24 3.5 50.5t7.5 44.5
q8 41 17 72t20.5 55.5t25 43t30.5 35.5q29 29 69.5 44.5t90.5 15.5zM289 416q-38 0 -64 -26q-19 -18 -31 -49.5t-22 -79.5q-7 -34 -9 -53t-2 -28q0 -38 18.5 -56.5t47.5 -18.5q20 0 36 7t28 19q19 18 31.5 49.5t21.5 80.5q7 33 9 52.5t2 27.5q0 38 -18.5 56.5t-47.5 18.5z
M484 603h-106l24 122h106zM275 603h-106l24 122h106z" />
    <glyph glyph-name="uni022C" unicode="&#x22c;" horiz-adv-x="611" 
d="M596 976h-302l17 82h301zM379 718q51 0 91 -16t67.5 -43.5t42 -64t14.5 -78.5q0 -24 -4 -62t-16 -98q-10 -52 -19.5 -93t-21 -74.5t-27 -61t-38.5 -51.5q-42 -45 -94.5 -63.5t-106.5 -18.5q-51 0 -91 16t-67.5 43.5t-42 64t-14.5 78.5q0 24 4 62t16 98q10 52 19.5 93
t21 74.5t27 61t38.5 51.5q42 45 94.5 63.5t106.5 18.5zM370 602q-56 0 -95 -43q-10 -11 -18.5 -25.5t-17 -38t-17 -57t-18.5 -82.5q-9 -45 -14.5 -84t-5.5 -65q0 -48 27.5 -72.5t64.5 -24.5q56 0 95 43q10 11 18.5 25.5t17 37.5t17 57t18.5 83q9 45 14.5 84t5.5 65
q0 48 -27 72.5t-65 24.5zM356 910q26 0 44 -6.5t33 -15.5t26.5 -13t26.5 -4q19 0 33.5 8t28.5 22l45 -59q-28 -26 -53.5 -39t-57.5 -13q-26 0 -44 6.5t-33 15.5t-26.5 13t-26.5 4q-19 0 -33.5 -8.5t-28.5 -22.5l-45 60q28 26 53.5 39t57.5 13z" />
    <glyph glyph-name="uni022D" unicode="&#x22d;" horiz-adv-x="516" 
d="M514 803h-302l17 82h301zM302 527q33 0 64.5 -10t56 -31t40 -53.5t15.5 -77.5q0 -24 -3.5 -50.5t-6.5 -43.5q-8 -41 -17.5 -72.5t-20.5 -56t-24.5 -43.5t-30.5 -35q-30 -29 -70 -44.5t-90 -15.5q-33 0 -65 10t-56.5 31t-40 53.5t-15.5 77.5q0 24 3.5 50.5t7.5 44.5
q8 41 17 72t20.5 55.5t25 43t30.5 35.5q29 29 69.5 44.5t90.5 15.5zM289 416q-38 0 -64 -26q-19 -18 -31 -49.5t-22 -79.5q-7 -34 -9 -53t-2 -28q0 -38 18.5 -56.5t47.5 -18.5q20 0 36 7t28 19q19 18 31.5 49.5t21.5 80.5q7 33 9 52.5t2 27.5q0 38 -18.5 56.5t-47.5 18.5z
M275 727q26 0 44 -6.5t33 -15.5t26.5 -13t26.5 -4q19 0 33.5 8t28.5 22l45 -59q-28 -26 -53.5 -39t-57.5 -13q-26 0 -44 6.5t-33 15.5t-26.5 13t-25.5 4q-20 0 -34 -8.5t-28 -22.5l-45 60q27 26 52.5 39t57.5 13z" />
    <glyph glyph-name="uni022E" unicode="&#x22e;" horiz-adv-x="611" 
d="M379 718q51 0 91 -16t67.5 -43.5t42 -64t14.5 -78.5q0 -24 -4 -62t-16 -98q-10 -52 -19.5 -93t-21 -74.5t-27 -61t-38.5 -51.5q-42 -45 -94.5 -63.5t-106.5 -18.5q-51 0 -91 16t-67.5 43.5t-42 64t-14.5 78.5q0 24 4 62t16 98q10 52 19.5 93t21 74.5t27 61t38.5 51.5
q42 45 94.5 63.5t106.5 18.5zM370 602q-56 0 -95 -43q-10 -11 -18.5 -25.5t-17 -38t-17 -57t-18.5 -82.5q-9 -45 -14.5 -84t-5.5 -65q0 -48 27.5 -72.5t64.5 -24.5q56 0 95 43q10 11 18.5 25.5t17 37.5t17 57t18.5 83q9 45 14.5 84t5.5 65q0 48 -27 72.5t-65 24.5zM462 780
h-106l24 122h106z" />
    <glyph glyph-name="uni022F" unicode="&#x22f;" horiz-adv-x="516" 
d="M302 527q33 0 64.5 -10t56 -31t40 -53.5t15.5 -77.5q0 -24 -3.5 -50.5t-6.5 -43.5q-8 -41 -17.5 -72.5t-20.5 -56t-24.5 -43.5t-30.5 -35q-30 -29 -70 -44.5t-90 -15.5q-33 0 -65 10t-56.5 31t-40 53.5t-15.5 77.5q0 24 3.5 50.5t7.5 44.5q8 41 17 72t20.5 55.5t25 43
t30.5 35.5q29 29 69.5 44.5t90.5 15.5zM289 416q-38 0 -64 -26q-19 -18 -31 -49.5t-22 -79.5q-7 -34 -9 -53t-2 -28q0 -38 18.5 -56.5t47.5 -18.5q20 0 36 7t28 19q19 18 31.5 49.5t21.5 80.5q7 33 9 52.5t2 27.5q0 38 -18.5 56.5t-47.5 18.5zM379 603h-106l24 122h106z" />
    <glyph glyph-name="uni0230" unicode="&#x230;" horiz-adv-x="611" 
d="M596 976h-302l17 82h301zM379 718q51 0 91 -16t67.5 -43.5t42 -64t14.5 -78.5q0 -24 -4 -62t-16 -98q-10 -52 -19.5 -93t-21 -74.5t-27 -61t-38.5 -51.5q-42 -45 -94.5 -63.5t-106.5 -18.5q-51 0 -91 16t-67.5 43.5t-42 64t-14.5 78.5q0 24 4 62t16 98q10 52 19.5 93
t21 74.5t27 61t38.5 51.5q42 45 94.5 63.5t106.5 18.5zM370 602q-56 0 -95 -43q-10 -11 -18.5 -25.5t-17 -38t-17 -57t-18.5 -82.5q-9 -45 -14.5 -84t-5.5 -65q0 -48 27.5 -72.5t64.5 -24.5q56 0 95 43q10 11 18.5 25.5t17 37.5t17 57t18.5 83q9 45 14.5 84t5.5 65
q0 48 -27 72.5t-65 24.5zM462 780h-106l24 122h106z" />
    <glyph glyph-name="uni0231" unicode="&#x231;" horiz-adv-x="516" 
d="M514 803h-302l17 82h301zM302 527q33 0 64.5 -10t56 -31t40 -53.5t15.5 -77.5q0 -24 -3.5 -50.5t-6.5 -43.5q-8 -41 -17.5 -72.5t-20.5 -56t-24.5 -43.5t-30.5 -35q-30 -29 -70 -44.5t-90 -15.5q-33 0 -65 10t-56.5 31t-40 53.5t-15.5 77.5q0 24 3.5 50.5t7.5 44.5
q8 41 17 72t20.5 55.5t25 43t30.5 35.5q29 29 69.5 44.5t90.5 15.5zM289 416q-38 0 -64 -26q-19 -18 -31 -49.5t-22 -79.5q-7 -34 -9 -53t-2 -28q0 -38 18.5 -56.5t47.5 -18.5q20 0 36 7t28 19q19 18 31.5 49.5t21.5 80.5q7 33 9 52.5t2 27.5q0 38 -18.5 56.5t-47.5 18.5z
M379 603h-106l24 122h106z" />
    <glyph glyph-name="uni0232" unicode="&#x232;" 
d="M349 287l-58 -287h-132l59 292l-129 420h140l76 -295l184 295h146zM517 792h-302l17 82h301z" />
    <glyph glyph-name="uni0233" unicode="&#x233;" horiz-adv-x="464" 
d="M190 -84q-9 -17 -20 -33t-23 -28q-25 -25 -55 -35.5t-69 -10.5h-48l23 112h28q27 0 42 13t29 41l33 62l-74 484h123l38 -336l167 336h131zM448 619h-302l17 82h301z" />
    <glyph glyph-name="uni0237" unicode="&#x237;" horiz-adv-x="262" 
d="M133 -48q-14 -69 -56.5 -108t-111.5 -39h-77l21 105h45q23 0 37 14.5t19 38.5l109 542h124z" />
    <glyph glyph-name="uni0259" unicode="&#x259;" horiz-adv-x="523" 
d="M231 -6q-41 0 -75 13t-58.5 37.5t-38 59t-13.5 76.5q0 26 4.5 57t11.5 61h312q2 9 3 18.5t1 18.5q0 38 -22 62.5t-67 24.5q-38 0 -67.5 -13.5t-56.5 -39.5l-65 82q41 38 92.5 57t110.5 19q34 0 68 -9.5t62 -31t45.5 -56.5t17.5 -86q0 -66 -16 -128.5t-49 -112t-83 -79.5
t-117 -30zM238 96q40 0 71.5 27.5t48.5 91.5h-191q-3 -17 -3 -35q0 -42 20.5 -63t53.5 -21z" />
    <glyph glyph-name="uni02BB" unicode="&#x2bb;" horiz-adv-x="256" 
d="M257 584h-128l25 129l150 103z" />
    <glyph glyph-name="uni02BC" unicode="&#x2bc;" horiz-adv-x="255" 
d="M257 584l-150 -103l46 231h129z" />
    <glyph glyph-name="uni02C0" unicode="&#x2c0;" horiz-adv-x="515" 
d="M302 646q21 -1 33.5 10.5t12.5 29.5q0 14 -8.5 22.5t-23.5 10.5l13 63q37 -2 65.5 -24.5t28.5 -63.5q0 -27 -10.5 -47.5t-27.5 -34.5t-39.5 -21.5t-47.5 -7.5h-9z" />
    <glyph glyph-name="circumflex" unicode="&#x2c6;" horiz-adv-x="515" 
d="M501 601h-91l-60 94l-98 -94h-101l159 169h99z" />
    <glyph glyph-name="caron" unicode="&#x2c7;" horiz-adv-x="515" 
d="M376 601h-99l-93 169h93l59 -94l99 94h101z" />
    <glyph glyph-name="breve" unicode="&#x2d8;" horiz-adv-x="515" 
d="M508 736q-16 -78 -58 -111t-109 -33q-66 0 -100 32t-34 81q0 14 3 31h82q-1 -8 -1 -11v-5q0 -23 17.5 -33.5t41.5 -10.5q27 0 46.5 13.5t27.5 46.5h84z" />
    <glyph glyph-name="dotaccent" unicode="&#x2d9;" horiz-adv-x="515" 
d="M380 603h-106l24 122h106z" />
    <glyph glyph-name="ring" unicode="&#x2da;" horiz-adv-x="515" 
d="M347 837q26 0 49 -9.5t40.5 -26.5t27.5 -40t10 -50t-10 -50.5t-27.5 -40.5t-40.5 -26.5t-49 -9.5t-49 9.5t-40 26.5t-27 40.5t-10 50.5t10 50t27 40t40 26.5t49 9.5zM347 768q-23 0 -40.5 -17t-17.5 -40q0 -24 17.5 -41.5t40.5 -17.5t41 17.5t18 41.5q0 23 -18 40t-41 17
z" />
    <glyph glyph-name="ogonek" unicode="&#x2db;" horiz-adv-x="515" 
d="M175 -201h-114l86 144h98z" />
    <glyph glyph-name="tilde" unicode="&#x2dc;" horiz-adv-x="515" 
d="M276 727q26 0 44 -6.5t33 -15.5t26.5 -13t26.5 -4q19 0 33.5 8t28.5 22l45 -59q-28 -26 -53.5 -39t-57.5 -13q-26 0 -44 6.5t-33 15.5t-26.5 13t-25.5 4q-20 0 -34 -8.5t-28 -22.5l-45 60q27 26 52.5 39t57.5 13z" />
    <glyph glyph-name="hungarumlaut" unicode="&#x2dd;" horiz-adv-x="515" 
d="M397 768l-131 -167h-99l110 167h120zM606 768l-131 -167h-99l110 167h120z" />
    <glyph glyph-name="gravecomb" unicode="&#x300;" horiz-adv-x="1" 
d="M83 601h-91l-72 167h118z" />
    <glyph glyph-name="acutecomb" unicode="&#x301;" horiz-adv-x="1" 
d="M-13 601h-100l111 167h119z" />
    <glyph glyph-name="uni0302" unicode="&#x302;" horiz-adv-x="1" 
d="M177 601h-91l-60 94l-98 -94h-101l159 169h99z" />
    <glyph glyph-name="tildecomb" unicode="&#x303;" horiz-adv-x="1" 
d="M-62 727q26 0 44 -6.5t33 -15.5t26.5 -13t26.5 -4q19 0 33.5 8t28.5 22l45 -59q-28 -26 -53.5 -39t-57.5 -13q-26 0 -44 6.5t-33 15.5t-26.5 13t-25.5 4q-20 0 -34 -8.5t-28 -22.5l-45 60q27 26 52.5 39t57.5 13z" />
    <glyph glyph-name="uni0304" unicode="&#x304;" horiz-adv-x="1" 
d="M145 619h-302l17 82h301z" />
    <glyph glyph-name="uni0306" unicode="&#x306;" horiz-adv-x="1" 
d="M152 736q-16 -78 -58 -111t-109 -33q-66 0 -100 32t-34 81q0 14 3 31h82q-1 -8 -1 -11v-5q0 -23 17.5 -33.5t41.5 -10.5q27 0 46.5 13.5t27.5 46.5h84z" />
    <glyph glyph-name="uni0307" unicode="&#x307;" horiz-adv-x="1" 
d="M43 603h-106l24 122h106z" />
    <glyph glyph-name="uni0308" unicode="&#x308;" horiz-adv-x="1" 
d="M147 603h-106l24 122h106zM-62 603h-106l24 122h106z" />
    <glyph glyph-name="hookabovecomb" unicode="&#x309;" horiz-adv-x="1" 
d="M-52 646q21 -1 33.5 10.5t12.5 29.5q0 14 -8.5 22.5t-23.5 10.5l13 63q37 -2 65.5 -24.5t28.5 -63.5q0 -27 -10.5 -47.5t-27.5 -34.5t-39.5 -21.5t-47.5 -7.5h-9z" />
    <glyph glyph-name="uni030A" unicode="&#x30a;" horiz-adv-x="1" 
d="M1 837q26 0 49 -9.5t40.5 -26.5t27.5 -40t10 -50t-10 -50.5t-27.5 -40.5t-40.5 -26.5t-49 -9.5t-49 9.5t-40 26.5t-27 40.5t-10 50.5t10 50t27 40t40 26.5t49 9.5zM1 768q-23 0 -40.5 -17t-17.5 -40q0 -24 17.5 -41.5t40.5 -17.5t41 17.5t18 41.5q0 23 -18 40t-41 17z
" />
    <glyph glyph-name="uni030B" unicode="&#x30b;" horiz-adv-x="1" 
d="M12 768l-131 -167h-99l110 167h120zM221 768l-131 -167h-99l110 167h120z" />
    <glyph glyph-name="uni030C" unicode="&#x30c;" horiz-adv-x="1" 
d="M18 601h-99l-93 169h93l59 -94l99 94h101z" />
    <glyph glyph-name="uni030F" unicode="&#x30f;" horiz-adv-x="1" 
d="M184 601h-91l-72 167h118zM-17 601h-91l-72 167h118z" />
    <glyph glyph-name="uni0310" unicode="&#x310;" horiz-adv-x="1" 
d="M-16 592q-66 0 -100 32t-34 81q0 14 3 31h82q-1 -8 -1 -11v-5q0 -23 17.5 -33.5t41.5 -10.5q27 0 46.5 13.5t27.5 46.5h84q-16 -78 -58 -111t-109 -33zM-22 906h106l-24 -123h-106z" />
    <glyph glyph-name="uni0311" unicode="&#x311;" horiz-adv-x="1" 
d="M18 745q66 0 100 -32t34 -81q0 -15 -3 -31h-82q1 8 1 11v5q0 23 -17.5 33.5t-41.5 10.5q-27 0 -46.5 -13.5t-27.5 -46.5h-84q16 78 58 111t109 33z" />
    <glyph glyph-name="uni0312" unicode="&#x312;" horiz-adv-x="1" 
d="M-15 601h-99l110 167h120z" />
    <glyph glyph-name="uni0313" unicode="&#x313;" horiz-adv-x="1" 
d="M1 575h-91l67 165h115z" />
    <glyph glyph-name="uni0316" unicode="&#x316;" horiz-adv-x="1" 
d="M82 -225h-91l-72 167h118z" />
    <glyph glyph-name="uni0317" unicode="&#x317;" horiz-adv-x="1" 
d="M-14 -225h-100l111 167h119z" />
    <glyph glyph-name="uni031B" unicode="&#x31b;" horiz-adv-x="1" 
d="M86 487q-7 -36 -17 -59t-26.5 -37t-41.5 -19.5t-64 -5.5h-36l14 70h37q23 0 37 13.5t22 54.5l10 53h80z" />
    <glyph glyph-name="uni031C" unicode="&#x31c;" horiz-adv-x="1" 
d="M28 -230q-37 2 -65.5 24.5t-28.5 63.5q0 27 10 47.5t27.5 34.5t40 21.5t47.5 7.5h9l-13 -63q-21 1 -33.5 -10.5t-12.5 -29.5q0 -14 8.5 -22.5t23.5 -10.5z" />
    <glyph glyph-name="dotbelowcomb" unicode="&#x323;" horiz-adv-x="1" 
d="M43 -196h-106l24 122h106z" />
    <glyph glyph-name="uni0324" unicode="&#x324;" horiz-adv-x="1" 
d="M147 -193h-106l24 122h106zM-62 -193h-106l24 122h106z" />
    <glyph glyph-name="uni0325" unicode="&#x325;" horiz-adv-x="1" 
d="M1 -38q26 0 49 -9.5t40.5 -26.5t27.5 -40t10 -50t-10 -50.5t-27.5 -40.5t-40.5 -26.5t-49 -9.5t-49 9.5t-40 26.5t-27 40.5t-10 50.5t10 50t27 40t40 26.5t49 9.5zM1 -107q-23 0 -40.5 -17t-17.5 -40q0 -24 17.5 -41.5t40.5 -17.5t41 17.5t18 41.5q0 23 -18 40t-41 17z
" />
    <glyph glyph-name="uni0326" unicode="&#x326;" horiz-adv-x="1" 
d="M24 -201h-114l86 144h98z" />
    <glyph glyph-name="uni0327" unicode="&#x327;" horiz-adv-x="1" 
 />
    <glyph glyph-name="uni0328" unicode="&#x328;" horiz-adv-x="1" 
d="M24 -201h-114l86 144h98z" />
    <glyph glyph-name="uni032C" unicode="&#x32c;" horiz-adv-x="1" 
d="M17 -233h-99l-93 169h93l59 -94l99 94h101z" />
    <glyph glyph-name="uni032D" unicode="&#x32d;" horiz-adv-x="1" 
d="M177 -227h-91l-60 94l-98 -94h-101l159 169h99z" />
    <glyph glyph-name="uni032E" unicode="&#x32e;" horiz-adv-x="1" 
d="M152 -63q-16 -78 -58 -111t-109 -33q-66 0 -100 32t-34 81q0 14 3 31h82q-1 -8 -1 -11v-5q0 -23 17.5 -33.5t41.5 -10.5q27 0 46.5 13.5t27.5 46.5h84z" />
    <glyph glyph-name="uni032F" unicode="&#x32f;" horiz-adv-x="1" 
d="M17 -50q66 0 100 -32t34 -81q0 -15 -3 -31h-82q1 8 1 11v5q0 23 -17.5 33.5t-41.5 10.5q-27 0 -46.5 -13.5t-27.5 -46.5h-84q16 78 58 111t109 33z" />
    <glyph glyph-name="uni0330" unicode="&#x330;" horiz-adv-x="1" 
d="M-62 -67q26 0 44 -6.5t33 -15.5t26.5 -13t26.5 -4q19 0 33.5 8t28.5 22l45 -59q-28 -26 -53.5 -39t-57.5 -13q-26 0 -44 6.5t-33 15.5t-26.5 13t-25.5 4q-20 0 -34 -8.5t-28 -22.5l-45 60q27 26 52.5 39t57.5 13z" />
    <glyph glyph-name="uni0331" unicode="&#x331;" horiz-adv-x="1" 
d="M145 -165h-302l17 82h301z" />
    <glyph glyph-name="uni0340" unicode="&#x340;" horiz-adv-x="1" 
d="M92 670h-91l-91 168h118z" />
    <glyph glyph-name="uni0341" unicode="&#x341;" horiz-adv-x="1" 
d="M-14 671h-100l111 167h119z" />
    <glyph glyph-name="uni037E" unicode="&#x37e;" horiz-adv-x="294" 
d="M166 -55l-158 -110l62 307h135zM232 271h-141l30 148h141z" />
    <glyph glyph-name="tonos" unicode="&#x384;" horiz-adv-x="515" 
d="M384 630l-114 -48l32 160h104z" />
    <glyph glyph-name="dieresistonos" unicode="&#x385;" horiz-adv-x="515" 
d="M390 648l-114 -48l32 160h104zM223 603h-105l24 122h106zM534 603h-105l24 122h106z" />
    <glyph glyph-name="Alphatonos" unicode="&#x386;" horiz-adv-x="607" 
d="M552 0h-134l-15 130h-241l-67 -130h-141l388 712h105zM216 238h177l-34 274zM174 600l-114 -47l32 159h104z" />
    <glyph glyph-name="anoteleia" unicode="&#x387;" horiz-adv-x="271" 
d="M198 215h-141l28 141h141z" />
    <glyph glyph-name="Epsilontonos" unicode="&#x388;" horiz-adv-x="578" 
d="M592 596h-312l-36 -179h269l-23 -116h-269l-37 -185h318l-23 -116h-451l143 712h444zM71 600l-114 -47l32 159h104z" />
    <glyph glyph-name="Etatonos" unicode="&#x389;" horiz-adv-x="655" 
d="M522 0h-132l61 302h-230l-61 -302h-132l143 712h132l-58 -294h230l58 294h132zM71 600l-114 -47l32 159h104z" />
    <glyph glyph-name="Iotatonos" unicode="&#x38a;" horiz-adv-x="293" 
d="M160 0h-132l143 712h132zM71 600l-114 -47l32 159h104z" />
    <glyph glyph-name="Omicrontonos" unicode="&#x38c;" horiz-adv-x="611" 
d="M379 718q51 0 91 -16t67.5 -43.5t42 -64t14.5 -78.5q0 -24 -4 -62t-16 -98q-10 -52 -19.5 -93t-21 -74.5t-27 -61t-38.5 -51.5q-42 -45 -94.5 -63.5t-106.5 -18.5q-51 0 -91 16t-67.5 43.5t-42 64t-14.5 78.5q0 24 4 62t16 98q10 52 19.5 93t21 74.5t27 61t38.5 51.5
q42 45 94.5 63.5t106.5 18.5zM370 602q-56 0 -95 -43q-10 -11 -18.5 -25.5t-17 -38t-17 -57t-18.5 -82.5q-9 -45 -14.5 -84t-5.5 -65q0 -48 27.5 -72.5t64.5 -24.5q56 0 95 43q10 11 18.5 25.5t17 37.5t17 57t18.5 83q9 45 14.5 84t5.5 65q0 48 -27 72.5t-65 24.5zM83 600
l-114 -47l32 159h104z" />
    <glyph glyph-name="Upsilontonos" unicode="&#x38e;" 
d="M349 287l-58 -287h-132l59 292l-129 420h140l76 -295l184 295h146zM32 600l-114 -47l32 159h104z" />
    <glyph glyph-name="Omegatonos" unicode="&#x38f;" horiz-adv-x="610" 
d="M33 116h66q-20 23 -29 49t-9 67q0 23 3 52.5t11 71.5q10 52 19.5 93t21 75t27 61.5t38.5 51.5q42 45 95 63t105 18q54 0 94 -16.5t67 -44.5t40.5 -65t13.5 -77q0 -23 -4 -60.5t-16 -98.5q-8 -39 -15 -68t-14 -50.5t-15 -38t-18 -31.5q-11 -17 -20.5 -28.5t-26.5 -23.5h66
l-24 -116h-212l21 103q15 5 29 14.5t24 20.5q10 13 18.5 28t17 39t17 60t19.5 91q9 45 15 84t6 64q0 46 -26 72t-68 26q-53 0 -93 -42q-10 -11 -18.5 -25.5t-16.5 -37.5t-16 -57t-18 -84q-14 -71 -19.5 -108t-5.5 -56q0 -32 12 -53.5t39 -35.5l-20 -103h-204zM86 600
l-114 -47l32 159h104z" />
    <glyph glyph-name="iotadieresistonos" unicode="&#x390;" horiz-adv-x="308" 
d="M170 166q-3 -15 -3 -27q0 -34 44 -34h41l-21 -105h-55q-37 0 -63 9t-43 26q-30 30 -30 78q0 14 2.5 29.5t4.5 26.5l70 352h124zM259 648l-114 -48l32 160h104zM92 603h-105l24 122h106zM403 603h-105l24 122h106z" />
    <glyph glyph-name="Alpha" unicode="&#x391;" horiz-adv-x="607" 
d="M552 0h-134l-15 130h-241l-67 -130h-141l388 712h105zM216 238h177l-34 274z" />
    <glyph glyph-name="Beta" unicode="&#x392;" horiz-adv-x="626" 
d="M429 712q49 0 84 -13.5t57.5 -36.5t33 -53t10.5 -62q0 -24 -5.5 -50t-19 -50.5t-35.5 -46.5t-56 -39q31 -20 49.5 -47.5t18.5 -77.5q0 -54 -18.5 -97.5t-50.5 -74t-76 -47.5t-95 -17h-298l143 712h258zM221 303l-37 -186h138q52 0 81.5 32.5t29.5 80.5q0 32 -18.5 52.5
t-56.5 20.5h-137zM280 595l-36 -175h127q29 0 50 10t34 25.5t19 34t6 35.5q0 12 -3 24.5t-11.5 22.5t-23 16.5t-36.5 6.5h-126z" />
    <glyph glyph-name="Gamma" unicode="&#x393;" horiz-adv-x="537" 
d="M577 596h-297l-120 -596h-132l143 712h429z" />
    <glyph glyph-name="uni0394" unicode="&#x394;" horiz-adv-x="607" 
d="M552 0h-598l389 712h104zM147 109h261l-48 404z" />
    <glyph glyph-name="Epsilon" unicode="&#x395;" horiz-adv-x="578" 
d="M592 596h-312l-36 -179h269l-23 -116h-269l-37 -185h318l-23 -116h-451l143 712h444z" />
    <glyph glyph-name="Zeta" unicode="&#x396;" horiz-adv-x="531" 
d="M554 609l-380 -492h288l-24 -117h-450l21 103l380 492h-275l23 117h438z" />
    <glyph glyph-name="Eta" unicode="&#x397;" horiz-adv-x="655" 
d="M522 0h-132l61 302h-230l-61 -302h-132l143 712h132l-58 -294h230l58 294h132z" />
    <glyph glyph-name="Theta" unicode="&#x398;" horiz-adv-x="610" 
d="M380 718q51 0 91 -16t67.5 -43.5t42 -64t14.5 -78.5q0 -24 -4 -62t-16 -98q-10 -52 -19.5 -93t-21 -74.5t-27 -61t-38.5 -51.5q-42 -45 -94.5 -63.5t-106.5 -18.5q-51 0 -91 16t-67.5 43.5t-42 64t-14.5 78.5q0 24 4 62t16 98q10 52 19.5 93t21 74.5t27 61t38.5 51.5
q42 45 94.5 63.5t106.5 18.5zM195 304q-5 -29 -7.5 -53.5t-2.5 -43.5q0 -48 27.5 -72.5t64.5 -24.5q56 0 95 43q8 9 15.5 21t15 29.5t14.5 42t15 58.5h-237zM371 602q-56 0 -95 -43q-8 -9 -15.5 -20.5t-14.5 -28.5t-14 -40.5t-15 -55.5h237q9 54 9 91q0 48 -27 72.5
t-65 24.5z" />
    <glyph glyph-name="Iota" unicode="&#x399;" horiz-adv-x="293" 
d="M160 0h-132l143 712h132z" />
    <glyph glyph-name="Kappa" unicode="&#x39a;" horiz-adv-x="644" 
d="M421 415l163 -415h-144l-125 329l-111 -110l-44 -219h-132l143 712h132l-62 -310l297 310h164z" />
    <glyph glyph-name="Lambda" unicode="&#x39b;" horiz-adv-x="560" 
d="M317 712h104l81 -712h-130l-48 472l-228 -472h-142z" />
    <glyph glyph-name="Mu" unicode="&#x39c;" horiz-adv-x="773" 
d="M640 0h-132l85 421l-179 -263h-89l-80 265l-85 -423h-132l143 712h124l101 -380l258 380h129z" />
    <glyph glyph-name="Nu" unicode="&#x39d;" horiz-adv-x="680" 
d="M547 0h-112l-185 445l-90 -445h-132l143 712h112l186 -446l89 446h132z" />
    <glyph glyph-name="Xi" unicode="&#x39e;" horiz-adv-x="560" 
d="M580 595h-167l-35 -178h119l-23 -115h-119l-38 -185h167l-24 -117h-465l23 117h167l38 185h-120l23 115h120l35 178h-167l24 117h466z" />
    <glyph glyph-name="Omicron" unicode="&#x39f;" horiz-adv-x="611" 
d="M379 718q51 0 91 -16t67.5 -43.5t42 -64t14.5 -78.5q0 -24 -4 -62t-16 -98q-10 -52 -19.5 -93t-21 -74.5t-27 -61t-38.5 -51.5q-42 -45 -94.5 -63.5t-106.5 -18.5q-51 0 -91 16t-67.5 43.5t-42 64t-14.5 78.5q0 24 4 62t16 98q10 52 19.5 93t21 74.5t27 61t38.5 51.5
q42 45 94.5 63.5t106.5 18.5zM370 602q-56 0 -95 -43q-10 -11 -18.5 -25.5t-17 -38t-17 -57t-18.5 -82.5q-9 -45 -14.5 -84t-5.5 -65q0 -48 27.5 -72.5t64.5 -24.5q56 0 95 43q10 11 18.5 25.5t17 37.5t17 57t18.5 83q9 45 14.5 84t5.5 65q0 48 -27 72.5t-65 24.5z" />
    <glyph glyph-name="Pi" unicode="&#x3a0;" horiz-adv-x="648" 
d="M515 0h-132l120 595h-224l-119 -595h-132l143 712h487z" />
    <glyph glyph-name="Rho" unicode="&#x3a1;" horiz-adv-x="597" 
d="M424 712q45 0 80.5 -14t60 -38.5t37.5 -59t13 -76.5q0 -48 -17 -92.5t-50.5 -79t-82.5 -55.5t-113 -21h-137l-55 -276h-132l143 712h253zM280 595l-41 -202h118q32 0 55.5 11t39 28.5t23 39t7.5 41.5q0 34 -18 58t-62 24h-122z" />
    <glyph glyph-name="Sigma" unicode="&#x3a3;" horiz-adv-x="531" 
d="M552 596h-285l103 -223l-199 -257h291l-23 -116h-451l20 102l212 272l-107 236l20 102h442z" />
    <glyph glyph-name="Tau" unicode="&#x3a4;" 
d="M582 595h-175l-119 -595h-132l119 595h-179l23 117h486z" />
    <glyph glyph-name="Upsilon" unicode="&#x3a5;" 
d="M349 287l-58 -287h-132l59 292l-129 420h140l76 -295l184 295h146z" />
    <glyph glyph-name="Phi" unicode="&#x3a6;" horiz-adv-x="756" 
d="M522 653q42 -5 80 -20t67 -41t46 -64t17 -87q0 -23 -3 -51.5t-8 -51.5q-12 -59 -37 -115.5t-75 -96.5q-48 -39 -98 -53t-109 -16l-11 -57h-131l12 61q-42 4 -80.5 19.5t-67 41.5t-45.5 64t-17 88q0 23 3 51.5t8 51.5q12 59 37 115t75 96q48 39 98 53t109 16l11 55h131z
M369 544q-62 -3 -109 -50q-23 -24 -36.5 -58.5t-20.5 -72.5q-3 -19 -5.5 -40.5t-2.5 -36.5q0 -48 24.5 -79.5t74.5 -35.5zM425 171q32 2 59 14.5t50 35.5q23 24 36.5 58.5t20.5 72.5q4 19 6 40.5t2 36.5q0 47 -24.5 79t-74.5 36z" />
    <glyph glyph-name="Chi" unicode="&#x3a7;" horiz-adv-x="586" 
d="M383 360l143 -360h-148l-88 253l-180 -253h-154l280 370l-132 342h147l79 -234l163 234h154z" />
    <glyph glyph-name="Psi" unicode="&#x3a8;" horiz-adv-x="733" 
d="M704 389q-13 -65 -41 -112t-66.5 -77t-86.5 -45t-101 -16l-29 -139h-132l29 140q-43 3 -79.5 19t-63 42t-41.5 61t-15 77q0 14 1.5 32.5t4.5 31.5l62 309h132l-64 -318q-5 -25 -5 -45q0 -40 24 -65t66 -29l92 457h132l-92 -457q57 5 93.5 43t49.5 102l63 312h132z" />
    <glyph glyph-name="uni03A9" unicode="&#x3a9;" horiz-adv-x="610" 
d="M33 116h66q-20 23 -29 49t-9 67q0 23 3 52.5t11 71.5q10 52 19.5 93t21 75t27 61.5t38.5 51.5q42 45 95 63t105 18q54 0 94 -16.5t67 -44.5t40.5 -65t13.5 -77q0 -23 -4 -60.5t-16 -98.5q-8 -39 -15 -68t-14 -50.5t-15 -38t-18 -31.5q-11 -17 -20.5 -28.5t-26.5 -23.5h66
l-24 -116h-212l21 103q15 5 29 14.5t24 20.5q10 13 18.5 28t17 39t17 60t19.5 91q9 45 15 84t6 64q0 46 -26 72t-68 26q-53 0 -93 -42q-10 -11 -18.5 -25.5t-16.5 -37.5t-16 -57t-18 -84q-14 -71 -19.5 -108t-5.5 -56q0 -32 12 -53.5t39 -35.5l-20 -103h-204z" />
    <glyph glyph-name="Iotadieresis" unicode="&#x3aa;" horiz-adv-x="293" 
d="M160 0h-132l143 712h132zM407 780h-106l24 122h106zM198 780h-106l24 122h106z" />
    <glyph glyph-name="Upsilondieresis" unicode="&#x3ab;" 
d="M349 287l-58 -287h-132l59 292l-129 420h140l76 -295l184 295h146zM521 780h-106l24 122h106zM312 780h-106l24 122h106z" />
    <glyph glyph-name="alphatonos" unicode="&#x3ac;" horiz-adv-x="538" 
d="M344 630l-114 -48l32 160h104zM179 -6q-39 0 -66.5 12.5t-45 33t-25.5 46.5t-8 53q0 19 2.5 45.5t12.5 76.5q17 83 36 134.5t50 80.5t65 40t69 11q42 0 71.5 -15.5t49.5 -44.5l11 54h119l-103 -521h-120l11 52q-23 -28 -55.5 -43t-73.5 -15zM227 105q20 0 37 7t29 19
q18 18 30 49t22 81q4 20 7 43.5t3 39.5q0 28 -14.5 50t-49.5 22q-40 0 -66 -26q-18 -18 -30 -48.5t-22 -80.5q-4 -20 -7 -44t-3 -40q0 -28 14.5 -50t49.5 -22z" />
    <glyph glyph-name="epsilontonos" unicode="&#x3ad;" horiz-adv-x="490" 
d="M312 527q30 0 55 -4.5t46.5 -14t41 -23.5t40.5 -33l-86 -78q-23 26 -47 38.5t-58 12.5q-15 0 -31.5 -4t-30 -13t-22 -22t-8.5 -31q0 -22 16 -35.5t42 -13.5h74l-17 -84h-81q-16 0 -32 -4.5t-28.5 -13.5t-20.5 -22t-8 -30q0 -23 20 -38.5t56 -15.5q40 0 71.5 13t69.5 45
l63 -83q-56 -47 -107.5 -63t-107.5 -16q-85 0 -136.5 36t-51.5 98q0 52 27 88.5t85 56.5q-21 11 -37.5 33t-16.5 52q0 43 18.5 75t49.5 53t70.5 31t81.5 10zM387 630l-114 -48l32 160h104z" />
    <glyph glyph-name="etatonos" unicode="&#x3ae;" 
d="M368 527q23 0 46.5 -8t43 -25.5t31.5 -44.5t12 -66q0 -14 -2 -29.5t-5 -28.5l-65 -325h-124l64 317q2 9 3 17.5t1 16.5q0 34 -19 49.5t-43 15.5q-14 0 -30 -4t-31 -15t-27 -30.5t-18 -50.5l-64 -316h-124l104 521h119l-9 -50q25 27 60.5 41.5t76.5 14.5zM401 630
l-114 -48l32 160h104z" />
    <glyph glyph-name="iotatonos" unicode="&#x3af;" horiz-adv-x="308" 
d="M170 166q-3 -15 -3 -27q0 -34 44 -34h41l-21 -105h-55q-37 0 -63 9t-43 26q-30 30 -30 78q0 14 2.5 29.5t4.5 26.5l70 352h124zM253 630l-114 -48l32 160h104z" />
    <glyph glyph-name="upsilondieresistonos" unicode="&#x3b0;" horiz-adv-x="538" 
d="M226 -6q-37 0 -69.5 10.5t-56.5 30.5t-38 50.5t-14 70.5q0 15 2.5 35.5t6.5 38.5l58 291h124l-60 -299q-2 -13 -4 -27.5t-2 -24.5q0 -30 17 -47.5t50 -17.5q46 0 69 32t33 81l61 303h124l-63 -317q-20 -102 -77.5 -156t-160.5 -54zM401 648l-114 -48l32 160h104zM234 603
h-105l24 122h106zM545 603h-105l24 122h106z" />
    <glyph glyph-name="alpha" unicode="&#x3b1;" horiz-adv-x="538" 
d="M179 -6q-39 0 -66.5 12.5t-45 33t-25.5 46.5t-8 53q0 19 2.5 45.5t12.5 76.5q17 83 36 134.5t50 80.5t65 40t69 11q42 0 71.5 -15.5t49.5 -44.5l11 54h119l-103 -521h-120l11 52q-23 -28 -55.5 -43t-73.5 -15zM227 105q20 0 37 7t29 19q18 18 30 49t22 81q4 20 7 43.5
t3 39.5q0 28 -14.5 50t-49.5 22q-40 0 -66 -26q-18 -18 -30 -48.5t-22 -80.5q-4 -20 -7 -44t-3 -40q0 -28 14.5 -50t49.5 -22z" />
    <glyph glyph-name="beta" unicode="&#x3b2;" horiz-adv-x="551" 
d="M270 -6q-18 0 -36 3.5t-34.5 11t-30 18.5t-21.5 26l-10 -53h-120l104 523q19 95 80.5 145t154.5 50q42 0 75.5 -12t57 -32.5t36 -48.5t12.5 -60q0 -59 -30.5 -108t-88.5 -73q44 -15 68.5 -51.5t24.5 -89.5q0 -51 -16.5 -96.5t-48 -79.5t-76.5 -53.5t-101 -19.5zM264 104
q28 0 50.5 11.5t38.5 31t24.5 46t8.5 56.5q0 45 -24.5 65.5t-73.5 20.5h-26l20 100h32q45 0 72 31t27 79q0 29 -16.5 47.5t-51.5 18.5q-43 0 -68.5 -28.5t-34.5 -72.5l-60 -296q-2 -12 -2.5 -21.5t-0.5 -16.5q0 -36 23.5 -54t61.5 -18z" />
    <glyph glyph-name="gamma" unicode="&#x3b3;" horiz-adv-x="469" 
d="M247 14l-40 -205h-124l41 206l-68 506h123l41 -326l164 326h133z" />
    <glyph glyph-name="delta" unicode="&#x3b4;" horiz-adv-x="515" 
d="M211 -6q-37 0 -68.5 12t-55 34.5t-36.5 53.5t-13 70q0 20 2.5 46t7.5 52q11 57 28.5 97.5t52.5 72.5q24 21 55 33.5t68 12.5q6 0 13 -1t15 -5l-109 147l18 93h319l-21 -104h-164l91 -123q58 -79 58 -164q0 -17 -1.5 -33.5t-5.5 -33.5q-14 -69 -33.5 -115t-53.5 -80
q-27 -28 -68.5 -46.5t-98.5 -18.5zM225 105q22 0 38 7t30 21q20 21 30.5 52t18.5 69q3 16 5 32.5t2 29.5q0 29 -15 51.5t-49 22.5q-38 0 -65 -25q-22 -20 -32.5 -49.5t-17.5 -61.5q-4 -20 -7 -40.5t-3 -35.5q0 -29 15.5 -51t49.5 -22z" />
    <glyph glyph-name="epsilon" unicode="&#x3b5;" horiz-adv-x="490" 
d="M312 527q30 0 55 -4.5t46.5 -14t41 -23.5t40.5 -33l-86 -78q-23 26 -47 38.5t-58 12.5q-15 0 -31.5 -4t-30 -13t-22 -22t-8.5 -31q0 -22 16 -35.5t42 -13.5h74l-17 -84h-81q-16 0 -32 -4.5t-28.5 -13.5t-20.5 -22t-8 -30q0 -23 20 -38.5t56 -15.5q40 0 71.5 13t69.5 45
l63 -83q-56 -47 -107.5 -63t-107.5 -16q-85 0 -136.5 36t-51.5 98q0 52 27 88.5t85 56.5q-21 11 -37.5 33t-16.5 52q0 43 18.5 75t49.5 53t70.5 31t81.5 10z" />
    <glyph glyph-name="zeta" unicode="&#x3b6;" horiz-adv-x="441" 
d="M213 -131l30 92q2 5 3.5 11t1.5 11q0 17 -30 17h-50q-68 0 -111 27.5t-43 89.5q0 30 10.5 57.5t29 53.5t44.5 51t57 50l102 81h-174l22 111h359l-20 -98l-200 -161q-37 -30 -63.5 -59t-26.5 -58q0 -19 12.5 -26.5t38.5 -7.5h58q22 0 41.5 -3.5t34 -12t23 -22.5t8.5 -35
q0 -14 -4 -29q-3 -11 -9.5 -33t-14 -45t-14 -43.5t-9.5 -29.5z" />
    <glyph glyph-name="eta" unicode="&#x3b7;" 
d="M368 527q23 0 46.5 -8t43 -25.5t31.5 -44.5t12 -66q0 -14 -2 -29.5t-5 -28.5l-65 -325h-124l64 317q2 9 3 17.5t1 16.5q0 34 -19 49.5t-43 15.5q-14 0 -30 -4t-31 -15t-27 -30.5t-18 -50.5l-64 -316h-124l104 521h119l-9 -50q25 27 60.5 41.5t76.5 14.5z" />
    <glyph glyph-name="theta" unicode="&#x3b8;" horiz-adv-x="527" 
d="M222 -6q-84 0 -131 47t-47 134q0 42 7 88.5t17 92.5q8 41 17.5 82.5t22 79.5t30 71.5t42.5 59.5q36 38 74.5 53.5t89.5 15.5q84 0 131 -47t47 -134q0 -42 -7 -88t-17 -93q-8 -41 -17.5 -82.5t-22 -79.5t-30.5 -72t-43 -59q-36 -38 -74 -53.5t-89 -15.5zM235 105
q23 0 40 9.5t31 24.5q20 21 33 65t27 110h-182q-8 -39 -13 -73.5t-5 -56.5q0 -32 17 -55.5t52 -23.5zM385 417q6 32 10.5 63t4.5 48q0 32 -16 55.5t-53 23.5q-25 0 -41.5 -9.5t-30.5 -25.5q-19 -20 -32 -61.5t-23 -93.5h181z" />
    <glyph glyph-name="iota" unicode="&#x3b9;" horiz-adv-x="308" 
d="M170 166q-3 -15 -3 -27q0 -34 44 -34h41l-21 -105h-55q-37 0 -63 9t-43 26q-30 30 -30 78q0 14 2.5 29.5t4.5 26.5l70 352h124z" />
    <glyph glyph-name="kappa" unicode="&#x3ba;" horiz-adv-x="536" 
d="M338 304l138 -304h-142l-90 227l-71 -66l-32 -161h-124l104 521h124l-42 -212l206 212h147z" />
    <glyph glyph-name="lambda" unicode="&#x3bb;" horiz-adv-x="538" 
d="M249 481l-9 69q-4 28 -17.5 39.5t-43.5 11.5h-27l24 111h44q59 0 91 -30t41 -85l95 -597h-124l-39 324l-166 -324h-131z" />
    <glyph glyph-name="uni03BC" unicode="&#x3bc;" horiz-adv-x="548" 
d="M119 521h124l-63 -317q-2 -8 -3 -17t-1 -17q0 -34 19 -49.5t42 -15.5q13 0 29.5 4t31.5 15t27.5 30.5t18.5 50.5l63 316h124l-104 -521h-119l10 50q-22 -23 -54 -36.5t-70 -13.5q-26 0 -53 9l-40 -200h-124z" />
    <glyph glyph-name="nu" unicode="&#x3bd;" horiz-adv-x="469" 
d="M56 521h123l37 -336l168 336h133l-285 -521h-98z" />
    <glyph glyph-name="xi" unicode="&#x3be;" horiz-adv-x="491" 
d="M254 -131l30 92q2 5 3.5 11t1.5 11q0 9 -6.5 13t-23.5 4h-32q-93 0 -143 43.5t-50 115.5q0 78 41.5 139.5t123.5 87.5q-34 11 -54.5 43t-20.5 74q0 48 18 88t49 68t73.5 43.5t91.5 15.5q70 0 115.5 -20t75.5 -59l-93 -82q-18 25 -39.5 39t-60.5 14q-21 0 -41.5 -7.5
t-34.5 -21.5q-17 -15 -26 -35.5t-9 -46.5q0 -29 20 -48t58 -19h107l-22 -112h-110q-23 0 -45 -7t-40 -22q-23 -19 -38 -48t-15 -61q0 -37 26 -54t64 -17h56q22 0 41.5 -3.5t34 -12t23 -22.5t8.5 -35q0 -14 -4 -29l-47 -151z" />
    <glyph glyph-name="omicron" unicode="&#x3bf;" horiz-adv-x="516" 
d="M302 527q33 0 64.5 -10t56 -31t40 -53.5t15.5 -77.5q0 -24 -3.5 -50.5t-6.5 -43.5q-8 -41 -17.5 -72.5t-20.5 -56t-24.5 -43.5t-30.5 -35q-30 -29 -70 -44.5t-90 -15.5q-33 0 -65 10t-56.5 31t-40 53.5t-15.5 77.5q0 24 3.5 50.5t7.5 44.5q8 41 17 72t20.5 55.5t25 43
t30.5 35.5q29 29 69.5 44.5t90.5 15.5zM289 416q-38 0 -64 -26q-19 -18 -31 -49.5t-22 -79.5q-7 -34 -9 -53t-2 -28q0 -38 18.5 -56.5t47.5 -18.5q20 0 36 7t28 19q19 18 31.5 49.5t21.5 80.5q7 33 9 52.5t2 27.5q0 38 -18.5 56.5t-47.5 18.5z" />
    <glyph glyph-name="pi" unicode="&#x3c0;" horiz-adv-x="539" 
d="M418 0h-124l82 411h-153l-82 -411h-124l104 521h401z" />
    <glyph glyph-name="rho" unicode="&#x3c1;" horiz-adv-x="527" 
d="M63 259q11 59 30.5 111.5t56.5 90.5q34 35 73 50.5t90 15.5q37 0 69.5 -11.5t56.5 -33.5t37.5 -53t13.5 -70q0 -47 -11 -100q-12 -60 -30.5 -111t-63.5 -95q-30 -29 -66 -43t-73 -14q-33 0 -60.5 13t-41.5 33l-47 -233h-124zM239 105q40 0 64 26q20 21 32 53t21 77
q5 21 8 43.5t3 36.5q0 30 -15 52.5t-50 22.5q-36 0 -62 -26q-22 -21 -33.5 -54.5t-19.5 -74.5q-7 -32 -9 -52.5t-2 -30.5q0 -34 15.5 -53.5t47.5 -19.5z" />
    <glyph glyph-name="sigma1" unicode="&#x3c2;" horiz-adv-x="461" 
d="M214 -131l31 92q2 5 3.5 11t1.5 11q0 17 -30 17h-14q-76 0 -121 46t-45 134q0 38 8 81q15 79 43 130.5t64 81.5t77 42t81 12q57 0 93.5 -21t59.5 -51l-94 -82q-14 21 -31 32t-41 11q-41 0 -74 -33q-20 -22 -33.5 -53.5t-20.5 -68.5q-3 -17 -5 -33.5t-2 -33.5
q0 -36 14 -56q11 -15 26.5 -21t38.5 -6h20q45 0 76.5 -15.5t31.5 -57.5q0 -14 -4 -29l-47 -151z" />
    <glyph glyph-name="sigma" unicode="&#x3c3;" horiz-adv-x="554" 
d="M525 416h-85q33 -30 33 -88q0 -14 -2 -34.5t-4 -32.5q-16 -80 -38.5 -128.5t-54.5 -78.5q-26 -25 -65 -42.5t-93 -17.5q-35 0 -67 10.5t-56.5 31.5t-39.5 52.5t-15 73.5q0 21 2.5 47t7.5 52q8 40 16.5 70.5t20 55t25.5 43.5t33 36q30 26 68 40.5t95 14.5h241zM287 418
q-35 0 -61 -24q-20 -18 -33 -51.5t-22 -81.5q-5 -23 -7.5 -44.5t-2.5 -36.5q0 -36 17 -55.5t49 -19.5q19 0 34.5 6.5t27.5 17.5q20 19 32.5 51.5t22.5 80.5q5 23 8 44.5t3 38.5q0 74 -68 74z" />
    <glyph glyph-name="tau" unicode="&#x3c4;" horiz-adv-x="419" 
d="M419 410h-118l-82 -410h-124l82 410h-118l22 111h361z" />
    <glyph glyph-name="upsilon" unicode="&#x3c5;" horiz-adv-x="538" 
d="M226 -6q-37 0 -69.5 10.5t-56.5 30.5t-38 50.5t-14 70.5q0 15 2.5 35.5t6.5 38.5l58 291h124l-60 -299q-2 -13 -4 -27.5t-2 -24.5q0 -30 17 -47.5t50 -17.5q46 0 69 32t33 81l61 303h124l-63 -317q-20 -102 -77.5 -156t-160.5 -54z" />
    <glyph glyph-name="phi" unicode="&#x3c6;" horiz-adv-x="709" 
d="M240 -5q-42 4 -78 16.5t-63 35t-42.5 56.5t-15.5 80q0 21 1.5 45.5t6.5 48.5q14 69 37 112.5t52 74.5q14 16 35 32.5t43 27.5l64 -87q-16 -10 -31.5 -23.5t-29.5 -30.5q-14 -19 -27 -47t-21 -66q-4 -17 -6.5 -40t-2.5 -38q0 -48 25 -70.5t73 -25.5l86 427q10 2 27 2.5
t28 0.5q124 0 195 -48.5t71 -145.5q0 -19 -2 -42.5t-6 -46.5q-8 -41 -19.5 -73t-27 -56.5t-35.5 -43.5t-44 -34q-32 -20 -74.5 -30t-95.5 -12l-36 -185h-124zM384 96q24 0 44.5 5t37.5 16q23 16 41.5 47.5t29.5 82.5q3 17 6 40t3 37q0 48 -24.5 71t-72.5 26z" />
    <glyph glyph-name="chi" unicode="&#x3c7;" horiz-adv-x="509" 
d="M321 262l123 -262h-143l-65 163l-121 -163h-153l221 269l-118 252h143l61 -155l111 155h151z" />
    <glyph glyph-name="psi" unicode="&#x3c8;" horiz-adv-x="717" 
d="M243 -5q-86 7 -138.5 50.5t-52.5 126.5q0 32 8 75l55 274h124l-55 -273q-4 -20 -6 -34.5t-2 -25.5q0 -37 20 -59t68 -28l84 420h124l-85 -421q60 4 93.5 44t45.5 102l56 275h124l-59 -286q-12 -59 -33 -103t-54.5 -74t-81 -46t-112.5 -18l-37 -185h-124z" />
    <glyph glyph-name="omega" unicode="&#x3c9;" horiz-adv-x="715" 
d="M182 -6q-34 0 -61 13t-45.5 36t-28.5 54t-10 67q0 34 3.5 61.5t9.5 56.5q14 60 40 108t71 87q17 16 34 27t36 20l65 -87q-36 -22 -60 -46q-23 -23 -39.5 -52t-25.5 -70q-5 -22 -8.5 -47t-3.5 -48q0 -12 2.5 -24.5t8.5 -22.5t16.5 -16t25.5 -6q30 0 47 29t27 77l29 142
h123l-30 -147q-5 -28 -5 -45q0 -26 12 -41t32 -15q17 0 32 10t26 25q14 21 23 48t15 61q3 17 5 32.5t2 29.5q0 38 -13 67.5t-47 58.5l77 88q45 -35 75.5 -86t30.5 -117q0 -17 -2 -39.5t-6 -41.5q-13 -66 -32.5 -109.5t-52.5 -78.5q-29 -31 -66 -45t-71 -14q-52 0 -79 24.5
t-38 62.5q-26 -42 -59.5 -64.5t-84.5 -22.5z" />
    <glyph glyph-name="iotadieresis" unicode="&#x3ca;" horiz-adv-x="308" 
d="M170 166q-3 -15 -3 -27q0 -34 44 -34h41l-21 -105h-55q-37 0 -63 9t-43 26q-30 30 -30 78q0 14 2.5 29.5t4.5 26.5l70 352h124zM353 603h-106l24 122h106zM144 603h-106l24 122h106z" />
    <glyph glyph-name="upsilondieresis" unicode="&#x3cb;" horiz-adv-x="538" 
d="M226 -6q-37 0 -69.5 10.5t-56.5 30.5t-38 50.5t-14 70.5q0 15 2.5 35.5t6.5 38.5l58 291h124l-60 -299q-2 -13 -4 -27.5t-2 -24.5q0 -30 17 -47.5t50 -17.5q46 0 69 32t33 81l61 303h124l-63 -317q-20 -102 -77.5 -156t-160.5 -54zM495 603h-106l24 122h106zM286 603
h-106l24 122h106z" />
    <glyph glyph-name="omicrontonos" unicode="&#x3cc;" horiz-adv-x="516" 
d="M302 527q33 0 64.5 -10t56 -31t40 -53.5t15.5 -77.5q0 -24 -3.5 -50.5t-6.5 -43.5q-8 -41 -17.5 -72.5t-20.5 -56t-24.5 -43.5t-30.5 -35q-30 -29 -70 -44.5t-90 -15.5q-33 0 -65 10t-56.5 31t-40 53.5t-15.5 77.5q0 24 3.5 50.5t7.5 44.5q8 41 17 72t20.5 55.5t25 43
t30.5 35.5q29 29 69.5 44.5t90.5 15.5zM289 416q-38 0 -64 -26q-19 -18 -31 -49.5t-22 -79.5q-7 -34 -9 -53t-2 -28q0 -38 18.5 -56.5t47.5 -18.5q20 0 36 7t28 19q19 18 31.5 49.5t21.5 80.5q7 33 9 52.5t2 27.5q0 38 -18.5 56.5t-47.5 18.5zM384 630l-114 -48l32 160h104z
" />
    <glyph glyph-name="upsilontonos" unicode="&#x3cd;" horiz-adv-x="538" 
d="M226 -6q-37 0 -69.5 10.5t-56.5 30.5t-38 50.5t-14 70.5q0 15 2.5 35.5t6.5 38.5l58 291h124l-60 -299q-2 -13 -4 -27.5t-2 -24.5q0 -30 17 -47.5t50 -17.5q46 0 69 32t33 81l61 303h124l-63 -317q-20 -102 -77.5 -156t-160.5 -54zM395 630l-114 -48l32 160h104z" />
    <glyph glyph-name="omegatonos" unicode="&#x3ce;" horiz-adv-x="715" 
d="M182 -6q-34 0 -61 13t-45.5 36t-28.5 54t-10 67q0 34 3.5 61.5t9.5 56.5q14 60 40 108t71 87q17 16 34 27t36 20l65 -87q-36 -22 -60 -46q-23 -23 -39.5 -52t-25.5 -70q-5 -22 -8.5 -47t-3.5 -48q0 -12 2.5 -24.5t8.5 -22.5t16.5 -16t25.5 -6q30 0 47 29t27 77l29 142
h123l-30 -147q-5 -28 -5 -45q0 -26 12 -41t32 -15q17 0 32 10t26 25q14 21 23 48t15 61q3 17 5 32.5t2 29.5q0 38 -13 67.5t-47 58.5l77 88q45 -35 75.5 -86t30.5 -117q0 -17 -2 -39.5t-6 -41.5q-13 -66 -32.5 -109.5t-52.5 -78.5q-29 -31 -66 -45t-71 -14q-52 0 -79 24.5
t-38 62.5q-26 -42 -59.5 -64.5t-84.5 -22.5zM483 630l-114 -48l32 160h104z" />
    <glyph glyph-name="uni0400" unicode="&#x400;" horiz-adv-x="578" 
d="M592 596h-312l-36 -179h269l-23 -116h-269l-37 -185h318l-23 -116h-451l143 712h444zM448 778h-92l-71 168h118z" />
    <glyph glyph-name="uni0401" unicode="&#x401;" horiz-adv-x="578" 
d="M592 596h-312l-36 -179h269l-23 -116h-269l-37 -185h318l-23 -116h-451l143 712h444zM554 780h-106l24 122h106zM345 780h-106l24 122h106z" />
    <glyph glyph-name="uni0402" unicode="&#x402;" horiz-adv-x="682" 
d="M579 595h-205l-30 -153h101q92 0 143 -51.5t51 -139.5q0 -48 -17 -93.5t-50.5 -80.5t-82.5 -56t-113 -21h-39l23 117h21q32 0 55.5 11.5t39.5 29t23.5 39.5t7.5 43q0 37 -18.5 61t-65.5 24h-102l-66 -325h-132l119 595h-147l24 117h484z" />
    <glyph glyph-name="uni0403" unicode="&#x403;" horiz-adv-x="533" 
d="M577 596h-297l-120 -596h-132l143 712h429zM418 778h-99l110 168h120z" />
    <glyph glyph-name="uni0404" unicode="&#x404;" horiz-adv-x="591" 
d="M380 718q55 0 95.5 -17t67.5 -47t40 -70t13 -86h-132q0 22 -5.5 41t-16.5 33t-28.5 22t-42.5 8q-32 0 -54 -11t-41 -30q-9 -9 -16.5 -21t-14.5 -28.5t-13.5 -39.5t-13.5 -54h203l-22 -110h-202q-7 -36 -9.5 -60.5t-2.5 -41.5q0 -46 27 -71t68 -25q26 0 47.5 9t38 23.5
t28.5 33t19 38.5h132q-36 -111 -108 -165.5t-167 -54.5q-51 0 -91.5 15.5t-68.5 43t-43 64.5t-15 79q0 23 4 61.5t17 98.5q10 52 19.5 93t21 74.5t27 61t38.5 52.5q41 43 94 62t107 19z" />
    <glyph glyph-name="uni0405" unicode="&#x405;" horiz-adv-x="563" 
d="M373 718q63 0 116 -21t88 -65l-93 -81q-23 28 -53.5 40t-72.5 12q-31 0 -55.5 -9.5t-41.5 -25t-26 -35t-9 -38.5q0 -17 6 -28.5t16.5 -19.5t24.5 -13t29 -9l59 -14q88 -22 124.5 -65.5t36.5 -119.5q0 -60 -23.5 -104t-63 -72.5t-91 -42t-107.5 -13.5q-84 0 -139.5 22.5
t-100.5 75.5l96 84q29 -34 67 -49.5t89 -15.5q30 0 55.5 8t44.5 22t30 32.5t11 40.5q0 38 -20.5 54.5t-54.5 24.5l-59 15q-88 22 -125 68t-37 101q0 51 19 95t55 76.5t88 51t117 18.5z" />
    <glyph glyph-name="uni0406" unicode="&#x406;" horiz-adv-x="293" 
d="M160 0h-132l143 712h132z" />
    <glyph glyph-name="uni0407" unicode="&#x407;" horiz-adv-x="293" 
d="M160 0h-132l143 712h132zM407 780h-106l24 122h106zM198 780h-106l24 122h106z" />
    <glyph glyph-name="uni0408" unicode="&#x408;" horiz-adv-x="487" 
d="M409 225q-15 -72 -45.5 -117.5t-67.5 -70.5t-76.5 -34t-70.5 -9q-66 0 -107.5 19.5t-71.5 57.5l95 81q16 -20 36.5 -31t50.5 -11q17 0 36.5 5.5t37 19.5t32 38t21.5 60l96 479h132z" />
    <glyph glyph-name="uni0409" unicode="&#x409;" horiz-adv-x="959" 
d="M613 436h116q45 0 80.5 -14t60 -39t37.5 -59.5t13 -76.5q0 -48 -17 -92.5t-50.5 -79t-82.5 -55t-113 -20.5h-264l120 595h-166l-43 -212q-23 -114 -51 -188.5t-63 -117.5t-78.5 -60t-98.5 -17h-56l22 116h20q27 0 51.5 10t46 39t40.5 81t36 136l67 330h428zM589 319
l-40 -202h113q32 0 55.5 11t39 28.5t23 38.5t7.5 41q0 34 -18 58.5t-62 24.5h-118z" />
    <glyph glyph-name="uni040A" unicode="&#x40a;" horiz-adv-x="955" 
d="M610 436h115q45 0 80.5 -14t60 -39t37.5 -59.5t13 -76.5q0 -48 -17 -92.5t-50.5 -79t-82.5 -55t-113 -20.5h-263l64 318h-229l-65 -318h-132l143 712h132l-54 -276h229l55 276h132zM586 318l-40 -200h112q32 0 55.5 11t39 28t23 38t7.5 41q0 34 -18 58t-62 24h-117z" />
    <glyph glyph-name="uni040B" unicode="&#x40b;" horiz-adv-x="704" 
d="M580 595h-205l-30 -153h103q91 0 141.5 -49t50.5 -136q0 -14 -2 -29.5t-5 -29.5l-40 -198h-132l42 207q2 8 3.5 19.5t1.5 18.5q0 33 -18.5 56.5t-64.5 23.5h-103l-66 -325h-132l119 595h-147l24 117h484z" />
    <glyph glyph-name="uni040C" unicode="&#x40c;" horiz-adv-x="614" 
d="M373 374l175 -374h-158l-155 372l277 340h158zM160 0h-132l143 712h132zM467 778h-99l110 168h120z" />
    <glyph glyph-name="uni040D" unicode="&#x40d;" horiz-adv-x="675" 
d="M542 0h-132l89 435l-359 -435h-112l143 712h132l-87 -436l357 436h112zM493 778h-92l-71 168h118z" />
    <glyph glyph-name="uni040E" unicode="&#x40e;" horiz-adv-x="577" 
d="M293 126q-22 -35 -43 -59t-45 -39t-52 -21.5t-63 -6.5h-63l22 116h44q29 0 52.5 12.5t45.5 46.5l33 52l-131 485h141l76 -360l206 360h146zM560 915q-16 -78 -58 -111t-109 -33q-66 0 -100 32t-34 81q0 14 3 31h82q-1 -8 -1 -11v-5q0 -23 17.5 -33.5t41.5 -10.5
q27 0 46.5 13.5t27.5 46.5h84z" />
    <glyph glyph-name="uni040F" unicode="&#x40f;" horiz-adv-x="655" 
d="M522 0h-183l-29 -152h-127l29 152h-184l143 712h132l-120 -595h230l120 595h132z" />
    <glyph glyph-name="uni0410" unicode="&#x410;" horiz-adv-x="607" 
d="M552 0h-134l-15 130h-241l-67 -130h-141l388 712h105zM216 238h177l-34 274z" />
    <glyph glyph-name="uni0411" unicode="&#x411;" horiz-adv-x="609" 
d="M588 596h-308l-32 -160h121q45 0 80.5 -14t60 -39t37.5 -59.5t13 -76.5q0 -48 -17 -92.5t-50.5 -79t-83 -55t-113.5 -20.5h-268l143 712h440zM225 319l-41 -202h118q32 0 55.5 11t39 28.5t23 38.5t7.5 41q0 34 -18 58.5t-62 24.5h-122z" />
    <glyph glyph-name="uni0412" unicode="&#x412;" horiz-adv-x="626" 
d="M429 712q49 0 84 -13.5t57.5 -36.5t33 -53t10.5 -62q0 -24 -5.5 -50t-19 -50.5t-35.5 -46.5t-56 -39q31 -20 49.5 -47.5t18.5 -77.5q0 -54 -18.5 -97.5t-50.5 -74t-76 -47.5t-95 -17h-298l143 712h258zM221 303l-37 -186h138q52 0 81.5 32.5t29.5 80.5q0 32 -18.5 52.5
t-56.5 20.5h-137zM280 595l-36 -175h127q29 0 50 10t34 25.5t19 34t6 35.5q0 12 -3 24.5t-11.5 22.5t-23 16.5t-36.5 6.5h-126z" />
    <glyph glyph-name="uni0413" unicode="&#x413;" horiz-adv-x="533" 
d="M577 596h-297l-120 -596h-132l143 712h429z" />
    <glyph glyph-name="uni0414" unicode="&#x414;" horiz-adv-x="675" 
d="M543 117h81l-54 -272h-127l30 155h-383l-30 -155h-127l53 272h65q29 47 53.5 97.5t45.5 109.5t39.5 129t35.5 156l20 103h418zM349 596l-21 -103q-12 -61 -27 -113t-33 -97.5t-38.5 -86.5t-44.5 -79h227l96 479h-159z" />
    <glyph glyph-name="uni0415" unicode="&#x415;" horiz-adv-x="578" 
d="M592 596h-312l-36 -179h269l-23 -116h-269l-37 -185h318l-23 -116h-451l143 712h444z" />
    <glyph glyph-name="uni0416" unicode="&#x416;" horiz-adv-x="913" 
d="M408 374l-298 -374h-164l324 377l-152 335h153zM466 0h-132l143 712h132zM682 374l167 -374h-158l-149 373l270 339h158z" />
    <glyph glyph-name="uni0417" unicode="&#x417;" horiz-adv-x="574" 
d="M356 718q50 0 88 -14t64 -38t39.5 -57t13.5 -70q0 -24 -5.5 -48.5t-19 -47.5t-36 -44t-56.5 -38q32 -19 52 -49t20 -78q0 -55 -18.5 -99t-52.5 -75.5t-81.5 -48.5t-105.5 -17q-60 0 -103.5 17t-72 47t-42.5 70t-14 86h132q0 -46 26 -75t78 -29q57 0 88 33t31 87
q0 39 -23 59t-65 20h-89l22 110h88q29 0 50.5 8.5t35.5 23t20.5 33t6.5 38.5q0 15 -4.5 29.5t-15 25.5t-27.5 18t-41 7q-27 0 -48 -8.5t-36.5 -23t-26 -33t-16.5 -39.5h-132q33 111 99.5 165.5t176.5 54.5z" />
    <glyph glyph-name="uni0418" unicode="&#x418;" horiz-adv-x="675" 
d="M542 0h-132l89 435l-359 -435h-112l143 712h132l-87 -436l357 436h112z" />
    <glyph glyph-name="uni0419" unicode="&#x419;" horiz-adv-x="675" 
d="M542 0h-132l89 435l-359 -435h-112l143 712h132l-87 -436l357 436h112zM618 915q-16 -78 -58 -111t-109 -33q-66 0 -100 32t-34 81q0 14 3 31h82q-1 -8 -1 -11v-5q0 -23 17.5 -33.5t41.5 -10.5q27 0 46.5 13.5t27.5 46.5h84z" />
    <glyph glyph-name="uni041A" unicode="&#x41a;" horiz-adv-x="614" 
d="M373 374l175 -374h-158l-155 372l277 340h158zM160 0h-132l143 712h132z" />
    <glyph glyph-name="uni041B" unicode="&#x41b;" horiz-adv-x="657" 
d="M524 0h-132l119 595h-164l-43 -212q-23 -114 -51 -188.5t-63 -117.5t-78.5 -60t-98.5 -17h-56l22 116h20q27 0 51.5 10t46 39t40.5 81t36 136l67 330h427z" />
    <glyph glyph-name="uni041C" unicode="&#x41c;" horiz-adv-x="773" 
d="M640 0h-132l85 421l-179 -263h-89l-80 265l-85 -423h-132l143 712h124l101 -380l258 380h129z" />
    <glyph glyph-name="uni041D" unicode="&#x41d;" horiz-adv-x="655" 
d="M522 0h-132l61 302h-230l-61 -302h-132l143 712h132l-58 -294h230l58 294h132z" />
    <glyph glyph-name="uni041E" unicode="&#x41e;" horiz-adv-x="610" 
d="M379 718q51 0 91 -16t67.5 -43.5t42 -64t14.5 -78.5q0 -24 -4 -62t-16 -98q-10 -52 -19.5 -93t-21 -74.5t-27 -61t-38.5 -51.5q-42 -45 -94.5 -63.5t-106.5 -18.5q-51 0 -91 16t-67.5 43.5t-42 64t-14.5 78.5q0 24 4 62t16 98q10 52 19.5 93t21 74.5t27 61t38.5 51.5
q42 45 94.5 63.5t106.5 18.5zM370 602q-56 0 -95 -43q-10 -11 -18.5 -25.5t-17 -38t-17 -57t-18.5 -82.5q-9 -45 -14.5 -84t-5.5 -65q0 -48 27.5 -72.5t64.5 -24.5q56 0 95 43q10 11 18.5 25.5t17 37.5t17 57t18.5 83q9 45 14.5 84t5.5 65q0 48 -27 72.5t-65 24.5z" />
    <glyph glyph-name="uni041F" unicode="&#x41f;" horiz-adv-x="655" 
d="M522 0h-132l120 595h-230l-120 -595h-132l143 712h494z" />
    <glyph glyph-name="uni0420" unicode="&#x420;" horiz-adv-x="597" 
d="M424 712q45 0 80.5 -14t60 -38.5t37.5 -59t13 -76.5q0 -48 -17 -92.5t-50.5 -79t-82.5 -55.5t-113 -21h-137l-55 -276h-132l143 712h253zM280 595l-41 -202h118q32 0 55.5 11t39 28.5t23 39t7.5 41.5q0 34 -18 58t-62 24h-122z" />
    <glyph glyph-name="uni0421" unicode="&#x421;" horiz-adv-x="590" 
d="M380 718q55 0 95.5 -17t67.5 -47t40 -70t13 -86h-132q-1 44 -22 74t-70 30q-33 0 -55 -11t-41 -30q-11 -11 -20 -26.5t-17 -39t-16.5 -57.5t-17.5 -82q-8 -45 -14 -84.5t-6 -65.5q0 -46 27 -71t68 -25q26 0 47.5 9t38 23.5t28 33t18.5 38.5h132q-36 -111 -107.5 -165.5
t-166.5 -54.5q-51 0 -91.5 15.5t-68.5 43t-43 64.5t-15 79q0 23 4 61.5t17 98.5q10 52 19.5 93t21 74.5t27 61t38.5 52.5q41 43 94 62t107 19z" />
    <glyph glyph-name="uni0422" unicode="&#x422;" 
d="M582 595h-175l-119 -595h-132l119 595h-179l23 117h486z" />
    <glyph glyph-name="uni0423" unicode="&#x423;" horiz-adv-x="577" 
d="M293 126q-22 -35 -43 -59t-45 -39t-52 -21.5t-63 -6.5h-63l22 116h44q29 0 52.5 12.5t45.5 46.5l33 52l-131 485h141l76 -360l206 360h146z" />
    <glyph glyph-name="uni0424" unicode="&#x424;" horiz-adv-x="802" 
d="M550 674q50 -2 93 -15.5t74 -39t48.5 -63t17.5 -87.5q0 -24 -1.5 -49t-6.5 -48q-8 -44 -18.5 -77t-24 -59t-31 -46.5t-40.5 -39.5q-38 -32 -99.5 -49.5t-130.5 -17.5l-17 -88h-132l17 88q-50 2 -93 15t-74 38.5t-48.5 63t-17.5 87.5q0 24 1.5 49t6.5 48q8 44 18.5 77
t24 59t31 46.5t40.5 39.5q38 31 99.5 49.5t130.5 18.5l14 70h132zM399 556q-73 0 -117 -30q-29 -20 -46.5 -53t-29.5 -92q-4 -19 -5.5 -37.5t-1.5 -35.5q0 -53 34.5 -80t93.5 -28zM450 200q73 0 117 30q29 20 46.5 53t29.5 93q4 18 5.5 36.5t1.5 35.5q0 53 -34.5 80.5
t-93.5 27.5z" />
    <glyph glyph-name="uni0425" unicode="&#x425;" horiz-adv-x="586" 
d="M383 360l143 -360h-148l-88 253l-180 -253h-154l280 370l-132 342h147l79 -234l163 234h154z" />
    <glyph glyph-name="uni0426" unicode="&#x426;" horiz-adv-x="677" 
d="M545 117h76l-53 -272h-127l30 155h-443l143 712h132l-120 -595h230l120 595h132z" />
    <glyph glyph-name="uni0427" unicode="&#x427;" horiz-adv-x="619" 
d="M487 0h-132l59 297q-37 -8 -75 -13.5t-78 -5.5q-35 0 -65 9t-52 26.5t-34.5 43.5t-12.5 59q0 10 1 23.5t4 27.5l49 245h132l-43 -219q-2 -8 -3.5 -18.5t-1.5 -16.5q0 -33 21 -47.5t59 -14.5q64 0 122 14l61 302h132z" />
    <glyph glyph-name="uni0428" unicode="&#x428;" horiz-adv-x="929" 
d="M797 0h-769l143 712h132l-119 -595h186l119 595h132l-119 -595h186l119 595h132z" />
    <glyph glyph-name="uni0429" unicode="&#x429;" horiz-adv-x="951" 
d="M820 117h77l-54 -272h-127l31 155h-719l143 712h132l-119 -595h186l119 595h132l-119 -595h186l119 595h132z" />
    <glyph glyph-name="uni042A" unicode="&#x42a;" horiz-adv-x="691" 
d="M345 436h116q45 0 80.5 -14t60 -39t37.5 -59.5t13 -76.5q0 -48 -17 -92.5t-50.5 -79t-82.5 -55t-113 -20.5h-264l119 595h-148l24 117h280zM321 319l-40 -202h113q32 0 55.5 11t39 28.5t23 38.5t7.5 41q0 34 -18 58.5t-62 24.5h-118z" />
    <glyph glyph-name="uni042B" unicode="&#x42b;" horiz-adv-x="877" 
d="M744 0h-132l143 712h132zM248 436h116q45 0 80.5 -14t60 -39t37.5 -59.5t13 -76.5q0 -48 -17 -92.5t-50.5 -79t-82.5 -55t-113 -20.5h-264l143 712h132zM224 319l-40 -202h113q32 0 55.5 11t39 28.5t23 38.5t7.5 41q0 34 -18 58.5t-62 24.5h-118z" />
    <glyph glyph-name="uni042C" unicode="&#x42c;" horiz-adv-x="594" 
d="M248 436h116q45 0 80.5 -14t60 -39t37.5 -59.5t13 -76.5q0 -48 -17 -92.5t-50.5 -79t-82.5 -55t-113 -20.5h-264l143 712h132zM224 319l-40 -202h113q32 0 55.5 11t39 28.5t23 38.5t7.5 41q0 34 -18 58.5t-62 24.5h-118z" />
    <glyph glyph-name="uni042D" unicode="&#x42d;" horiz-adv-x="591" 
d="M361 718q51 0 91 -15.5t67.5 -43t42.5 -64.5t15 -79q0 -23 -4 -61.5t-17 -98.5q-11 -52 -20 -93t-20 -74.5t-26.5 -61t-38.5 -52.5q-41 -43 -93 -62t-107 -19t-96 16t-68.5 45.5t-41.5 70t-14 88.5h135q0 -22 5.5 -41t16.5 -33t28 -22t42 -8q32 0 54 10.5t42 30.5
q10 10 17.5 23t14 31.5t13 43.5t14.5 59h-202l22 110h201q10 59 10 88q0 46 -26.5 71t-68.5 25q-25 0 -45.5 -8.5t-36.5 -23t-27.5 -33t-18.5 -39.5h-136q32 109 106 164.5t170 55.5z" />
    <glyph glyph-name="uni042E" unicode="&#x42e;" horiz-adv-x="873" 
d="M642 718q51 0 91 -16t67.5 -43.5t42 -64t14.5 -78.5q0 -24 -4 -62t-16 -98q-10 -52 -19.5 -93t-21 -74.5t-27 -61t-38.5 -51.5q-42 -45 -94.5 -63.5t-106.5 -18.5q-51 0 -91 16t-67.5 43.5t-42 64t-14.5 78.5q0 18 2 43.5t8 62.5h-104l-61 -302h-132l143 712h132
l-58 -294h103q8 38 16.5 69t19 57.5t24.5 49t33 42.5q42 45 94.5 63.5t106.5 18.5zM633 602q-56 0 -95 -43q-10 -11 -18.5 -25.5t-17 -38t-17 -57t-18.5 -82.5q-9 -45 -14.5 -84t-5.5 -65q0 -48 27.5 -72.5t64.5 -24.5q56 0 95 43q10 11 18.5 25.5t17 37.5t17 57t18.5 83
q9 45 14.5 84t5.5 65q0 48 -27 72.5t-65 24.5z" />
    <glyph glyph-name="uni042F" unicode="&#x42f;" horiz-adv-x="621" 
d="M488 0h-132l55 276h-105l-183 -276h-148l208 310q-39 24 -58 64t-19 91q0 48 17 92.5t50.5 79t83 55t113.5 20.5h261zM364 595q-32 0 -55.5 -11t-39 -28.5t-23 -38.5t-7.5 -41q0 -34 18 -58.5t62 -24.5h115l41 202h-111z" />
    <glyph glyph-name="uni0430" unicode="&#x430;" horiz-adv-x="509" 
d="M160 -6q-34 0 -61.5 10.5t-47 29t-30 43.5t-10.5 55q0 38 12 69t35 54q29 29 68 41.5t84 12.5h124l7 31q2 8 2.5 13.5t0.5 13.5q0 26 -19 41t-58 15q-38 0 -65 -13.5t-47 -35.5l-64 83q32 32 76 51t117 19q33 0 66 -7t59.5 -24t43 -44.5t16.5 -69.5q0 -23 -5 -46
l-68 -336h-119l9 45q-22 -22 -52.5 -36.5t-73.5 -14.5zM199 94q26 0 46.5 9t34.5 23q12 12 19.5 29.5t11.5 37.5l6 31h-95q-42 0 -65.5 -22.5t-23.5 -57.5q0 -22 16 -36t50 -14z" />
    <glyph glyph-name="uni0431" unicode="&#x431;" horiz-adv-x="505" 
d="M488 610q-70 -1 -115 -7.5t-78 -21.5q-36 -17 -58.5 -47t-38.5 -88q23 29 57 44.5t75 15.5q62 0 100 -38.5t38 -122.5q0 -19 -3 -45t-7 -46q-8 -41 -17 -72t-20.5 -55t-25 -43t-30.5 -35q-27 -26 -65 -40.5t-90 -14.5q-32 0 -62.5 9.5t-54.5 29.5t-39 52.5t-15 77.5
q0 27 5.5 62.5t12.5 69.5q18 87 33.5 147t32 100t34.5 64.5t40 42.5q23 18 52 31t66.5 21.5t85.5 12.5t110 4zM282 400q-19 0 -34 -7t-26 -18q-17 -17 -29 -46t-21 -75q-5 -23 -6.5 -43t-1.5 -37q0 -35 17.5 -51t43.5 -16q19 0 34 7.5t26 18.5q17 17 29 46t21 75
q5 23 6.5 42.5t1.5 36.5q0 35 -17.5 51t-43.5 16z" />
    <glyph glyph-name="uni0432" unicode="&#x432;" horiz-adv-x="529" 
d="M355 521q66 0 104.5 -31.5t38.5 -91.5q0 -40 -18.5 -75t-66.5 -59q25 -17 37.5 -39t12.5 -54q0 -40 -14 -72t-39 -54t-59 -33.5t-74 -11.5h-260l104 521h234zM185 218l-25 -124h95q43 0 62.5 20.5t19.5 50.5q0 9 -2.5 18t-9 17t-17.5 13t-28 5h-95zM227 427l-23 -115h92
q22 0 36.5 6.5t23.5 16.5t12.5 21.5t3.5 22.5q0 20 -12 34t-44 14h-89z" />
    <glyph glyph-name="uni0433" unicode="&#x433;" horiz-adv-x="410" 
d="M429 411h-205l-83 -411h-124l104 521h330z" />
    <glyph glyph-name="uni0434" unicode="&#x434;" horiz-adv-x="557" 
d="M439 111h64l-47 -236h-117l25 125h-286l-25 -125h-117l47 236h52q19 32 34.5 63.5t30 70.5t27.5 89.5t27 120.5l13 66h355zM264 411l-13 -62q-18 -86 -42 -141t-50 -97h156l60 300h-111z" />
    <glyph glyph-name="uni0435" unicode="&#x435;" horiz-adv-x="523" 
d="M301 527q41 0 75 -13t58.5 -37.5t38 -59t13.5 -76.5q0 -26 -4.5 -57t-11.5 -61h-312q-2 -9 -3 -18.5t-1 -18.5q0 -38 22 -62.5t67 -24.5q38 0 67.5 13.5t56.5 39.5l65 -82q-41 -38 -92.5 -57t-110.5 -19q-34 0 -68.5 9.5t-62 31t-45 56.5t-17.5 86q0 66 16 128.5t49 112
t82.5 79.5t117.5 30zM294 425q-40 0 -71.5 -27.5t-48.5 -91.5h191q3 16 3 35q0 42 -20.5 63t-53.5 21z" />
    <glyph glyph-name="uni0436" unicode="&#x436;" horiz-adv-x="743" 
d="M309 270l-212 -270h-151l242 283l-122 238h132zM380 0h-124l104 521h124zM559 274l132 -274h-145l-111 272l202 249h145z" />
    <glyph glyph-name="uni0437" unicode="&#x437;" horiz-adv-x="483" 
d="M265 527q91 0 137 -37.5t46 -100.5q0 -48 -26 -77.5t-61 -43.5q27 -14 41.5 -40.5t14.5 -58.5q0 -80 -57.5 -127.5t-175.5 -47.5q-53 0 -101 17.5t-89 62.5l82 78q23 -27 52 -40t63 -13q49 0 74 18.5t25 49.5q0 21 -13 36.5t-53 15.5h-65l17 92h69q42 0 61.5 17t19.5 42
q0 24 -18.5 39t-60.5 15q-40 0 -67.5 -13.5t-55.5 -39.5l-58 76q23 21 45.5 36t46.5 24.5t50 14.5t57 5z" />
    <glyph glyph-name="uni0438" unicode="&#x438;" horiz-adv-x="553" 
d="M432 0h-124l61 302l-228 -302h-124l104 521h124l-60 -302l228 302h123z" />
    <glyph glyph-name="uni0439" unicode="&#x439;" horiz-adv-x="553" 
d="M432 0h-124l61 302l-228 -302h-124l104 521h124l-60 -302l228 302h123zM523 736q-16 -78 -58 -111t-109 -33q-66 0 -100 32t-34 81q0 14 3 31h82q-1 -8 -1 -11v-5q0 -23 17.5 -33.5t41.5 -10.5q27 0 46.5 13.5t27.5 46.5h84z" />
    <glyph glyph-name="uni043A" unicode="&#x43a;" horiz-adv-x="509" 
d="M320 274l133 -274h-143l-114 272l207 249h145zM141 0h-124l104 521h124z" />
    <glyph glyph-name="uni043B" unicode="&#x43b;" horiz-adv-x="539" 
d="M418 0h-124l81 411h-115l-26 -130q-17 -84 -38.5 -138.5t-48.5 -86t-59.5 -44t-71.5 -12.5h-57l20 102h15q16 0 32 4.5t32 24t31 58.5t29 109l45 223h358z" />
    <glyph glyph-name="uni043C" unicode="&#x43c;" horiz-adv-x="644" 
d="M523 0h-124l61 302l-131 -182h-70l-57 182l-61 -302h-124l104 521h118l79 -262l188 262h121z" />
    <glyph glyph-name="uni043D" unicode="&#x43d;" horiz-adv-x="539" 
d="M418 0h-124l43 213h-153l-43 -213h-124l104 521h124l-39 -198h153l39 198h124z" />
    <glyph glyph-name="uni043E" unicode="&#x43e;" horiz-adv-x="516" 
d="M302 527q33 0 64.5 -10t56 -31t40 -53.5t15.5 -77.5q0 -24 -3.5 -50.5t-6.5 -43.5q-8 -41 -17.5 -72.5t-20.5 -56t-24.5 -43.5t-30.5 -35q-30 -29 -70 -44.5t-90 -15.5q-33 0 -65 10t-56.5 31t-40 53.5t-15.5 77.5q0 24 3.5 50.5t7.5 44.5q8 41 17 72t20.5 55.5t25 43
t30.5 35.5q29 29 69.5 44.5t90.5 15.5zM289 416q-38 0 -64 -26q-19 -18 -31 -49.5t-22 -79.5q-7 -34 -9 -53t-2 -28q0 -38 18.5 -56.5t47.5 -18.5q20 0 36 7t28 19q19 18 31.5 49.5t21.5 80.5q7 33 9 52.5t2 27.5q0 38 -18.5 56.5t-47.5 18.5z" />
    <glyph glyph-name="uni043F" unicode="&#x43f;" horiz-adv-x="539" 
d="M418 0h-124l82 411h-153l-82 -411h-124l104 521h401z" />
    <glyph glyph-name="uni0440" unicode="&#x440;" horiz-adv-x="532" 
d="M359 527q41 0 68.5 -13.5t43.5 -34.5t22.5 -46.5t6.5 -49.5q0 -19 -3 -44.5t-13 -77.5q-16 -81 -34.5 -133.5t-48.5 -82.5t-63.5 -40.5t-68.5 -10.5t-66.5 13t-51.5 43l-48 -241h-124l142 712h120l-11 -50q26 30 59 43t70 13zM309 416q-28 0 -47 -11t-32 -31t-21.5 -48.5
t-15.5 -64.5q-4 -20 -7.5 -43.5t-3.5 -40.5q0 -12 2 -24.5t8.5 -23t19 -17.5t32.5 -7q28 0 47 11t32 31.5t21.5 49t15.5 64.5q4 20 7.5 43.5t3.5 40.5q0 12 -2 24.5t-8.5 23t-19 17t-32.5 6.5z" />
    <glyph glyph-name="uni0441" unicode="&#x441;" horiz-adv-x="461" 
d="M313 527q57 0 93.5 -21t59.5 -51l-93 -82q-15 20 -32 31.5t-40 11.5q-42 0 -74 -33q-20 -21 -34 -53t-21 -69q-3 -17 -5 -33t-2 -34q0 -42 19 -65.5t55 -23.5q26 0 47.5 11t43.5 33l69 -89q-33 -31 -77 -48.5t-95 -17.5q-37 0 -71 12t-59.5 35t-41 58t-15.5 81q0 38 8 81
q15 79 43 130.5t64 81.5t77 42t81 12z" />
    <glyph glyph-name="uni0442" unicode="&#x442;" horiz-adv-x="446" 
d="M466 411h-143l-83 -411h-124l83 411h-160l21 110h427z" />
    <glyph glyph-name="uni0443" unicode="&#x443;" horiz-adv-x="464" 
d="M190 -84q-9 -17 -20 -33t-23 -28q-25 -25 -55 -35.5t-69 -10.5h-48l23 112h28q27 0 42 13t29 41l33 62l-74 484h123l38 -336l167 336h131z" />
    <glyph glyph-name="uni0444" unicode="&#x444;" horiz-adv-x="697" 
d="M463 524q38 -2 73 -15.5t62 -37t43 -57t16 -76.5q0 -23 -2.5 -47t-5.5 -41q-8 -39 -17.5 -68t-22 -51.5t-28.5 -40t-35 -34.5q-32 -27 -83 -43.5t-106 -16.5l-37 -187h-124l37 188q-38 2 -73 15.5t-61.5 37t-42.5 57t-16 76.5q0 23 2.5 47t5.5 41q8 39 17.5 68t22 51.5
t28 40.5t35.5 35q32 27 83 43t105 16l38 187h124zM319 416q-26 0 -48 -7.5t-38 -19.5q-23 -18 -37.5 -47.5t-24.5 -77.5q-3 -14 -4.5 -32.5t-1.5 -33.5q0 -44 23.5 -67t68.5 -25zM378 105q53 2 86 27q24 18 38 48t24 78q3 14 4.5 32t1.5 33q0 44 -23.5 67.5t-68.5 25.5z" />
    <glyph glyph-name="uni0445" unicode="&#x445;" horiz-adv-x="509" 
d="M321 262l123 -262h-143l-65 163l-121 -163h-153l221 269l-118 252h143l61 -155l111 155h151z" />
    <glyph glyph-name="uni0446" unicode="&#x446;" horiz-adv-x="557" 
d="M440 110h65l-47 -235h-117l26 125h-350l104 521h124l-82 -411h153l82 411h124z" />
    <glyph glyph-name="uni0447" unicode="&#x447;" horiz-adv-x="513" 
d="M393 0h-124l41 212q-32 -8 -59.5 -12t-57.5 -4q-59 0 -93 29.5t-34 83.5q0 9 1.5 20.5t3.5 23.5l34 168h124l-28 -137q-2 -9 -2.5 -18t-0.5 -14q0 -46 56 -46q20 0 39.5 3t37.5 8l41 204h124z" />
    <glyph glyph-name="uni0448" unicode="&#x448;" horiz-adv-x="786" 
d="M665 0h-648l104 521h124l-82 -411h138l82 411h124l-82 -411h138l82 411h124z" />
    <glyph glyph-name="uni0449" unicode="&#x449;" horiz-adv-x="803" 
d="M687 110h64l-47 -235h-116l24 125h-595l104 521h124l-82 -411h138l82 411h124l-82 -411h138l82 411h124z" />
    <glyph glyph-name="uni044A" unicode="&#x44a;" horiz-adv-x="556" 
d="M255 333h106q70 0 109 -40.5t39 -103.5q0 -37 -13.5 -71t-39 -60.5t-64 -42t-87.5 -15.5h-240l82 410h-108l22 111h232zM236 233l-27 -133h93q25 0 41.5 8.5t26.5 21t13.5 25.5t3.5 22q0 23 -12 39.5t-44 16.5h-95z" />
    <glyph glyph-name="uni044B" unicode="&#x44b;" horiz-adv-x="751" 
d="M629 0h-124l105 521h124zM207 333h106q70 0 109 -40.5t39 -103.5q0 -37 -13.5 -71t-39 -60.5t-64 -42t-87.5 -15.5h-240l104 521h124zM188 233l-27 -133h93q25 0 41.5 8.5t26.5 21t13.5 25.5t3.5 22q0 23 -12 39.5t-44 16.5h-95z" />
    <glyph glyph-name="uni044C" unicode="&#x44c;" horiz-adv-x="508" 
d="M207 333h106q70 0 109 -40.5t39 -103.5q0 -37 -13.5 -71t-39 -60.5t-64 -42t-87.5 -15.5h-240l104 521h124zM188 233l-27 -133h93q25 0 41.5 8.5t26.5 21t13.5 25.5t3.5 22q0 23 -12 39.5t-44 16.5h-95z" />
    <glyph glyph-name="uni044D" unicode="&#x44d;" horiz-adv-x="461" 
d="M229 527q41 0 76 -12.5t60.5 -36.5t39.5 -59t14 -80q0 -22 -2 -47t-6 -45q-24 -129 -83 -191t-167 -62q-33 0 -58 4.5t-45.5 13t-38 21.5t-33.5 30l87 85q20 -25 42 -35t50 -10q23 0 42.5 7.5t36.5 24.5q31 34 40 87h-155l17 84h153q2 9 2 16v14q0 38 -23 60.5t-58 22.5
q-52 0 -94 -45l-65 80q34 35 75 54t93 19z" />
    <glyph glyph-name="uni044E" unicode="&#x44e;" horiz-adv-x="738" 
d="M437 -6q-33 0 -65 10t-56.5 31t-40 53.5t-15.5 77.5q0 24 3 48h-79l-43 -214h-124l104 521h124l-39 -199h79q14 53 33 86t46 59q29 29 69.5 44.5t90.5 15.5q33 0 64.5 -10t56 -31t40 -53.5t15.5 -77.5q0 -24 -3.5 -50.5t-6.5 -43.5q-8 -41 -17.5 -72.5t-20.5 -56
t-24.5 -43.5t-30.5 -35q-30 -29 -70 -44.5t-90 -15.5zM449 105q20 0 36 7t28 19q19 18 31.5 49.5t21.5 80.5q7 33 9 52.5t2 27.5q0 38 -18.5 56.5t-47.5 18.5q-38 0 -64 -26q-19 -18 -31 -49.5t-22 -79.5q-7 -34 -9 -53t-2 -28q0 -38 18.5 -56.5t47.5 -18.5z" />
    <glyph glyph-name="uni044F" unicode="&#x44f;" horiz-adv-x="518" 
d="M397 0h-124l38 188h-81l-115 -188h-133l144 211q-32 18 -47.5 50t-15.5 71q0 37 13 71t39 60.5t64 42t88 15.5h234zM270 421q-26 0 -42 -8.5t-26 -21t-13.5 -25.5t-3.5 -22q0 -23 12 -39.5t44 -16.5h90l26 133h-87z" />
    <glyph glyph-name="uni0450" unicode="&#x450;" horiz-adv-x="523" 
d="M301 527q41 0 75 -13t58.5 -37.5t38 -59t13.5 -76.5q0 -26 -4.5 -57t-11.5 -61h-312q-2 -9 -3 -18.5t-1 -18.5q0 -38 22 -62.5t67 -24.5q38 0 67.5 13.5t56.5 39.5l65 -82q-41 -38 -92.5 -57t-110.5 -19q-34 0 -68.5 9.5t-62 31t-45 56.5t-17.5 86q0 66 16 128.5t49 112
t82.5 79.5t117.5 30zM294 425q-40 0 -71.5 -27.5t-48.5 -91.5h191q3 16 3 35q0 42 -20.5 63t-53.5 21zM378 601h-91l-72 167h118z" />
    <glyph glyph-name="uni0451" unicode="&#x451;" horiz-adv-x="523" 
d="M301 527q41 0 75 -13t58.5 -37.5t38 -59t13.5 -76.5q0 -26 -4.5 -57t-11.5 -61h-312q-2 -9 -3 -18.5t-1 -18.5q0 -38 22 -62.5t67 -24.5q38 0 67.5 13.5t56.5 39.5l65 -82q-41 -38 -92.5 -57t-110.5 -19q-34 0 -68.5 9.5t-62 31t-45 56.5t-17.5 86q0 66 16 128.5t49 112
t82.5 79.5t117.5 30zM294 425q-40 0 -71.5 -27.5t-48.5 -91.5h191q3 16 3 35q0 42 -20.5 63t-53.5 21zM484 603h-106l24 122h106zM275 603h-106l24 122h106z" />
    <glyph glyph-name="uni0452" unicode="&#x452;" horiz-adv-x="540" 
d="M270 645h194l-17 -88h-194l-20 -103q25 23 57 35.5t70 12.5q24 0 48.5 -8t44 -25.5t32 -45t12.5 -66.5q0 -15 -2.5 -30.5t-4.5 -26.5l-64 -326q-14 -72 -58 -113t-116 -41h-78l22 105h44q26 0 42.5 15.5t21.5 43.5l60 308q2 8 3 17t1 17q0 34 -19 49.5t-42 15.5
q-14 0 -30 -4t-31 -15t-27.5 -30.5t-18.5 -50.5l-58 -291h-124l111 557h-50l17 88h50l14 67h124z" />
    <glyph glyph-name="uni0453" unicode="&#x453;" horiz-adv-x="410" 
d="M429 411h-205l-83 -411h-124l104 521h330zM327 601h-100l111 167h119z" />
    <glyph glyph-name="uni0454" unicode="&#x454;" horiz-adv-x="461" 
d="M231 -6q-38 0 -72.5 12t-60.5 35t-41.5 58t-15.5 81q0 19 1.5 40t5.5 41q15 79 43.5 130.5t65 81.5t77.5 42t82 12q57 0 95 -20.5t62 -52.5l-92 -80q-29 45 -79 45q-46 0 -79 -34q-15 -15 -25.5 -35.5t-16.5 -43.5h155l-17 -84h-155q-3 -18 -3 -35q0 -41 22 -62.5
t59 -21.5q29 0 51.5 10.5t44.5 33.5l68 -87q-69 -66 -175 -66z" />
    <glyph glyph-name="uni0455" unicode="&#x455;" horiz-adv-x="475" 
d="M286 527q56 0 97.5 -14.5t75.5 -49.5l-85 -75q-18 19 -44.5 28t-54.5 9q-48 0 -69.5 -19.5t-21.5 -43.5q0 -32 48 -39l67 -11q70 -11 98 -46t28 -89q0 -39 -15 -70t-41 -56q-32 -31 -81 -44t-100 -13q-70 0 -118 20t-83 58l89 78q20 -23 47.5 -36.5t72.5 -13.5
q54 0 80 21t26 44q0 21 -13 30t-36 13l-68 11q-36 6 -60 18.5t-38.5 28.5t-20.5 34.5t-6 36.5q0 36 13.5 70t39.5 60q60 60 173 60z" />
    <glyph glyph-name="uni0456" unicode="&#x456;" horiz-adv-x="262" 
d="M142 0h-124l101 505h124zM264 607h-127l20 103h128z" />
    <glyph glyph-name="uni0457" unicode="&#x457;" horiz-adv-x="262" 
d="M142 0h-124l101 505h124zM358 603h-106l24 122h106zM149 603h-106l24 122h106z" />
    <glyph glyph-name="uni0458" unicode="&#x458;" horiz-adv-x="262" 
d="M133 -48q-14 -69 -56.5 -108t-111.5 -39h-77l21 105h45q23 0 37 14.5t19 38.5l109 542h124zM264 607h-127l20 103h128z" />
    <glyph glyph-name="uni0459" unicode="&#x459;" horiz-adv-x="785" 
d="M484 333h106q70 0 109 -40.5t39 -103.5q0 -37 -13.5 -71t-39 -60.5t-64 -42t-87.5 -15.5h-240l82 410h-116l-26 -129q-17 -84 -38.5 -138.5t-48.5 -86t-59.5 -44t-71.5 -12.5h-57l20 102h15q16 0 32 4.5t32 24t31 58.5t29 109l45 223h359zM465 233l-27 -133h93
q25 0 41.5 8.5t26.5 21t13.5 25.5t3.5 22q0 23 -12 39.5t-44 16.5h-95z" />
    <glyph glyph-name="uni045A" unicode="&#x45a;" horiz-adv-x="786" 
d="M121 521h124l-38 -188h154l38 188h124l-38 -188h106q70 0 109 -40.5t39 -103.5q0 -37 -13.5 -71t-39 -60.5t-64 -42t-87.5 -15.5h-240l44 222h-155l-43 -222h-124zM532 100q25 0 41.5 8.5t26.5 21t13.5 25.5t3.5 22q0 23 -12 39.5t-44 16.5h-95l-27 -133h93z" />
    <glyph glyph-name="uni045B" unicode="&#x45b;" horiz-adv-x="539" 
d="M270 645h194l-18 -88h-193l-21 -103q25 23 57.5 35.5t70.5 12.5q24 0 48 -8t43.5 -25.5t32 -45t12.5 -66.5q0 -32 -6 -57l-60 -300h-124l58 292q2 8 3 17t1 17q0 34 -19 49.5t-42 15.5q-14 0 -30 -4t-31 -15t-27.5 -30.5t-18.5 -50.5l-58 -291h-124l111 557h-50l17 88h50
l14 67h124z" />
    <glyph glyph-name="uni045C" unicode="&#x45c;" horiz-adv-x="509" 
d="M320 274l133 -274h-143l-114 272l207 249h145zM141 0h-124l104 521h124zM367 601h-100l111 167h119z" />
    <glyph glyph-name="uni045D" unicode="&#x45d;" horiz-adv-x="553" 
d="M432 0h-124l61 302l-228 -302h-124l104 521h124l-60 -302l228 302h123zM399 601h-91l-72 167h118z" />
    </font>
</defs>
</svg>
