<?xml version="1.0" encoding="utf-8"?>
<!-- Generator: Adobe Illustrator 26.1.0, SVG Export Plug-In . SVG Version: 6.00 Build 0)  -->
<svg version="1.1" id="Layer_1" xmlns="http://www.w3.org/2000/svg" xmlns:xlink="http://www.w3.org/1999/xlink" x="0px" y="0px"
	 viewBox="0 0 120 40" style="enable-background:new 0 0 120 40;" xml:space="preserve">
<style type="text/css">
	.st0{fill:#A6A6A6;}
	.st1{fill:#FFFFFF;stroke:#FFFFFF;stroke-width:0.1067;stroke-miterlimit:10;}
	.st2{fill:#FFFFFF;}
	.st3{fill:url(#SVGID_1_);}
	.st4{fill:url(#SVGID_00000117661853976695423300000007909107946036483002_);}
	.st5{fill:url(#SVGID_00000002344604376203637120000016756177468488699576_);}
	.st6{fill:url(#SVGID_00000140732961235113604400000000760251370160286610_);}
</style>
<path d="M115.4,37.1H4.4c-2.4,0-4.4-2-4.4-4.3v-26c0-2.4,2-4.3,4.4-4.3h111c2.4,0,4.4,2,4.4,4.3v26
	C119.8,35.2,117.8,37.1,115.4,37.1z"/>
<path class="st0" d="M115.4,3.1c2.1,0,3.7,1.6,3.7,3.6v26c0,2-1.7,3.6-3.7,3.6H4.4c-2.1,0-3.7-1.6-3.7-3.6v-26c0-2,1.7-3.6,3.7-3.6
	H115.4z M115.4,2.4H4.4C2,2.4,0,4.4,0,6.8v26c0,2.4,2,4.3,4.4,4.3h111c2.4,0,4.4-2,4.4-4.3v-26C119.8,4.4,117.8,2.4,115.4,2.4z"/>
<path class="st1" d="M42.1,11.3c0,0.7-0.2,1.3-0.7,1.7c-0.5,0.5-1.2,0.8-2,0.8c-0.8,0-1.4-0.3-2-0.8c-0.5-0.5-0.8-1.2-0.8-1.9
	c0-0.8,0.3-1.4,0.8-1.9c0.5-0.5,1.2-0.8,2-0.8c0.4,0,0.7,0.1,1.1,0.2c0.3,0.1,0.6,0.3,0.8,0.6l-0.5,0.5C40.6,9.2,40.1,9,39.5,9
	c-0.6,0-1,0.2-1.5,0.6c-0.4,0.4-0.6,0.9-0.6,1.5s0.2,1.1,0.6,1.5c0.4,0.4,0.9,0.6,1.5,0.6c0.6,0,1.1-0.2,1.5-0.6
	c0.3-0.3,0.4-0.6,0.4-1.1h-1.9v-0.6h2.6C42.1,11.1,42.1,11.2,42.1,11.3z"/>
<path class="st1" d="M46.2,9.2h-2.4v1.6h2.2v0.6h-2.2v1.6h2.4v0.6h-3.1V8.5h3.1V9.2z"/>
<path class="st1" d="M49.1,13.7h-0.7V9.2h-1.5V8.5h3.7v0.6h-1.5V13.7z"/>
<path class="st1" d="M53.2,13.7V8.5h0.7v5.2H53.2z"/>
<path class="st1" d="M56.9,13.7h-0.7V9.2h-1.5V8.5h3.7v0.6h-1.5V13.7z"/>
<path class="st1" d="M65.3,13c-0.5,0.5-1.2,0.8-2,0.8c-0.8,0-1.4-0.3-2-0.8c-0.5-0.5-0.8-1.2-0.8-1.9c0-0.8,0.3-1.4,0.8-1.9
	c0.5-0.5,1.2-0.8,2-0.8c0.8,0,1.4,0.3,1.9,0.8c0.5,0.5,0.8,1.2,0.8,1.9C66.1,11.9,65.9,12.5,65.3,13z M61.9,12.6
	c0.4,0.4,0.9,0.6,1.4,0.6c0.6,0,1.1-0.2,1.4-0.6c0.4-0.4,0.6-0.9,0.6-1.5c0-0.6-0.2-1.1-0.6-1.5C64.4,9.2,64,9,63.4,9
	c-0.6,0-1.1,0.2-1.4,0.6c-0.4,0.4-0.6,0.9-0.6,1.5C61.3,11.7,61.5,12.2,61.9,12.6z"/>
<path class="st1" d="M67.1,13.7V8.5h0.8l2.6,4h0l0-1v-3h0.7v5.2h-0.7l-2.7-4.2h0l0,1v3.2H67.1z"/>
<path class="st2" d="M60.5,21.3c-2.1,0-3.8,1.5-3.8,3.7c0,2.1,1.7,3.7,3.8,3.7c2.1,0,3.8-1.6,3.8-3.7C64.3,22.8,62.6,21.3,60.5,21.3
	z M60.5,27.2c-1.1,0-2.1-0.9-2.1-2.2c0-1.3,1-2.2,2.1-2.2c1.1,0,2.1,0.9,2.1,2.2C62.6,26.3,61.6,27.2,60.5,27.2z M52.2,21.3
	c-2.1,0-3.8,1.5-3.8,3.7c0,2.1,1.7,3.7,3.8,3.7c2.1,0,3.8-1.6,3.8-3.7C56,22.8,54.3,21.3,52.2,21.3z M52.2,27.2
	c-1.1,0-2.1-0.9-2.1-2.2c0-1.3,1-2.2,2.1-2.2c1.1,0,2.1,0.9,2.1,2.2C54.3,26.3,53.4,27.2,52.2,27.2z M42.4,22.4V24h3.8
	c-0.1,0.9-0.4,1.5-0.9,2c-0.6,0.5-1.4,1.1-3,1.1c-2.4,0-4.2-1.9-4.2-4.2s1.8-4.2,4.2-4.2c1.3,0,2.2,0.5,2.9,1.1l1.1-1.1
	c-1-0.9-2.2-1.6-4-1.6c-3.2,0-6,2.6-6,5.7s2.7,5.7,6,5.7c1.7,0,3.1-0.6,4.1-1.6c1.1-1,1.4-2.5,1.4-3.7c0-0.4,0-0.7-0.1-1H42.4z
	 M82.6,23.6c-0.3-0.8-1.3-2.3-3.2-2.3c-1.9,0-3.6,1.5-3.6,3.7c0,2.1,1.6,3.7,3.7,3.7c1.7,0,2.7-1,3.1-1.6l-1.3-0.8
	c-0.4,0.6-1,1-1.9,1c-0.8,0-1.4-0.4-1.8-1.1l5-2L82.6,23.6z M77.4,24.9c0-1.4,1.1-2.1,2-2.1c0.7,0,1.2,0.3,1.4,0.8L77.4,24.9z
	 M73.3,28.4H75V17.6h-1.7V28.4z M70.6,22.1L70.6,22.1c-0.4-0.4-1.1-0.8-2-0.8c-1.9,0-3.6,1.6-3.6,3.7c0,2.1,1.7,3.7,3.6,3.7
	c0.9,0,1.6-0.4,2-0.8h0.1v0.5c0,1.4-0.8,2.2-2,2.2c-1,0-1.6-0.7-1.9-1.3l-1.4,0.6c0.4,1,1.5,2.2,3.3,2.2c1.9,0,3.6-1.1,3.6-3.8v-6.6
	h-1.6V22.1z M68.7,27.2c-1.1,0-2.1-0.9-2.1-2.2c0-1.3,1-2.2,2.1-2.2c1.1,0,2,0.9,2,2.2C70.7,26.3,69.9,27.2,68.7,27.2z M90.4,17.6
	h-4v10.8h1.7v-4.1h2.3c1.8,0,3.6-1.3,3.6-3.4C94,18.9,92.2,17.6,90.4,17.6z M90.4,22.8h-2.4v-3.7h2.4c1.2,0,1.9,1,1.9,1.9
	C92.4,21.8,91.6,22.8,90.4,22.8z M100.6,21.3c-1.2,0-2.4,0.5-3,1.7l1.5,0.6c0.3-0.6,0.9-0.8,1.5-0.8c0.9,0,1.7,0.5,1.7,1.4v0.1
	c-0.3-0.2-0.9-0.4-1.7-0.4c-1.6,0-3.2,0.9-3.2,2.4c0,1.5,1.3,2.4,2.8,2.4c1.1,0,1.7-0.5,2.1-1.1h0.1v0.8h1.6v-4.2
	C104,22.4,102.6,21.3,100.6,21.3z M100.4,27.2c-0.5,0-1.3-0.3-1.3-0.9c0-0.8,0.9-1.2,1.8-1.2c0.7,0,1.1,0.2,1.5,0.4
	C102.3,26.5,101.4,27.2,100.4,27.2z M109.8,21.5l-1.9,4.7h-0.1l-2-4.7h-1.8l3,6.6l-1.7,3.7h1.7l4.6-10.2H109.8z M94.9,28.4h1.7V17.6
	h-1.7V28.4z"/>
<linearGradient id="SVGID_1_" gradientUnits="userSpaceOnUse" x1="19.241" y1="12.33" x2="4.7004" y2="27.2229" gradientTransform="matrix(1 0 0 -1 0 42)">
	<stop  offset="0" style="stop-color:#00A0FF"/>
	<stop  offset="6.599999e-03" style="stop-color:#00A1FF"/>
	<stop  offset="0.2601" style="stop-color:#00BEFF"/>
	<stop  offset="0.5122" style="stop-color:#00D2FF"/>
	<stop  offset="0.7604" style="stop-color:#00DFFF"/>
	<stop  offset="1" style="stop-color:#00E3FF"/>
</linearGradient>
<path class="st3" d="M9.3,9C9,9.2,8.9,9.7,8.9,10.2v19.2c0,0.5,0.2,1,0.4,1.2l0.1,0.1l11-10.7v-0.3L9.3,9L9.3,9z"/>
<linearGradient id="SVGID_00000112608894033499260300000003783447592939638206_" gradientUnits="userSpaceOnUse" x1="30.0337" y1="22.2222" x2="8.5549" y2="22.2222" gradientTransform="matrix(1 0 0 -1 0 42)">
	<stop  offset="0" style="stop-color:#FFE000"/>
	<stop  offset="0.4087" style="stop-color:#FFBD00"/>
	<stop  offset="0.7754" style="stop-color:#FFA500"/>
	<stop  offset="1" style="stop-color:#FF9C00"/>
</linearGradient>
<path style="fill:url(#SVGID_00000112608894033499260300000003783447592939638206_);" d="M24,23.5l-3.7-3.6v-0.3l3.7-3.6l0.1,0
	l4.3,2.4c1.2,0.7,1.2,1.8,0,2.5L24,23.5L24,23.5z"/>
<linearGradient id="SVGID_00000072976252714073829580000012040082704626748343_" gradientUnits="userSpaceOnUse" x1="14.6799" y1="17.028" x2="-5.0383" y2="37.224" gradientTransform="matrix(1 0 0 -1 0 42)">
	<stop  offset="0" style="stop-color:#FF3A44"/>
	<stop  offset="1" style="stop-color:#C31162"/>
</linearGradient>
<path style="fill:url(#SVGID_00000072976252714073829580000012040082704626748343_);" d="M24.1,23.4l-3.7-3.7L9.3,30.6
	c0.4,0.4,1.1,0.5,1.8,0.1L24.1,23.4z"/>
<linearGradient id="SVGID_00000010280339701241421300000017518276576838229635_" gradientUnits="userSpaceOnUse" x1="-0.5062" y1="11.8603" x2="8.2988" y2="20.8786" gradientTransform="matrix(1 0 0 -1 0 42)">
	<stop  offset="0" style="stop-color:#32A071"/>
	<stop  offset="6.850000e-02" style="stop-color:#2DA771"/>
	<stop  offset="0.4762" style="stop-color:#15CF74"/>
	<stop  offset="0.8009" style="stop-color:#06E775"/>
	<stop  offset="1" style="stop-color:#00F076"/>
</linearGradient>
<path style="fill:url(#SVGID_00000010280339701241421300000017518276576838229635_);" d="M24.1,16.1l-13-7.2C10.3,8.5,9.7,8.6,9.3,9
	l11.1,10.8L24.1,16.1z"/>
</svg>
