<?xml version="1.0" encoding="UTF-8"?>
<svg width="33px" height="33px" viewBox="0 0 33 33" version="1.1" xmlns="http://www.w3.org/2000/svg" xmlns:xlink="http://www.w3.org/1999/xlink">
    <title>icon_tiktok</title>
    <g id="icon_tiktok" stroke="none" stroke-width="1" fill="none" fill-rule="evenodd">
        <path d="M30.7719763,8.03545139 C30.7719763,7.88670649 30.7678024,7.88101472 30.6118479,7.88253253 C30.23695,7.88594759 29.8658467,7.84117234 29.4970201,7.785393 C28.1567982,7.58314547 23.8101839,5.30302278 23.0744278,1.57301678 C23.0600087,1.50016214 22.8960857,0.574680485 22.897983,0.180430614 C22.8987419,0.00398577224 22.8957063,0.00360632097 22.7219176,0.000950162065 C22.6816958,0 22.6414739,0.000950162065 22.6012521,0.000950162065 C20.9001721,0.000950162065 19.199092,0 17.4983914,0.00170906461 C17.1557469,0.00170906461 17.2039372,-0.0411689291 17.2039372,0.302613923 C17.2027989,7.6795261 17.2027989,15.0564383 17.2043167,22.432971 C17.2043167,22.7080732 17.1963482,22.9831753 17.1481579,23.2525857 C16.8916488,24.6800814 16.1604462,25.797186 14.9226762,26.5602625 C13.8511058,27.2212666 12.6873287,27.4098539 11.4518354,27.1654873 C11.0625184,27.0884586 10.6971068,26.9419905 10.3309363,26.7966606 C10.3013391,26.7693401 10.2717419,26.7423991 10.2421447,26.715458 C10.1192025,26.6122473 9.98335897,26.5272502 9.85168938,26.4358025 C8.2769666,25.345639 7.5302065,23.8316284 7.75749781,21.938546 C7.98820418,20.0181431 9.09316629,18.714728 10.913394,18.0430992 C11.4563888,17.842749 12.0282219,17.7596491 12.6091618,17.7907641 C12.9829213,17.8104956 13.355163,17.8583065 13.7175389,17.9611378 C13.8427579,17.9968062 13.9106796,17.9524104 13.9167509,17.8196024 C13.9190276,17.7729299 13.9205454,17.725878 13.9205454,17.6792055 C13.9205454,16.3549205 13.8712167,13.4623635 13.8643866,13.4559128 C13.8670427,13.0745643 13.8670427,12.6932157 13.8738729,12.3122467 C13.8761496,12.2022058 13.8215086,12.1832332 13.7289225,12.1722292 C13.0428746,12.0910266 12.3568267,12.0754691 11.6666048,12.1259361 C10.7130438,12.1957551 9.78907992,12.3911725 8.89091876,12.714465 C7.45811076,13.2297598 6.20060924,14.0262281 5.11499915,15.08983 C4.18268738,16.0031692 3.44996697,17.0595615 2.91228452,18.2495207 C2.39812805,19.3886334 2.10367386,20.5846638 2.02209184,21.829264 C1.98680287,22.3692232 1.99363299,22.9110796 2.04372056,23.452936 C2.11278069,24.2015934 2.25469547,24.9343138 2.48236623,25.6492 C3.13691967,27.7046875 4.32611996,29.390969 6.01391922,30.7285347 C6.18543119,30.8647577 6.35011304,31.013882 6.55577563,31.1022942 C6.55577563,31.1022942 6.55577563,31.1022942 6.55577563,31.1022942 C6.64191107,31.1789434 6.72804651,31.2552131 6.81418195,31.3314828 C7.08738686,31.5375248 7.37956434,31.7132107 7.68578152,31.8646118 C9.57620776,32.7984414 11.567568,33.1782721 13.666313,32.921763 C16.3900142,32.5889843 18.6591328,31.3819498 20.44521,29.3029363 C22.1265586,27.3457266 22.9435172,25.0481492 22.9583158,22.4796435 C22.979565,18.8061757 22.9632486,15.1323285 22.9655253,11.4584813 C22.9659048,11.3708281 22.9150583,11.246368 23.0114389,11.2023517 C23.0873292,11.1678216 23.1632194,11.2679968 23.2341768,11.3146693 C24.6017192,12.2128304 26.0758874,12.8620716 27.6726184,13.2274831 C28.6018945,13.4399759 29.540657,13.5689893 30.4964947,13.5674715 C30.7981585,13.567092 30.8380009,13.5522934 30.8384189,13.2532858 C30.8402776,11.9487324 30.7715969,8.38226985 30.7719763,8.03545139" id="Fill-1" fill="#FFFFFF"></path>
    </g>
</svg>