<?xml version="1.0" encoding="UTF-8"?>
<svg width="33px" height="33px" viewBox="0 0 33 33" version="1.1" xmlns="http://www.w3.org/2000/svg" xmlns:xlink="http://www.w3.org/1999/xlink">
    <title>icon_instagram</title>
    <g id="icon_instagram" stroke="none" stroke-width="1" fill="none" fill-rule="evenodd">
        <g fill="#FFFFFF" id="Vector">
            <path d="M9.69707109,0.0992932231 C7.94083853,0.179461369 6.74139456,0.458346954 5.69180752,0.866261363 C4.60678666,1.28793011 3.68662146,1.85212006 2.76933803,2.76940349 C1.8520546,3.68668692 1.28786465,4.60685212 0.866195902,5.69187298 C0.458281493,6.74139456 0.179395877,7.94083853 0.0992277309,9.69707109 C0.0189285927,11.4569716 0,12.0188694 0,16.500033 C0,20.9811311 0.0189285927,21.5430294 0.0992277309,23.3029299 C0.179395877,25.0591625 0.458281493,26.2586044 0.866195902,27.308126 C1.28786465,28.3931469 1.8520546,29.3133123 2.76933803,30.2306612 C3.68662146,31.1479447 4.60678666,31.712135 5.69180752,32.1338037 C6.74139456,32.5416526 7.94083853,32.8206047 9.69707109,32.9007073 C11.4569716,32.9810065 12.0188694,33 16.500033,33 C20.9811311,33 21.5430274,32.9810065 23.3029279,32.9007073 C25.0591605,32.8206047 26.2586044,32.5416526 27.308126,32.1338037 C28.3931469,31.712135 29.3133123,31.1479447 30.2306612,30.2306612 C31.1479447,29.3133123 31.712135,28.3931469 32.1338037,27.308126 C32.5416526,26.2586044 32.8206047,25.0591625 32.9007073,23.3029299 C32.9810065,21.5430294 33,20.9811311 33,16.500033 C33,12.0188694 32.9810065,11.4569716 32.9007073,9.69707109 C32.8206047,7.94083853 32.5416526,6.74139456 32.1338037,5.69187298 C31.712135,4.60685212 31.1479447,3.68668692 30.2306612,2.76940349 C29.3133123,1.85212006 28.3931469,1.28793011 27.308126,0.866261363 C26.2586044,0.458346954 25.0591605,0.179461369 23.3029279,0.0992932231 C21.5430274,0.0189940848 20.9811311,0 16.500033,0 C12.0188694,0 11.4569716,0.0189940848 9.69707109,0.0992932231 Z M23.1674149,3.06918256 C24.7761486,3.14260453 25.6498121,3.41140361 26.2312277,3.63730225 C27.0014052,3.93662287 27.551055,4.29423604 28.1284097,4.87159076 C28.70583,5.44894549 29.0633774,5.99866031 29.362698,6.76877233 C29.5886621,7.35018788 29.85746,8.22385038 29.9308164,9.83258409 C30.0101986,11.5724424 30.0270329,12.0943218 30.0270329,16.500033 C30.0270329,20.9056787 30.0101986,21.4275586 29.9308164,23.1674169 C29.85746,24.7761506 29.5886621,25.6498121 29.362698,26.2312277 C29.0633774,27.0014052 28.70583,27.551055 28.1284097,28.1284097 C27.551055,28.70583 27.0014052,29.0633774 26.2312277,29.362698 C25.6498121,29.5886621 24.7761486,29.857462 23.1674149,29.9308184 C21.4278185,30.0102006 20.906006,30.0270329 16.500033,30.0270329 C12.093994,30.0270329 11.5722461,30.0102006 9.83258409,29.9308184 C8.22385038,29.857462 7.35018788,29.5886621 6.76877233,29.362698 C5.99859485,29.0633774 5.44894506,28.70583 4.8715248,28.1284097 C4.29417008,27.551055 3.93655735,27.0014052 3.63730225,26.2312277 C3.4113381,25.6498121 3.14253907,24.7761506 3.0691171,23.1674169 C2.98973491,21.4275586 2.97296757,20.9056787 2.97296757,16.500033 C2.97296757,12.0943218 2.98973491,11.5724424 3.0691171,9.83258409 C3.14253907,8.22385038 3.4113381,7.35018788 3.63730225,6.76877233 C3.93655735,5.99866031 4.29417008,5.44894549 4.8715248,4.87159076 C5.44894506,4.29423604 5.99859485,3.93662287 6.76877233,3.63730225 C7.35018788,3.41140361 8.22385038,3.14260453 9.83258409,3.06918256 C11.5724424,2.98980037 12.0943218,2.97303303 16.500033,2.97303303 C20.9056787,2.97303303 21.4275566,2.98980037 23.1674149,3.06918256 Z"></path>
            <path d="M11.0005554,16.4983898 C11.0005554,13.4607774 13.4629747,10.9983582 16.5005871,10.9983582 C19.538134,10.9983582 22.0005538,13.4607774 22.0005538,16.4983898 C22.0005538,19.5359367 19.538134,21.9983565 16.5005871,21.9983565 C13.4629747,21.9983565 11.0005554,19.5359367 11.0005554,16.4983898 Z M8.02758789,16.4983898 C8.02758789,21.177877 11.8210344,24.971323 16.5005871,24.971323 C21.1800743,24.971323 24.9735203,21.177877 24.9735203,16.4983898 C24.9735203,11.8188371 21.1800743,8.02539062 16.5005871,8.02539062 C11.8210344,8.02539062 8.02758789,11.8188371 8.02758789,16.4983898 Z"></path>
            <path d="M25.3073631,9.68113184 C24.2138932,9.68113184 23.3273926,8.79469699 23.3273926,7.70116137 C23.3273926,6.60762576 24.2138932,5.72119141 25.3073631,5.72119141 C26.4008984,5.72119141 27.2873995,6.60762576 27.2873995,7.70116137 C27.2873995,8.79469699 26.4008984,9.68113184 25.3073631,9.68113184 Z" fill-rule="nonzero"></path>
        </g>
    </g>
</svg>