<?xml version="1.0" standalone="no"?>
<!DOCTYPE svg PUBLIC "-//W3C//DTD SVG 20010904//EN"
 "http://www.w3.org/TR/2001/REC-SVG-20010904/DTD/svg10.dtd">
<svg version="1.0" xmlns="http://www.w3.org/2000/svg"
 width="469.000000pt" height="94.000000pt" viewBox="0 0 469.000000 94.000000"
 preserveAspectRatio="xMidYMid meet">

<g transform="translate(0.000000,94.000000) scale(0.100000,-0.100000)"
fill="#000000" stroke="none">
<path d="M2140 922 c-83 -22 -142 -57 -207 -123 -90 -92 -133 -199 -133 -335
0 -286 260 -507 532 -455 151 30 271 121 333 253 19 40 37 92 41 116 l7 42
-90 0 -90 0 -17 -44 c-29 -76 -69 -121 -137 -155 -107 -53 -224 -34 -306 51
-64 67 -78 101 -78 193 1 69 4 87 30 133 34 62 86 107 155 133 130 49 256 -5
321 -136 l32 -65 88 0 c102 0 100 -3 68 92 -51 153 -168 262 -324 303 -75 19
-143 18 -225 -3z"/>
<path d="M3780 476 l0 -466 368 1 367 1 84 89 84 89 -362 0 -361 0 0 293 0
293 -90 83 -90 82 0 -465z"/>
<path d="M20 470 l0 -450 260 0 260 0 0 90 0 90 -170 0 -170 0 0 90 0 89 138
3 137 3 32 80 c18 44 33 83 33 88 0 4 -76 7 -170 7 l-170 0 0 90 0 90 170 0
170 0 0 90 0 90 -260 0 -260 0 0 -450z"/>
</g>
</svg>
