<?xml version="1.0" encoding="utf-8"?>
<!-- Generator: Adobe Illustrator 26.1.0, SVG Export Plug-In . SVG Version: 6.00 Build 0)  -->
<svg version="1.1" id="Layer_1" xmlns="http://www.w3.org/2000/svg" xmlns:xlink="http://www.w3.org/1999/xlink" x="0px" y="0px"
	 viewBox="0 0 120 40" style="enable-background:new 0 0 120 40;" xml:space="preserve">
<style type="text/css">
	.st0{fill:#A6A6A6;}
	.st1{fill:#FFFFFF;}
</style>
<path d="M119.3,33.6c0,1.8-1.5,3.3-3.4,3.3H4.1c-1.9,0-3.4-1.5-3.4-3.3V6.9c0-1.8,1.5-3.3,3.4-3.3h111.8c1.9,0,3.4,1.5,3.4,3.3
	L119.3,33.6z"/>
<path class="st0" d="M115.6,3.6c2.1,0,3.7,1.6,3.7,3.6v26c0,2-1.7,3.6-3.7,3.6H4.4c-2.1,0-3.7-1.6-3.7-3.6v-26c0-2,1.7-3.6,3.7-3.6
	H115.6z M115.6,2.9H4.4C2,2.9,0,4.8,0,7.2v26c0,2.4,2,4.3,4.4,4.3h111.1c2.4,0,4.4-2,4.4-4.3v-26C120,4.8,118,2.9,115.6,2.9z"/>
<path class="st1" d="M26.8,20c0-2.8,2.3-4.2,2.5-4.2c-1.3-1.9-3.4-2.2-4.2-2.2c-1.7-0.2-3.4,1-4.3,1c-0.9,0-2.3-1-3.8-1
	c-1.9,0-3.7,1.1-4.7,2.8c-2,3.4-0.5,8.4,1.4,11.1c1,1.3,2.1,2.8,3.6,2.8c1.4-0.1,2-0.9,3.7-0.9c1.7,0,2.2,0.9,3.7,0.9
	c1.6,0,2.5-1.4,3.5-2.7c1.1-1.5,1.6-3.1,1.6-3.1C29.8,24.5,26.8,23.4,26.8,20z"/>
<path class="st1" d="M23.9,11.8c0.8-0.9,1.3-2.2,1.2-3.5C24,8.3,22.6,9,21.8,10c-0.7,0.8-1.4,2.2-1.2,3.4
	C21.8,13.5,23.1,12.8,23.9,11.8z"/>
<path class="st1" d="M47.7,30.2h-2l-1.1-3.4h-3.8l-1.1,3.4h-2l3.8-11.5h2.4L47.7,30.2z M44.2,25.4l-1-3c-0.1-0.3-0.3-1-0.6-2.2h0
	c-0.1,0.5-0.3,1.2-0.6,2.2l-1,3H44.2z"/>
<path class="st1" d="M57.5,25.9c0,1.4-0.4,2.5-1.2,3.4c-0.7,0.7-1.6,1.1-2.6,1.1c-1.1,0-1.9-0.4-2.4-1.2h0v4.4h-1.9v-9
	c0-0.9,0-1.8-0.1-2.7h1.7l0.1,1.3h0c0.6-1,1.6-1.5,2.9-1.5c1,0,1.8,0.4,2.5,1.2C57.1,23.6,57.5,24.7,57.5,25.9z M55.5,26
	c0-0.8-0.2-1.5-0.6-2c-0.4-0.5-1-0.8-1.6-0.8c-0.5,0-0.9,0.2-1.3,0.5c-0.4,0.3-0.6,0.7-0.7,1.2c-0.1,0.2-0.1,0.4-0.1,0.6v1.4
	c0,0.6,0.2,1.1,0.6,1.5c0.4,0.4,0.9,0.6,1.5,0.6c0.7,0,1.3-0.3,1.7-0.8C55.3,27.6,55.5,26.9,55.5,26z"/>
<path class="st1" d="M67.3,25.9c0,1.4-0.4,2.5-1.2,3.4c-0.7,0.7-1.6,1.1-2.6,1.1c-1.1,0-1.9-0.4-2.4-1.2h0v4.4h-1.9v-9
	c0-0.9,0-1.8-0.1-2.7h1.7l0.1,1.3h0c0.6-1,1.6-1.5,2.9-1.5c1,0,1.8,0.4,2.5,1.2C67,23.6,67.3,24.7,67.3,25.9z M65.4,26
	c0-0.8-0.2-1.5-0.6-2c-0.4-0.5-1-0.8-1.6-0.8c-0.5,0-0.9,0.2-1.3,0.5c-0.4,0.3-0.6,0.7-0.7,1.2C61.1,25,61,25.2,61,25.4v1.4
	c0,0.6,0.2,1.1,0.6,1.5c0.4,0.4,0.9,0.6,1.5,0.6c0.7,0,1.3-0.3,1.7-0.8C65.2,27.6,65.4,26.9,65.4,26z"/>
<path class="st1" d="M78.3,27c0,1-0.3,1.8-1.1,2.4c-0.8,0.7-1.8,1-3.2,1c-1.3,0-2.3-0.2-3.1-0.7l0.4-1.5c0.8,0.5,1.7,0.7,2.7,0.7
	c0.7,0,1.3-0.2,1.7-0.5c0.4-0.3,0.6-0.7,0.6-1.3c0-0.5-0.2-0.9-0.5-1.2c-0.3-0.3-0.9-0.6-1.6-0.9c-2.1-0.8-3.1-1.9-3.1-3.3
	c0-0.9,0.4-1.7,1.1-2.3c0.7-0.6,1.7-0.9,2.9-0.9c1.1,0,2,0.2,2.7,0.5l-0.5,1.5c-0.7-0.4-1.4-0.5-2.3-0.5c-0.7,0-1.2,0.2-1.6,0.5
	c-0.3,0.3-0.5,0.6-0.5,1c0,0.5,0.2,0.8,0.5,1.1c0.3,0.3,0.9,0.6,1.7,0.9c1,0.4,1.8,0.9,2.2,1.4C78,25.5,78.3,26.2,78.3,27z"/>
<path class="st1" d="M84.5,23.3h-2.1v4c0,1,0.4,1.5,1.1,1.5c0.3,0,0.6,0,0.8-0.1l0.1,1.4c-0.4,0.1-0.9,0.2-1.5,0.2
	c-0.7,0-1.3-0.2-1.8-0.7c-0.4-0.4-0.6-1.2-0.6-2.2v-4.2h-1.2v-1.4h1.2v-1.5l1.9-0.5v2.1h2.1V23.3z"/>
<path class="st1" d="M93.9,26c0,1.3-0.4,2.3-1.1,3.1C92,30,91,30.4,89.7,30.4c-1.3,0-2.2-0.4-3-1.2c-0.7-0.8-1.1-1.8-1.1-3.1
	c0-1.3,0.4-2.3,1.1-3.2c0.8-0.8,1.8-1.2,3.1-1.2c1.3,0,2.3,0.4,3,1.2C93.6,23.7,93.9,24.7,93.9,26z M92,26c0-0.8-0.2-1.4-0.5-2
	c-0.4-0.7-1-1-1.7-1c-0.8,0-1.3,0.3-1.7,1c-0.3,0.5-0.5,1.2-0.5,2c0,0.8,0.2,1.4,0.5,2c0.4,0.7,1,1,1.7,1c0.7,0,1.3-0.3,1.7-1
	C91.8,27.5,92,26.8,92,26z"/>
<path class="st1" d="M100.1,23.5c-0.2,0-0.4-0.1-0.6-0.1c-0.7,0-1.2,0.2-1.5,0.7c-0.3,0.4-0.5,1-0.5,1.6v4.4h-1.9l0-5.7
	c0-1,0-1.8-0.1-2.6h1.7l0.1,1.6h0.1c0.2-0.5,0.5-1,0.9-1.3c0.4-0.3,0.9-0.4,1.4-0.4c0.2,0,0.3,0,0.5,0V23.5z"/>
<path class="st1" d="M108.6,25.6c0,0.3,0,0.6-0.1,0.8h-5.7c0,0.8,0.3,1.4,0.8,1.9c0.5,0.4,1.1,0.6,1.9,0.6c0.8,0,1.6-0.1,2.3-0.4
	l0.3,1.3c-0.8,0.3-1.8,0.5-2.9,0.5c-1.3,0-2.4-0.4-3.1-1.1c-0.8-0.8-1.1-1.8-1.1-3.1c0-1.3,0.4-2.3,1.1-3.1c0.7-0.9,1.7-1.3,3-1.3
	c1.2,0,2.2,0.4,2.8,1.3C108.3,23.7,108.6,24.6,108.6,25.6z M106.8,25.2c0-0.5-0.1-1-0.4-1.4c-0.3-0.5-0.8-0.8-1.5-0.8
	c-0.6,0-1.1,0.3-1.5,0.8c-0.3,0.4-0.5,0.9-0.6,1.4L106.8,25.2L106.8,25.2z"/>
<path class="st1" d="M43.6,11.6c0,1-0.3,1.8-0.9,2.3c-0.6,0.5-1.4,0.7-2.5,0.7c-0.5,0-1,0-1.4-0.1V8.9c0.5-0.1,1-0.1,1.6-0.1
	c1,0,1.8,0.2,2.3,0.6C43.3,10,43.6,10.7,43.6,11.6z M42.6,11.6c0-0.7-0.2-1.2-0.5-1.5c-0.4-0.4-0.9-0.5-1.6-0.5
	c-0.3,0-0.5,0-0.8,0.1v4.2c0.1,0,0.3,0,0.6,0c0.7,0,1.3-0.2,1.7-0.6C42.4,12.9,42.6,12.3,42.6,11.6z"/>
<path class="st1" d="M48.8,12.5c0,0.6-0.2,1.1-0.6,1.5c-0.4,0.4-0.9,0.6-1.5,0.6c-0.6,0-1.1-0.2-1.5-0.6c-0.4-0.4-0.5-0.9-0.5-1.5
	c0-0.6,0.2-1.2,0.6-1.6c0.4-0.4,0.9-0.6,1.5-0.6c0.6,0,1.1,0.2,1.5,0.6C48.6,11.3,48.8,11.8,48.8,12.5z M47.8,12.5
	c0-0.4-0.1-0.7-0.2-1c-0.2-0.3-0.5-0.5-0.8-0.5c-0.4,0-0.7,0.2-0.9,0.5c-0.2,0.3-0.2,0.6-0.2,1c0,0.4,0.1,0.7,0.2,1
	c0.2,0.3,0.5,0.5,0.8,0.5c0.4,0,0.6-0.2,0.8-0.5C47.8,13.2,47.8,12.9,47.8,12.5z"/>
<path class="st1" d="M55.8,10.4l-1.3,4.1h-0.9l-0.5-1.8c-0.1-0.4-0.2-0.9-0.3-1.3h0c-0.1,0.4-0.2,0.9-0.3,1.3l-0.6,1.8H51l-1.2-4.1
	h1l0.5,1.9c0.1,0.5,0.2,0.9,0.3,1.3h0c0.1-0.3,0.2-0.8,0.3-1.3l0.6-1.9h0.8l0.6,1.9c0.1,0.5,0.2,0.9,0.3,1.3h0
	c0.1-0.4,0.2-0.9,0.3-1.3l0.5-1.9L55.8,10.4L55.8,10.4z"/>
<path class="st1" d="M60.6,14.5h-0.9v-2.3c0-0.7-0.3-1.1-0.8-1.1c-0.3,0-0.5,0.1-0.7,0.3c-0.2,0.2-0.3,0.4-0.3,0.7v2.4H57v-2.9
	c0-0.4,0-0.7,0-1.2h0.8l0,0.6h0c0.1-0.2,0.3-0.4,0.5-0.5c0.3-0.2,0.5-0.2,0.8-0.2c0.4,0,0.7,0.1,1,0.4c0.3,0.3,0.5,0.8,0.5,1.4V14.5
	z"/>
<path class="st1" d="M63.2,14.5h-0.9v-6h0.9V14.5z"/>
<path class="st1" d="M68.7,12.5c0,0.6-0.2,1.1-0.6,1.5c-0.4,0.4-0.9,0.6-1.5,0.6c-0.6,0-1.1-0.2-1.5-0.6c-0.4-0.4-0.5-0.9-0.5-1.5
	c0-0.6,0.2-1.2,0.6-1.6s0.9-0.6,1.5-0.6c0.6,0,1.1,0.2,1.5,0.6C68.5,11.3,68.7,11.8,68.7,12.5z M67.7,12.5c0-0.4-0.1-0.7-0.2-1
	C67.3,11.2,67,11,66.6,11c-0.4,0-0.7,0.2-0.9,0.5c-0.2,0.3-0.2,0.6-0.2,1c0,0.4,0.1,0.7,0.2,1c0.2,0.3,0.5,0.5,0.8,0.5
	c0.4,0,0.6-0.2,0.8-0.5C67.6,13.2,67.7,12.9,67.7,12.5z"/>
<path class="st1" d="M73.2,14.5h-0.8l-0.1-0.5h0c-0.3,0.4-0.7,0.6-1.2,0.6c-0.4,0-0.7-0.1-1-0.4c-0.2-0.2-0.3-0.5-0.3-0.8
	c0-0.5,0.2-0.9,0.6-1.1c0.4-0.3,1-0.4,1.8-0.4v-0.1c0-0.5-0.3-0.8-0.9-0.8c-0.4,0-0.8,0.1-1.1,0.3L70,10.7c0.4-0.2,0.9-0.4,1.4-0.4
	c1.1,0,1.6,0.6,1.6,1.7v1.5C73.1,14,73.1,14.3,73.2,14.5z M72.2,13.1v-0.6c-1,0-1.5,0.3-1.5,0.8c0,0.2,0.1,0.4,0.2,0.5
	c0.1,0.1,0.3,0.2,0.5,0.2c0.2,0,0.4-0.1,0.6-0.2c0.2-0.1,0.3-0.3,0.3-0.5C72.2,13.2,72.2,13.2,72.2,13.1z"/>
<path class="st1" d="M78.5,14.5h-0.8l0-0.7h0c-0.3,0.5-0.7,0.7-1.3,0.7c-0.5,0-0.9-0.2-1.3-0.6c-0.3-0.4-0.5-0.9-0.5-1.5
	c0-0.7,0.2-1.2,0.5-1.6c0.4-0.4,0.8-0.6,1.3-0.6c0.6,0,1,0.2,1.2,0.6h0V8.6h0.9v4.9C78.4,13.8,78.5,14.2,78.5,14.5z M77.5,12.8v-0.7
	c0-0.1,0-0.2,0-0.3c-0.1-0.2-0.2-0.4-0.3-0.6c-0.2-0.1-0.4-0.2-0.6-0.2c-0.3,0-0.6,0.1-0.8,0.4c-0.2,0.3-0.3,0.6-0.3,1
	c0,0.4,0.1,0.7,0.3,1c0.2,0.3,0.5,0.4,0.8,0.4c0.3,0,0.6-0.1,0.7-0.3C77.4,13.3,77.5,13.1,77.5,12.8z"/>
<path class="st1" d="M86.4,12.5c0,0.6-0.2,1.1-0.6,1.5c-0.4,0.4-0.9,0.6-1.5,0.6c-0.6,0-1.1-0.2-1.5-0.6c-0.4-0.4-0.5-0.9-0.5-1.5
	c0-0.6,0.2-1.2,0.6-1.6s0.9-0.6,1.5-0.6c0.6,0,1.1,0.2,1.5,0.6C86.3,11.3,86.4,11.8,86.4,12.5z M85.5,12.5c0-0.4-0.1-0.7-0.2-1
	C85,11.2,84.8,11,84.4,11c-0.4,0-0.7,0.2-0.9,0.5c-0.2,0.3-0.2,0.6-0.2,1c0,0.4,0.1,0.7,0.2,1c0.2,0.3,0.5,0.5,0.8,0.5
	c0.4,0,0.6-0.2,0.8-0.5C85.4,13.2,85.5,12.9,85.5,12.5z"/>
<path class="st1" d="M91.5,14.5h-0.9v-2.3c0-0.7-0.3-1.1-0.8-1.1c-0.3,0-0.5,0.1-0.7,0.3c-0.2,0.2-0.3,0.4-0.3,0.7v2.4h-0.9v-2.9
	c0-0.4,0-0.7,0-1.2h0.8l0,0.6h0c0.1-0.2,0.3-0.4,0.5-0.5c0.3-0.2,0.5-0.2,0.8-0.2c0.4,0,0.7,0.1,1,0.4c0.3,0.3,0.5,0.8,0.5,1.4V14.5
	z"/>
<path class="st1" d="M97.7,11.1h-1v2c0,0.5,0.2,0.8,0.5,0.8c0.2,0,0.3,0,0.4,0l0,0.7c-0.2,0.1-0.4,0.1-0.7,0.1
	c-0.4,0-0.7-0.1-0.9-0.3c-0.2-0.2-0.3-0.6-0.3-1.1v-2.1h-0.6v-0.7h0.6V9.7l0.9-0.3v1h1L97.7,11.1L97.7,11.1z"/>
<path class="st1" d="M102.7,14.5h-0.9v-2.3c0-0.7-0.3-1.1-0.8-1.1c-0.4,0-0.7,0.2-0.9,0.6c0,0.1,0,0.2,0,0.3v2.5H99v-6h0.9V11h0
	c0.3-0.4,0.7-0.7,1.3-0.7c0.4,0,0.7,0.1,1,0.4c0.3,0.3,0.5,0.8,0.5,1.4V14.5z"/>
<path class="st1" d="M107.7,12.3c0,0.2,0,0.3,0,0.4h-2.8c0,0.4,0.1,0.7,0.4,0.9c0.2,0.2,0.5,0.3,0.9,0.3c0.4,0,0.8-0.1,1.1-0.2
	l0.1,0.6c-0.4,0.2-0.9,0.3-1.4,0.3c-0.6,0-1.2-0.2-1.5-0.6c-0.4-0.4-0.6-0.9-0.6-1.5c0-0.6,0.2-1.1,0.5-1.5c0.4-0.4,0.8-0.7,1.5-0.7
	c0.6,0,1.1,0.2,1.4,0.7C107.6,11.4,107.7,11.8,107.7,12.3z M106.9,12.1c0-0.3-0.1-0.5-0.2-0.7c-0.2-0.3-0.4-0.4-0.7-0.4
	c-0.3,0-0.6,0.1-0.7,0.4c-0.2,0.2-0.2,0.4-0.3,0.7H106.9z"/>
</svg>
