<?xml version="1.0" encoding="UTF-8"?>
<svg width="80px" height="34px" viewBox="0 0 80 34" version="1.1" xmlns="http://www.w3.org/2000/svg" xmlns:xlink="http://www.w3.org/1999/xlink">
    <title>icon_Visa</title>
    <defs>
        <polygon id="path-1" points="0 0 40.7175454 0 40.7175454 13.15 0 13.15"></polygon>
    </defs>
    <g id="icon_Visa" stroke="none" stroke-width="1" fill="none" fill-rule="evenodd">
        <g id="Group-3" transform="translate(20.000000, 10.000000)">
            <mask id="mask-2" fill="white">
                <use xlink:href="#path-1"></use>
            </mask>
            <g id="Clip-2"></g>
            <path d="M20.1608059,0.232425991 L17.440167,12.9510789 L14.1501216,12.9510789 L16.8718209,0.232425991 L20.1608059,0.232425991 Z M34.0034268,8.44460316 L35.7351859,3.66922341 L36.7319123,8.44460316 L34.0034268,8.44460316 Z M37.674561,12.9510789 L40.7175454,12.9510789 L38.0613756,0.232425991 L35.2527279,0.232425991 C34.6211851,0.232425991 34.0884667,0.600154408 33.8526454,1.16553155 L28.9154567,12.9510789 L32.37028,12.9510789 L33.0561126,11.0513608 L37.2773549,11.0513608 L37.674561,12.9510789 Z M29.0870209,8.79854707 C29.1010175,5.44169983 24.4452449,5.25677527 24.4772674,3.75723223 C24.4872346,3.30085878 24.9217649,2.8156439 25.8728964,2.69179534 C26.3443268,2.63008313 27.6432521,2.58300371 29.1164985,3.26098973 L29.6943878,0.563890532 C28.9027325,0.276536435 27.884163,-2.12069445e-06 26.616836,-2.12069445e-06 C23.3647511,-2.12069445e-06 21.0760976,1.72878799 21.0567993,4.20427462 C21.0358044,6.0352822 22.6903702,7.05703279 23.9369144,7.66546002 C25.2192984,8.28852005 25.6495873,8.68890716 25.6447097,9.24622566 C25.6355907,10.099381 24.6218987,10.4760164 23.6745845,10.4908612 C22.020867,10.5163096 21.0612528,10.0433947 20.2963183,9.68775425 L19.699979,12.4741347 C20.4687307,12.8268062 21.8876874,13.1345189 23.3588131,13.15 C26.815333,13.15 29.0764174,11.4426289 29.0870209,8.79854707 L29.0870209,8.79854707 Z M15.4598625,0.232425991 L10.1290729,12.9510789 L6.65113399,12.9510789 L4.02783496,2.8010111 C3.86857081,2.17583038 3.73008946,1.94679538 3.24572285,1.68340513 C2.45491589,1.25438864 1.14899225,0.851880838 0,0.602063033 L0.0780415556,0.232425991 L5.67646282,0.232425991 C6.3900765,0.232425991 7.03158657,0.707461546 7.19360763,1.52923064 L8.57905731,8.88888865 L12.0031306,0.232213921 L15.4598625,0.232213921 L15.4598625,0.232425991 Z" id="Fill-1" fill="#1434CB" mask="url(#mask-2)"></path>
        </g>
    </g>
</svg>