<?xml version="1.0" encoding="UTF-8"?>
<svg width="33px" height="33px" viewBox="0 0 33 33" version="1.1" xmlns="http://www.w3.org/2000/svg" xmlns:xlink="http://www.w3.org/1999/xlink">
    <title>icon_youtube</title>
    <g id="icon_youtube" stroke="none" stroke-width="1" fill="none" fill-rule="evenodd">
        <path d="M29.3931317,5.68964959 C27.6773002,5.2298832 23.3796005,5 16.5000325,5 C9.62042117,5 5.32269979,5.2298832 3.60686833,5.68964959 C2.18722106,6.06915033 1.0688927,7.18722079 0.689456405,8.60712595 C0.229818802,10.3227856 0,12.970482 0,16.5502151 C0,20.1298632 0.229818802,22.7774311 0.689456405,24.4929188 C1.0688927,25.912824 2.18722106,27.0312155 3.60686833,27.4106518 C5.32269979,27.8702484 9.62042117,28.1000467 16.5000325,28.1000467 C23.3796005,28.1000467 27.6773002,27.8702484 29.3931317,27.4106518 C30.8130369,27.0312155 31.9311728,25.912824 32.3106091,24.4929188 C32.770203,22.7774311 33,20.1298632 33,16.5502151 C33,12.970482 32.770203,10.3227856 32.3106091,8.60712595 L32.3106091,8.60712595 C31.9311728,7.18722079 30.8130369,6.06915033 29.3931317,5.68964959 Z M13.1998324,11.6000774 L21.7733403,16.5502151 L13.1998324,21.5002879 L13.1998324,11.6000774 Z" id="Vector" fill="#FFFFFF"></path>
    </g>
</svg>