<?xml version="1.0" encoding="UTF-8"?>
<svg width="33px" height="33px" viewBox="0 0 33 33" version="1.1" xmlns="http://www.w3.org/2000/svg" xmlns:xlink="http://www.w3.org/1999/xlink">
    <title>icon_pinterest</title>
    <g id="icon_pinterest" stroke="none" stroke-width="1" fill="none" fill-rule="evenodd">
        <path d="M4,11.8416118 C4,15.1016347 5.23427423,18.0017163 7.88113691,19.0815408 C8.31532047,19.2605173 8.70442926,19.0881695 8.83037564,18.6075846 C8.91787524,18.2761468 9.12535509,17.4369461 9.21749481,17.0862848 C9.34410407,16.6110029 9.29505082,16.4452841 8.94438959,16.029661 C8.18141964,15.1301387 7.69288058,13.964803 7.69288058,12.3129167 C7.69288058,7.52297699 11.2770492,3.2348332 17.0255072,3.2348332 C22.1157296,3.2348332 24.9124027,6.34504626 24.9124027,10.4979625 C24.9124027,15.9640357 22.4935676,20.5769888 18.9034329,20.5769888 C16.9201088,20.5769888 15.4365943,18.9376963 15.9112133,16.9258685 C16.4806236,14.5242699 17.5843117,11.9337512 17.5843117,10.1990054 C17.5843117,8.64787629 16.7510763,7.35394298 15.0282624,7.35394298 C13.0011885,7.35394298 11.3725033,9.45128236 11.3725033,12.2598867 C11.3725033,13.452621 11.5740177,14.4524585 11.9770464,15.259399 C10.5942871,21.1192189 9.78160118,24.5621946 9.53898866,25.5883262 C8.8151284,28.6541264 9.43027765,32.4113069 9.48264484,32.7904719 C9.51313712,33.0158496 9.80215112,33.0702057 9.93340051,32.9005095 C10.1196686,32.6559083 12.5351868,29.6756184 13.355164,26.696655 C13.510277,26.1349783 13.954625,24.3984646 14.6882081,21.4871141 C15.3471066,22.7439264 17.2720976,23.8482775 19.3190578,23.8482775 C25.4115483,23.8482775 29.5459024,18.2940434 29.5459024,10.8592298 C29.5465653,5.2360553 24.7844678,0 17.5471908,0 C8.54136129,0 4,6.45640985 4,11.8416118 Z" id="Vector" fill="#FFFFFF" fill-rule="nonzero"></path>
    </g>
</svg>