<?xml version="1.0" encoding="UTF-8"?>
<svg width="33px" height="33px" viewBox="0 0 33 33" version="1.1" xmlns="http://www.w3.org/2000/svg" xmlns:xlink="http://www.w3.org/1999/xlink">
    <title>icon_facebook</title>
    <g id="icon_facebook" stroke="none" stroke-width="1" fill="none" fill-rule="evenodd">
        <path d="M25.30096,12.4951405 L19.614067,12.4951405 L19.614067,8.64877126 C19.614067,7.02719506 20.4084519,5.44661115 22.9556395,5.44661115 L25.5412411,5.44661115 L25.5412411,0.400511733 C23.9768785,0.133503911 22.446912,0 20.9513416,0 C16.2675329,0 13.2063309,2.83864452 13.2063309,7.97768565 L13.2063309,12.4951405 L8,12.4951405 L8,18.4223152 L13.2063309,18.4223152 L13.2063309,32.7508893 C14.2502782,32.9146647 15.3202646,33 16.4102314,33 C17.5001982,33 18.5701197,32.9146647 19.614067,32.7508893 L19.614067,18.4223152 L24.3918479,18.4223152 L24.3918479,18.4223152 L25.30096,12.4951405 Z" id="Vector" fill="#FFFFFF" fill-rule="nonzero"></path>
    </g>
</svg>