<svg xmlns="http://www.w3.org/2000/svg">
    <defs>
        <symbol id="arrowLeft" viewBox="0 0 28 8"
            xmlns="http://www.w3.org/2000/svg">
            <path
                d="M0.681803 4.3182C0.506065 4.14246 0.506065 3.85754 0.681803 3.6818L3.54558 0.81802C3.72132 0.642284 4.00624 0.642284 4.18198 0.81802C4.35772 0.993756 4.35772 1.27868 4.18198 1.45442L1.6364 4L4.18198 6.54558C4.35772 6.72132 4.35772 7.00624 4.18198 7.18198C4.00624 7.35772 3.72132 7.35772 3.54558 7.18198L0.681803 4.3182ZM28 4.45H1V3.55H28V4.45Z" />
        </symbol>
        <symbol id="arrowRight" viewBox="0 0 28 8"
            xmlns="http://www.w3.org/2000/svg">
            <path
                d="M27.3182 3.6818C27.4939 3.85754 27.4939 4.14246 27.3182 4.3182L24.4544 7.18198C24.2787 7.35772 23.9938 7.35772 23.818 7.18198C23.6423 7.00625 23.6423 6.72132 23.818 6.54559L26.3636 4L23.818 1.45442C23.6423 1.27868 23.6423 0.993758 23.818 0.818022C23.9938 0.642286 24.2787 0.642286 24.4544 0.818022L27.3182 3.6818ZM3.93402e-08 3.55L27 3.55L27 4.45L-3.93402e-08 4.45L3.93402e-08 3.55Z" />
        </symbol>
        <symbol id="bag"
            xmlns="http://www.w3.org/2000/svg" viewBox="0 0 32 32">
            <path stroke-width="0"
                d="M23 9.25H9C8.58579 9.25 8.25 9.58579 8.25 10V26C8.25 26.4142 8.58579 26.75 9 26.75H23C23.4142 26.75 23.75 26.4142 23.75 26V10C23.75 9.58579 23.4142 9.25 23 9.25ZM22.25 10.75V25.25H9.75V10.75H22.25Z" />
            <path stroke-width="0"
                d="M16 5.25C19.1602 5.25 20.75 7.63472 20.75 12C20.75 12.4142 20.4142 12.75 20 12.75C19.5858 12.75 19.25 12.4142 19.25 12C19.25 8.36528 18.1731 6.75 16 6.75C13.8269 6.75 12.75 8.36528 12.75 12C12.75 12.4142 12.4142 12.75 12 12.75C11.5858 12.75 11.25 12.4142 11.25 12C11.25 7.63472 12.8398 5.25 16 5.25Z" />
        </symbol>
        <symbol id="cart" viewBox="0 0 42 42"
            xmlns="http://www.w3.org/2000/svg">
            <path
                d="M10 10.9546V29.3296C10 30.0258 10.2575 30.6935 10.716 31.1857C11.1744 31.678 11.7961 31.9546 12.4444 31.9546H29.5556C30.2039 31.9546 30.8256 31.678 31.284 31.1857C31.7425 30.6935 32 30.0258 32 29.3296V10.9546"
                stroke-width="0.8" stroke-linecap="round" stroke-linejoin="round" />
            <path d="M10 10.9546H32" stroke-width="0.8" stroke-linecap="round"
                stroke-linejoin="round" />
            <path
                d="M25.8891 16.2046C25.8891 17.597 25.374 18.9323 24.4572 19.9169C23.5403 20.9015 22.2968 21.4546 21.0002 21.4546C19.7036 21.4546 18.4601 20.9015 17.5433 19.9169C16.6264 18.9323 16.1113 17.597 16.1113 16.2046"
                stroke-width="0.8" stroke-linecap="round" stroke-linejoin="round" />
        </symbol>
        <symbol id="check" viewBox="0 0 18 12"
            xmlns="http://www.w3.org/2000/svg">
            <path d="M16.6666 0.666748L6.12492 11.2084L1.33325 6.41675" stroke-width="0.9"
                stroke-linecap="round" stroke-linejoin="round" />
        </symbol>

        <symbol id="chevronDown" viewBox="0 0 17 10"
            xmlns="http://www.w3.org/2000/svg">
            <path fill-rule="evenodd" clip-rule="evenodd"
                d="M8.83963 9.73667C8.73297 9.78472 8.61731 9.80957 8.50032 9.80957C8.38333 9.80957 8.26767 9.78472 8.16101 9.73667C8.05434 9.68861 7.9591 9.61845 7.88158 9.53082L0.625551 1.3311C0.442551 1.12431 0.461846 0.808312 0.668646 0.625312C0.875444 0.442314 1.19144 0.461608 1.37444 0.668406L8.50031 8.72104L15.6255 0.668425C15.8085 0.461617 16.1245 0.442309 16.3313 0.625299C16.5381 0.808289 16.5574 1.12428 16.3745 1.33109L9.11906 9.53082C9.11905 9.53084 9.11903 9.53085 9.11902 9.53087C9.04151 9.61847 8.94628 9.68862 8.83963 9.73667ZM8.37027 8.86802C8.3702 8.8681 8.37013 8.86817 8.37006 8.86825L8.3701 8.86821L8.37027 8.86802ZM8.63052 8.86819C8.63054 8.86821 8.63056 8.86823 8.63058 8.86825L8.63052 8.86819Z" />
        </symbol>

        <symbol id="chevronLeft" viewBox="0 0 42 42"
            xmlns="http://www.w3.org/2000/svg">
            <path fill-rule="evenodd" clip-rule="evenodd"
                d="M16.918 21.4945C16.8699 21.3879 16.8451 21.2722 16.8451 21.1552C16.8451 21.0382 16.8699 20.9226 16.918 20.8159C16.9661 20.7092 17.0362 20.614 17.1238 20.5365L25.3236 13.2805C25.5304 13.0975 25.8463 13.1168 26.0293 13.3236C26.2123 13.5304 26.1931 13.8463 25.9863 14.0293L17.9336 21.1552L25.9862 28.2804C26.193 28.4634 26.2124 28.7794 26.0294 28.9862C25.8464 29.193 25.5304 29.2123 25.3236 29.0294L17.1238 21.774C17.1238 21.774 17.1238 21.7739 17.1238 21.7739C17.0362 21.6964 16.966 21.6012 16.918 21.4945ZM17.7866 21.0252C17.7866 21.0251 17.7865 21.025 17.7864 21.025L17.7865 21.025L17.7866 21.0252ZM17.7865 21.2854C17.7865 21.2854 17.7864 21.2855 17.7864 21.2855L17.7865 21.2854Z" />
        </symbol>
        <symbol id="chevronRight" viewBox="0 0 42 42"
            xmlns="http://www.w3.org/2000/svg">
            <path
                d="M26.082 20.8153C26.1301 20.9219 26.1549 21.0376 26.1549 21.1546C26.1549 21.2716 26.1301 21.3872 26.082 21.4939C26.0339 21.6006 25.9638 21.6958 25.8762 21.7733L17.6764 29.0294C17.4696 29.2124 17.1537 29.1931 16.9707 28.9863C16.7877 28.7795 16.8069 28.4635 17.0137 28.2805L25.0664 21.1546L17.0138 14.0294C16.807 13.8464 16.7876 13.5304 16.9706 13.3236C17.1536 13.1168 17.4696 13.0975 17.6764 13.2805L25.8762 20.5358C25.8762 20.5359 25.8762 20.5359 25.8762 20.5359C25.9638 20.6134 26.034 20.7086 26.082 20.8153ZM25.2134 21.2846C25.2134 21.2847 25.2135 21.2848 25.2136 21.2848L25.2135 21.2848L25.2134 21.2846ZM25.2135 21.0244C25.2135 21.0244 25.2136 21.0243 25.2136 21.0243L25.2135 21.0244Z" />
        </symbol>
        <symbol id="chevronUp" viewBox="0 0 42 42"
            xmlns="http://www.w3.org/2000/svg">
            <path fill-rule="evenodd" clip-rule="evenodd"
                d="M21.1604 16.5729C21.267 16.5248 21.3827 16.5 21.4997 16.5C21.6167 16.5 21.7323 16.5248 21.839 16.5729C21.9457 16.621 22.0409 16.6911 22.1184 16.7787L29.3744 24.9785C29.5574 25.1853 29.5382 25.5013 29.3314 25.6843C29.1246 25.8673 28.8086 25.848 28.6256 25.6412L21.4997 17.5885L14.3745 25.6411C14.1915 25.848 13.8755 25.8673 13.6687 25.6843C13.4619 25.5013 13.4426 25.1853 13.6255 24.9785L20.8809 16.7787C20.881 16.7787 20.881 16.7787 20.881 16.7787C20.9585 16.6911 21.0537 16.6209 21.1604 16.5729ZM21.6297 17.4416C21.6298 17.4415 21.6299 17.4414 21.6299 17.4413L21.6299 17.4414L21.6297 17.4416ZM21.3695 17.4414C21.3695 17.4414 21.3694 17.4413 21.3694 17.4413L21.3695 17.4414Z" />
        </symbol>
        <svg id="chevronLeft32" viewBox="0 0 32 32" xmlns="http://www.w3.org/2000/svg">
            <path d="M20.0605 9.00011L18.9999 7.93945L11.4696 15.4698C11.2033 15.736 11.1791 16.1527 11.3969 16.4463L11.4696 16.5304L18.9999 24.0608L20.0605 23.0001L13.0609 16.0001L20.0605 9.00011Z" fill="currentColor"></path>
        </svg>
        <svg id="chevronRight28" viewBox="0 0 28 28" xmlns="http://www.w3.org/2000/svg">
            <path
                d="M10.447 7.8751L11.3751 6.94702L17.9641 13.5361C18.1971 13.769 18.2183 14.1336 18.0277 14.3905L17.9641 14.4641L11.3751 21.0532L10.447 20.1251L16.5717 14.0001L10.447 7.8751Z"
                fill="currentColor" />
        </svg>

        <symbol id="copy" viewBox="0 0 18 19"
            xmlns="http://www.w3.org/2000/svg">
            <path
                d="M17 0C17.5523 0 18 0.447715 18 1V15C18 15.5523 17.5523 16 17 16H5C4.44772 16 4 15.5523 4 15V1C4 0.447715 4.44772 0 5 0H17ZM16.5 1.5H5.5V14.5H16.5V1.5Z" />
            <path
                d="M4 3.25V4.75H1.75V17.25H12.25V16H13.75V18C13.75 18.3797 13.4678 18.6935 13.1018 18.7432L13 18.75H1C0.620304 18.75 0.306509 18.4678 0.256846 18.1018L0.25 18V4C0.25 3.6203 0.532154 3.30651 0.89823 3.25685L1 3.25H4Z" />
        </symbol>

        <symbol id="cross" viewBox="0 0 42 42"
            xmlns="http://www.w3.org/2000/svg">
            <path d="M31.25 11L10 31.5417" stroke-width="2" stroke-linecap="round"
                stroke-linejoin="round" />
            <path d="M10 11L31.25 31.5417" stroke-width="2" stroke-linecap="round"
                stroke-linejoin="round" />
        </symbol>
        <symbol id="edit" viewBox="0 0 24 24"
            xmlns="http://www.w3.org/2000/svg">
            <path
                d="M23.122 22.1811C23.3548 22.1811 23.5782 22.2769 23.7428 22.4475C23.9075 22.618 24 22.8493 24 23.0905C24 23.3317 23.9075 23.5631 23.7428 23.7336C23.5782 23.9042 23.3548 24 23.122 24H0.878049C0.645176 24 0.421841 23.9042 0.257175 23.7336C0.0925085 23.5631 0 23.3317 0 23.0905C0 22.8493 0.0925085 22.618 0.257175 22.4475C0.421841 22.2769 0.645176 22.1811 0.878049 22.1811H23.122ZM23.112 5.68654L9.17737 20.1203L3.74517 20.695L4.30068 15.0685L16.4172 2.51799V2.51738L18.2353 0.634802C19.0525 -0.211601 20.4773 -0.211601 21.2944 0.634802L23.112 2.51799C23.3135 2.72554 23.4733 2.97242 23.5822 3.24436C23.691 3.5163 23.7466 3.80789 23.746 4.10226C23.746 4.70069 23.5206 5.26334 23.112 5.68654ZM5.71141 18.6584L8.37717 18.3765L19.4312 6.92643L17.0382 4.44725L5.98361 15.8967L5.71141 18.6584ZM19.7649 1.7977C19.7114 1.79752 19.6583 1.80836 19.6089 1.8296C19.5595 1.85083 19.5146 1.88203 19.4769 1.92138L18.2798 3.16067L20.6734 5.64046L21.8699 4.40057C21.9462 4.32143 21.9891 4.21414 21.9891 4.10226C21.9891 3.99039 21.9462 3.88309 21.8699 3.80396L20.0529 1.92138C20.0151 1.88208 19.9703 1.85092 19.9208 1.82969C19.8714 1.80846 19.8184 1.79759 19.7649 1.7977Z" />
        </symbol>
        <symbol id="eye"
            xmlns="http://www.w3.org/2000/svg" fill-rule="evenodd" clip-rule="evenodd" viewBox="0 0 28 28">
            <path
                d="M12.01 20c-5.065 0-9.586-4.211-12.01-8.424 2.418-4.103 6.943-7.576 12.01-7.576 5.135 0 9.635 3.453 11.999 7.564-2.241 4.43-6.726 8.436-11.999 8.436zm-10.842-8.416c.843 1.331 5.018 7.416 10.842 7.416 6.305 0 10.112-6.103 10.851-7.405-.772-1.198-4.606-6.595-10.851-6.595-6.116 0-10.025 5.355-10.842 6.584zm10.832-4.584c2.76 0 5 2.24 5 5s-2.24 5-5 5-5-2.24-5-5 2.24-5 5-5zm0 1c2.208 0 4 1.792 4 4s-1.792 4-4 4-4-1.792-4-4 1.792-4 4-4z" />
        </symbol>
        <symbol id="facebook" viewBox="0 0 30 30"
            xmlns="http://www.w3.org/2000/svg">
            <g clip-path="url(#clip0)">
                <path
                    d="M21.9283 16.7476L22.7548 11.3592H17.5849V7.86252C17.5849 6.38836 18.307 4.95146 20.6226 4.95146H22.9732V0.364102C22.9732 0.364102 20.84 0 18.8006 0C14.5426 0 11.7596 2.58059 11.7596 7.25244V11.3592H7.02661V16.7476H11.7596V29.7735C12.7087 29.9224 13.6814 30 14.6723 30C15.6632 30 16.6358 29.9224 17.5849 29.7735V16.7476H21.9283Z" />
            </g>
            <defs>
                <clipPath id="clip0">
                    <rect width="30" height="30" />
                </clipPath>
            </defs>
        </symbol>
        <symbol id="filter" width="32" height="32" viewBox="0 0 32 32"
            xmlns="http://www.w3.org/2000/svg">
            <path d="M25 11.25H14V12.75H25V11.25Z" />
            <path d="M11 11.25H7V12.75H11V11.25Z" />
            <path d="M25 19.25H21V20.75H25V19.25Z" />
            <path d="M18 19.25H7V20.75H18V19.25Z" />
            <path
                d="M12.5 9.5C13.8807 9.5 15 10.6193 15 12C15 13.3807 13.8807 14.5 12.5 14.5C11.1193 14.5 10 13.3807 10 12C10 10.6193 11.1193 9.5 12.5 9.5ZM12.5 11C11.9477 11 11.5 11.4477 11.5 12C11.5 12.5523 11.9477 13 12.5 13C13.0523 13 13.5 12.5523 13.5 12C13.5 11.4477 13.0523 11 12.5 11Z" />
            <path
                d="M19.5 17.5C20.8807 17.5 22 18.6193 22 20C22 21.3807 20.8807 22.5 19.5 22.5C18.1193 22.5 17 21.3807 17 20C17 18.6193 18.1193 17.5 19.5 17.5ZM19.5 19C18.9477 19 18.5 19.4477 18.5 20C18.5 20.5523 18.9477 21 19.5 21C20.0523 21 20.5 20.5523 20.5 20C20.5 19.4477 20.0523 19 19.5 19Z" />
        </symbol>
        <symbol id="sort" width="32" height="32" viewBox="0 0 32 32"
            xmlns="http://www.w3.org/2000/svg">
            <path
                d="M23.4999 11.4393L24.5605 12.5L17.0302 20.0303C16.764 20.2966 16.3473 20.3208 16.0537 20.1029L15.9696 20.0303L8.43923 12.5L9.49989 11.4393L16.4999 18.439L23.4999 11.4393Z" />
        </symbol>
        <symbol id="grid" viewBox="0 0 32 32"
            xmlns="http://www.w3.org/2000/svg">
            <path shape-rendering="geometricPrecision"
                d="M14 5C14.5523 5 15 5.44772 15 6V14C15 14.5523 14.5523 15 14 15H6C5.44772 15 5 14.5523 5 14V6C5 5.44772 5.44772 5 6 5H14ZM13.5 6.5H6.5V13.5H13.5V6.5Z" />
            <path shape-rendering="geometricPrecision"
                d="M14 17C14.5523 17 15 17.4477 15 18V26C15 26.5523 14.5523 27 14 27H6C5.44772 27 5 26.5523 5 26V18C5 17.4477 5.44772 17 6 17H14ZM13.5 18.5H6.5V25.5H13.5V18.5Z" />
            <path shape-rendering="geometricPrecision"
                d="M26 5C26.5523 5 27 5.44772 27 6V14C27 14.5523 26.5523 15 26 15H18C17.4477 15 17 14.5523 17 14V6C17 5.44772 17.4477 5 18 5H26ZM25.5 6.5H18.5V13.5H25.5V6.5Z" />
            <path shape-rendering="geometricPrecision"
                d="M26 17C26.5523 17 27 17.4477 27 18V26C27 26.5523 26.5523 27 26 27H18C17.4477 27 17 26.5523 17 26V18C17 17.4477 17.4477 17 18 17H26ZM25.5 18.5H18.5V25.5H25.5V18.5Z" />
        </symbol>
        <symbol id="square" viewBox="0 0 32 32"
            xmlns="http://www.w3.org/2000/svg">
            <path
                d="M24 6C24.5523 6 25 6.44772 25 7V25C25 25.5523 24.5523 26 24 26H8C7.44772 26 7 25.5523 7 25V7C7 6.44772 7.44772 6 8 6H24ZM23.5 7.5H8.5V24.5H23.5V7.5Z" />
        </symbol>
        <symbol id="info" viewBox="0 0 20 20"
            xmlns="http://www.w3.org/2000/svg">
            <path d="M10.75 13.75H9.25V7.75H10.75V13.75Z" />
            <path
                d="M10 5C10.5523 5 11 5.44772 11 6C11 6.55228 10.5523 7 10 7C9.44772 7 9 6.55228 9 6C9 5.44772 9.44772 5 10 5Z" />
            <path
                d="M10 0C4.47715 0 0 4.47715 0 10C0 15.5228 4.47715 20 10 20C15.5228 20 20 15.5228 20 10C20 4.47715 15.5228 0 10 0ZM10 1.53846C14.6732 1.53846 18.4615 5.32682 18.4615 10C18.4615 14.6732 14.6732 18.4615 10 18.4615C5.32682 18.4615 1.53846 14.6732 1.53846 10C1.53846 5.32682 5.32682 1.53846 10 1.53846Z" />
        </symbol>
        <symbol id="instagram"
            xmlns="http://www.w3.org/2000/svg" enable-background="new 0 0 24 24">
            <path id="svg_1"
                d="m12.004,5.838c-3.403,0 -6.158,2.758 -6.158,6.158c0,3.403 2.758,6.158 6.158,6.158c3.403,0 6.158,-2.758 6.158,-6.158c0,-3.403 -2.758,-6.158 -6.158,-6.158zm0,10.155c-2.209,0 -3.997,-1.789 -3.997,-3.997s1.789,-3.997 3.997,-3.997s3.997,1.789 3.997,3.997c0.001,2.208 -1.788,3.997 -3.997,3.997z" />
            <path id="svg_2"
                d="m16.948,0.076c-2.208,-0.103 -7.677,-0.098 -9.887,0c-1.942,0.091 -3.655,0.56 -5.036,1.941c-2.308,2.308 -2.013,5.418 -2.013,9.979c0,4.668 -0.26,7.706 2.013,9.979c2.317,2.316 5.472,2.013 9.979,2.013c4.624,0 6.22,0.003 7.855,-0.63c2.223,-0.863 3.901,-2.85 4.065,-6.419c0.104,-2.209 0.098,-7.677 0,-9.887c-0.198,-4.213 -2.459,-6.768 -6.976,-6.976zm3.495,20.372c-1.513,1.513 -3.612,1.378 -8.468,1.378c-5,0 -7.005,0.074 -8.468,-1.393c-1.685,-1.677 -1.38,-4.37 -1.38,-8.453c0,-5.525 -0.567,-9.504 4.978,-9.788c1.274,-0.045 1.649,-0.06 4.856,-0.06l0.045,0.03c5.329,0 9.51,-0.558 9.761,4.986c0.057,1.265 0.07,1.645 0.07,4.847c-0.001,4.942 0.093,6.959 -1.394,8.453z" />
            <circle id="svg_3" r="1.439" cy="5.595" cx="18.406" />
        </symbol>
        <symbol id="language" viewBox="0 0 38 38"
            xmlns="http://www.w3.org/2000/svg">
            <path
                d="M21 9C14.3727 9 9 14.3727 9 21C9 27.6273 14.3727 33 21 33C27.6273 33 33 27.6273 33 21C32.9926 14.3758 27.6242 9.00742 21 9ZM31.3783 25.2039L27.9656 25.7928C28.3563 24.3602 28.5672 22.8846 28.5936 21.4H32.19C32.1449 22.7059 31.8701 23.9936 31.3783 25.2039ZM9.80996 21.4H13.4064C13.4328 22.8846 13.6438 24.3602 14.0344 25.7928L10.6217 25.2039C10.1299 23.9936 9.85508 22.7059 9.80996 21.4ZM10.6217 16.7961L14.0344 16.2072C13.6438 17.6398 13.4328 19.1154 13.4064 20.6H9.80996C9.85508 19.2941 10.1299 18.0064 10.6217 16.7961ZM21.4 15.4225C22.8373 15.4408 24.2711 15.5717 25.6881 15.8141L27.1 16.0576C27.5338 17.5338 27.7672 19.0615 27.7939 20.6H21.4V15.4225ZM25.8244 15.0256C24.3625 14.7758 22.883 14.6408 21.4 14.6225V9.82246C23.6932 10.0428 25.6852 12.1424 26.8141 15.198L25.8244 15.0256ZM20.6 14.6225C19.117 14.6408 17.6379 14.7758 16.176 15.0256L15.1859 15.1969C16.3148 12.1404 18.3068 10.04 20.6 9.8207V14.6225ZM16.3123 15.8141C17.7291 15.5717 19.1627 15.4408 20.6 15.4225V20.6H14.2061C14.2328 19.0615 14.4662 17.5338 14.9 16.0576L16.3123 15.8141ZM14.2061 21.4H20.6V26.5775C19.1627 26.5592 17.7289 26.4283 16.3119 26.1859L14.9 25.9424C14.4662 24.4662 14.2328 22.9385 14.2061 21.4ZM16.1756 26.9744C17.6375 27.2246 19.1168 27.3602 20.6 27.3797V32.1797C18.3068 31.9592 16.3148 29.8596 15.1859 26.8039L16.1756 26.9744ZM21.4 27.3797C22.883 27.3602 24.3621 27.2246 25.824 26.9744L26.8141 26.8031C25.6852 29.8596 23.6932 31.96 21.4 32.1793V27.3797ZM25.6877 26.1859C24.2709 26.4283 22.8373 26.5592 21.4 26.5775V21.4H27.7939C27.7672 22.9385 27.5338 24.4662 27.1 25.9424L25.6877 26.1859ZM28.5936 20.6C28.5672 19.1154 28.3563 17.6398 27.9656 16.2072L31.3783 16.7961C31.8701 18.0064 32.1449 19.2941 32.19 20.6H28.5936ZM30.9736 15.9145L27.7023 15.35C27.1143 13.4314 26.0141 11.7096 24.5199 10.3699C27.3139 11.3023 29.6309 13.2928 30.9736 15.9145ZM17.4801 10.3699C15.9859 11.7096 14.8857 13.4314 14.2977 15.35L11.0264 15.9145C12.3691 13.2928 14.6861 11.3023 17.4801 10.3699ZM11.0264 26.0855L14.2977 26.65C14.8857 28.5686 15.9859 30.2904 17.4801 31.6301C14.6861 30.6977 12.3691 28.7072 11.0264 26.0855ZM24.5199 31.6301C26.0141 30.2904 27.1143 28.5686 27.7023 26.65L30.9736 26.0855C29.6309 28.7072 27.3139 30.6977 24.5199 31.6301Z"
                stroke-width="0.2" />
        </symbol>
        <svg id="language-small" viewBox="0 0 24 24" xmlns="http://www.w3.org/2000/svg">
            <path
                d="M12 4.5C7.85786 4.5 4.5 7.85786 4.5 12C4.5 16.1421 7.85786 19.5 12 19.5C16.1421 19.5 19.5 16.1421 19.5 12C19.5 7.85786 16.1421 4.5 12 4.5ZM12 5.65385C15.5049 5.65385 18.3462 8.49512 18.3462 12C18.3462 15.5049 15.5049 18.3462 12 18.3462C8.49512 18.3462 5.65385 15.5049 5.65385 12C5.65385 8.49512 8.49512 5.65385 12 5.65385Z" />
            <path fill-rule="evenodd" clip-rule="evenodd"
                d="M13.6682 16.2266C14.2376 15.2017 14.625 13.7096 14.625 12C14.625 10.2904 14.2376 8.79829 13.6682 7.77338C13.0777 6.71035 12.4415 6.375 12 6.375C11.5585 6.375 10.9223 6.71035 10.3318 7.77338C9.76238 8.79829 9.375 10.2904 9.375 12C9.375 13.7096 9.76238 15.2017 10.3318 16.2266C10.9223 17.2896 11.5585 17.625 12 17.625C12.4415 17.625 13.0777 17.2896 13.6682 16.2266ZM12 18.75C14.0711 18.75 15.75 15.7279 15.75 12C15.75 8.27208 14.0711 5.25 12 5.25C9.92893 5.25 8.25 8.27208 8.25 12C8.25 15.7279 9.92893 18.75 12 18.75Z" />
            <rect x="5.25" y="11.25" width="13.5" height="1.125" />
        </svg>
        <symbol id="lock" viewBox="0 0 42 42"
            xmlns="http://www.w3.org/2000/svg">
            <path
                d="M29 19.0263H28.3333V15.7368C28.3333 13.8175 27.5607 11.9768 26.1855 10.6196C24.8102 9.26245 22.9449 8.5 21 8.5C19.0551 8.5 17.1898 9.26245 15.8145 10.6196C14.4393 11.9768 13.6667 13.8175 13.6667 15.7368V19.0263H13C12.4696 19.0263 11.9609 19.2343 11.5858 19.6044C11.2107 19.9745 11 20.4765 11 21V31.5263C11 32.0498 11.2107 32.5518 11.5858 32.9219C11.9609 33.2921 12.4696 33.5 13 33.5H29C29.5304 33.5 30.0391 33.2921 30.4142 32.9219C30.7893 32.5518 31 32.0498 31 31.5263V21C31 20.4765 30.7893 19.9745 30.4142 19.6044C30.0391 19.2343 29.5304 19.0263 29 19.0263ZM15 15.7368C15 14.1665 15.6321 12.6604 16.7574 11.55C17.8826 10.4396 19.4087 9.81579 21 9.81579C22.5913 9.81579 24.1174 10.4396 25.2426 11.55C26.3679 12.6604 27 14.1665 27 15.7368V19.0263H15V15.7368ZM29.6667 31.5263C29.6667 31.7008 29.5964 31.8681 29.4714 31.9915C29.3464 32.1149 29.1768 32.1842 29 32.1842H13C12.8232 32.1842 12.6536 32.1149 12.5286 31.9915C12.4036 31.8681 12.3333 31.7008 12.3333 31.5263V21C12.3333 20.8255 12.4036 20.6582 12.5286 20.5348C12.6536 20.4114 12.8232 20.3421 13 20.3421H29C29.1768 20.3421 29.3464 20.4114 29.4714 20.5348C29.5964 20.6582 29.6667 20.8255 29.6667 21V31.5263ZM21 22.9737C20.5323 22.9789 20.0812 23.1458 19.7252 23.4452C19.3692 23.7447 19.1308 24.1578 19.0516 24.6128C18.9723 25.0677 19.0571 25.5357 19.2913 25.9353C19.5255 26.3349 19.8942 26.6409 20.3333 26.8V28.8947C20.3333 29.0692 20.4036 29.2366 20.5286 29.3599C20.6536 29.4833 20.8232 29.5526 21 29.5526C21.1768 29.5526 21.3464 29.4833 21.4714 29.3599C21.5964 29.2366 21.6667 29.0692 21.6667 28.8947V26.8C22.1058 26.6409 22.4745 26.3349 22.7087 25.9353C22.9429 25.5357 23.0277 25.0677 22.9484 24.6128C22.8692 24.1578 22.6308 23.7447 22.2748 23.4452C21.9188 23.1458 21.4677 22.9789 21 22.9737ZM21 25.6053C20.8681 25.6053 20.7393 25.5667 20.6296 25.4944C20.52 25.4221 20.4345 25.3193 20.3841 25.1991C20.3336 25.0789 20.3204 24.9466 20.3461 24.819C20.3719 24.6914 20.4354 24.5742 20.5286 24.4822C20.6218 24.3902 20.7406 24.3275 20.8699 24.3021C20.9993 24.2767 21.1333 24.2898 21.2551 24.3396C21.3769 24.3893 21.4811 24.4737 21.5543 24.5819C21.6276 24.6901 21.6667 24.8172 21.6667 24.9474C21.6667 25.1219 21.5964 25.2892 21.4714 25.4126C21.3464 25.5359 21.1768 25.6053 21 25.6053Z" />
        </symbol>
        <symbol id="logo" viewBox="0 0 214 20" fill="none"
            xmlns="http://www.w3.org/2000/svg">
            <mask id="mask0_643_7208" style="mask-type:alpha" maskUnits="userSpaceOnUse" x="0" y="0" width="214" height="20">
                <path d="M0 0H213.798V20H0V0Z" fill="currentColor" />
            </mask>
            <path fill-rule="evenodd" clip-rule="evenodd"
                d="M52.0991 5.88419H59.5265V2.84056H41.3936V5.88419H48.8268V16.8252H52.0991V5.88419ZM76.6477 9.81782C76.6477 12.7245 74.5753 14.3966 71.0687 14.3966C68.5193 14.3966 65.4525 13.2397 65.4525 9.81782C65.4525 6.67788 68.2629 5.27152 71.0501 5.27152C74.5555 5.27152 76.6477 6.97145 76.6477 9.81782ZM80.2436 9.81782C80.2436 5.3423 76.6349 2.45184 71.0501 2.45184C66.809 2.45184 61.8565 4.3792 61.8565 9.81782C61.8565 12.7164 63.4915 14.4511 64.8607 15.3945C66.5293 16.5444 68.7874 17.2024 71.0501 17.2024C73.4903 17.2024 75.7507 16.5317 77.4263 15.3063C79.2701 13.9626 80.2436 12.0608 80.2436 9.81782ZM99.4465 16.8287H102.661V2.8336H98.7642L93.2884 9.0601L87.8672 2.8336H83.9603V16.8287H87.1745V6.82641L87.4019 7.0608L93.2884 13.7677L99.2179 7.0608L99.4465 6.82641V16.8287ZM127.922 2.84056H109.791V5.88419H117.226V16.8252H120.494V5.88419H127.922V2.84056ZM139.804 10.803L134.207 10.8064L137.004 5.60803L139.804 10.803ZM143.041 16.8287H146.621L138.966 2.8162H135.035L127.446 16.8287H130.97L132.733 13.5461H141.276L143.041 16.8287ZM150.401 16.8218H153.907V2.84405H150.401V16.8218ZM159.255 16.8264H173.047V13.9557H162.525V2.82548H159.255V16.8264ZM189.728 9.81782C189.728 12.7245 187.653 14.3966 184.151 14.3966C181.599 14.3966 178.529 13.2397 178.529 9.81782C178.529 6.67788 181.341 5.27152 184.13 5.27152C187.637 5.27152 189.728 6.97145 189.728 9.81782ZM193.324 9.81782C193.324 5.3423 189.714 2.45184 184.129 2.45184C179.89 2.45184 174.936 4.3792 174.936 9.81782C174.936 12.7164 176.569 14.4511 177.94 15.3945C179.609 16.5444 181.866 17.2024 184.129 17.2024C186.57 17.2024 188.83 16.5317 190.506 15.3063C192.347 13.9626 193.324 12.0608 193.324 9.81782ZM209.92 7.55744C209.92 8.75377 209.044 9.58923 207.794 9.58923H200.456V5.60107H207.773C209.167 5.60107 209.92 6.60826 209.92 7.55744ZM213.286 7.65143C213.286 4.86888 211.123 2.84753 208.145 2.84753H197.054V16.8252H200.456V12.3428H206.543L209.972 16.8252H213.799L210.249 12.0736L210.428 12.0144C212.245 11.4191 213.286 9.82826 213.286 7.65143Z"
                fill="currentColor" />
            <path fill-rule="evenodd" clip-rule="evenodd"
                d="M33.6331 10.0348C33.6331 12.2291 31.9227 14.2585 29.1587 15.767C26.2381 17.3602 22.1815 18.3442 17.6804 18.3442H17.6781C13.1771 18.3442 9.11928 17.3602 6.19865 15.767C3.43467 14.2585 1.72546 12.2291 1.7243 10.0348C1.72546 7.84057 3.43467 5.81109 6.19865 4.30262C9.11928 2.71061 13.1759 1.7243 17.677 1.7243H17.6793C22.1815 1.7243 26.2381 2.71061 29.1587 4.30378C31.9227 5.81109 33.6331 7.84057 33.6331 10.0337V10.0348ZM29.9803 2.79415C26.816 1.06753 22.4658 0 17.6793 0H17.677C12.8916 0 8.54142 1.06753 5.37712 2.79415C2.055 4.60548 0 7.16291 0 10.0348C0 12.9067 2.055 15.463 5.37596 17.2755C8.54142 19.0021 12.8928 20.0696 17.6781 20.0696H17.6804C22.4658 20.0696 26.816 19.0021 29.9803 17.2755C33.3024 15.4641 35.3574 12.9067 35.3574 10.0348V10.0337C35.3574 7.16291 33.3024 4.60548 29.9803 2.79415Z"
                fill="currentColor" />
            <path fill-rule="evenodd" clip-rule="evenodd"
                d="M14.002 15.3887V8.87675C11.73 9.20745 9.2793 9.92456 9.2793 9.92456V6.10581C12.4506 5.29587 15.3457 4.99534 17.6768 5.01507C19.82 5.03363 23.1027 5.29587 26.274 6.10697V9.92456C26.274 9.92456 23.8233 9.20745 21.5513 8.87675V15.3887H14.002Z"
                fill="currentColor" />
        </symbol>
        <symbol id="mail" viewBox="0 0 24 18"
            xmlns="http://www.w3.org/2000/svg">
            <path
                d="M21.75 -2.6226e-05H2.25002C1.00928 -2.6226e-05 0 1.00925 0 2.24999V15.75C0 16.9907 1.00928 18 2.25002 18H21.75C22.9907 18 24 16.9907 24 15.75V2.24999C24 1.00925 22.9907 -2.6226e-05 21.75 -2.6226e-05ZM21.75 1.49997C21.8519 1.49997 21.9488 1.52111 22.0374 1.55803L12 10.2576L1.9625 1.55803C2.05113 1.52116 2.14807 1.49997 2.24997 1.49997H21.75ZM21.75 16.5H2.25002C1.8362 16.5 1.49999 16.1638 1.49999 15.7499V3.14279L11.5085 11.8169C11.6499 11.9392 11.825 12 12 12C12.175 12 12.3501 11.9392 12.4915 11.8169L22.5 3.14279V15.75C22.5 16.1638 22.1638 16.5 21.75 16.5Z" />
        </symbol>
        <symbol id="menu" fill="none" viewBox="0 0 14 11" xmlns="http://www.w3.org/2000/svg">
            <path stroke="#001931" stroke-width=".7" d="M0 .65h14M0 5.65h14M0 10.65h14"/>
        </symbol>
        <symbol id="phone" viewBox="0 0 24 24"
            xmlns="http://www.w3.org/2000/svg">
            <path
                d="M17.2491 24C16.4744 24 15.7063 23.863 14.9551 23.5901C11.646 22.388 8.57439 20.4301 6.0723 17.9281C3.57022 15.4261 1.61233 12.3544 0.410265 9.04529C0.023984 7.98183 -0.0900115 6.88406 0.0715601 5.78236C0.222913 4.7504 0.622647 3.74858 1.22759 2.88518C1.83521 2.01798 2.64527 1.2967 3.57017 0.799327C4.55647 0.268958 5.63301 0 6.76996 0C7.12357 0 7.42918 0.247068 7.50329 0.592804L8.68046 6.08628C8.73376 6.33504 8.65731 6.59387 8.47746 6.77377L6.46599 8.78519C8.36351 12.5578 11.4425 15.6368 15.2151 17.5343L17.2266 15.5229C17.4065 15.343 17.6653 15.2667 17.914 15.3199L23.4075 16.497C23.7533 16.5711 24.0003 16.8767 24.0003 17.2304C24.0003 18.3673 23.7314 19.4439 23.201 20.4302C22.7036 21.3551 21.9823 22.1652 21.1151 22.7728C20.2517 23.3777 19.2499 23.7774 18.2179 23.9288C17.8945 23.9763 17.5712 24 17.2491 24ZM6.17074 1.53275C4.67103 1.69831 3.33993 2.48437 2.456 3.74596C1.462 5.16457 1.23022 6.90942 1.82007 8.5332C4.1311 14.8951 9.10532 19.8693 15.4672 22.1803C17.091 22.7702 18.8358 22.5385 20.2545 21.5444C21.5161 20.6605 22.3021 19.3294 22.4677 17.8297L17.9987 16.8721L15.8981 18.9727C15.6745 19.1963 15.3349 19.2556 15.0489 19.1212C10.587 17.0251 6.97536 13.4134 4.87919 8.95154C4.74481 8.66547 4.80415 8.32583 5.02769 8.10234L7.12835 6.00168L6.17074 1.53275Z" />
        </symbol>
        <symbol id="location" viewBox="0 0 34 34"
            xmlns="http://www.w3.org/2000/svg">
            <path stroke-width="0"
                d="M16 4C20.9706 4 25 7 25 13C25 15.4 23.74 18.12 22.156 20.52L21.7851 21.0679C21.6599 21.2484 21.5331 21.4268 21.4053 21.6026L21.0191 22.1225C20.8249 22.3785 20.6291 22.6282 20.4334 22.8707L20.0424 23.3459L19.654 23.8L19.2707 24.2314L18.895 24.6384L18.5296 25.0191C18.4697 25.0803 18.4103 25.1403 18.3515 25.1991L18.0062 25.5372L17.6775 25.8448C17.6243 25.8934 17.5718 25.9407 17.5202 25.9865L17.2212 26.2449C16.6454 26.7273 16.2077 27 16 27C15.7923 27 15.3546 26.7273 14.7788 26.2449L14.4798 25.9865L14.1604 25.6949C14.1056 25.6437 14.05 25.5911 13.9938 25.5372L13.6485 25.1991L13.2891 24.8321C13.2282 24.7687 13.1668 24.7041 13.105 24.6384L12.7293 24.2314L12.346 23.8L11.9576 23.3459L11.5666 22.8707C11.3709 22.6282 11.1751 22.3785 10.9809 22.1225L10.5947 21.6026C8.67751 18.9645 7 15.7692 7 13C7 7 11.0294 4 16 4ZM16 5.5C11.4455 5.5 8.5 8.21279 8.5 13C8.5 15.2675 9.93737 18.2982 12.2683 21.3371C13.2108 22.5658 14.2389 23.7091 15.1472 24.5639L15.3143 24.7192L15.6292 24.9992C15.7293 25.0855 15.8244 25.1644 15.9134 25.2354L16 25.302L16.0866 25.2354C16.1756 25.1644 16.2707 25.0855 16.3708 24.9992L16.6857 24.7192L16.8528 24.5639C17.7611 23.7091 18.7892 22.5658 19.7317 21.3371C22.0626 18.2982 23.5 15.2675 23.5 13C23.5 8.21279 20.5545 5.5 16 5.5Z" />
            <path stroke-width="0"
                d="M16 9C18.2091 9 20 10.7909 20 13C20 15.2091 18.2091 17 16 17C13.7909 17 12 15.2091 12 13C12 10.7909 13.7909 9 16 9ZM16 10.5C14.6193 10.5 13.5 11.6193 13.5 13C13.5 14.3807 14.6193 15.5 16 15.5C17.3807 15.5 18.5 14.3807 18.5 13C18.5 11.6193 17.3807 10.5 16 10.5Z" />
        </symbol>
        <symbol id="pinterest" viewBox="0 0 35 35"
            xmlns="http://www.w3.org/2000/svg">
            <path
                d="M18.7518 2.85352C10.3643 2.85352 6.13477 8.8666 6.13477 13.882C6.13477 16.9182 7.28429 19.6192 9.74941 20.6248C10.1538 20.7915 10.5162 20.631 10.6335 20.1834C10.715 19.8748 10.9082 19.0932 10.994 18.7666C11.1119 18.3239 11.0662 18.1696 10.7397 17.7825C10.0291 16.9448 9.57408 15.8594 9.57408 14.321C9.57408 9.85994 12.9121 5.86623 18.2659 5.86623C23.0066 5.86623 25.6112 8.76289 25.6112 12.6306C25.6112 17.7214 23.3585 22.0176 20.0149 22.0176C18.1677 22.0176 16.7861 20.4909 17.2281 18.6172C17.7584 16.3805 18.7863 13.9679 18.7863 12.3522C18.7863 10.9076 18.0103 9.70251 16.4058 9.70251C14.5179 9.70251 13.001 11.6558 13.001 14.2716C13.001 15.9378 13.5641 17.0651 13.5641 17.0651C13.5641 17.0651 11.6324 25.2513 11.2934 26.6849C10.6193 29.5401 11.1922 33.0393 11.241 33.3925C11.2694 33.6024 11.5385 33.653 11.6608 33.495C11.8342 33.2671 14.0839 30.4915 14.8476 27.7171C15.0643 26.9324 16.0891 22.8652 16.0891 22.8652C16.7027 24.0358 18.4956 25.0643 20.402 25.0643C26.0761 25.0643 29.9266 19.8914 29.9266 12.9671C29.9272 7.73004 25.4921 2.85352 18.7518 2.85352Z" />
        </symbol>
        <symbol id="play" viewBox="0 0 85 85"
            xmlns="http://www.w3.org/2000/svg">
            <path d="M32.3809 20.2381L64.7618 40.4762L32.3809 60.7143V20.2381Z" stroke-width="2"
                stroke-linecap="round" stroke-linejoin="round" />
        </symbol>
        <symbol id="search" viewBox="0 0 28 28"
            xmlns="http://www.w3.org/2000/svg">
            <path
                d="M13.125 5.25C16.991 5.25 20.125 8.38401 20.125 12.25C20.125 16.116 16.991 19.25 13.125 19.25C9.25901 19.25 6.125 16.116 6.125 12.25C6.125 8.38401 9.25901 5.25 13.125 5.25ZM13.125 6.5625C9.98388 6.5625 7.4375 9.10888 7.4375 12.25C7.4375 15.3911 9.98388 17.9375 13.125 17.9375C16.2661 17.9375 18.8125 15.3911 18.8125 12.25C18.8125 9.10888 16.2661 6.5625 13.125 6.5625Z" />
            <path
                d="M22.4447 21.2984L18.7284 17.5861L17.8043 18.5141L21.5167 22.2264L22.4447 21.2984Z" />
        </symbol>
        <symbol id="trash" viewBox="0 0 24 24"
            xmlns="http://www.w3.org/2000/svg">
            <g clip-path="url(#clip0)">
                <path d="M11.2938 11.2941H12.7055V19.0588H11.2938V11.2941Z" />
                <path d="M8.47031 11.2941H9.88207V19.0588H8.47031V11.2941Z" />
                <path d="M14.1173 11.2941H15.5291V19.0588H14.1173V11.2941Z" />
                <path
                    d="M21.1763 2.82352H15.5292V2.11763C15.5292 0.949962 14.5793 -1.46627e-05 13.4116 -1.46627e-05H10.5881C9.42035 -1.46627e-05 8.47042 0.949962 8.47042 2.11763V2.82352H2.82336V7.05881H4.29386L5.59193 21.9879C5.64798 23.1176 6.57372 24 7.70694 24H16.2927C17.4259 24 18.3516 23.1176 18.4077 21.9879L19.7058 7.05881H21.1763V2.82352ZM9.88219 2.11763C9.88219 1.72841 10.1988 1.41175 10.5881 1.41175H13.4116C13.8009 1.41175 14.1175 1.72841 14.1175 2.11763V2.82352H9.88219V2.11763ZM4.23513 4.23528H19.7645V5.64705H4.23513V4.23528ZM16.998 21.9117C16.9822 22.291 16.6724 22.5882 16.2927 22.5882H7.70694C7.32727 22.5882 7.01748 22.2911 7.00167 21.9117C5.62059 6.01961 5.71503 7.10625 5.71089 7.05881H18.2888C18.285 7.1014 18.3729 6.09086 16.998 21.9117Z" />
            </g>
            <defs>
                <clipPath id="clip0">
                    <rect width="24" height="24" />
                </clipPath>
            </defs>
        </symbol>
        <symbol id="twitter" viewBox="0 0 31 31"
            xmlns="http://www.w3.org/2000/svg">
            <path
                d="M9.74889 28.0953C21.447 28.0953 27.8454 18.4035 27.8454 9.99877C27.8454 9.72352 27.8454 9.44949 27.8269 9.17667C29.0716 8.27627 30.1461 7.16154 31 5.88449C29.8393 6.39884 28.6078 6.73608 27.347 6.88515C28.6744 6.09053 29.6685 4.83975 30.1431 3.36725C28.8947 4.10804 27.5287 4.6302 26.1045 4.91108C24.9019 3.63227 23.2223 2.90625 21.467 2.90625C17.9746 2.90625 15.1008 5.78005 15.1008 9.27239C15.1008 9.75689 15.1562 10.2399 15.2656 10.7118C10.1544 10.4556 5.38558 8.03796 2.15759 4.06663C0.478986 6.95629 1.34753 10.7011 4.12669 12.5569C3.11465 12.5269 2.12435 12.2538 1.24 11.7608V11.8414C1.24085 14.8575 3.3862 17.479 6.34259 18.0761C5.40629 18.3315 4.42368 18.3688 3.47079 18.1853C4.30192 20.7697 6.6986 22.5512 9.41286 22.6021C7.16112 24.3717 4.37796 25.333 1.51404 25.3301C1.00798 25.3292 0.502418 25.2985 0 25.2384C2.90831 27.1047 6.29324 28.095 9.74889 28.0904" />
        </symbol>
        <symbol id="user" viewBox="0 0 32 32"
            xmlns="http://www.w3.org/2000/svg">
            <path stroke-width="0"
                d="M16 6C18.7614 6 21 8.23858 21 11C21 13.7614 18.7614 16 16 16C13.2386 16 11 13.7614 11 11C11 8.23858 13.2386 6 16 6ZM16 7.5C14.067 7.5 12.5 9.067 12.5 11C12.5 12.933 14.067 14.5 16 14.5C17.933 14.5 19.5 12.933 19.5 11C19.5 9.067 17.933 7.5 16 7.5Z" />
            <path stroke-width="0"
                d="M16 16.75C20.9529 16.75 23.9087 19.4282 24.6978 24.5822L24.7434 24.9009L23.2566 25.0991C22.6382 20.4614 20.2794 18.25 16 18.25C11.8136 18.25 9.46526 20.3663 8.78623 24.8001L8.74343 25.0991L7.25659 24.9009C7.97156 19.5386 10.9461 16.75 16 16.75Z" />
        </symbol>
        <symbol id="wishlistHeart" viewBox="0 0 32 32"
            xmlns="http://www.w3.org/2000/svg">
            <path stroke-width="0" fill-rule="evenodd" clip-rule="evenodd"
                d="M16.0591 11.9009L14.9952 10.8305C14.895 10.7296 14.7955 10.6265 14.6949 10.5223C14.1999 10.0095 13.6799 9.47076 12.931 9.05213C12.1087 8.59252 10.9863 8.28143 9.36226 8.68993C7.92588 9.05123 7.04424 10.0802 6.68131 11.2751C6.29919 12.5331 6.55447 13.7389 7.10456 14.3756C10.2128 17.973 12.0722 19.5732 14.7391 21.8683C15.1564 22.2274 15.5934 22.6035 16.0581 23.007C16.4075 22.7023 16.7407 22.4131 17.0612 22.1348C19.8642 19.7014 21.7046 18.1037 25.0269 14.3605C25.4003 13.9399 25.7084 12.7582 25.3263 11.3724C24.9721 10.0873 24.1254 9.03436 22.756 8.68989C21.132 8.28141 20.0095 8.59251 19.1873 9.05212C18.4383 9.47074 17.9184 10.0095 17.4234 10.5222C17.3228 10.6265 17.2233 10.7296 17.123 10.8305L16.0591 11.9009ZM16.0591 25C15.2269 24.2674 14.4795 23.6243 13.7822 23.0243C11.0976 20.7144 9.15444 19.0425 5.96953 15.3563C4.04038 13.1235 4.96047 8.25041 8.99636 7.23524C11.939 6.49506 13.8089 7.64372 14.997 8.7138C15.3131 8.99847 15.581 9.27757 15.8079 9.51408C15.8979 9.60787 15.9815 9.69496 16.0591 9.77304C16.1367 9.69495 16.2203 9.60784 16.3104 9.51403C16.5373 9.27754 16.8051 8.99845 17.1212 8.7138C18.3094 7.64372 20.1792 6.49505 23.1218 7.2352C27.1577 8.25033 27.8119 13.4825 26.1487 15.3563C22.7589 19.1755 20.8501 20.8324 18.0339 23.277C17.4259 23.8048 16.7757 24.3692 16.0591 25Z" />
        </symbol>
        <symbol id="wishlistHeartFilled" viewBox="0 0 32 32"
            xmlns="http://www.w3.org/2000/svg">
            <path
                d="M13.7824 23.0245C14.4797 23.6245 15.227 24.2675 16.0591 25C16.7757 24.3692 17.4259 23.8048 18.0339 23.277C20.8501 20.8324 22.7589 19.1755 26.1487 15.3563C27.8119 13.4825 27.1577 8.25033 23.1218 7.2352C20.1792 6.49505 18.3094 7.64372 17.1212 8.7138C16.8051 8.99845 16.5373 9.27754 16.3104 9.51403C16.2203 9.60784 16.1367 9.69495 16.0591 9.77304C15.9815 9.69496 15.8979 9.60787 15.8079 9.51408C15.581 9.27757 15.3131 8.99847 14.997 8.7138C13.8089 7.64372 11.939 6.49506 8.99636 7.23524C4.96047 8.25041 4.04038 13.1235 5.96953 15.3563C9.15444 19.0425 11.0976 20.7144 13.7822 23.0243L13.7824 23.0245Z" />
        </symbol>
        <symbol id="youtube" viewBox="0 0 38 38"
            xmlns="http://www.w3.org/2000/svg">
            <path
                d="M37.2061 9.84994C36.7692 8.2149 35.4816 6.92743 33.8466 6.49043C30.8829 5.69629 19 5.69629 19 5.69629C19 5.69629 7.11706 5.69629 4.15336 6.49043C2.51861 6.92743 1.23084 8.2149 0.793918 9.84994C0 12.8133 0 18.9965 0 18.9965C0 18.9965 0 25.1795 0.793918 28.1426C1.23084 29.7777 2.51861 31.0655 4.15336 31.5024C7.11706 32.2963 19 32.2963 19 32.2963C19 32.2963 30.8829 32.2963 33.8466 31.5024C35.4816 31.0655 36.7692 29.7777 37.2061 28.1426C37.9999 25.1795 37.9999 18.9965 37.9999 18.9965C37.9999 18.9965 37.9999 12.8133 37.2061 9.84994ZM15.1998 24.6966V13.2964L25.0723 18.9965L15.1998 24.6966Z" />
        </symbol>
        <symbol id="slash" viewBox="0 0 5 12" fill="none" preserveAspectRatio="xMidYMid"
            xmlns="http://www.w3.org/2000/svg">
            <path d="M0.308594 11.52H1.08859L4.68859 0.48H3.90859L0.308594 11.52Z" fill="#99ABB4" />
        </symbol>
        <symbol id="service" viewBox="0 0 8 18" xmlns="http://www.w3.org/2000/svg">
            <path
                d="M5.35338 0C5.68039 0 5.94549 0.25184 5.94549 0.5625C5.94549 0.716753 5.96118 0.745226 6.1763 0.749378L6.25564 0.75C7.12226 0.75 7.69096 1.18671 7.74567 1.94081L7.75 2.0625V3.9375C7.75 4.16098 7.61074 4.36326 7.39522 4.45284C7.02315 4.60748 6.84774 4.89909 6.84774 5.4375C6.84774 5.97591 7.02315 6.26752 7.39522 6.42216C7.5838 6.50054 7.71399 6.66521 7.7436 6.85487L7.75 6.9375V11.8125C7.75 12.0973 7.52725 12.3326 7.23824 12.3699L7.15789 12.375H4.5625V16.875H7C7.31066 16.875 7.5625 17.1268 7.5625 17.4375C7.5625 17.7223 7.35088 17.9576 7.07633 17.9949L7 18H1C0.68934 18 0.4375 17.7482 0.4375 17.4375C0.4375 17.1527 0.649116 16.9174 0.923672 16.8801L1 16.875H3.4375V12.375H0.842105L0.76176 12.3699C0.472753 12.3326 0.25 12.0973 0.25 11.8125V6.9375L0.256405 6.85487C0.286007 6.66521 0.416199 6.50054 0.604778 6.42216C0.976855 6.26752 1.15226 5.97591 1.15226 5.4375C1.15226 4.89909 0.976855 4.60748 0.604778 4.45284C0.389259 4.36326 0.25 4.16098 0.25 3.9375V2.0625L0.254334 1.94081C0.309038 1.18671 0.877738 0.75 1.74436 0.75L1.8237 0.749378C2.03882 0.745226 2.05451 0.716753 2.05451 0.5625C2.05451 0.25184 2.31961 0 2.64662 0H5.35338ZM4.87 1.125H3.13L3.08835 1.21142C2.85974 1.63789 2.38293 1.875 1.74436 1.875L1.66502 1.87562C1.49771 1.87885 1.45103 1.89679 1.43855 1.97719L1.43421 2.0625V3.60825L1.4814 3.63831C2.04748 4.02542 2.33647 4.64561 2.33647 5.4375L2.33205 5.60454C2.29377 6.3168 2.00705 6.87723 1.4814 7.23669L1.43421 7.266V11.25H6.56579V7.266L6.5186 7.23669C5.99295 6.87723 5.70623 6.3168 5.66795 5.60454L5.66353 5.4375C5.66353 4.64561 5.95252 4.02542 6.5186 3.63831L6.56579 3.60825V2.0625L6.56145 1.97719C6.54897 1.89679 6.50229 1.87885 6.33498 1.87562L6.25564 1.875C5.61707 1.875 5.14026 1.63789 4.91165 1.21142L4.87 1.125Z" />
        </symbol>
        <svg id="club" viewBox="0 0 110 20" fill="none"
            xmlns="http://www.w3.org/2000/svg">
            <path fill-rule="evenodd" clip-rule="evenodd"
                d="M23.9999 4.70766C21.4664 3.31491 17.9833 2.45255 14.1524 2.45255H14.1505C10.3204 2.45255 6.83738 3.31491 4.30391 4.70766C1.64545 6.17001 0 8.23328 0 10.5514C0 12.8695 1.64545 14.9328 4.30391 16.3951C6.83738 17.7888 10.3204 18.6503 14.1514 18.6503H14.1533C17.9843 18.6503 21.4664 17.7879 23.9999 16.3951C26.6593 14.9328 28.3038 12.8695 28.3047 10.5523C28.3047 8.23328 26.6593 6.17001 24.0008 4.70766H23.9999ZM26.9232 10.5514C26.9232 12.3222 25.5539 13.9604 23.3413 15.1773C21.0028 16.4629 17.7557 17.2584 14.1524 17.2584H14.1505C10.548 17.2584 7.30005 16.4629 4.96153 15.1773C2.74894 13.9604 1.38054 12.3231 1.3796 10.5523C1.3796 8.7806 2.74894 7.1424 4.96153 5.9255C7.29911 4.63995 10.5471 3.84436 14.1496 3.84436H14.1514C17.7548 3.84436 21.0028 4.63995 23.3413 5.9255C25.5539 7.1424 26.9223 8.7806 26.9232 10.5514Z"
                fill="currentColor" />
            <path fill-rule="evenodd" clip-rule="evenodd"
                d="M11.2065 14.8704V9.61534C9.38757 9.88242 7.4259 10.4598 7.4259 10.4598V7.37904C9.96497 6.72451 12.282 6.48188 14.1486 6.49787C15.864 6.51197 18.4916 6.72451 21.0307 7.37904V10.4598C21.0307 10.4598 19.069 9.88148 17.2501 9.61534V14.8704H11.2065Z"
                fill="currentColor" />
            <path
                d="M42.7316 6.14054C41.7107 7.16521 41.2003 8.4517 41.2003 9.99849C41.2003 11.5453 41.7107 12.8348 42.7316 13.864C43.7524 14.8932 45.03 15.4078 46.5657 15.4078C47.5165 15.4078 48.4149 15.2061 49.2612 14.8014C50.1074 14.3966 50.7178 13.9874 51.0924 13.5751L51.6551 12.9687L54.5997 16.2143C54.5296 16.3196 54.4266 16.458 54.2923 16.6296C54.1565 16.8011 53.843 17.105 53.3505 17.5399C52.858 17.9747 52.3252 18.3599 51.7536 18.694C51.182 19.028 50.4268 19.3289 49.4895 19.5983C48.5522 19.8661 47.5761 20 46.5643 20C43.651 20 41.1794 19.0175 39.1512 17.0509C37.1229 15.0858 36.1095 12.7355 36.1095 10C36.1095 7.26452 37.1229 4.91423 39.1512 2.94914C41.1794 0.98405 43.6495 0 46.5643 0C47.5672 0 48.5224 0.13241 49.4298 0.395727C50.3372 0.659043 51.0849 0.976527 51.6745 1.34517C52.264 1.71381 52.7774 2.08396 53.2192 2.4526C53.6595 2.82125 53.9759 3.13873 54.1684 3.40205L54.4699 3.78423L51.382 7.02979C51.3297 6.95907 51.2596 6.86879 51.173 6.75895C51.0849 6.64911 50.885 6.45501 50.5715 6.17815C50.2581 5.90129 49.9298 5.65453 49.5895 5.43936C49.2492 5.2242 48.8015 5.03009 48.2478 4.85856C47.6941 4.68703 47.1329 4.60126 46.5657 4.60126C45.03 4.60126 43.7524 5.11435 42.7316 6.13753V6.14054Z"
                fill="currentColor" />
            <path d="M70.6819 19.4595H57.2825V0.541321H62.3733V14.8672H70.6819V19.458V19.4595Z"
                fill="currentColor" />
            <path
                d="M78.265 14.3135C78.95 15.0433 79.7679 15.4089 80.7186 15.4089C81.6693 15.4089 82.4872 15.0448 83.1722 14.3135C83.8573 13.5838 84.199 12.687 84.199 11.6217V0.541321H89.2899V11.6232C89.2899 13.9975 88.478 15.9882 86.8556 17.5922C85.2333 19.1977 83.1872 19.9996 80.7186 19.9996C78.2501 19.9996 76.2039 19.1977 74.5816 17.5922C72.9593 15.9867 72.1473 13.9975 72.1473 11.6232V0.541321H77.2382V11.6232C77.2382 12.687 77.5799 13.5837 78.265 14.315V14.3135Z"
                fill="currentColor" />
            <path
                d="M102.413 19.4595H93.4374V0.541321H101.877C103.806 0.541321 105.358 1.03786 106.535 2.03244C107.713 3.02703 108.302 4.19615 108.302 5.54132C108.302 6.06043 108.219 6.55547 108.053 7.02492C107.887 7.49588 107.687 7.87205 107.452 8.15342C107.216 8.43479 106.983 8.67855 106.752 8.88619C106.52 9.09233 106.317 9.23979 106.143 9.32856L105.894 9.46097C105.98 9.49558 106.101 9.54674 106.253 9.61294C106.405 9.67915 106.674 9.83262 107.058 10.0749C107.441 10.3171 107.782 10.591 108.079 10.8994C108.374 11.2079 108.643 11.6292 108.883 12.1664C109.123 12.7035 109.243 13.2873 109.243 13.9208C109.243 15.3984 108.604 16.6909 107.326 17.7998C106.049 18.9073 104.41 19.4625 102.413 19.4625V19.4595ZM101.34 4.60542H98.5267V7.83744H101.34C101.871 7.83744 102.295 7.68998 102.609 7.39507C102.922 7.10015 103.08 6.70894 103.08 6.22143C103.08 5.73392 102.924 5.34271 102.609 5.04779C102.295 4.75288 101.871 4.60542 101.34 4.60542ZM98.5267 15.4104H102.007C102.6 15.4104 103.085 15.2299 103.459 14.8702C103.834 14.5091 104.022 14.0592 104.022 13.5175C104.022 12.9759 103.834 12.526 103.459 12.1649C103.085 11.8037 102.6 11.6247 102.007 11.6247H98.5267V15.4104Z"
                fill="currentColor" />
        </svg>
        <symbol id="model" width="25" height="24" viewBox="0 0 25 24" xmlns="http://www.w3.org/2000/svg">
            <path d="M15.5001 3.75C15.5001 3.15666 15.3241 2.57664 14.9945 2.08329C14.6648 1.58994 14.1963 1.20543 13.6481 0.978363C13.0999 0.7513 12.4967 0.69189 11.9148 0.807646C11.3328 0.923401 10.7983 1.20912 10.3787 1.62868C9.95918 2.04824 9.67346 2.58279 9.5577 3.16473C9.44195 3.74667 9.50136 4.34987 9.72842 4.89805C9.95548 5.44623 10.34 5.91477 10.8334 6.24441C11.3267 6.57405 11.9067 6.75 12.5001 6.75C13.2957 6.75 14.0588 6.43393 14.6214 5.87132C15.184 5.30871 15.5001 4.54565 15.5001 3.75ZM12.5001 5.25C12.2034 5.25 11.9134 5.16203 11.6667 4.99721C11.42 4.83238 11.2278 4.59812 11.1142 4.32403C11.0007 4.04994 10.971 3.74834 11.0289 3.45737C11.0868 3.16639 11.2296 2.89912 11.4394 2.68934C11.6492 2.47956 11.9165 2.3367 12.2074 2.27882C12.4984 2.22095 12.8 2.25065 13.0741 2.36418C13.3482 2.47771 13.5824 2.66997 13.7473 2.91665C13.9121 3.16332 14.0001 3.45333 14.0001 3.75C14.0001 4.14783 13.842 4.52936 13.5607 4.81066C13.2794 5.09197 12.8979 5.25 12.5001 5.25ZM20.9694 12.5672L16.7347 7.76531C16.4532 7.44616 16.1069 7.19057 15.719 7.01552C15.3311 6.84046 14.9103 6.74996 14.4847 6.75H10.5154C10.0898 6.74996 9.66904 6.84046 9.28111 7.01552C8.89318 7.19057 8.54693 7.44616 8.26537 7.76531L4.03069 12.5672C3.68679 12.9189 3.49488 13.3917 3.49635 13.8836C3.49781 14.3755 3.69252 14.8471 4.0385 15.1968C4.38448 15.5465 4.85402 15.7462 5.34588 15.7528C5.83774 15.7595 6.31253 15.5726 6.66787 15.2325L8.196 14.0063L6.64537 19.9013C6.44 20.3544 6.42304 20.8706 6.59824 21.3362C6.77344 21.8019 7.12645 22.1788 7.57959 22.3842C8.03274 22.5896 8.54891 22.6066 9.01456 22.4314C9.48021 22.2562 9.85718 21.9032 10.0626 21.45L12.5001 17.2434L14.9376 21.45C15.1521 21.8879 15.5289 22.2251 15.9878 22.3898C16.4468 22.5546 16.952 22.5341 17.3961 22.3326C17.8402 22.1311 18.1883 21.7645 18.3666 21.3106C18.5448 20.8566 18.5393 20.3511 18.351 19.9013L16.8041 14.0063L18.3322 15.2325C18.6876 15.5726 19.1624 15.7595 19.6542 15.7528C20.1461 15.7462 20.6156 15.5465 20.9616 15.1968C21.3076 14.8471 21.5023 14.3755 21.5038 13.8836C21.5052 13.3917 21.3133 12.9189 20.9694 12.5672ZM19.8904 14.1394C19.8555 14.1742 19.8142 14.2019 19.7687 14.2208C19.7231 14.2396 19.6743 14.2494 19.6251 14.2494C19.5758 14.2494 19.527 14.2396 19.4815 14.2208C19.4359 14.2019 19.3946 14.1742 19.3597 14.1394C19.3401 14.1206 19.3204 14.1019 19.2988 14.085L15.9688 11.415C15.8459 11.3169 15.6953 11.2599 15.5382 11.2521C15.3812 11.2443 15.2256 11.286 15.0936 11.3714C14.9616 11.4568 14.8597 11.5815 14.8024 11.728C14.7452 11.8744 14.7354 12.0352 14.7744 12.1875L16.9194 20.3438C16.9305 20.3872 16.9455 20.4296 16.9644 20.4703C16.9861 20.5151 16.9986 20.5636 17.0013 20.6133C17.004 20.6629 16.9968 20.7126 16.9801 20.7594C16.9635 20.8062 16.9377 20.8492 16.9042 20.886C16.8708 20.9228 16.8304 20.9525 16.7853 20.9735C16.7403 20.9945 16.6915 21.0063 16.6418 21.0083C16.5922 21.0103 16.5426 21.0024 16.4961 20.9851C16.4495 20.9677 16.4068 20.9413 16.3705 20.9073C16.3343 20.8734 16.3051 20.8325 16.2847 20.7872C16.2756 20.7669 16.2652 20.7472 16.2538 20.7281L13.1488 15.375C13.0829 15.2613 12.9883 15.167 12.8744 15.1014C12.7605 15.0358 12.6315 15.0013 12.5001 15.0013C12.3687 15.0013 12.2396 15.0358 12.1257 15.1014C12.0119 15.167 11.9172 15.2613 11.8513 15.375L8.75006 20.7234C8.73864 20.7425 8.72831 20.7622 8.71912 20.7825C8.6983 20.8272 8.66887 20.8673 8.63251 20.9006C8.59615 20.9339 8.55359 20.9597 8.50725 20.9766C8.43751 21.0021 8.36175 21.0064 8.28958 20.9889C8.21741 20.9713 8.15208 20.9327 8.10187 20.878C8.05166 20.8233 8.01883 20.7548 8.00755 20.6814C7.99626 20.608 8.00704 20.5329 8.0385 20.4656C8.05739 20.4249 8.07245 20.3826 8.0835 20.3391L10.2257 12.1875C10.2648 12.0352 10.255 11.8744 10.1977 11.728C10.1404 11.5815 10.0386 11.4568 9.90652 11.3714C9.77448 11.286 9.61894 11.2443 9.46189 11.2521C9.30483 11.2599 9.15421 11.3169 9.03131 11.415L5.70131 14.085C5.67975 14.1019 5.66006 14.1206 5.64037 14.1394C5.60593 14.1757 5.56456 14.2047 5.51872 14.2248C5.47287 14.2449 5.42346 14.2556 5.37341 14.2563C5.32336 14.257 5.27368 14.2476 5.2273 14.2288C5.18092 14.21 5.13878 14.1821 5.10335 14.1467C5.06793 14.1114 5.03994 14.0693 5.02104 14.0229C5.00214 13.9766 4.99271 13.9269 4.99331 13.8769C4.99391 13.8268 5.00452 13.7774 5.02451 13.7315C5.04451 13.6856 5.07349 13.6442 5.10975 13.6097C5.121 13.5984 5.13131 13.5872 5.14162 13.575L9.39037 8.75719C9.5312 8.5977 9.70434 8.46999 9.8983 8.38255C10.0923 8.2951 10.3026 8.24992 10.5154 8.25H14.4847C14.6975 8.24992 14.9079 8.2951 15.1018 8.38255C15.2958 8.46999 15.4689 8.5977 15.6097 8.75719L19.8585 13.575C19.8688 13.5872 19.8791 13.5984 19.8904 13.6097C19.9605 13.68 19.9999 13.7752 19.9999 13.8745C19.9999 13.9738 19.9605 14.0691 19.8904 14.1394Z" />
        </symbol>
        <symbol id="bust" width="24" height="24" viewBox="0 0 24 24" xmlns="http://www.w3.org/2000/svg">
            <path d="M23.2115 5.73938L18.359 3.09375C18.2491 3.03292 18.1256 3.00068 17.9999 3H14.9999C14.801 3 14.6103 3.07902 14.4696 3.21967C14.329 3.36032 14.2499 3.55109 14.2499 3.75C14.2499 4.34674 14.0129 4.91903 13.5909 5.34099C13.169 5.76295 12.5967 6 11.9999 6C11.4032 6 10.8309 5.76295 10.4089 5.34099C9.98699 4.91903 9.74994 4.34674 9.74994 3.75C9.74994 3.55109 9.67092 3.36032 9.53027 3.21967C9.38962 3.07902 9.19885 3 8.99994 3H5.99994C5.87397 3.00052 5.75016 3.03276 5.63994 3.09375L0.788376 5.73938C0.442533 5.92214 0.183281 6.2346 0.0674665 6.60823C-0.0483479 6.98186 -0.0112725 7.38617 0.170563 7.7325L1.97713 11.1834C2.10848 11.4315 2.30538 11.6389 2.54639 11.7828C2.78739 11.9268 3.06327 12.0019 3.344 12H5.24994V19.5C5.24994 19.8978 5.40797 20.2794 5.68928 20.5607C5.97058 20.842 6.35211 21 6.74994 21H17.2499C17.6478 21 18.0293 20.842 18.3106 20.5607C18.5919 20.2794 18.7499 19.8978 18.7499 19.5V12H20.6568C20.9375 12.0019 21.2134 11.9268 21.4544 11.7828C21.6954 11.6389 21.8923 11.4315 22.0237 11.1834L23.8303 7.7325C24.012 7.38605 24.049 6.98165 23.933 6.60801C23.817 6.23437 23.5575 5.92198 23.2115 5.73938ZM3.344 10.5C3.33014 10.5007 3.31651 10.4963 3.30556 10.4878L1.50838 7.05563L5.24994 5.01375V10.5H3.344ZM17.2499 19.5H6.74994V4.5H8.32494C8.49797 5.34671 8.95815 6.10767 9.62763 6.65417C10.2971 7.20066 11.1348 7.49916 11.999 7.49916C12.8632 7.49916 13.7009 7.20066 14.3704 6.65417C15.0399 6.10767 15.5 5.34671 15.6731 4.5H17.2499V19.5ZM20.6953 10.4869C20.6901 10.4916 20.684 10.4951 20.6774 10.4974C20.6708 10.4996 20.6638 10.5005 20.6568 10.5H18.7499V5.01375L22.4924 7.05563L20.6953 10.4869Z" />
        </symbol>
    </defs>
</svg>
